<svg width="100%" height="100%" viewBox="0 0 262 479" fill="none" xmlns="http://www.w3.org/2000/svg">
<rect x="3.05176e-05" width="262" height="479" rx="20" fill="white"/>
<rect x="24" y="399" width="216" height="36" rx="8" fill="currentColor"/>
<path d="M119.058 412.273V421H117.465L113.668 415.507H113.604V421H111.759V412.273H113.378L117.145 417.761H117.222V412.273H119.058ZM123.532 421.128C122.858 421.128 122.279 420.991 121.793 420.719C121.31 420.443 120.938 420.054 120.677 419.551C120.415 419.045 120.284 418.447 120.284 417.757C120.284 417.084 120.415 416.493 120.677 415.984C120.938 415.476 121.306 415.08 121.78 414.795C122.257 414.511 122.817 414.369 123.459 414.369C123.891 414.369 124.293 414.439 124.665 414.578C125.04 414.714 125.367 414.92 125.645 415.196C125.927 415.472 126.145 415.818 126.302 416.236C126.458 416.651 126.536 417.136 126.536 417.693V418.192H121.009V417.067H124.827C124.827 416.805 124.77 416.574 124.657 416.372C124.543 416.17 124.385 416.013 124.184 415.899C123.985 415.783 123.753 415.724 123.489 415.724C123.213 415.724 122.969 415.788 122.756 415.916C122.546 416.041 122.381 416.21 122.262 416.423C122.142 416.634 122.081 416.868 122.079 417.126V418.196C122.079 418.52 122.138 418.8 122.257 419.036C122.38 419.271 122.552 419.453 122.773 419.581C122.995 419.709 123.257 419.773 123.561 419.773C123.763 419.773 123.948 419.744 124.115 419.688C124.283 419.631 124.427 419.545 124.546 419.432C124.665 419.318 124.756 419.179 124.819 419.014L126.498 419.125C126.412 419.528 126.238 419.881 125.973 420.182C125.712 420.48 125.374 420.713 124.959 420.881C124.547 421.045 124.071 421.128 123.532 421.128ZM129.12 414.455L130.322 416.743L131.554 414.455H133.416L131.52 417.727L133.467 421H131.613L130.322 418.737L129.052 421H127.177L129.12 417.727L127.245 414.455H129.12ZM137.976 414.455V415.818H134.034V414.455H137.976ZM134.929 412.886H136.744V418.989C136.744 419.156 136.77 419.287 136.821 419.381C136.872 419.472 136.943 419.536 137.034 419.572C137.128 419.609 137.235 419.628 137.358 419.628C137.443 419.628 137.528 419.621 137.613 419.607C137.699 419.589 137.764 419.577 137.809 419.568L138.095 420.919C138.004 420.947 137.876 420.98 137.711 421.017C137.547 421.057 137.346 421.081 137.11 421.089C136.673 421.107 136.289 421.048 135.96 420.915C135.633 420.781 135.379 420.574 135.197 420.293C135.015 420.011 134.926 419.656 134.929 419.227V412.886ZM147.185 421.477L146.197 420.497L148.792 417.902H142.711V416.462H148.792L146.197 413.871L147.185 412.886L151.481 417.182L147.185 421.477Z" fill="white"/>
<path d="M30.9283 446.455H31.9191V450.76C31.9191 451.218 31.8115 451.624 31.5963 451.977C31.3811 452.329 31.0785 452.606 30.6886 452.808C30.2987 453.009 29.8417 453.109 29.3175 453.109C28.7955 453.109 28.3395 453.009 27.9496 452.808C27.5597 452.606 27.2571 452.329 27.0419 451.977C26.8267 451.624 26.7191 451.218 26.7191 450.76V446.455H27.7067V450.68C27.7067 450.976 27.7717 451.239 27.9017 451.469C28.0338 451.699 28.2202 451.88 28.461 452.012C28.7017 452.142 28.9872 452.207 29.3175 452.207C29.6499 452.207 29.9365 452.142 30.1772 452.012C30.4201 451.88 30.6055 451.699 30.7333 451.469C30.8633 451.239 30.9283 450.976 30.9283 450.68V446.455ZM36.9248 448.174C36.8907 447.871 36.7501 447.637 36.503 447.471C36.2558 447.303 35.9447 447.218 35.5697 447.218C35.3013 447.218 35.069 447.261 34.873 447.346C34.677 447.429 34.5246 447.544 34.416 447.691C34.3094 447.836 34.2562 448.001 34.2562 448.187C34.2562 448.342 34.2924 448.477 34.3648 448.589C34.4394 448.702 34.5363 448.797 34.6557 448.874C34.7771 448.949 34.9071 449.011 35.0456 449.062C35.1841 449.112 35.3172 449.152 35.4451 449.184L36.0843 449.35C36.2931 449.401 36.5072 449.471 36.7267 449.558C36.9461 449.645 37.1496 449.76 37.3371 449.903C37.5246 450.046 37.6759 450.223 37.791 450.434C37.9081 450.645 37.9667 450.897 37.9667 451.191C37.9667 451.562 37.8709 451.891 37.6791 452.179C37.4895 452.466 37.2135 452.693 36.8513 452.859C36.4912 453.026 36.0555 453.109 35.5442 453.109C35.0541 453.109 34.6301 453.031 34.2721 452.875C33.9142 452.72 33.634 452.499 33.4316 452.214C33.2292 451.926 33.1173 451.585 33.096 451.191H34.0868C34.1059 451.428 34.1826 451.625 34.3169 451.782C34.4532 451.938 34.6269 452.054 34.8378 452.131C35.0509 452.205 35.2842 452.243 35.5378 452.243C35.8169 452.243 36.0651 452.199 36.2824 452.112C36.5019 452.022 36.6745 451.898 36.8002 451.741C36.9259 451.581 36.9888 451.395 36.9888 451.181C36.9888 450.988 36.9334 450.829 36.8226 450.705C36.7139 450.582 36.5658 450.479 36.3783 450.398C36.1929 450.317 35.9831 450.246 35.7487 450.184L34.9753 449.973C34.4511 449.831 34.0356 449.621 33.7288 449.344C33.4241 449.067 33.2718 448.7 33.2718 448.244C33.2718 447.867 33.3741 447.538 33.5786 447.257C33.7831 446.975 34.0601 446.757 34.4096 446.602C34.759 446.444 35.1532 446.365 35.5921 446.365C36.0353 446.365 36.4263 446.443 36.765 446.598C37.1059 446.754 37.3744 446.968 37.5704 447.241C37.7665 447.511 37.8687 447.822 37.8773 448.174H36.9248ZM41.2658 453H39.1469V446.455H41.3329C41.9743 446.455 42.5251 446.586 42.9853 446.848C43.4455 447.108 43.7981 447.482 44.0432 447.969C44.2903 448.455 44.4139 449.038 44.4139 449.718C44.4139 450.4 44.2893 450.985 44.04 451.475C43.7928 451.966 43.4349 452.343 42.9661 452.607C42.4974 452.869 41.9306 453 41.2658 453ZM40.1344 452.137H41.2115C41.7101 452.137 42.1245 452.043 42.4548 451.856C42.785 451.666 43.0322 451.392 43.1962 451.034C43.3603 450.674 43.4423 450.235 43.4423 449.718C43.4423 449.204 43.3603 448.768 43.1962 448.411C43.0343 448.053 42.7925 447.781 42.4707 447.596C42.149 447.41 41.7495 447.317 41.2722 447.317H40.1344V452.137Z" fill="currentColor"/>
<path d="M143.719 453V446.455H147.778V447.305H144.707V449.299H147.487V450.146H144.707V453H143.719ZM148.728 453H147.68L150.035 446.455H151.176L153.532 453H152.483L150.633 447.643H150.582L148.728 453ZM148.904 450.437H152.304V451.268H148.904V450.437ZM156.576 450.878H157.548L158.231 451.77L158.554 452.166L159.644 453.588H158.634L157.905 452.639L157.656 452.294L156.576 450.878ZM159.855 449.727C159.855 450.426 159.727 451.027 159.472 451.53C159.216 452.031 158.865 452.416 158.42 452.687C157.977 452.955 157.473 453.089 156.908 453.089C156.342 453.089 155.836 452.955 155.39 452.687C154.947 452.416 154.598 452.029 154.342 451.527C154.086 451.024 153.958 450.424 153.958 449.727C153.958 449.028 154.086 448.429 154.342 447.928C154.598 447.425 154.947 447.039 155.39 446.771C155.836 446.5 156.342 446.365 156.908 446.365C157.473 446.365 157.977 446.5 158.42 446.771C158.865 447.039 159.216 447.425 159.472 447.928C159.727 448.429 159.855 449.028 159.855 449.727ZM158.877 449.727C158.877 449.195 158.791 448.746 158.618 448.382C158.448 448.015 158.213 447.738 157.915 447.551C157.619 447.361 157.283 447.266 156.908 447.266C156.531 447.266 156.195 447.361 155.898 447.551C155.602 447.738 155.368 448.015 155.195 448.382C155.025 448.746 154.94 449.195 154.94 449.727C154.94 450.26 155.025 450.71 155.195 451.076C155.368 451.44 155.602 451.717 155.898 451.907C156.195 452.094 156.531 452.188 156.908 452.188C157.283 452.188 157.619 452.094 157.915 451.907C158.213 451.717 158.448 451.44 158.618 451.076C158.791 450.71 158.877 450.26 158.877 449.727ZM173.699 453V446.455H176.032C176.541 446.455 176.963 446.547 177.297 446.733C177.632 446.918 177.882 447.172 178.048 447.493C178.215 447.813 178.298 448.173 178.298 448.574C178.298 448.976 178.214 449.338 178.045 449.66C177.879 449.98 177.628 450.233 177.291 450.421C176.956 450.606 176.536 450.699 176.029 450.699H174.424V449.862H175.939C176.261 449.862 176.522 449.806 176.722 449.695C176.922 449.582 177.069 449.429 177.163 449.235C177.257 449.041 177.304 448.821 177.304 448.574C177.304 448.326 177.257 448.107 177.163 447.915C177.069 447.723 176.921 447.573 176.719 447.464C176.519 447.356 176.254 447.301 175.926 447.301H174.686V453H173.699ZM179.379 453V448.091H180.302V448.871H180.354C180.443 448.607 180.601 448.399 180.827 448.248C181.055 448.094 181.312 448.017 181.6 448.017C181.66 448.017 181.73 448.02 181.811 448.024C181.894 448.028 181.959 448.033 182.006 448.04V448.954C181.968 448.943 181.899 448.931 181.801 448.919C181.703 448.904 181.605 448.896 181.507 448.896C181.281 448.896 181.08 448.944 180.903 449.04C180.729 449.134 180.59 449.265 180.488 449.433C180.386 449.599 180.334 449.789 180.334 450.002V453H179.379ZM182.833 453V448.091H183.788V453H182.833ZM183.315 447.333C183.149 447.333 183.007 447.278 182.887 447.167C182.77 447.054 182.711 446.92 182.711 446.765C182.711 446.607 182.77 446.473 182.887 446.362C183.007 446.249 183.149 446.192 183.315 446.192C183.482 446.192 183.623 446.249 183.741 446.362C183.86 446.473 183.92 446.607 183.92 446.765C183.92 446.92 183.86 447.054 183.741 447.167C183.623 447.278 183.482 447.333 183.315 447.333ZM189.274 448.091L187.493 453H186.471L184.687 448.091H185.713L186.957 451.869H187.008L188.248 448.091H189.274ZM191.46 453.109C191.149 453.109 190.867 453.051 190.616 452.936C190.365 452.819 190.165 452.65 190.018 452.428C189.873 452.206 189.801 451.935 189.801 451.613C189.801 451.336 189.854 451.108 189.961 450.929C190.067 450.75 190.211 450.608 190.392 450.504C190.573 450.4 190.776 450.321 190.999 450.267C191.223 450.214 191.451 450.174 191.683 450.146C191.977 450.112 192.216 450.084 192.399 450.063C192.583 450.039 192.716 450.002 192.799 449.951C192.882 449.9 192.924 449.817 192.924 449.702V449.679C192.924 449.4 192.845 449.184 192.687 449.031C192.531 448.877 192.299 448.8 191.99 448.8C191.669 448.8 191.415 448.872 191.23 449.015C191.046 449.155 190.92 449.312 190.849 449.484L189.951 449.28C190.058 448.982 190.213 448.741 190.418 448.558C190.624 448.372 190.862 448.238 191.131 448.155C191.399 448.07 191.681 448.027 191.977 448.027C192.174 448.027 192.381 448.05 192.601 448.097C192.822 448.142 193.029 448.225 193.221 448.347C193.415 448.468 193.573 448.642 193.697 448.868C193.821 449.091 193.882 449.382 193.882 449.74V453H192.949V452.329H192.911C192.849 452.452 192.756 452.574 192.633 452.693C192.509 452.812 192.35 452.912 192.156 452.99C191.963 453.069 191.73 453.109 191.46 453.109ZM191.667 452.342C191.932 452.342 192.158 452.289 192.345 452.185C192.535 452.081 192.678 451.944 192.776 451.776C192.877 451.605 192.927 451.423 192.927 451.229V450.597C192.893 450.631 192.827 450.663 192.729 450.692C192.633 450.72 192.523 450.745 192.399 450.766C192.276 450.785 192.155 450.803 192.038 450.82C191.921 450.835 191.823 450.848 191.744 450.859C191.559 450.882 191.389 450.922 191.236 450.977C191.085 451.032 190.963 451.112 190.872 451.217C190.782 451.319 190.737 451.455 190.737 451.626C190.737 451.862 190.825 452.041 190.999 452.163C191.174 452.282 191.397 452.342 191.667 452.342ZM197.223 453.099C196.748 453.099 196.339 452.991 195.996 452.776C195.655 452.559 195.393 452.26 195.209 451.878C195.026 451.497 194.935 451.06 194.935 450.568C194.935 450.069 195.028 449.629 195.216 449.248C195.403 448.864 195.668 448.565 196.008 448.35C196.349 448.135 196.751 448.027 197.213 448.027C197.586 448.027 197.919 448.096 198.211 448.235C198.502 448.371 198.738 448.563 198.917 448.81C199.098 449.057 199.206 449.346 199.24 449.676H198.31C198.258 449.446 198.141 449.248 197.958 449.082C197.777 448.915 197.534 448.832 197.229 448.832C196.963 448.832 196.73 448.903 196.529 449.043C196.331 449.182 196.177 449.38 196.066 449.638C195.955 449.893 195.9 450.196 195.9 450.545C195.9 450.903 195.954 451.212 196.063 451.472C196.171 451.732 196.325 451.934 196.523 452.076C196.723 452.219 196.959 452.29 197.229 452.29C197.41 452.29 197.575 452.257 197.722 452.191C197.871 452.123 197.995 452.026 198.095 451.901C198.198 451.775 198.269 451.624 198.31 451.447H199.24C199.206 451.764 199.102 452.048 198.93 452.297C198.757 452.546 198.526 452.742 198.236 452.885C197.948 453.028 197.611 453.099 197.223 453.099ZM200.866 454.841C200.723 454.841 200.593 454.829 200.476 454.806C200.359 454.784 200.271 454.761 200.214 454.735L200.444 453.952C200.618 453.999 200.774 454.02 200.91 454.013C201.047 454.007 201.167 453.956 201.272 453.86C201.378 453.764 201.472 453.607 201.553 453.39L201.671 453.064L199.875 448.091H200.898L202.141 451.901H202.192L203.435 448.091H204.461L202.438 453.655C202.344 453.911 202.225 454.127 202.08 454.304C201.935 454.483 201.763 454.617 201.562 454.707C201.362 454.796 201.13 454.841 200.866 454.841ZM209.646 453.093C209.207 453.093 208.829 453.013 208.511 452.853C208.196 452.693 207.953 452.476 207.783 452.201C207.612 451.924 207.527 451.611 207.527 451.261C207.527 450.995 207.582 450.759 207.693 450.552C207.804 450.343 207.958 450.15 208.157 449.973C208.355 449.797 208.584 449.619 208.844 449.44L209.898 448.695C210.077 448.578 210.217 448.454 210.317 448.324C210.417 448.192 210.467 448.029 210.467 447.835C210.467 447.682 210.401 447.535 210.269 447.394C210.137 447.254 209.96 447.183 209.739 447.183C209.585 447.183 209.45 447.221 209.333 447.295C209.218 447.37 209.127 447.466 209.061 447.583C208.997 447.698 208.965 447.819 208.965 447.947C208.965 448.096 209.006 448.246 209.087 448.398C209.17 448.549 209.276 448.706 209.406 448.868C209.536 449.027 209.673 449.194 209.815 449.366L212.855 453H211.774L209.259 450.044C209.048 449.794 208.852 449.56 208.671 449.341C208.49 449.119 208.343 448.895 208.23 448.669C208.119 448.441 208.064 448.195 208.064 447.931C208.064 447.631 208.132 447.364 208.268 447.132C208.407 446.898 208.6 446.714 208.847 446.582C209.094 446.45 209.384 446.384 209.716 446.384C210.053 446.384 210.342 446.45 210.582 446.582C210.825 446.712 211.012 446.886 211.142 447.103C211.274 447.319 211.34 447.554 211.34 447.81C211.34 448.121 211.262 448.396 211.106 448.634C210.953 448.871 210.741 449.088 210.47 449.286L209.157 450.255C208.901 450.442 208.723 450.627 208.623 450.811C208.525 450.992 208.476 451.134 208.476 451.236C208.476 451.423 208.524 451.597 208.62 451.757C208.718 451.917 208.854 452.044 209.029 452.14C209.206 452.236 209.413 452.284 209.649 452.284C209.892 452.284 210.128 452.232 210.359 452.127C210.591 452.021 210.801 451.869 210.988 451.67C211.178 451.472 211.328 451.235 211.439 450.958C211.55 450.681 211.605 450.371 211.605 450.028H212.468C212.468 450.45 212.42 450.806 212.324 451.098C212.228 451.388 212.112 451.625 211.976 451.808C211.842 451.989 211.715 452.131 211.595 452.233C211.557 452.267 211.521 452.301 211.487 452.335C211.453 452.369 211.416 452.403 211.378 452.438C211.157 452.661 210.888 452.826 210.573 452.933C210.26 453.039 209.951 453.093 209.646 453.093ZM216.062 453V446.455H217.049V452.15H220.015V453H216.062ZM223.181 453.099C222.697 453.099 222.281 452.996 221.931 452.789C221.584 452.58 221.316 452.287 221.126 451.91C220.939 451.531 220.845 451.087 220.845 450.577C220.845 450.075 220.939 449.631 221.126 449.248C221.316 448.864 221.58 448.565 221.919 448.35C222.26 448.135 222.658 448.027 223.114 448.027C223.391 448.027 223.659 448.073 223.919 448.164C224.179 448.256 224.413 448.4 224.619 448.596C224.826 448.792 224.989 449.047 225.108 449.36C225.228 449.671 225.287 450.049 225.287 450.494V450.833H221.385V450.117H224.351C224.351 449.866 224.3 449.643 224.197 449.449C224.095 449.253 223.951 449.099 223.766 448.986C223.583 448.873 223.367 448.816 223.12 448.816C222.852 448.816 222.617 448.882 222.417 449.015C222.219 449.145 222.066 449.315 221.957 449.526C221.85 449.735 221.797 449.962 221.797 450.207V450.766C221.797 451.094 221.855 451.373 221.97 451.603C222.087 451.833 222.25 452.009 222.459 452.131C222.668 452.25 222.912 452.31 223.191 452.31C223.372 452.31 223.537 452.284 223.686 452.233C223.835 452.18 223.964 452.101 224.073 451.996C224.181 451.892 224.265 451.763 224.322 451.61L225.227 451.773C225.154 452.039 225.024 452.272 224.837 452.473C224.651 452.671 224.418 452.825 224.137 452.936C223.858 453.045 223.539 453.099 223.181 453.099ZM228.406 454.943C228.016 454.943 227.68 454.892 227.399 454.79C227.12 454.688 226.892 454.552 226.715 454.384C226.538 454.216 226.406 454.031 226.319 453.831L227.14 453.492C227.198 453.586 227.274 453.685 227.37 453.789C227.468 453.896 227.6 453.987 227.767 454.061C227.935 454.136 228.151 454.173 228.415 454.173C228.778 454.173 229.077 454.085 229.313 453.908C229.55 453.733 229.668 453.454 229.668 453.07V452.105H229.607C229.55 452.21 229.467 452.326 229.358 452.453C229.252 452.581 229.105 452.692 228.917 452.786C228.73 452.88 228.486 452.926 228.185 452.926C227.797 452.926 227.448 452.836 227.137 452.655C226.828 452.472 226.583 452.202 226.402 451.846C226.223 451.488 226.133 451.048 226.133 450.526C226.133 450.004 226.222 449.557 226.399 449.184C226.578 448.811 226.823 448.526 227.134 448.327C227.445 448.127 227.797 448.027 228.192 448.027C228.496 448.027 228.742 448.078 228.93 448.18C229.117 448.281 229.263 448.398 229.368 448.532C229.474 448.666 229.556 448.784 229.614 448.887H229.684V448.091H230.621V453.109C230.621 453.531 230.523 453.877 230.327 454.147C230.131 454.418 229.865 454.618 229.531 454.748C229.198 454.878 228.823 454.943 228.406 454.943ZM228.396 452.134C228.671 452.134 228.903 452.07 229.093 451.942C229.285 451.812 229.43 451.627 229.528 451.386C229.628 451.143 229.678 450.852 229.678 450.513C229.678 450.183 229.629 449.892 229.531 449.641C229.433 449.39 229.289 449.194 229.099 449.053C228.91 448.91 228.675 448.839 228.396 448.839C228.109 448.839 227.869 448.913 227.677 449.062C227.485 449.21 227.34 449.41 227.242 449.663C227.147 449.917 227.099 450.2 227.099 450.513C227.099 450.835 227.148 451.118 227.246 451.36C227.344 451.603 227.488 451.793 227.68 451.929C227.874 452.066 228.113 452.134 228.396 452.134ZM233.331 453.109C233.02 453.109 232.738 453.051 232.487 452.936C232.236 452.819 232.036 452.65 231.889 452.428C231.745 452.206 231.672 451.935 231.672 451.613C231.672 451.336 231.725 451.108 231.832 450.929C231.938 450.75 232.082 450.608 232.263 450.504C232.444 450.4 232.647 450.321 232.871 450.267C233.094 450.214 233.322 450.174 233.555 450.146C233.849 450.112 234.087 450.084 234.27 450.063C234.454 450.039 234.587 450.002 234.67 449.951C234.753 449.9 234.795 449.817 234.795 449.702V449.679C234.795 449.4 234.716 449.184 234.558 449.031C234.403 448.877 234.17 448.8 233.861 448.8C233.54 448.8 233.286 448.872 233.101 449.015C232.917 449.155 232.791 449.312 232.72 449.484L231.822 449.28C231.929 448.982 232.084 448.741 232.289 448.558C232.496 448.372 232.733 448.238 233.002 448.155C233.27 448.07 233.552 448.027 233.849 448.027C234.045 448.027 234.252 448.05 234.472 448.097C234.693 448.142 234.9 448.225 235.092 448.347C235.286 448.468 235.444 448.642 235.568 448.868C235.692 449.091 235.753 449.382 235.753 449.74V453H234.82V452.329H234.782C234.72 452.452 234.627 452.574 234.504 452.693C234.38 452.812 234.221 452.912 234.028 452.99C233.834 453.069 233.601 453.109 233.331 453.109ZM233.539 452.342C233.803 452.342 234.029 452.289 234.216 452.185C234.406 452.081 234.55 451.944 234.648 451.776C234.748 451.605 234.798 451.423 234.798 451.229V450.597C234.764 450.631 234.698 450.663 234.6 450.692C234.504 450.72 234.394 450.745 234.27 450.766C234.147 450.785 234.026 450.803 233.909 450.82C233.792 450.835 233.694 450.848 233.615 450.859C233.43 450.882 233.261 450.922 233.107 450.977C232.956 451.032 232.834 451.112 232.743 451.217C232.653 451.319 232.609 451.455 232.609 451.626C232.609 451.862 232.696 452.041 232.871 452.163C233.045 452.282 233.268 452.342 233.539 452.342ZM237.982 446.455V453H237.026V446.455H237.982Z" fill="currentColor"/>
<path d="M167.1 444.345V455.109H166.243V444.345H167.1Z" fill="#4F4F4F"/>
<rect x="87.0001" y="240" width="86" height="17" rx="3" fill="#BDBDBD"/>
<circle cx="131" cy="199" r="26" fill="currentColor" fill-opacity="0.15"/>
<mask id="mask0_1091_1462" style="mask-type:alpha" maskUnits="userSpaceOnUse" x="105" y="173" width="52" height="52">
<circle cx="131" cy="199" r="26" fill="currentColor"/>
</mask>
<g mask="url(#mask0_1091_1462)">
<path fill-rule="evenodd" clip-rule="evenodd" d="M125.036 224.854L117.95 231.939C117.169 232.72 115.902 232.72 115.121 231.939L100.586 217.404C99.8048 216.623 99.8048 215.356 100.586 214.575L115.121 200.04C115.902 199.259 117.169 199.259 117.95 200.04L125.036 207.126L140.575 191.586C141.357 190.805 142.623 190.805 143.404 191.586L166.393 214.575C167.174 215.356 167.174 216.623 166.393 217.404L143.404 240.393C142.623 241.174 141.357 241.174 140.575 240.393L125.036 224.854Z" fill="currentColor"/>
</g>
<circle cx="125.5" cy="188.5" r="4.5" fill="currentColor"/>
<g opacity="0.4">
<mask id="mask1_1091_1462" style="mask-type:alpha" maskUnits="userSpaceOnUse" x="214" y="167" width="48" height="123">
<rect x="262" y="290" width="48" height="123" transform="rotate(-180 262 290)" fill="url(#paint0_linear_1091_1462)"/>
</mask>
<g mask="url(#mask1_1091_1462)">
<rect x="217" y="240" width="86" height="17" rx="3" fill="#BDBDBD"/>
<circle cx="261" cy="199" r="26" fill="currentColor" fill-opacity="0.15"/>
<mask id="mask2_1091_1462" style="mask-type:alpha" maskUnits="userSpaceOnUse" x="235" y="173" width="52" height="52">
<circle cx="261" cy="199" r="26" fill="currentColor"/>
</mask>
<g mask="url(#mask2_1091_1462)">
<path fill-rule="evenodd" clip-rule="evenodd" d="M255.036 224.854L247.95 231.939C247.169 232.72 245.902 232.72 245.121 231.939L230.586 217.404C229.805 216.623 229.805 215.356 230.586 214.575L245.121 200.04C245.902 199.259 247.169 199.259 247.95 200.04L255.036 207.126L270.575 191.586C271.357 190.805 272.623 190.805 273.404 191.586L296.393 214.575C297.174 215.356 297.174 216.623 296.393 217.404L273.404 240.393C272.623 241.174 271.357 241.174 270.575 240.393L255.036 224.854Z" fill="currentColor"/>
</g>
<circle cx="254.5" cy="184.5" r="3.5" fill="currentColor"/>
</g>
</g>
<g opacity="0.4">
<mask id="mask3_1091_1462" style="mask-type:alpha" maskUnits="userSpaceOnUse" x="0" y="167" width="48" height="123">
<rect y="167" width="48" height="123" fill="url(#paint1_linear_1091_1462)"/>
</mask>
<g mask="url(#mask3_1091_1462)">
<rect x="-37" y="240" width="86" height="17" rx="3" fill="#BDBDBD"/>
<circle cx="7.00003" cy="199" r="26" fill="currentColor" fill-opacity="0.15"/>
<mask id="mask4_1091_1462" style="mask-type:alpha" maskUnits="userSpaceOnUse" x="-19" y="173" width="52" height="52">
<circle cx="7.00003" cy="199" r="26" fill="currentColor"/>
</mask>
<g mask="url(#mask4_1091_1462)">
<path fill-rule="evenodd" clip-rule="evenodd" d="M1.03555 224.854L-6.05026 231.939C-6.83127 232.72 -8.09763 232.72 -8.87863 231.939L-23.4142 217.404C-24.1952 216.623 -24.1952 215.356 -23.4142 214.575L-8.87863 200.04C-8.09763 199.259 -6.83127 199.259 -6.05026 200.04L1.03555 207.126L16.5754 191.586C17.3565 190.805 18.6228 190.805 19.4038 191.586L42.3935 214.575C43.1745 215.356 43.1745 216.623 42.3935 217.404L19.4038 240.393C18.6228 241.174 17.3565 241.174 16.5754 240.393L1.03555 224.854Z" fill="currentColor"/>
</g>
<circle cx="0.500031" cy="184.5" r="3.5" fill="currentColor"/>
</g>
</g>
<rect x="77" y="313" width="106" height="12" rx="3" fill="#E0E0E0"/>
<rect x="69" y="333" width="122" height="12" rx="3" fill="#E0E0E0"/>
<rect x="91" y="353" width="78" height="12" rx="3" fill="#E0E0E0"/>
<path d="M121.923 116.636V153H114.235V123.934H114.022L105.694 129.154V122.336L114.696 116.636H121.923ZM143.847 153.497C141.337 153.497 139.1 153.036 137.135 152.112C135.182 151.189 133.631 149.916 132.483 148.295C131.335 146.673 130.737 144.815 130.69 142.719H138.147C138.23 144.128 138.822 145.27 139.923 146.146C141.024 147.022 142.332 147.46 143.847 147.46C145.054 147.46 146.12 147.194 147.043 146.661C147.978 146.117 148.706 145.365 149.227 144.406C149.76 143.436 150.026 142.323 150.026 141.068C150.026 139.79 149.754 138.665 149.209 137.695C148.676 136.724 147.937 135.966 146.99 135.422C146.043 134.877 144.96 134.599 143.74 134.587C142.675 134.587 141.639 134.806 140.633 135.244C139.639 135.682 138.863 136.28 138.307 137.038L131.471 135.812L133.193 116.636H155.424V122.922H139.532L138.591 132.031H138.804C139.443 131.131 140.408 130.385 141.698 129.793C142.989 129.201 144.433 128.906 146.031 128.906C148.221 128.906 150.174 129.42 151.89 130.45C153.607 131.48 154.962 132.895 155.956 134.694C156.951 136.481 157.442 138.541 157.43 140.873C157.442 143.323 156.874 145.501 155.725 147.407C154.589 149.301 152.997 150.792 150.949 151.881C148.913 152.959 146.546 153.497 143.847 153.497Z" fill="black"/>
<circle cx="189.52" cy="134.48" r="9.47977" fill="currentColor" fill-opacity="0.15"/>
<path fill-rule="evenodd" clip-rule="evenodd" d="M189.52 129.74C189.811 129.74 190.047 129.976 190.047 130.267V133.953H193.733C194.024 133.953 194.26 134.189 194.26 134.48C194.26 134.771 194.024 135.006 193.733 135.006H190.047V138.693C190.047 138.984 189.811 139.22 189.52 139.22C189.229 139.22 188.994 138.984 188.994 138.693V135.006H185.307C185.016 135.006 184.78 134.771 184.78 134.48C184.78 134.189 185.016 133.953 185.307 133.953H188.994V130.267C188.994 129.976 189.229 129.74 189.52 129.74Z" fill="currentColor"/>
<circle cx="73.4798" cy="134.48" r="9.47977" fill="currentColor" fill-opacity="0.15"/>
<path fill-rule="evenodd" clip-rule="evenodd" d="M70.3199 134.141C70.3199 133.892 70.522 133.69 70.7713 133.69H76.1883C76.4376 133.69 76.6397 133.892 76.6397 134.141C76.6397 134.39 76.4376 134.593 76.1883 134.593H70.7713C70.522 134.593 70.3199 134.39 70.3199 134.141Z" fill="currentColor"/>
<defs>
<linearGradient id="paint0_linear_1091_1462" x1="310" y1="290" x2="262" y2="290" gradientUnits="userSpaceOnUse">
<stop stop-color="white"/>
<stop offset="1" stop-color="white" stop-opacity="0"/>
</linearGradient>
<linearGradient id="paint1_linear_1091_1462" x1="48" y1="167" x2="0" y2="167" gradientUnits="userSpaceOnUse">
<stop stop-color="white"/>
<stop offset="1" stop-color="white" stop-opacity="0"/>
</linearGradient>
</defs>
</svg>
