<svg width="100%" height="100%" viewBox="0 0 262 479" fill="none" xmlns="http://www.w3.org/2000/svg">
<rect width="262" height="479" rx="20" fill="white"/>
<rect x="24" y="143" width="104" height="52" rx="8" fill="currentColor"/>
<path d="M37.7074 167V165.67L40.8139 162.794C41.0781 162.538 41.2997 162.308 41.4787 162.104C41.6605 161.899 41.7983 161.699 41.892 161.503C41.9858 161.304 42.0327 161.089 42.0327 160.859C42.0327 160.604 41.9744 160.384 41.858 160.199C41.7415 160.011 41.5824 159.868 41.3807 159.768C41.179 159.666 40.9503 159.615 40.6946 159.615C40.4276 159.615 40.1946 159.669 39.9957 159.777C39.7969 159.885 39.6435 160.04 39.5355 160.241C39.4276 160.443 39.3736 160.683 39.3736 160.962H37.6222C37.6222 160.391 37.7514 159.895 38.0099 159.474C38.2685 159.054 38.6307 158.729 39.0966 158.499C39.5625 158.268 40.0994 158.153 40.7074 158.153C41.3324 158.153 41.8764 158.264 42.3395 158.486C42.8054 158.705 43.1676 159.009 43.4261 159.398C43.6847 159.787 43.8139 160.233 43.8139 160.736C43.8139 161.065 43.7486 161.391 43.6179 161.712C43.4901 162.033 43.2614 162.389 42.9318 162.781C42.6023 163.17 42.1378 163.638 41.5384 164.183L40.2642 165.432V165.491H43.929V167H37.7074ZM48.4535 167.119C47.8512 167.119 47.3143 167.009 46.8427 166.787C46.3739 166.565 46.0018 166.26 45.7262 165.871C45.4506 165.482 45.3072 165.036 45.2958 164.533H47.0856C47.1055 164.871 47.2475 165.145 47.5117 165.355C47.7759 165.565 48.0898 165.67 48.4535 165.67C48.7433 165.67 48.9989 165.607 49.2205 165.479C49.445 165.348 49.6197 165.168 49.7447 164.938C49.8725 164.705 49.9364 164.437 49.9364 164.136C49.9364 163.83 49.8711 163.56 49.7404 163.327C49.6126 163.094 49.435 162.912 49.2077 162.781C48.9805 162.651 48.7205 162.584 48.4279 162.581C48.1722 162.581 47.9237 162.634 47.6822 162.739C47.4435 162.844 47.2575 162.987 47.1239 163.169L45.4833 162.875L45.8967 158.273H51.2319V159.781H47.418L47.1921 161.967H47.2433C47.3967 161.751 47.6282 161.572 47.9379 161.43C48.2475 161.288 48.5941 161.217 48.9776 161.217C49.5032 161.217 49.9719 161.341 50.3839 161.588C50.7958 161.835 51.1211 162.175 51.3597 162.607C51.5984 163.036 51.7163 163.53 51.7134 164.089C51.7163 164.678 51.5799 165.2 51.3043 165.658C51.0316 166.112 50.6495 166.47 50.158 166.732C49.6694 166.99 49.1012 167.119 48.4535 167.119ZM55.4964 159.794V158.273H62.6641V159.794H59.9922V167H58.1683V159.794H55.4964ZM63.1307 167V160.455H64.8906V161.597H64.9588C65.0781 161.19 65.2784 160.884 65.5597 160.676C65.8409 160.466 66.1648 160.361 66.5312 160.361C66.6222 160.361 66.7202 160.366 66.8253 160.378C66.9304 160.389 67.0227 160.405 67.1023 160.425V162.036C67.017 162.01 66.8991 161.987 66.7486 161.967C66.598 161.947 66.4602 161.938 66.3352 161.938C66.0682 161.938 65.8295 161.996 65.6193 162.112C65.4119 162.226 65.2472 162.385 65.125 162.589C65.0057 162.794 64.946 163.03 64.946 163.297V167H63.1307ZM70.7191 167.128C70.0458 167.128 69.4663 166.991 68.9805 166.719C68.4975 166.443 68.1254 166.054 67.864 165.551C67.6026 165.045 67.4719 164.447 67.4719 163.757C67.4719 163.084 67.6026 162.493 67.864 161.984C68.1254 161.476 68.4933 161.08 68.9677 160.795C69.445 160.511 70.0046 160.369 70.6467 160.369C71.0785 160.369 71.4805 160.439 71.8526 160.578C72.2276 160.714 72.5543 160.92 72.8327 161.196C73.114 161.472 73.3327 161.818 73.489 162.236C73.6452 162.651 73.7234 163.136 73.7234 163.693V164.192H68.1964V163.067H72.0146C72.0146 162.805 71.9577 162.574 71.8441 162.372C71.7305 162.17 71.5728 162.013 71.3711 161.899C71.1722 161.783 70.9407 161.724 70.6765 161.724C70.4009 161.724 70.1566 161.788 69.9435 161.916C69.7333 162.041 69.5685 162.21 69.4492 162.423C69.3299 162.634 69.2688 162.868 69.266 163.126V164.196C69.266 164.52 69.3256 164.8 69.445 165.036C69.5671 165.271 69.739 165.453 69.9606 165.581C70.1822 165.709 70.445 165.773 70.7489 165.773C70.9506 165.773 71.1353 165.744 71.3029 165.688C71.4705 165.631 71.614 165.545 71.7333 165.432C71.8526 165.318 71.9435 165.179 72.006 165.014L73.685 165.125C73.5998 165.528 73.4251 165.881 73.1609 166.182C72.8995 166.48 72.5614 166.713 72.1467 166.881C71.7347 167.045 71.2589 167.128 70.7191 167.128ZM77.891 167.128C77.2177 167.128 76.6381 166.991 76.1523 166.719C75.6694 166.443 75.2972 166.054 75.0359 165.551C74.7745 165.045 74.6438 164.447 74.6438 163.757C74.6438 163.084 74.7745 162.493 75.0359 161.984C75.2972 161.476 75.6651 161.08 76.1396 160.795C76.6168 160.511 77.1765 160.369 77.8185 160.369C78.2504 160.369 78.6523 160.439 79.0245 160.578C79.3995 160.714 79.7262 160.92 80.0046 161.196C80.2859 161.472 80.5046 161.818 80.6609 162.236C80.8171 162.651 80.8952 163.136 80.8952 163.693V164.192H75.3683V163.067H79.1864C79.1864 162.805 79.1296 162.574 79.016 162.372C78.9023 162.17 78.7447 162.013 78.543 161.899C78.3441 161.783 78.1126 161.724 77.8484 161.724C77.5728 161.724 77.3285 161.788 77.1154 161.916C76.9052 162.041 76.7404 162.21 76.6211 162.423C76.5018 162.634 76.4407 162.868 76.4379 163.126V164.196C76.4379 164.52 76.4975 164.8 76.6168 165.036C76.739 165.271 76.9109 165.453 77.1325 165.581C77.354 165.709 77.6168 165.773 77.9208 165.773C78.1225 165.773 78.3072 165.744 78.4748 165.688C78.6424 165.631 78.7859 165.545 78.9052 165.432C79.0245 165.318 79.1154 165.179 79.1779 165.014L80.8569 165.125C80.7717 165.528 80.5969 165.881 80.3327 166.182C80.0714 166.48 79.7333 166.713 79.3185 166.881C78.9066 167.045 78.4308 167.128 77.891 167.128ZM87.5259 162.321L85.864 162.423C85.8356 162.281 85.7745 162.153 85.6808 162.04C85.587 161.923 85.4634 161.831 85.31 161.763C85.1594 161.692 84.979 161.656 84.7688 161.656C84.4876 161.656 84.2504 161.716 84.0572 161.835C83.864 161.952 83.7674 162.108 83.7674 162.304C83.7674 162.46 83.8299 162.592 83.9549 162.7C84.0799 162.808 84.2944 162.895 84.5984 162.96L85.783 163.199C86.4194 163.33 86.8938 163.54 87.2063 163.83C87.5188 164.119 87.6751 164.5 87.6751 164.972C87.6751 165.401 87.5487 165.777 87.2958 166.101C87.0458 166.425 86.7021 166.678 86.2646 166.859C85.8299 167.038 85.3285 167.128 84.7603 167.128C83.8938 167.128 83.2035 166.947 82.6893 166.587C82.1779 166.223 81.8782 165.729 81.7901 165.104L83.5756 165.01C83.6296 165.274 83.7603 165.476 83.9677 165.615C84.1751 165.751 84.4407 165.82 84.7646 165.82C85.0827 165.82 85.3384 165.759 85.5316 165.636C85.7276 165.511 85.8271 165.351 85.8299 165.155C85.8271 164.99 85.7575 164.855 85.6211 164.75C85.4847 164.642 85.2745 164.56 84.9904 164.503L83.8569 164.277C83.2177 164.149 82.7418 163.928 82.4293 163.612C82.1197 163.297 81.9648 162.895 81.9648 162.406C81.9648 161.986 82.0785 161.624 82.3058 161.32C82.5359 161.016 82.8583 160.781 83.2731 160.616C83.6907 160.452 84.1793 160.369 84.739 160.369C85.5657 160.369 86.2163 160.544 86.6907 160.893C87.168 161.243 87.4464 161.719 87.5259 162.321Z" fill="white"/>
<path d="M39.9439 180.909V171.818H40.5263V180.909H39.9439ZM41.7656 174.638C41.7277 174.302 41.5715 174.041 41.2969 173.857C41.0223 173.67 40.6766 173.576 40.2599 173.576C39.9616 173.576 39.7036 173.623 39.4858 173.718C39.268 173.81 39.0987 173.938 38.978 174.102C38.8596 174.263 38.8004 174.446 38.8004 174.652C38.8004 174.825 38.8407 174.974 38.9212 175.099C39.004 175.225 39.1117 175.33 39.2443 175.415C39.3793 175.498 39.5237 175.568 39.6776 175.625C39.8314 175.679 39.9794 175.724 40.1214 175.76L40.8317 175.945C41.0637 176.001 41.3016 176.078 41.5455 176.175C41.7893 176.272 42.0154 176.4 42.2237 176.559C42.4321 176.718 42.6001 176.914 42.728 177.148C42.8582 177.383 42.9233 177.663 42.9233 177.99C42.9233 178.402 42.8168 178.768 42.6037 179.087C42.393 179.407 42.0864 179.659 41.6839 179.844C41.2839 180.028 40.7997 180.121 40.2315 180.121C39.687 180.121 39.2159 180.034 38.8182 179.862C38.4205 179.689 38.1091 179.444 37.8842 179.126C37.6593 178.807 37.535 178.428 37.5114 177.99H38.6122C38.6335 178.253 38.7188 178.472 38.8679 178.647C39.0194 178.82 39.2124 178.949 39.4467 179.034C39.6835 179.117 39.9427 179.158 40.2244 179.158C40.5346 179.158 40.8104 179.11 41.0518 179.013C41.2957 178.913 41.4875 178.776 41.6271 178.601C41.7668 178.423 41.8366 178.216 41.8366 177.979C41.8366 177.764 41.7751 177.588 41.652 177.45C41.5313 177.313 41.3667 177.199 41.1584 177.109C40.9524 177.019 40.7192 176.94 40.4588 176.871L39.5994 176.637C39.017 176.478 38.5554 176.245 38.2145 175.938C37.8759 175.63 37.7067 175.223 37.7067 174.716C37.7067 174.297 37.8203 173.931 38.0476 173.619C38.2749 173.306 38.5826 173.063 38.9709 172.891C39.3591 172.715 39.7971 172.628 40.2848 172.628C40.7772 172.628 41.2116 172.714 41.5881 172.887C41.9669 173.06 42.2652 173.298 42.483 173.601C42.7008 173.902 42.8144 174.247 42.8239 174.638H41.7656ZM46.5357 180.099C46.0906 180.099 45.6905 180.014 45.3354 179.844C44.9827 179.671 44.7009 179.434 44.4902 179.134C44.2795 178.833 44.1671 178.49 44.1529 178.104H45.2182C45.2443 178.416 45.3828 178.673 45.6337 178.874C45.8846 179.076 46.1853 179.176 46.5357 179.176C46.815 179.176 47.0624 179.112 47.2779 178.984C47.4957 178.854 47.6661 178.675 47.7892 178.448C47.9147 178.221 47.9775 177.962 47.9775 177.67C47.9775 177.375 47.9135 177.111 47.7857 176.879C47.6578 176.647 47.4815 176.464 47.2566 176.332C47.034 176.199 46.7783 176.132 46.4895 176.129C46.2694 176.129 46.048 176.167 45.8255 176.243C45.6029 176.319 45.423 176.418 45.2857 176.541L44.2807 176.392L44.6891 172.727H48.6877V173.668H45.6017L45.3709 175.703H45.4135C45.5556 175.566 45.7438 175.451 45.9782 175.359C46.2149 175.266 46.4682 175.22 46.7381 175.22C47.1808 175.22 47.575 175.326 47.9206 175.536C48.2686 175.747 48.5421 176.035 48.7409 176.399C48.9422 176.761 49.0416 177.178 49.0392 177.649C49.0416 178.12 48.9351 178.54 48.7196 178.91C48.5066 179.279 48.2106 179.57 47.8319 179.783C47.4554 179.994 47.0234 180.099 46.5357 180.099ZM52.8683 180.121C52.3072 180.118 51.8278 179.97 51.43 179.677C51.0323 179.383 50.7281 178.956 50.5174 178.395C50.3067 177.834 50.2013 177.158 50.2013 176.367C50.2013 175.579 50.3067 174.905 50.5174 174.347C50.7305 173.788 51.0359 173.362 51.4336 173.068C51.8337 172.775 52.3119 172.628 52.8683 172.628C53.4246 172.628 53.9016 172.776 54.2994 173.072C54.6971 173.365 55.0013 173.791 55.212 174.35C55.4251 174.906 55.5316 175.579 55.5316 176.367C55.5316 177.16 55.4263 177.837 55.2156 178.398C55.0049 178.957 54.7006 179.384 54.3029 179.68C53.9052 179.974 53.427 180.121 52.8683 180.121ZM52.8683 179.173C53.3607 179.173 53.7454 178.932 54.0224 178.452C54.3017 177.971 54.4414 177.276 54.4414 176.367C54.4414 175.763 54.3775 175.253 54.2496 174.837C54.1242 174.418 53.9431 174.1 53.7063 173.885C53.4719 173.667 53.1926 173.558 52.8683 173.558C52.3782 173.558 51.9935 173.8 51.7141 174.283C51.4348 174.766 51.2939 175.46 51.2915 176.367C51.2915 176.973 51.3543 177.486 51.4798 177.905C51.6076 178.321 51.7887 178.638 52.0231 178.853C52.2575 179.066 52.5392 179.173 52.8683 179.173Z" fill="white"/>
<rect x="135" y="143" width="104" height="52" rx="8" fill="currentColor" fill-opacity="0.15"/>
<path d="M151.895 167.119C151.293 167.119 150.756 167.009 150.284 166.787C149.815 166.565 149.443 166.26 149.168 165.871C148.892 165.482 148.749 165.036 148.737 164.533H150.527C150.547 164.871 150.689 165.145 150.953 165.355C151.217 165.565 151.531 165.67 151.895 165.67C152.185 165.67 152.44 165.607 152.662 165.479C152.886 165.348 153.061 165.168 153.186 164.938C153.314 164.705 153.378 164.437 153.378 164.136C153.378 163.83 153.313 163.56 153.182 163.327C153.054 163.094 152.876 162.912 152.649 162.781C152.422 162.651 152.162 162.584 151.869 162.581C151.614 162.581 151.365 162.634 151.124 162.739C150.885 162.844 150.699 162.987 150.565 163.169L148.925 162.875L149.338 158.273H154.673V159.781H150.859L150.634 161.967H150.685C150.838 161.751 151.07 161.572 151.379 161.43C151.689 161.288 152.036 161.217 152.419 161.217C152.945 161.217 153.413 161.341 153.825 161.588C154.237 161.835 154.562 162.175 154.801 162.607C155.04 163.036 155.158 163.53 155.155 164.089C155.158 164.678 155.021 165.2 154.746 165.658C154.473 166.112 154.091 166.47 153.599 166.732C153.111 166.99 152.543 167.119 151.895 167.119ZM159.864 167.192C159.131 167.189 158.5 167.009 157.972 166.651C157.446 166.293 157.041 165.774 156.757 165.095C156.476 164.416 156.337 163.599 156.339 162.645C156.339 161.693 156.48 160.882 156.761 160.212C157.045 159.541 157.45 159.031 157.976 158.682C158.504 158.33 159.134 158.153 159.864 158.153C160.594 158.153 161.222 158.33 161.747 158.682C162.276 159.034 162.682 159.545 162.966 160.216C163.25 160.884 163.391 161.693 163.388 162.645C163.388 163.602 163.246 164.42 162.962 165.099C162.68 165.778 162.277 166.297 161.751 166.655C161.226 167.013 160.597 167.192 159.864 167.192ZM159.864 165.662C160.364 165.662 160.763 165.411 161.061 164.908C161.359 164.405 161.507 163.651 161.504 162.645C161.504 161.983 161.436 161.432 161.3 160.991C161.166 160.551 160.976 160.22 160.729 159.999C160.484 159.777 160.196 159.666 159.864 159.666C159.366 159.666 158.969 159.915 158.67 160.412C158.372 160.909 158.222 161.653 158.219 162.645C158.219 163.315 158.286 163.875 158.419 164.324C158.555 164.77 158.747 165.105 158.994 165.33C159.241 165.551 159.531 165.662 159.864 165.662ZM167.2 159.794V158.273H174.367V159.794H171.695V167H169.871V159.794H167.2ZM174.834 167V160.455H176.594V161.597H176.662C176.781 161.19 176.982 160.884 177.263 160.676C177.544 160.466 177.868 160.361 178.234 160.361C178.325 160.361 178.423 160.366 178.528 160.378C178.634 160.389 178.726 160.405 178.805 160.425V162.036C178.72 162.01 178.602 161.987 178.452 161.967C178.301 161.947 178.163 161.938 178.038 161.938C177.771 161.938 177.533 161.996 177.322 162.112C177.115 162.226 176.95 162.385 176.828 162.589C176.709 162.794 176.649 163.03 176.649 163.297V167H174.834ZM182.422 167.128C181.749 167.128 181.169 166.991 180.684 166.719C180.201 166.443 179.828 166.054 179.567 165.551C179.306 165.045 179.175 164.447 179.175 163.757C179.175 163.084 179.306 162.493 179.567 161.984C179.828 161.476 180.196 161.08 180.671 160.795C181.148 160.511 181.708 160.369 182.35 160.369C182.782 160.369 183.184 160.439 183.556 160.578C183.931 160.714 184.257 160.92 184.536 161.196C184.817 161.472 185.036 161.818 185.192 162.236C185.348 162.651 185.426 163.136 185.426 163.693V164.192H179.9V163.067H183.718C183.718 162.805 183.661 162.574 183.547 162.372C183.434 162.17 183.276 162.013 183.074 161.899C182.875 161.783 182.644 161.724 182.38 161.724C182.104 161.724 181.86 161.788 181.647 161.916C181.436 162.041 181.272 162.21 181.152 162.423C181.033 162.634 180.972 162.868 180.969 163.126V164.196C180.969 164.52 181.029 164.8 181.148 165.036C181.27 165.271 181.442 165.453 181.664 165.581C181.885 165.709 182.148 165.773 182.452 165.773C182.654 165.773 182.838 165.744 183.006 165.688C183.174 165.631 183.317 165.545 183.436 165.432C183.556 165.318 183.647 165.179 183.709 165.014L185.388 165.125C185.303 165.528 185.128 165.881 184.864 166.182C184.603 166.48 184.265 166.713 183.85 166.881C183.438 167.045 182.962 167.128 182.422 167.128ZM189.594 167.128C188.921 167.128 188.341 166.991 187.855 166.719C187.373 166.443 187 166.054 186.739 165.551C186.478 165.045 186.347 164.447 186.347 163.757C186.347 163.084 186.478 162.493 186.739 161.984C187 161.476 187.368 161.08 187.843 160.795C188.32 160.511 188.88 160.369 189.522 160.369C189.953 160.369 190.355 160.439 190.728 160.578C191.103 160.714 191.429 160.92 191.708 161.196C191.989 161.472 192.208 161.818 192.364 162.236C192.52 162.651 192.598 163.136 192.598 163.693V164.192H187.071V163.067H190.89C190.89 162.805 190.833 162.574 190.719 162.372C190.605 162.17 190.448 162.013 190.246 161.899C190.047 161.783 189.816 161.724 189.551 161.724C189.276 161.724 189.032 161.788 188.819 161.916C188.608 162.041 188.444 162.21 188.324 162.423C188.205 162.634 188.144 162.868 188.141 163.126V164.196C188.141 164.52 188.201 164.8 188.32 165.036C188.442 165.271 188.614 165.453 188.836 165.581C189.057 165.709 189.32 165.773 189.624 165.773C189.826 165.773 190.01 165.744 190.178 165.688C190.346 165.631 190.489 165.545 190.608 165.432C190.728 165.318 190.819 165.179 190.881 165.014L192.56 165.125C192.475 165.528 192.3 165.881 192.036 166.182C191.775 166.48 191.436 166.713 191.022 166.881C190.61 167.045 190.134 167.128 189.594 167.128ZM199.229 162.321L197.567 162.423C197.539 162.281 197.478 162.153 197.384 162.04C197.29 161.923 197.167 161.831 197.013 161.763C196.863 161.692 196.682 161.656 196.472 161.656C196.191 161.656 195.953 161.716 195.76 161.835C195.567 161.952 195.471 162.108 195.471 162.304C195.471 162.46 195.533 162.592 195.658 162.7C195.783 162.808 195.998 162.895 196.301 162.96L197.486 163.199C198.123 163.33 198.597 163.54 198.909 163.83C199.222 164.119 199.378 164.5 199.378 164.972C199.378 165.401 199.252 165.777 198.999 166.101C198.749 166.425 198.405 166.678 197.968 166.859C197.533 167.038 197.032 167.128 196.463 167.128C195.597 167.128 194.907 166.947 194.392 166.587C193.881 166.223 193.581 165.729 193.493 165.104L195.279 165.01C195.333 165.274 195.463 165.476 195.671 165.615C195.878 165.751 196.144 165.82 196.468 165.82C196.786 165.82 197.042 165.759 197.235 165.636C197.431 165.511 197.53 165.351 197.533 165.155C197.53 164.99 197.461 164.855 197.324 164.75C197.188 164.642 196.978 164.56 196.694 164.503L195.56 164.277C194.921 164.149 194.445 163.928 194.132 163.612C193.823 163.297 193.668 162.895 193.668 162.406C193.668 161.986 193.782 161.624 194.009 161.32C194.239 161.016 194.561 160.781 194.976 160.616C195.394 160.452 195.882 160.369 196.442 160.369C197.269 160.369 197.919 160.544 198.394 160.893C198.871 161.243 199.15 161.719 199.229 162.321Z" fill="currentColor"/>
<path d="M150.944 180.909V171.818H151.526V180.909H150.944ZM152.766 174.638C152.728 174.302 152.571 174.041 152.297 173.857C152.022 173.67 151.677 173.576 151.26 173.576C150.962 173.576 150.704 173.623 150.486 173.718C150.268 173.81 150.099 173.938 149.978 174.102C149.86 174.263 149.8 174.446 149.8 174.652C149.8 174.825 149.841 174.974 149.921 175.099C150.004 175.225 150.112 175.33 150.244 175.415C150.379 175.498 150.524 175.568 150.678 175.625C150.831 175.679 150.979 175.724 151.121 175.76L151.832 175.945C152.064 176.001 152.302 176.078 152.545 176.175C152.789 176.272 153.015 176.4 153.224 176.559C153.432 176.718 153.6 176.914 153.728 177.148C153.858 177.383 153.923 177.663 153.923 177.99C153.923 178.402 153.817 178.768 153.604 179.087C153.393 179.407 153.086 179.659 152.684 179.844C152.284 180.028 151.8 180.121 151.232 180.121C150.687 180.121 150.216 180.034 149.818 179.862C149.42 179.689 149.109 179.444 148.884 179.126C148.659 178.807 148.535 178.428 148.511 177.99H149.612C149.634 178.253 149.719 178.472 149.868 178.647C150.019 178.82 150.212 178.949 150.447 179.034C150.683 179.117 150.943 179.158 151.224 179.158C151.535 179.158 151.81 179.11 152.052 179.013C152.296 178.913 152.487 178.776 152.627 178.601C152.767 178.423 152.837 178.216 152.837 177.979C152.837 177.764 152.775 177.588 152.652 177.45C152.531 177.313 152.367 177.199 152.158 177.109C151.952 177.019 151.719 176.94 151.459 176.871L150.599 176.637C150.017 176.478 149.555 176.245 149.214 175.938C148.876 175.63 148.707 175.223 148.707 174.716C148.707 174.297 148.82 173.931 149.048 173.619C149.275 173.306 149.583 173.063 149.971 172.891C150.359 172.715 150.797 172.628 151.285 172.628C151.777 172.628 152.212 172.714 152.588 172.887C152.967 173.06 153.265 173.298 153.483 173.601C153.701 173.902 153.814 174.247 153.824 174.638H152.766ZM157.894 172.727V180H156.794V173.828H156.751L155.011 174.964V173.913L156.825 172.727H157.894ZM162.394 180.121C161.833 180.118 161.353 179.97 160.955 179.677C160.558 179.383 160.253 178.956 160.043 178.395C159.832 177.834 159.727 177.158 159.727 176.367C159.727 175.579 159.832 174.905 160.043 174.347C160.256 173.788 160.561 173.362 160.959 173.068C161.359 172.775 161.837 172.628 162.394 172.628C162.95 172.628 163.427 172.776 163.825 173.072C164.222 173.365 164.527 173.791 164.737 174.35C164.95 174.906 165.057 175.579 165.057 176.367C165.057 177.16 164.952 177.837 164.741 178.398C164.53 178.957 164.226 179.384 163.828 179.68C163.431 179.974 162.952 180.121 162.394 180.121ZM162.394 179.173C162.886 179.173 163.271 178.932 163.548 178.452C163.827 177.971 163.967 177.276 163.967 176.367C163.967 175.763 163.903 175.253 163.775 174.837C163.65 174.418 163.468 174.1 163.232 173.885C162.997 173.667 162.718 173.558 162.394 173.558C161.904 173.558 161.519 173.8 161.24 174.283C160.96 174.766 160.819 175.46 160.817 176.367C160.817 176.973 160.88 177.486 161.005 177.905C161.133 178.321 161.314 178.638 161.548 178.853C161.783 179.066 162.065 179.173 162.394 179.173ZM168.849 180.121C168.288 180.118 167.808 179.97 167.411 179.677C167.013 179.383 166.709 178.956 166.498 178.395C166.287 177.834 166.182 177.158 166.182 176.367C166.182 175.579 166.287 174.905 166.498 174.347C166.711 173.788 167.016 173.362 167.414 173.068C167.814 172.775 168.292 172.628 168.849 172.628C169.405 172.628 169.882 172.776 170.28 173.072C170.678 173.365 170.982 173.791 171.192 174.35C171.406 174.906 171.512 175.579 171.512 176.367C171.512 177.16 171.407 177.837 171.196 178.398C170.985 178.957 170.681 179.384 170.283 179.68C169.886 179.974 169.407 180.121 168.849 180.121ZM168.849 179.173C169.341 179.173 169.726 178.932 170.003 178.452C170.282 177.971 170.422 177.276 170.422 176.367C170.422 175.763 170.358 175.253 170.23 174.837C170.105 174.418 169.924 174.1 169.687 173.885C169.452 173.667 169.173 173.558 168.849 173.558C168.359 173.558 167.974 173.8 167.695 174.283C167.415 174.766 167.274 175.46 167.272 176.367C167.272 176.973 167.335 177.486 167.46 177.905C167.588 178.321 167.769 178.638 168.004 178.853C168.238 179.066 168.52 179.173 168.849 179.173Z" fill="currentColor"/>
<rect x="24" y="205" width="104" height="52" rx="8" fill="currentColor" fill-opacity="0.15"/>
<path d="M41.5043 220.273V229H39.6591V222.024H39.608L37.6094 223.277V221.641L39.7699 220.273H41.5043ZM47.0004 229.192C46.2674 229.189 45.6367 229.009 45.1083 228.651C44.5827 228.293 44.1779 227.774 43.8938 227.095C43.6126 226.416 43.4734 225.599 43.4762 224.645C43.4762 223.693 43.6168 222.882 43.8981 222.212C44.1822 221.541 44.587 221.031 45.1126 220.682C45.641 220.33 46.2702 220.153 47.0004 220.153C47.7305 220.153 48.3583 220.33 48.8839 220.682C49.4123 221.034 49.8185 221.545 50.1026 222.216C50.3867 222.884 50.5273 223.693 50.5245 224.645C50.5245 225.602 50.3825 226.42 50.0984 227.099C49.8171 227.778 49.4137 228.297 48.8881 228.655C48.3626 229.013 47.7333 229.192 47.0004 229.192ZM47.0004 227.662C47.5004 227.662 47.8995 227.411 48.1978 226.908C48.4961 226.405 48.6438 225.651 48.641 224.645C48.641 223.983 48.5728 223.432 48.4364 222.991C48.3029 222.551 48.1126 222.22 47.8654 221.999C47.6211 221.777 47.3327 221.666 47.0004 221.666C46.5032 221.666 46.1055 221.915 45.8072 222.412C45.5089 222.909 45.3583 223.653 45.3555 224.645C45.3555 225.315 45.4222 225.875 45.5558 226.324C45.6921 226.77 45.8839 227.105 46.131 227.33C46.3782 227.551 46.668 227.662 47.0004 227.662ZM55.2621 229.192C54.5291 229.189 53.8984 229.009 53.37 228.651C52.8445 228.293 52.4396 227.774 52.1555 227.095C51.8743 226.416 51.7351 225.599 51.7379 224.645C51.7379 223.693 51.8786 222.882 52.1598 222.212C52.4439 221.541 52.8487 221.031 53.3743 220.682C53.9027 220.33 54.532 220.153 55.2621 220.153C55.9922 220.153 56.62 220.33 57.1456 220.682C57.674 221.034 58.0803 221.545 58.3643 222.216C58.6484 222.884 58.7891 223.693 58.7862 224.645C58.7862 225.602 58.6442 226.42 58.3601 227.099C58.0788 227.778 57.6754 228.297 57.1499 228.655C56.6243 229.013 55.995 229.192 55.2621 229.192ZM55.2621 227.662C55.7621 227.662 56.1612 227.411 56.4595 226.908C56.7578 226.405 56.9055 225.651 56.9027 224.645C56.9027 223.983 56.8345 223.432 56.6982 222.991C56.5646 222.551 56.3743 222.22 56.1271 221.999C55.8828 221.777 55.5945 221.666 55.2621 221.666C54.7649 221.666 54.3672 221.915 54.0689 222.412C53.7706 222.909 53.62 223.653 53.6172 224.645C53.6172 225.315 53.6839 225.875 53.8175 226.324C53.9538 226.77 54.1456 227.105 54.3928 227.33C54.6399 227.551 54.9297 227.662 55.2621 227.662ZM62.598 221.794V220.273H69.7656V221.794H67.0938V229H65.2699V221.794H62.598ZM70.2322 229V222.455H71.9922V223.597H72.0604C72.1797 223.19 72.38 222.884 72.6612 222.676C72.9425 222.466 73.2663 222.361 73.6328 222.361C73.7237 222.361 73.8217 222.366 73.9268 222.378C74.032 222.389 74.1243 222.405 74.2038 222.425V224.036C74.1186 224.01 74.0007 223.987 73.8501 223.967C73.6996 223.947 73.5618 223.938 73.4368 223.938C73.1697 223.938 72.9311 223.996 72.7209 224.112C72.5135 224.226 72.3487 224.385 72.2266 224.589C72.1072 224.794 72.0476 225.03 72.0476 225.297V229H70.2322ZM77.8207 229.128C77.1474 229.128 76.5678 228.991 76.082 228.719C75.5991 228.443 75.2269 228.054 74.9656 227.551C74.7042 227.045 74.5735 226.447 74.5735 225.757C74.5735 225.084 74.7042 224.493 74.9656 223.984C75.2269 223.476 75.5948 223.08 76.0692 222.795C76.5465 222.511 77.1062 222.369 77.7482 222.369C78.18 222.369 78.582 222.439 78.9542 222.578C79.3292 222.714 79.6559 222.92 79.9343 223.196C80.2156 223.472 80.4343 223.818 80.5906 224.236C80.7468 224.651 80.8249 225.136 80.8249 225.693V226.192H75.2979V225.067H79.1161C79.1161 224.805 79.0593 224.574 78.9457 224.372C78.832 224.17 78.6744 224.013 78.4727 223.899C78.2738 223.783 78.0423 223.724 77.7781 223.724C77.5025 223.724 77.2582 223.788 77.0451 223.916C76.8349 224.041 76.6701 224.21 76.5508 224.423C76.4315 224.634 76.3704 224.868 76.3675 225.126V226.196C76.3675 226.52 76.4272 226.8 76.5465 227.036C76.6687 227.271 76.8406 227.453 77.0621 227.581C77.2837 227.709 77.5465 227.773 77.8505 227.773C78.0522 227.773 78.2369 227.744 78.4045 227.688C78.5721 227.631 78.7156 227.545 78.8349 227.432C78.9542 227.318 79.0451 227.179 79.1076 227.014L80.7866 227.125C80.7013 227.528 80.5266 227.881 80.2624 228.182C80.0011 228.48 79.663 228.713 79.2482 228.881C78.8363 229.045 78.3604 229.128 77.8207 229.128ZM84.9925 229.128C84.3192 229.128 83.7397 228.991 83.2539 228.719C82.771 228.443 82.3988 228.054 82.1374 227.551C81.8761 227.045 81.7454 226.447 81.7454 225.757C81.7454 225.084 81.8761 224.493 82.1374 223.984C82.3988 223.476 82.7667 223.08 83.2411 222.795C83.7184 222.511 84.2781 222.369 84.9201 222.369C85.3519 222.369 85.7539 222.439 86.1261 222.578C86.5011 222.714 86.8278 222.92 87.1062 223.196C87.3874 223.472 87.6062 223.818 87.7624 224.236C87.9187 224.651 87.9968 225.136 87.9968 225.693V226.192H82.4698V225.067H86.288C86.288 224.805 86.2312 224.574 86.1175 224.372C86.0039 224.17 85.8462 224.013 85.6445 223.899C85.4457 223.783 85.2141 223.724 84.9499 223.724C84.6744 223.724 84.43 223.788 84.217 223.916C84.0067 224.041 83.842 224.21 83.7227 224.423C83.6033 224.634 83.5423 224.868 83.5394 225.126V226.196C83.5394 226.52 83.5991 226.8 83.7184 227.036C83.8406 227.271 84.0124 227.453 84.234 227.581C84.4556 227.709 84.7184 227.773 85.0224 227.773C85.2241 227.773 85.4087 227.744 85.5763 227.688C85.744 227.631 85.8874 227.545 86.0067 227.432C86.1261 227.318 86.217 227.179 86.2795 227.014L87.9585 227.125C87.8732 227.528 87.6985 227.881 87.4343 228.182C87.1729 228.48 86.8349 228.713 86.4201 228.881C86.0082 229.045 85.5323 229.128 84.9925 229.128ZM94.6275 224.321L92.9656 224.423C92.9371 224.281 92.8761 224.153 92.7823 224.04C92.6886 223.923 92.565 223.831 92.4116 223.763C92.261 223.692 92.0806 223.656 91.8704 223.656C91.5891 223.656 91.3519 223.716 91.1587 223.835C90.9656 223.952 90.869 224.108 90.869 224.304C90.869 224.46 90.9315 224.592 91.0565 224.7C91.1815 224.808 91.396 224.895 91.6999 224.96L92.8846 225.199C93.521 225.33 93.9954 225.54 94.3079 225.83C94.6204 226.119 94.7766 226.5 94.7766 226.972C94.7766 227.401 94.6502 227.777 94.3974 228.101C94.1474 228.425 93.8036 228.678 93.3661 228.859C92.9315 229.038 92.43 229.128 91.8619 229.128C90.9954 229.128 90.305 228.947 89.7908 228.587C89.2795 228.223 88.9798 227.729 88.8917 227.104L90.6772 227.01C90.7312 227.274 90.8619 227.476 91.0692 227.615C91.2766 227.751 91.5423 227.82 91.8661 227.82C92.1843 227.82 92.44 227.759 92.6332 227.636C92.8292 227.511 92.9286 227.351 92.9315 227.155C92.9286 226.99 92.859 226.855 92.7227 226.75C92.5863 226.642 92.3761 226.56 92.092 226.503L90.9585 226.277C90.3192 226.149 89.8434 225.928 89.5309 225.612C89.2212 225.297 89.0664 224.895 89.0664 224.406C89.0664 223.986 89.18 223.624 89.4073 223.32C89.6374 223.016 89.9599 222.781 90.3746 222.616C90.7923 222.452 91.2809 222.369 91.8406 222.369C92.6673 222.369 93.3178 222.544 93.7923 222.893C94.2695 223.243 94.5479 223.719 94.6275 224.321Z" fill="currentColor"/>
<path d="M39.9439 242.909V233.818H40.5263V242.909H39.9439ZM41.7656 236.638C41.7277 236.302 41.5715 236.041 41.2969 235.857C41.0223 235.67 40.6766 235.576 40.2599 235.576C39.9616 235.576 39.7036 235.623 39.4858 235.718C39.268 235.81 39.0987 235.938 38.978 236.102C38.8596 236.263 38.8004 236.446 38.8004 236.652C38.8004 236.825 38.8407 236.974 38.9212 237.099C39.004 237.225 39.1117 237.33 39.2443 237.415C39.3793 237.498 39.5237 237.568 39.6776 237.625C39.8314 237.679 39.9794 237.724 40.1214 237.76L40.8317 237.945C41.0637 238.001 41.3016 238.078 41.5455 238.175C41.7893 238.272 42.0154 238.4 42.2237 238.559C42.4321 238.718 42.6001 238.914 42.728 239.148C42.8582 239.383 42.9233 239.663 42.9233 239.99C42.9233 240.402 42.8168 240.768 42.6037 241.087C42.393 241.407 42.0864 241.659 41.6839 241.844C41.2839 242.028 40.7997 242.121 40.2315 242.121C39.687 242.121 39.2159 242.034 38.8182 241.862C38.4205 241.689 38.1091 241.444 37.8842 241.126C37.6593 240.807 37.535 240.428 37.5114 239.99H38.6122C38.6335 240.253 38.7188 240.472 38.8679 240.647C39.0194 240.82 39.2124 240.949 39.4467 241.034C39.6835 241.117 39.9427 241.158 40.2244 241.158C40.5346 241.158 40.8104 241.11 41.0518 241.013C41.2957 240.913 41.4875 240.776 41.6271 240.601C41.7668 240.423 41.8366 240.216 41.8366 239.979C41.8366 239.764 41.7751 239.588 41.652 239.45C41.5313 239.313 41.3667 239.199 41.1584 239.109C40.9524 239.019 40.7192 238.94 40.4588 238.871L39.5994 238.637C39.017 238.478 38.5554 238.245 38.2145 237.938C37.8759 237.63 37.7067 237.223 37.7067 236.716C37.7067 236.297 37.8203 235.931 38.0476 235.619C38.2749 235.306 38.5826 235.063 38.9709 234.891C39.3591 234.715 39.7971 234.628 40.2848 234.628C40.7772 234.628 41.2116 234.714 41.5881 234.887C41.9669 235.06 42.2652 235.298 42.483 235.601C42.7008 235.902 42.8144 236.247 42.8239 236.638H41.7656ZM44.1351 242V241.205L46.5961 238.655C46.8588 238.378 47.0755 238.135 47.2459 237.927C47.4187 237.716 47.5478 237.516 47.633 237.327C47.7182 237.137 47.7608 236.936 47.7608 236.723C47.7608 236.482 47.704 236.273 47.5904 236.098C47.4767 235.92 47.3217 235.784 47.1252 235.69C46.9287 235.593 46.7073 235.544 46.4611 235.544C46.2007 235.544 45.9734 235.597 45.7793 235.704C45.5852 235.81 45.436 235.961 45.3319 236.155C45.2277 236.349 45.1756 236.576 45.1756 236.837H44.128C44.128 236.394 44.2298 236.007 44.4334 235.675C44.637 235.344 44.9164 235.087 45.2715 234.905C45.6266 234.72 46.0302 234.628 46.4824 234.628C46.9393 234.628 47.3418 234.719 47.6898 234.901C48.0402 235.081 48.3136 235.327 48.5101 235.64C48.7066 235.95 48.8049 236.3 48.8049 236.691C48.8049 236.961 48.754 237.225 48.6522 237.483C48.5527 237.741 48.3787 238.029 48.1301 238.346C47.8816 238.661 47.5359 239.043 47.0932 239.493L45.6479 241.006V241.059H48.9221V242H44.1351ZM52.6685 242.099C52.2234 242.099 51.8233 242.014 51.4682 241.844C51.1155 241.671 50.8337 241.434 50.623 241.134C50.4123 240.833 50.2999 240.49 50.2857 240.104H51.351C51.3771 240.416 51.5156 240.673 51.7665 240.874C52.0175 241.076 52.3181 241.176 52.6685 241.176C52.9479 241.176 53.1953 241.112 53.4107 240.984C53.6285 240.854 53.7989 240.675 53.9221 240.448C54.0475 240.221 54.1103 239.962 54.1103 239.67C54.1103 239.375 54.0463 239.111 53.9185 238.879C53.7907 238.647 53.6143 238.464 53.3894 238.332C53.1668 238.199 52.9112 238.132 52.6223 238.129C52.4022 238.129 52.1808 238.167 51.9583 238.243C51.7357 238.319 51.5558 238.418 51.4185 238.541L50.4135 238.392L50.8219 234.727H54.8205V235.668H51.7346L51.5037 237.703H51.5463C51.6884 237.566 51.8766 237.451 52.111 237.359C52.3477 237.266 52.601 237.22 52.8709 237.22C53.3136 237.22 53.7078 237.326 54.0534 237.536C54.4015 237.747 54.6749 238.035 54.8738 238.399C55.075 238.761 55.1744 239.178 55.1721 239.649C55.1744 240.12 55.0679 240.54 54.8525 240.91C54.6394 241.279 54.3435 241.57 53.9647 241.783C53.5882 241.994 53.1562 242.099 52.6685 242.099ZM59.0011 242.121C58.44 242.118 57.9606 241.97 57.5629 241.677C57.1651 241.383 56.8609 240.956 56.6502 240.395C56.4395 239.834 56.3342 239.158 56.3342 238.367C56.3342 237.579 56.4395 236.905 56.6502 236.347C56.8633 235.788 57.1687 235.362 57.5664 235.068C57.9665 234.775 58.4447 234.628 59.0011 234.628C59.5574 234.628 60.0344 234.776 60.4322 235.072C60.8299 235.365 61.1341 235.791 61.3448 236.35C61.5579 236.906 61.6644 237.579 61.6644 238.367C61.6644 239.16 61.5591 239.837 61.3484 240.398C61.1377 240.957 60.8335 241.384 60.4357 241.68C60.038 241.974 59.5598 242.121 59.0011 242.121ZM59.0011 241.173C59.4935 241.173 59.8782 240.932 60.1552 240.452C60.4345 239.971 60.5742 239.276 60.5742 238.367C60.5742 237.763 60.5103 237.253 60.3825 236.837C60.257 236.418 60.0759 236.1 59.8391 235.885C59.6048 235.667 59.3254 235.558 59.0011 235.558C58.511 235.558 58.1263 235.8 57.8469 236.283C57.5676 236.766 57.4267 237.46 57.4244 238.367C57.4244 238.973 57.4871 239.486 57.6126 239.905C57.7404 240.321 57.9215 240.638 58.1559 240.853C58.3903 241.066 58.672 241.173 59.0011 241.173Z" fill="currentColor"/>
<rect x="136" y="205" width="104" height="52" rx="8" fill="currentColor" fill-opacity="0.15"/>
<path d="M157.459 223.328H155.592C155.558 223.087 155.489 222.872 155.384 222.685C155.278 222.494 155.143 222.332 154.979 222.199C154.814 222.065 154.624 221.963 154.408 221.892C154.195 221.821 153.963 221.786 153.713 221.786C153.261 221.786 152.868 221.898 152.533 222.122C152.197 222.344 151.938 222.668 151.753 223.094C151.568 223.517 151.476 224.031 151.476 224.636C151.476 225.259 151.568 225.781 151.753 226.205C151.94 226.628 152.202 226.947 152.537 227.163C152.872 227.379 153.26 227.487 153.7 227.487C153.947 227.487 154.176 227.455 154.386 227.389C154.599 227.324 154.788 227.229 154.953 227.104C155.118 226.976 155.254 226.821 155.362 226.639C155.473 226.457 155.55 226.25 155.592 226.017L157.459 226.026C157.411 226.426 157.29 226.812 157.097 227.185C156.906 227.554 156.649 227.885 156.325 228.178C156.004 228.467 155.621 228.697 155.175 228.868C154.732 229.036 154.23 229.119 153.67 229.119C152.892 229.119 152.196 228.943 151.582 228.591C150.972 228.239 150.489 227.729 150.134 227.061C149.781 226.393 149.605 225.585 149.605 224.636C149.605 223.685 149.784 222.875 150.142 222.207C150.5 221.54 150.986 221.031 151.599 220.682C152.213 220.33 152.903 220.153 153.67 220.153C154.176 220.153 154.645 220.224 155.077 220.366C155.511 220.509 155.896 220.716 156.232 220.989C156.567 221.259 156.839 221.589 157.05 221.982C157.263 222.374 157.399 222.822 157.459 223.328ZM162.945 226.213V222.455H164.761V229H163.018V227.811H162.95C162.802 228.195 162.556 228.503 162.212 228.736C161.871 228.969 161.455 229.085 160.964 229.085C160.526 229.085 160.141 228.986 159.809 228.787C159.477 228.588 159.217 228.305 159.029 227.939C158.844 227.572 158.751 227.134 158.748 226.622V222.455H160.563V226.298C160.566 226.685 160.67 226.99 160.874 227.214C161.079 227.439 161.353 227.551 161.697 227.551C161.915 227.551 162.12 227.501 162.31 227.402C162.501 227.3 162.654 227.149 162.771 226.95C162.89 226.751 162.948 226.506 162.945 226.213ZM171.659 224.321L169.997 224.423C169.968 224.281 169.907 224.153 169.814 224.04C169.72 223.923 169.596 223.831 169.443 223.763C169.292 223.692 169.112 223.656 168.902 223.656C168.62 223.656 168.383 223.716 168.19 223.835C167.997 223.952 167.9 224.108 167.9 224.304C167.9 224.46 167.963 224.592 168.088 224.7C168.213 224.808 168.427 224.895 168.731 224.96L169.916 225.199C170.552 225.33 171.027 225.54 171.339 225.83C171.652 226.119 171.808 226.5 171.808 226.972C171.808 227.401 171.681 227.777 171.429 228.101C171.179 228.425 170.835 228.678 170.397 228.859C169.963 229.038 169.461 229.128 168.893 229.128C168.027 229.128 167.336 228.947 166.822 228.587C166.311 228.223 166.011 227.729 165.923 227.104L167.708 227.01C167.762 227.274 167.893 227.476 168.1 227.615C168.308 227.751 168.574 227.82 168.897 227.82C169.216 227.82 169.471 227.759 169.664 227.636C169.86 227.511 169.96 227.351 169.963 227.155C169.96 226.99 169.89 226.855 169.754 226.75C169.618 226.642 169.407 226.56 169.123 226.503L167.99 226.277C167.35 226.149 166.875 225.928 166.562 225.612C166.252 225.297 166.098 224.895 166.098 224.406C166.098 223.986 166.211 223.624 166.439 223.32C166.669 223.016 166.991 222.781 167.406 222.616C167.824 222.452 168.312 222.369 168.872 222.369C169.699 222.369 170.349 222.544 170.824 222.893C171.301 223.243 171.579 223.719 171.659 224.321ZM176.433 222.455V223.818H172.491V222.455H176.433ZM173.386 220.886H175.201V226.989C175.201 227.156 175.227 227.287 175.278 227.381C175.329 227.472 175.4 227.536 175.491 227.572C175.585 227.609 175.692 227.628 175.815 227.628C175.9 227.628 175.985 227.621 176.07 227.607C176.156 227.589 176.221 227.577 176.266 227.568L176.552 228.919C176.461 228.947 176.333 228.98 176.168 229.017C176.004 229.057 175.803 229.081 175.567 229.089C175.13 229.107 174.746 229.048 174.417 228.915C174.09 228.781 173.836 228.574 173.654 228.293C173.472 228.011 173.383 227.656 173.386 227.227V220.886ZM180.502 229.128C179.84 229.128 179.268 228.987 178.785 228.706C178.305 228.422 177.934 228.027 177.673 227.521C177.411 227.013 177.281 226.423 177.281 225.753C177.281 225.077 177.411 224.486 177.673 223.98C177.934 223.472 178.305 223.077 178.785 222.795C179.268 222.511 179.84 222.369 180.502 222.369C181.164 222.369 181.735 222.511 182.215 222.795C182.698 223.077 183.07 223.472 183.332 223.98C183.593 224.486 183.724 225.077 183.724 225.753C183.724 226.423 183.593 227.013 183.332 227.521C183.07 228.027 182.698 228.422 182.215 228.706C181.735 228.987 181.164 229.128 180.502 229.128ZM180.511 227.722C180.812 227.722 181.063 227.636 181.265 227.466C181.467 227.293 181.619 227.057 181.721 226.759C181.826 226.46 181.879 226.121 181.879 225.74C181.879 225.359 181.826 225.02 181.721 224.722C181.619 224.423 181.467 224.187 181.265 224.014C181.063 223.841 180.812 223.754 180.511 223.754C180.207 223.754 179.951 223.841 179.744 224.014C179.539 224.187 179.384 224.423 179.279 224.722C179.177 225.02 179.126 225.359 179.126 225.74C179.126 226.121 179.177 226.46 179.279 226.759C179.384 227.057 179.539 227.293 179.744 227.466C179.951 227.636 180.207 227.722 180.511 227.722ZM184.904 229V222.455H186.634V223.609H186.711C186.847 223.226 187.075 222.923 187.393 222.702C187.711 222.48 188.092 222.369 188.535 222.369C188.984 222.369 189.366 222.482 189.681 222.706C189.996 222.928 190.207 223.229 190.312 223.609H190.38C190.513 223.234 190.755 222.935 191.104 222.71C191.457 222.483 191.873 222.369 192.353 222.369C192.964 222.369 193.46 222.564 193.84 222.953C194.224 223.339 194.415 223.888 194.415 224.598V229H192.604V224.956C192.604 224.592 192.508 224.32 192.315 224.138C192.121 223.956 191.88 223.865 191.59 223.865C191.261 223.865 191.004 223.97 190.819 224.18C190.634 224.388 190.542 224.662 190.542 225.003V229H188.782V224.918C188.782 224.597 188.69 224.341 188.505 224.151C188.323 223.96 188.083 223.865 187.785 223.865C187.583 223.865 187.401 223.916 187.239 224.018C187.08 224.118 186.954 224.259 186.86 224.44C186.766 224.619 186.719 224.83 186.719 225.071V229H184.904Z" fill="currentColor"/>
<path d="M155.839 237.092H154.732C154.689 236.856 154.61 236.647 154.494 236.467C154.378 236.287 154.236 236.135 154.067 236.009C153.899 235.884 153.711 235.789 153.503 235.725C153.297 235.661 153.078 235.629 152.846 235.629C152.427 235.629 152.052 235.735 151.72 235.945C151.391 236.156 151.131 236.465 150.939 236.872C150.75 237.279 150.655 237.777 150.655 238.364C150.655 238.955 150.75 239.455 150.939 239.862C151.131 240.269 151.392 240.577 151.724 240.786C152.055 240.994 152.428 241.098 152.842 241.098C153.072 241.098 153.29 241.067 153.496 241.006C153.704 240.942 153.892 240.848 154.06 240.725C154.228 240.602 154.371 240.452 154.487 240.274C154.605 240.094 154.687 239.888 154.732 239.656L155.839 239.66C155.78 240.017 155.665 240.346 155.495 240.647C155.327 240.945 155.11 241.203 154.845 241.421C154.582 241.637 154.282 241.804 153.943 241.922C153.605 242.04 153.235 242.099 152.835 242.099C152.205 242.099 151.644 241.95 151.152 241.652C150.66 241.351 150.271 240.922 149.987 240.363C149.705 239.804 149.565 239.138 149.565 238.364C149.565 237.587 149.707 236.921 149.991 236.364C150.275 235.806 150.663 235.377 151.156 235.079C151.648 234.778 152.208 234.628 152.835 234.628C153.221 234.628 153.581 234.683 153.915 234.795C154.251 234.904 154.553 235.065 154.82 235.278C155.088 235.488 155.309 235.746 155.484 236.052C155.66 236.355 155.778 236.702 155.839 237.092ZM158.129 238.761V242H157.067V234.727H158.115V237.433H158.182C158.31 237.14 158.506 236.906 158.768 236.734C159.031 236.561 159.374 236.474 159.798 236.474C160.172 236.474 160.499 236.551 160.778 236.705C161.06 236.859 161.278 237.089 161.432 237.394C161.588 237.697 161.666 238.076 161.666 238.531V242H160.604V238.658C160.604 238.258 160.501 237.948 160.295 237.728C160.089 237.505 159.803 237.394 159.436 237.394C159.185 237.394 158.96 237.447 158.761 237.554C158.565 237.661 158.41 237.817 158.296 238.023C158.185 238.226 158.129 238.473 158.129 238.761ZM165.381 242.11C164.869 242.11 164.423 241.993 164.042 241.759C163.661 241.524 163.365 241.196 163.154 240.775C162.943 240.353 162.838 239.861 162.838 239.298C162.838 238.732 162.943 238.237 163.154 237.813C163.365 237.389 163.661 237.06 164.042 236.826C164.423 236.592 164.869 236.474 165.381 236.474C165.892 236.474 166.338 236.592 166.719 236.826C167.1 237.06 167.396 237.389 167.607 237.813C167.818 238.237 167.923 238.732 167.923 239.298C167.923 239.861 167.818 240.353 167.607 240.775C167.396 241.196 167.1 241.524 166.719 241.759C166.338 241.993 165.892 242.11 165.381 242.11ZM165.384 241.219C165.715 241.219 165.99 241.131 166.208 240.956C166.426 240.781 166.587 240.548 166.691 240.256C166.797 239.965 166.851 239.644 166.851 239.294C166.851 238.946 166.797 238.626 166.691 238.335C166.587 238.042 166.426 237.806 166.208 237.629C165.99 237.451 165.715 237.362 165.384 237.362C165.05 237.362 164.773 237.451 164.553 237.629C164.335 237.806 164.173 238.042 164.067 238.335C163.962 238.626 163.91 238.946 163.91 239.294C163.91 239.644 163.962 239.965 164.067 240.256C164.173 240.548 164.335 240.781 164.553 240.956C164.773 241.131 165.05 241.219 165.384 241.219ZM171.406 242.11C170.895 242.11 170.448 241.993 170.067 241.759C169.686 241.524 169.39 241.196 169.179 240.775C168.969 240.353 168.863 239.861 168.863 239.298C168.863 238.732 168.969 238.237 169.179 237.813C169.39 237.389 169.686 237.06 170.067 236.826C170.448 236.592 170.895 236.474 171.406 236.474C171.917 236.474 172.364 236.592 172.745 236.826C173.126 237.06 173.422 237.389 173.632 237.813C173.843 238.237 173.949 238.732 173.949 239.298C173.949 239.861 173.843 240.353 173.632 240.775C173.422 241.196 173.126 241.524 172.745 241.759C172.364 241.993 171.917 242.11 171.406 242.11ZM171.409 241.219C171.741 241.219 172.016 241.131 172.233 240.956C172.451 240.781 172.612 240.548 172.716 240.256C172.823 239.965 172.876 239.644 172.876 239.294C172.876 238.946 172.823 238.626 172.716 238.335C172.612 238.042 172.451 237.806 172.233 237.629C172.016 237.451 171.741 237.362 171.409 237.362C171.076 237.362 170.799 237.451 170.578 237.629C170.361 237.806 170.199 238.042 170.092 238.335C169.988 238.626 169.936 238.946 169.936 239.294C169.936 239.644 169.988 239.965 170.092 240.256C170.199 240.548 170.361 240.781 170.578 240.956C170.799 241.131 171.076 241.219 171.409 241.219ZM179.221 237.877L178.259 238.048C178.218 237.924 178.155 237.807 178.067 237.696C177.982 237.585 177.866 237.494 177.719 237.423C177.572 237.352 177.389 237.316 177.169 237.316C176.868 237.316 176.617 237.384 176.416 237.518C176.214 237.651 176.114 237.823 176.114 238.033C176.114 238.216 176.181 238.362 176.316 238.474C176.451 238.585 176.669 238.676 176.97 238.747L177.836 238.946C178.338 239.062 178.712 239.241 178.958 239.482C179.204 239.724 179.328 240.037 179.328 240.423C179.328 240.75 179.233 241.041 179.044 241.297C178.856 241.55 178.595 241.749 178.259 241.893C177.925 242.038 177.538 242.11 177.097 242.11C176.487 242.11 175.988 241.98 175.602 241.719C175.217 241.457 174.98 241.084 174.892 240.601L175.919 240.445C175.982 240.712 176.114 240.915 176.313 241.052C176.512 241.187 176.771 241.254 177.09 241.254C177.438 241.254 177.717 241.182 177.925 241.038C178.133 240.891 178.237 240.712 178.237 240.501C178.237 240.331 178.173 240.188 178.046 240.072C177.92 239.956 177.727 239.868 177.467 239.809L176.544 239.607C176.035 239.491 175.658 239.306 175.414 239.053C175.173 238.799 175.052 238.478 175.052 238.09C175.052 237.768 175.142 237.487 175.322 237.245C175.502 237.004 175.75 236.815 176.068 236.68C176.385 236.543 176.748 236.474 177.158 236.474C177.747 236.474 178.211 236.602 178.55 236.858C178.888 237.111 179.112 237.451 179.221 237.877ZM182.846 242.11C182.308 242.11 181.846 241.995 181.457 241.766C181.071 241.534 180.773 241.208 180.562 240.789C180.354 240.368 180.25 239.874 180.25 239.308C180.25 238.75 180.354 238.257 180.562 237.831C180.773 237.405 181.067 237.072 181.443 236.833C181.822 236.594 182.265 236.474 182.771 236.474C183.079 236.474 183.377 236.525 183.666 236.627C183.955 236.729 184.214 236.889 184.444 237.107C184.674 237.324 184.855 237.607 184.987 237.955C185.12 238.301 185.186 238.721 185.186 239.216V239.592H180.85V238.797H184.146C184.146 238.518 184.089 238.27 183.975 238.055C183.862 237.837 183.702 237.665 183.496 237.54C183.292 237.414 183.053 237.352 182.778 237.352C182.48 237.352 182.22 237.425 181.997 237.572C181.777 237.716 181.607 237.906 181.486 238.14C181.367 238.372 181.308 238.624 181.308 238.896V239.518C181.308 239.882 181.372 240.192 181.5 240.448C181.63 240.704 181.811 240.899 182.043 241.034C182.275 241.167 182.546 241.233 182.857 241.233C183.058 241.233 183.241 241.205 183.407 241.148C183.573 241.089 183.716 241.001 183.837 240.885C183.957 240.769 184.05 240.626 184.114 240.455L185.119 240.636C185.038 240.932 184.894 241.192 184.685 241.414C184.479 241.634 184.22 241.806 183.908 241.929C183.598 242.05 183.244 242.11 182.846 242.11ZM189.71 242H188.545L191.163 234.727H192.43L195.048 242H193.883L191.827 236.048H191.77L189.71 242ZM189.906 239.152H193.684V240.075H189.906V239.152ZM196.013 242V236.545H197.032V237.433H197.099C197.213 237.133 197.399 236.898 197.657 236.73C197.915 236.56 198.224 236.474 198.584 236.474C198.948 236.474 199.254 236.56 199.5 236.73C199.748 236.901 199.932 237.135 200.05 237.433H200.107C200.237 237.142 200.444 236.91 200.729 236.737C201.013 236.562 201.351 236.474 201.744 236.474C202.239 236.474 202.643 236.629 202.955 236.94C203.27 237.25 203.427 237.717 203.427 238.342V242H202.366V238.442C202.366 238.072 202.265 237.805 202.064 237.639C201.863 237.473 201.622 237.391 201.343 237.391C200.997 237.391 200.729 237.497 200.537 237.71C200.345 237.921 200.249 238.192 200.249 238.523V242H199.191V238.374C199.191 238.078 199.099 237.84 198.914 237.661C198.729 237.481 198.489 237.391 198.193 237.391C197.992 237.391 197.806 237.444 197.635 237.55C197.467 237.655 197.331 237.8 197.227 237.987C197.125 238.174 197.074 238.391 197.074 238.637V242H196.013ZM207.148 242.11C206.637 242.11 206.19 241.993 205.809 241.759C205.428 241.524 205.132 241.196 204.922 240.775C204.711 240.353 204.605 239.861 204.605 239.298C204.605 238.732 204.711 238.237 204.922 237.813C205.132 237.389 205.428 237.06 205.809 236.826C206.19 236.592 206.637 236.474 207.148 236.474C207.659 236.474 208.106 236.592 208.487 236.826C208.868 237.06 209.164 237.389 209.375 237.813C209.585 238.237 209.691 238.732 209.691 239.298C209.691 239.861 209.585 240.353 209.375 240.775C209.164 241.196 208.868 241.524 208.487 241.759C208.106 241.993 207.659 242.11 207.148 242.11ZM207.152 241.219C207.483 241.219 207.758 241.131 207.975 240.956C208.193 240.781 208.354 240.548 208.458 240.256C208.565 239.965 208.618 239.644 208.618 239.294C208.618 238.946 208.565 238.626 208.458 238.335C208.354 238.042 208.193 237.806 207.975 237.629C207.758 237.451 207.483 237.362 207.152 237.362C206.818 237.362 206.541 237.451 206.321 237.629C206.103 237.806 205.941 238.042 205.834 238.335C205.73 238.626 205.678 238.946 205.678 239.294C205.678 239.644 205.73 239.965 205.834 240.256C205.941 240.548 206.103 240.781 206.321 240.956C206.541 241.131 206.818 241.219 207.152 241.219ZM214.331 239.738V236.545H215.396V242H214.352V241.055H214.296C214.17 241.347 213.969 241.589 213.692 241.783C213.417 241.975 213.075 242.071 212.666 242.071C212.315 242.071 212.005 241.994 211.735 241.84C211.468 241.684 211.257 241.453 211.103 241.148C210.952 240.842 210.876 240.465 210.876 240.015V236.545H211.938V239.887C211.938 240.259 212.041 240.555 212.247 240.775C212.453 240.995 212.72 241.105 213.049 241.105C213.248 241.105 213.446 241.055 213.642 240.956C213.841 240.857 214.006 240.706 214.136 240.505C214.268 240.304 214.334 240.048 214.331 239.738ZM217.885 238.761V242H216.823V236.545H217.842V237.433H217.91C218.035 237.144 218.232 236.912 218.499 236.737C218.769 236.562 219.109 236.474 219.518 236.474C219.89 236.474 220.216 236.553 220.495 236.709C220.774 236.863 220.991 237.092 221.145 237.398C221.299 237.703 221.376 238.081 221.376 238.531V242H220.314V238.658C220.314 238.263 220.211 237.954 220.005 237.732C219.799 237.507 219.516 237.394 219.156 237.394C218.91 237.394 218.691 237.447 218.499 237.554C218.31 237.661 218.16 237.817 218.048 238.023C217.939 238.226 217.885 238.473 217.885 238.761ZM225.346 236.545V237.398H222.366V236.545H225.346ZM223.165 235.239H224.227V240.398C224.227 240.604 224.258 240.759 224.32 240.864C224.381 240.965 224.46 241.035 224.558 241.073C224.657 241.109 224.765 241.126 224.881 241.126C224.966 241.126 225.04 241.121 225.104 241.109C225.168 241.097 225.218 241.087 225.254 241.08L225.445 241.957C225.384 241.981 225.296 242.005 225.183 242.028C225.069 242.054 224.927 242.069 224.756 242.071C224.477 242.076 224.217 242.026 223.975 241.922C223.734 241.818 223.538 241.657 223.389 241.439C223.24 241.221 223.165 240.948 223.165 240.619V235.239Z" fill="currentColor"/>
<rect x="56" y="30" width="80" height="22" rx="11" fill="currentColor" fill-opacity="0.1"/>
<path d="M66.6333 38.2148V37H73.0161V38.2148H70.5435V45H69.106V38.2148H66.6333ZM75.9312 45.1172C75.3452 45.1172 74.8374 44.9883 74.4077 44.7305C73.978 44.4727 73.6447 44.112 73.4077 43.6484C73.1733 43.1849 73.0562 42.6432 73.0562 42.0234C73.0562 41.4036 73.1733 40.8607 73.4077 40.3945C73.6447 39.9284 73.978 39.5664 74.4077 39.3086C74.8374 39.0508 75.3452 38.9219 75.9312 38.9219C76.5171 38.9219 77.0249 39.0508 77.4546 39.3086C77.8843 39.5664 78.2163 39.9284 78.4507 40.3945C78.6877 40.8607 78.8062 41.4036 78.8062 42.0234C78.8062 42.6432 78.6877 43.1849 78.4507 43.6484C78.2163 44.112 77.8843 44.4727 77.4546 44.7305C77.0249 44.9883 76.5171 45.1172 75.9312 45.1172ZM75.939 43.9844C76.2567 43.9844 76.5223 43.8971 76.7358 43.7227C76.9494 43.5456 77.1082 43.3086 77.2124 43.0117C77.3192 42.7148 77.3726 42.3841 77.3726 42.0195C77.3726 41.6523 77.3192 41.3203 77.2124 41.0234C77.1082 40.724 76.9494 40.4857 76.7358 40.3086C76.5223 40.1315 76.2567 40.043 75.939 40.043C75.6134 40.043 75.3426 40.1315 75.1265 40.3086C74.9129 40.4857 74.7528 40.724 74.646 41.0234C74.5418 41.3203 74.4897 41.6523 74.4897 42.0195C74.4897 42.3841 74.5418 42.7148 74.646 43.0117C74.7528 43.3086 74.9129 43.5456 75.1265 43.7227C75.3426 43.8971 75.6134 43.9844 75.939 43.9844ZM82.2329 45.1055C81.7616 45.1055 81.3397 44.9844 80.9673 44.7422C80.5949 44.5 80.3006 44.1484 80.0845 43.6875C79.8683 43.2266 79.7603 42.6667 79.7603 42.0078C79.7603 41.3411 79.8696 40.7786 80.0884 40.3203C80.3097 39.8594 80.6079 39.5117 80.9829 39.2773C81.3579 39.0404 81.7759 38.9219 82.2368 38.9219C82.5884 38.9219 82.8774 38.9818 83.104 39.1016C83.3306 39.2187 83.5103 39.3607 83.6431 39.5273C83.7759 39.6914 83.8787 39.8464 83.9517 39.9922H84.0103V37H85.4282V45H84.0376V44.0547H83.9517C83.8787 44.2005 83.7733 44.3555 83.6353 44.5195C83.4972 44.681 83.3149 44.819 83.0884 44.9336C82.8618 45.0482 82.5767 45.1055 82.2329 45.1055ZM82.6274 43.9453C82.9269 43.9453 83.1821 43.8646 83.3931 43.7031C83.604 43.5391 83.7642 43.3112 83.8735 43.0195C83.9829 42.7279 84.0376 42.388 84.0376 42C84.0376 41.612 83.9829 41.2747 83.8735 40.9883C83.7668 40.7018 83.6079 40.4792 83.397 40.3203C83.1886 40.1615 82.9321 40.082 82.6274 40.082C82.3123 40.082 82.0493 40.1641 81.8384 40.3281C81.6274 40.4922 81.4686 40.7187 81.3618 41.0078C81.255 41.2969 81.2017 41.6276 81.2017 42C81.2017 42.375 81.255 42.7096 81.3618 43.0039C81.4712 43.2956 81.6313 43.526 81.8423 43.6953C82.0558 43.862 82.3175 43.9453 82.6274 43.9453ZM88.6616 45.1211C88.2814 45.1211 87.939 45.0534 87.6343 44.918C87.3322 44.7799 87.0926 44.5768 86.9155 44.3086C86.741 44.0404 86.6538 43.7096 86.6538 43.3164C86.6538 42.9779 86.7163 42.6979 86.8413 42.4766C86.9663 42.2552 87.1369 42.0781 87.353 41.9453C87.5692 41.8125 87.8127 41.7122 88.0835 41.6445C88.3569 41.5742 88.6395 41.5234 88.9312 41.4922C89.2827 41.4557 89.5679 41.4232 89.7866 41.3945C90.0054 41.3633 90.1642 41.3164 90.2632 41.2539C90.3647 41.1888 90.4155 41.0885 90.4155 40.9531V40.9297C90.4155 40.6354 90.3283 40.4076 90.1538 40.2461C89.9793 40.0846 89.728 40.0039 89.3999 40.0039C89.0535 40.0039 88.7788 40.0794 88.5757 40.2305C88.3752 40.3815 88.2397 40.5599 88.1694 40.7656L86.8491 40.5781C86.9533 40.2135 87.1252 39.9089 87.3647 39.6641C87.6043 39.4167 87.8973 39.2318 88.2437 39.1094C88.59 38.9844 88.9728 38.9219 89.3921 38.9219C89.6812 38.9219 89.9689 38.9557 90.2554 39.0234C90.5418 39.0911 90.8035 39.2031 91.0405 39.3594C91.2775 39.513 91.4676 39.7227 91.6108 39.9883C91.7567 40.2539 91.8296 40.5859 91.8296 40.9844V45H90.4702V44.1758H90.4233C90.3374 44.3424 90.2163 44.4987 90.0601 44.6445C89.9064 44.7878 89.7124 44.9036 89.478 44.9922C89.2463 45.0781 88.9741 45.1211 88.6616 45.1211ZM89.0288 44.082C89.3127 44.082 89.5588 44.026 89.7671 43.9141C89.9754 43.7995 90.1356 43.6484 90.2476 43.4609C90.3621 43.2734 90.4194 43.069 90.4194 42.8477V42.1406C90.3752 42.1771 90.2996 42.2109 90.1929 42.2422C90.0887 42.2734 89.9715 42.3008 89.8413 42.3242C89.7111 42.3477 89.5822 42.3685 89.4546 42.3867C89.327 42.4049 89.2163 42.4206 89.1226 42.4336C88.9116 42.4622 88.7228 42.5091 88.5562 42.5742C88.3895 42.6393 88.258 42.7305 88.1616 42.8477C88.0653 42.9622 88.0171 43.1107 88.0171 43.293C88.0171 43.5534 88.1121 43.75 88.3022 43.8828C88.4924 44.0156 88.7345 44.082 89.0288 44.082ZM93.9155 47.25C93.7228 47.25 93.5444 47.2344 93.3804 47.2031C93.2189 47.1745 93.09 47.1406 92.9937 47.1016L93.3218 46C93.5275 46.0599 93.7111 46.0885 93.8726 46.0859C94.034 46.0833 94.1759 46.0326 94.2983 45.9336C94.4233 45.8372 94.5288 45.6758 94.6147 45.4492L94.7358 45.125L92.5601 39H94.0601L95.4429 43.5312H95.5054L96.8921 39H98.396L95.9937 45.7266C95.8817 46.0443 95.7332 46.3164 95.5483 46.543C95.3634 46.7721 95.1369 46.9466 94.8687 47.0664C94.603 47.1888 94.2853 47.25 93.9155 47.25ZM109.314 41C109.314 41.862 109.153 42.6003 108.83 43.2148C108.509 43.8268 108.072 44.2956 107.517 44.6211C106.965 44.9466 106.339 45.1094 105.638 45.1094C104.938 45.1094 104.31 44.9466 103.755 44.6211C103.203 44.293 102.766 43.8229 102.443 43.2109C102.123 42.5964 101.962 41.8594 101.962 41C101.962 40.138 102.123 39.401 102.443 38.7891C102.766 38.1745 103.203 37.7044 103.755 37.3789C104.31 37.0534 104.938 36.8906 105.638 36.8906C106.339 36.8906 106.965 37.0534 107.517 37.3789C108.072 37.7044 108.509 38.1745 108.83 38.7891C109.153 39.401 109.314 40.138 109.314 41ZM107.857 41C107.857 40.3932 107.762 39.8815 107.572 39.4648C107.384 39.0456 107.124 38.7292 106.791 38.5156C106.457 38.2995 106.073 38.1914 105.638 38.1914C105.203 38.1914 104.819 38.2995 104.486 38.5156C104.153 38.7292 103.891 39.0456 103.701 39.4648C103.513 39.8815 103.419 40.3932 103.419 41C103.419 41.6068 103.513 42.1198 103.701 42.5391C103.891 42.9557 104.153 43.2721 104.486 43.4883C104.819 43.7018 105.203 43.8086 105.638 43.8086C106.073 43.8086 106.457 43.7018 106.791 43.4883C107.124 43.2721 107.384 42.9557 107.572 42.5391C107.762 42.1198 107.857 41.6068 107.857 41ZM112.036 41.4844V45H110.622V39H111.973V40.0195H112.043C112.181 39.6836 112.402 39.4167 112.704 39.2187C113.008 39.0208 113.385 38.9219 113.833 38.9219C114.247 38.9219 114.607 39.0104 114.915 39.1875C115.224 39.3646 115.464 39.6211 115.633 39.957C115.805 40.293 115.89 40.7005 115.887 41.1797V45H114.473V41.3984C114.473 40.9974 114.369 40.6836 114.161 40.457C113.955 40.2305 113.67 40.1172 113.305 40.1172C113.058 40.1172 112.838 40.1719 112.645 40.2812C112.455 40.388 112.305 40.543 112.196 40.7461C112.089 40.9492 112.036 41.1953 112.036 41.4844ZM118.739 37V45H117.325V37H118.739ZM121.072 47.25C120.879 47.25 120.701 47.2344 120.537 47.2031C120.375 47.1745 120.246 47.1406 120.15 47.1016L120.478 46C120.684 46.0599 120.867 46.0885 121.029 46.0859C121.19 46.0833 121.332 46.0326 121.455 45.9336C121.58 45.8372 121.685 45.6758 121.771 45.4492L121.892 45.125L119.716 39H121.216L122.599 43.5312H122.662L124.048 39H125.552L123.15 45.7266C123.038 46.0443 122.889 46.3164 122.705 46.543C122.52 46.7721 122.293 46.9466 122.025 47.0664C121.759 47.1888 121.442 47.25 121.072 47.25Z" fill="currentColor"/>
<rect x="142" y="30" width="81.2" height="22" rx="11" fill="currentColor"/>
<path fill-rule="evenodd" clip-rule="evenodd" d="M162.966 36.7343C163.278 37.0467 163.278 37.5533 162.966 37.8657L156.566 44.2657C156.253 44.5781 155.747 44.5781 155.434 44.2657L152.234 41.0657C151.922 40.7533 151.922 40.2467 152.234 39.9343C152.547 39.6219 153.053 39.6219 153.366 39.9343L156 42.5686L161.834 36.7343C162.147 36.4219 162.653 36.4219 162.966 36.7343Z" fill="white"/>
<path d="M169.213 37H171.299L173.502 42.375H173.596L175.799 37H177.885V45H176.244V39.793H176.178L174.107 44.9609H172.99L170.92 39.7734H170.853V45H169.213V37ZM181.958 45.1172C181.351 45.1172 180.826 44.9883 180.384 44.7305C179.944 44.4701 179.604 44.1081 179.364 43.6445C179.124 43.1784 179.005 42.638 179.005 42.0234C179.005 41.4036 179.124 40.862 179.364 40.3984C179.604 39.9323 179.944 39.5703 180.384 39.3125C180.826 39.0521 181.351 38.9219 181.958 38.9219C182.565 38.9219 183.088 39.0521 183.528 39.3125C183.971 39.5703 184.312 39.9323 184.552 40.3984C184.791 40.862 184.911 41.4036 184.911 42.0234C184.911 42.638 184.791 43.1784 184.552 43.6445C184.312 44.1081 183.971 44.4701 183.528 44.7305C183.088 44.9883 182.565 45.1172 181.958 45.1172ZM181.966 43.8281C182.242 43.8281 182.472 43.75 182.657 43.5938C182.842 43.4349 182.981 43.2187 183.075 42.9453C183.171 42.6719 183.22 42.3607 183.22 42.0117C183.22 41.6628 183.171 41.3516 183.075 41.0781C182.981 40.8047 182.842 40.5885 182.657 40.4297C182.472 40.2708 182.242 40.1914 181.966 40.1914C181.687 40.1914 181.453 40.2708 181.263 40.4297C181.075 40.5885 180.933 40.8047 180.837 41.0781C180.743 41.3516 180.696 41.6628 180.696 42.0117C180.696 42.3607 180.743 42.6719 180.837 42.9453C180.933 43.2187 181.075 43.4349 181.263 43.5938C181.453 43.75 181.687 43.8281 181.966 43.8281ZM187.657 41.5313V45H185.993V39H187.579V40.0586H187.649C187.782 39.7096 188.005 39.4336 188.317 39.2305C188.63 39.0247 189.009 38.9219 189.454 38.9219C189.871 38.9219 190.234 39.013 190.544 39.1953C190.854 39.3776 191.095 39.638 191.266 39.9766C191.438 40.3125 191.524 40.7135 191.524 41.1797V45H189.86V41.4766C189.863 41.1094 189.769 40.8229 189.579 40.6172C189.389 40.4089 189.127 40.3047 188.794 40.3047C188.57 40.3047 188.372 40.3529 188.2 40.4492C188.031 40.5456 187.898 40.6862 187.802 40.8711C187.708 41.0534 187.66 41.2734 187.657 41.5313ZM196.027 39V40.25H192.414V39H196.027ZM193.234 37.5625H194.898V43.1562C194.898 43.3099 194.922 43.4297 194.969 43.5156C195.015 43.599 195.081 43.6576 195.164 43.6914C195.25 43.7253 195.349 43.7422 195.461 43.7422C195.539 43.7422 195.617 43.7357 195.695 43.7227C195.773 43.707 195.833 43.6953 195.875 43.6875L196.137 44.9258C196.053 44.9518 195.936 44.9818 195.785 45.0156C195.634 45.0521 195.45 45.0742 195.234 45.082C194.833 45.0977 194.482 45.0443 194.18 44.9219C193.88 44.7995 193.647 44.6094 193.48 44.3516C193.314 44.0937 193.232 43.7682 193.234 43.375V37.5625ZM198.904 41.5313V45H197.24V37H198.857V40.0586H198.928C199.063 39.7044 199.282 39.4271 199.584 39.2266C199.886 39.0234 200.265 38.9219 200.721 38.9219C201.137 38.9219 201.5 39.013 201.81 39.1953C202.123 39.375 202.365 39.6341 202.537 39.9727C202.711 40.3086 202.797 40.7109 202.795 41.1797V45H201.131V41.4766C201.133 41.1068 201.04 40.819 200.849 40.6133C200.662 40.4076 200.399 40.3047 200.06 40.3047C199.834 40.3047 199.633 40.3529 199.459 40.4492C199.287 40.5456 199.152 40.6862 199.053 40.8711C198.956 41.0534 198.907 41.2734 198.904 41.5313ZM205.768 37V45H204.104V37H205.768ZM208.129 47.25C207.918 47.25 207.72 47.2331 207.535 47.1992C207.353 47.168 207.202 47.1276 207.082 47.0781L207.457 45.8359C207.652 45.8958 207.828 45.9284 207.984 45.9336C208.143 45.9388 208.28 45.9023 208.394 45.8242C208.512 45.7461 208.607 45.6133 208.68 45.4258L208.777 45.1719L206.625 39H208.375L209.617 43.4062H209.68L210.933 39H212.695L210.363 45.6484C210.251 45.9714 210.099 46.2526 209.906 46.4922C209.716 46.7344 209.475 46.9206 209.183 47.0508C208.892 47.1836 208.54 47.25 208.129 47.25Z" fill="white"/>
<path d="M69.8353 341H68.324L70.2871 335.182H72.1592L74.1223 341H72.6109L71.2444 336.648H71.199L69.8353 341ZM69.6336 338.71H72.7927V339.778H69.6336V338.71ZM76.4817 340.159V336.045H77.6265V340.159H76.4817ZM74.9959 338.676V337.528H79.1095V338.676H74.9959ZM81.9362 336.196V335.182H86.7146V336.196H84.9334V341H83.7174V336.196H81.9362ZM87.5015 341V335.182H89.797C90.2364 335.182 90.6114 335.26 90.922 335.418C91.2345 335.573 91.4722 335.794 91.6351 336.08C91.7998 336.364 91.8822 336.698 91.8822 337.082C91.8822 337.469 91.7989 337.801 91.6322 338.08C91.4656 338.356 91.2241 338.568 90.9078 338.716C90.5934 338.864 90.2127 338.938 89.7657 338.938H88.2288V337.949H89.5669C89.8017 337.949 89.9968 337.917 90.1521 337.852C90.3074 337.788 90.4229 337.691 90.4987 337.562C90.5763 337.434 90.6152 337.274 90.6152 337.082C90.6152 336.889 90.5763 336.726 90.4987 336.594C90.4229 336.461 90.3065 336.361 90.1493 336.293C89.994 336.223 89.7979 336.188 89.5612 336.188H88.7317V341H87.5015ZM90.6436 338.352L92.0896 341H90.7317L89.3169 338.352H90.6436ZM93.7544 341H92.4362L94.4447 335.182H96.0299L98.0356 341H96.7174L95.2601 336.511H95.2146L93.7544 341ZM93.672 338.713H96.7856V339.673H93.672V338.713ZM103.602 335.182V341H102.54L100.009 337.338H99.966V341H98.7359V335.182H99.8155L102.327 338.841H102.378V335.182H103.602ZM107.775 336.855C107.752 336.626 107.655 336.448 107.482 336.321C107.31 336.194 107.076 336.131 106.781 336.131C106.58 336.131 106.41 336.159 106.272 336.216C106.134 336.271 106.028 336.348 105.954 336.446C105.882 336.545 105.846 336.656 105.846 336.781C105.842 336.885 105.864 336.976 105.911 337.054C105.961 337.132 106.028 337.199 106.113 337.256C106.198 337.311 106.297 337.359 106.408 337.401C106.52 337.44 106.64 337.474 106.766 337.503L107.289 337.628C107.543 337.685 107.776 337.76 107.988 337.855C108.2 337.95 108.384 338.066 108.539 338.205C108.694 338.343 108.815 338.506 108.9 338.693C108.987 338.881 109.032 339.096 109.033 339.338C109.032 339.694 108.941 340.003 108.761 340.264C108.583 340.524 108.325 340.725 107.988 340.869C107.653 341.011 107.248 341.082 106.775 341.082C106.305 341.082 105.896 341.01 105.548 340.866C105.201 340.723 104.93 340.509 104.735 340.227C104.542 339.943 104.441 339.592 104.431 339.173H105.622C105.635 339.368 105.691 339.531 105.789 339.662C105.89 339.791 106.023 339.888 106.19 339.955C106.358 340.019 106.549 340.051 106.761 340.051C106.969 340.051 107.15 340.021 107.303 339.96C107.459 339.9 107.579 339.815 107.664 339.707C107.749 339.599 107.792 339.475 107.792 339.335C107.792 339.205 107.753 339.095 107.676 339.006C107.6 338.917 107.488 338.841 107.34 338.778C107.194 338.716 107.016 338.659 106.803 338.608L106.17 338.449C105.679 338.33 105.292 338.143 105.008 337.889C104.724 337.635 104.583 337.294 104.585 336.864C104.583 336.511 104.676 336.204 104.866 335.94C105.057 335.677 105.319 335.472 105.653 335.324C105.986 335.176 106.365 335.102 106.789 335.102C107.221 335.102 107.598 335.176 107.92 335.324C108.244 335.472 108.496 335.677 108.676 335.94C108.855 336.204 108.948 336.509 108.954 336.855H107.775ZM109.861 341V335.182H112.156C112.598 335.182 112.974 335.266 113.284 335.435C113.595 335.601 113.832 335.833 113.994 336.131C114.159 336.426 114.242 336.767 114.242 337.153C114.242 337.54 114.158 337.881 113.992 338.176C113.825 338.472 113.583 338.702 113.267 338.866C112.953 339.031 112.572 339.114 112.125 339.114H110.662V338.128H111.926C112.163 338.128 112.358 338.087 112.511 338.006C112.667 337.922 112.782 337.808 112.858 337.662C112.936 337.514 112.975 337.345 112.975 337.153C112.975 336.96 112.936 336.792 112.858 336.648C112.782 336.502 112.667 336.389 112.511 336.31C112.356 336.228 112.159 336.188 111.921 336.188H111.091V341H109.861ZM115.372 341H114.053L116.062 335.182H117.647L119.653 341H118.335L116.877 336.511H116.832L115.372 341ZM115.289 338.713H118.403V339.673H115.289V338.713ZM120.353 341V335.182H122.649C123.088 335.182 123.463 335.26 123.774 335.418C124.086 335.573 124.324 335.794 124.487 336.08C124.651 336.364 124.734 336.698 124.734 337.082C124.734 337.469 124.65 337.801 124.484 338.08C124.317 338.356 124.076 338.568 123.759 338.716C123.445 338.864 123.064 338.938 122.617 338.938H121.08V337.949H122.418C122.653 337.949 122.848 337.917 123.004 337.852C123.159 337.788 123.275 337.691 123.35 337.562C123.428 337.434 123.467 337.274 123.467 337.082C123.467 336.889 123.428 336.726 123.35 336.594C123.275 336.461 123.158 336.361 123.001 336.293C122.846 336.223 122.65 336.188 122.413 336.188H121.583V341H120.353ZM123.495 338.352L124.941 341H123.583L122.168 338.352H123.495ZM125.603 341V335.182H129.524V336.196H126.833V337.582H129.322V338.597H126.833V339.986H129.535V341H125.603ZM135.368 335.182V341H134.306L131.774 337.338H131.732V341H130.502V335.182H131.581L134.092 338.841H134.144V335.182H135.368ZM141.518 337.219H140.274C140.251 337.058 140.204 336.915 140.134 336.79C140.064 336.663 139.974 336.555 139.864 336.466C139.755 336.377 139.628 336.309 139.484 336.261C139.342 336.214 139.187 336.19 139.021 336.19C138.72 336.19 138.457 336.265 138.234 336.415C138.01 336.562 137.837 336.778 137.714 337.062C137.591 337.345 137.529 337.687 137.529 338.091C137.529 338.506 137.591 338.854 137.714 339.136C137.839 339.419 138.013 339.632 138.237 339.776C138.46 339.92 138.719 339.991 139.012 339.991C139.177 339.991 139.329 339.97 139.47 339.926C139.612 339.883 139.738 339.819 139.847 339.736C139.957 339.651 140.048 339.547 140.12 339.426C140.194 339.305 140.245 339.167 140.274 339.011L141.518 339.017C141.486 339.284 141.405 339.542 141.276 339.79C141.15 340.036 140.978 340.257 140.762 340.452C140.548 340.645 140.292 340.798 139.995 340.912C139.7 341.024 139.365 341.08 138.992 341.08C138.473 341.08 138.009 340.962 137.6 340.727C137.193 340.492 136.871 340.152 136.634 339.707C136.4 339.262 136.282 338.723 136.282 338.091C136.282 337.456 136.401 336.917 136.64 336.472C136.879 336.027 137.203 335.687 137.612 335.455C138.021 335.22 138.481 335.102 138.992 335.102C139.329 335.102 139.642 335.15 139.93 335.244C140.22 335.339 140.476 335.477 140.7 335.659C140.923 335.839 141.105 336.06 141.245 336.321C141.387 336.582 141.478 336.882 141.518 337.219ZM142.059 335.182H143.437L144.764 337.688H144.82L146.147 335.182H147.525L145.403 338.943V341H144.181V338.943L142.059 335.182ZM150.048 341V335.182H152.344C152.785 335.182 153.161 335.266 153.472 335.435C153.782 335.601 154.019 335.833 154.182 336.131C154.347 336.426 154.429 336.767 154.429 337.153C154.429 337.54 154.346 337.881 154.179 338.176C154.012 338.472 153.771 338.702 153.455 338.866C153.14 339.031 152.76 339.114 152.313 339.114H150.85V338.128H152.114C152.35 338.128 152.546 338.087 152.699 338.006C152.854 337.922 152.97 337.808 153.046 337.662C153.123 337.514 153.162 337.345 153.162 337.153C153.162 336.96 153.123 336.792 153.046 336.648C152.97 336.502 152.854 336.389 152.699 336.31C152.544 336.228 152.347 336.188 152.108 336.188H151.279V341H150.048ZM155.228 341V335.182H157.524C157.963 335.182 158.338 335.26 158.649 335.418C158.961 335.573 159.199 335.794 159.362 336.08C159.526 336.364 159.609 336.698 159.609 337.082C159.609 337.469 159.525 337.801 159.359 338.08C159.192 338.356 158.951 338.568 158.634 338.716C158.32 338.864 157.939 338.938 157.492 338.938H155.955V337.949H157.293C157.528 337.949 157.723 337.917 157.879 337.852C158.034 337.788 158.149 337.691 158.225 337.562C158.303 337.434 158.342 337.274 158.342 337.082C158.342 336.889 158.303 336.726 158.225 336.594C158.149 336.461 158.033 336.361 157.876 336.293C157.721 336.223 157.524 336.188 157.288 336.188H156.458V341H155.228ZM158.37 338.352L159.816 341H158.458L157.043 338.352H158.37ZM165.825 338.091C165.825 338.725 165.704 339.265 165.464 339.71C165.225 340.155 164.899 340.495 164.487 340.73C164.076 340.963 163.614 341.08 163.1 341.08C162.583 341.08 162.119 340.962 161.708 340.727C161.297 340.492 160.972 340.152 160.734 339.707C160.495 339.262 160.376 338.723 160.376 338.091C160.376 337.456 160.495 336.917 160.734 336.472C160.972 336.027 161.297 335.687 161.708 335.455C162.119 335.22 162.583 335.102 163.1 335.102C163.614 335.102 164.076 335.22 164.487 335.455C164.899 335.687 165.225 336.027 165.464 336.472C165.704 336.917 165.825 337.456 165.825 338.091ZM164.578 338.091C164.578 337.68 164.516 337.333 164.393 337.051C164.272 336.769 164.1 336.555 163.879 336.409C163.657 336.263 163.398 336.19 163.1 336.19C162.803 336.19 162.543 336.263 162.322 336.409C162.1 336.555 161.928 336.769 161.805 337.051C161.684 337.333 161.623 337.68 161.623 338.091C161.623 338.502 161.684 338.848 161.805 339.131C161.928 339.413 162.1 339.627 162.322 339.773C162.543 339.919 162.803 339.991 163.1 339.991C163.398 339.991 163.657 339.919 163.879 339.773C164.1 339.627 164.272 339.413 164.393 339.131C164.516 338.848 164.578 338.502 164.578 338.091ZM166.736 335.182H168.253L169.855 339.091H169.923L171.526 335.182H173.043V341H171.85V337.213H171.801L170.296 340.972H169.483L167.977 337.199H167.929V341H166.736V335.182ZM175.286 335.182V341H174.056V335.182H175.286ZM179.455 336.855C179.432 336.626 179.334 336.448 179.162 336.321C178.99 336.194 178.756 336.131 178.46 336.131C178.26 336.131 178.09 336.159 177.952 336.216C177.814 336.271 177.707 336.348 177.634 336.446C177.562 336.545 177.526 336.656 177.526 336.781C177.522 336.885 177.544 336.976 177.591 337.054C177.64 337.132 177.707 337.199 177.793 337.256C177.878 337.311 177.976 337.359 178.088 337.401C178.2 337.44 178.319 337.474 178.446 337.503L178.969 337.628C179.223 337.685 179.456 337.76 179.668 337.855C179.88 337.95 180.064 338.066 180.219 338.205C180.374 338.343 180.494 338.506 180.58 338.693C180.667 338.881 180.711 339.096 180.713 339.338C180.711 339.694 180.62 340.003 180.44 340.264C180.262 340.524 180.005 340.725 179.668 340.869C179.332 341.011 178.928 341.082 178.455 341.082C177.985 341.082 177.576 341.01 177.227 340.866C176.881 340.723 176.61 340.509 176.415 340.227C176.222 339.943 176.12 339.592 176.111 339.173H177.301C177.315 339.368 177.37 339.531 177.469 339.662C177.569 339.791 177.703 339.888 177.869 339.955C178.038 340.019 178.228 340.051 178.44 340.051C178.649 340.051 178.83 340.021 178.983 339.96C179.138 339.9 179.259 339.815 179.344 339.707C179.429 339.599 179.472 339.475 179.472 339.335C179.472 339.205 179.433 339.095 179.355 339.006C179.279 338.917 179.168 338.841 179.02 338.778C178.874 338.716 178.695 338.659 178.483 338.608L177.85 338.449C177.359 338.33 176.972 338.143 176.688 337.889C176.404 337.635 176.262 337.294 176.264 336.864C176.262 336.511 176.356 336.204 176.546 335.94C176.737 335.677 176.999 335.472 177.332 335.324C177.666 335.176 178.045 335.102 178.469 335.102C178.901 335.102 179.278 335.176 179.6 335.324C179.923 335.472 180.175 335.677 180.355 335.94C180.535 336.204 180.628 336.509 180.634 336.855H179.455ZM181.541 341V335.182H185.461V336.196H182.771V337.582H185.259V338.597H182.771V339.986H185.472V341H181.541ZM191.876 341.091L188.955 338.17C188.722 337.938 188.567 337.667 188.489 337.358C188.414 337.049 188.415 336.742 188.492 336.438C188.57 336.131 188.724 335.864 188.955 335.636C189.192 335.403 189.462 335.249 189.765 335.173C190.07 335.096 190.374 335.096 190.677 335.173C190.982 335.251 191.253 335.405 191.489 335.636L191.876 336.011L192.262 335.636C192.501 335.405 192.772 335.251 193.075 335.173C193.378 335.096 193.681 335.096 193.984 335.173C194.289 335.249 194.56 335.403 194.796 335.636C195.027 335.864 195.182 336.131 195.259 336.438C195.337 336.742 195.337 337.049 195.259 337.358C195.184 337.667 195.029 337.938 194.796 338.17L191.876 341.091Z" fill="#BDBDBD"/>
<path fill-rule="evenodd" clip-rule="evenodd" d="M62 337.498H32C27.5817 337.498 24 341.08 24 345.498V382C24 386.418 27.5817 390 32 390H232C236.418 390 240 386.418 240 382V345.498C240 341.08 236.418 337.498 232 337.498H202V338.498H232C235.866 338.498 239 341.632 239 345.498V382C239 385.866 235.866 389 232 389H32C28.134 389 25 385.866 25 382V345.498C25 341.632 28.134 338.498 32 338.498H62V337.498Z" fill="#BDBDBD"/>
<rect x="53" y="352" width="158" height="12" rx="3" fill="#E0E0E0"/>
<rect x="70" y="368" width="124.985" height="12" rx="3" fill="#E0E0E0"/>
<rect x="24" y="401" width="216" height="36" rx="8" fill="currentColor"/>
<path d="M112.687 424H109.237V413.818H112.757C113.767 413.818 114.636 414.022 115.362 414.43C116.091 414.834 116.651 415.416 117.042 416.175C117.433 416.934 117.629 417.842 117.629 418.899C117.629 419.96 117.432 420.871 117.037 421.634C116.646 422.396 116.081 422.981 115.342 423.388C114.606 423.796 113.721 424 112.687 424ZM111.081 422.404H112.597C113.307 422.404 113.898 422.275 114.372 422.016C114.846 421.754 115.203 421.365 115.441 420.848C115.68 420.328 115.799 419.678 115.799 418.899C115.799 418.12 115.68 417.474 115.441 416.96C115.203 416.443 114.85 416.057 114.382 415.802C113.918 415.543 113.342 415.414 112.652 415.414H111.081V422.404ZM122.633 424.149C121.887 424.149 121.241 423.985 120.694 423.657C120.147 423.329 119.723 422.87 119.421 422.28C119.123 421.69 118.974 421 118.974 420.212C118.974 419.423 119.123 418.732 119.421 418.138C119.723 417.545 120.147 417.085 120.694 416.756C121.241 416.428 121.887 416.264 122.633 416.264C123.378 416.264 124.025 416.428 124.572 416.756C125.118 417.085 125.541 417.545 125.839 418.138C126.141 418.732 126.292 419.423 126.292 420.212C126.292 421 126.141 421.69 125.839 422.28C125.541 422.87 125.118 423.329 124.572 423.657C124.025 423.985 123.378 424.149 122.633 424.149ZM122.643 422.707C123.047 422.707 123.385 422.596 123.657 422.374C123.929 422.149 124.131 421.847 124.263 421.469C124.399 421.092 124.467 420.671 124.467 420.207C124.467 419.739 124.399 419.317 124.263 418.939C124.131 418.558 123.929 418.254 123.657 418.029C123.385 417.804 123.047 417.691 122.643 417.691C122.228 417.691 121.884 417.804 121.608 418.029C121.337 418.254 121.133 418.558 120.997 418.939C120.864 419.317 120.798 419.739 120.798 420.207C120.798 420.671 120.864 421.092 120.997 421.469C121.133 421.847 121.337 422.149 121.608 422.374C121.884 422.596 122.228 422.707 122.643 422.707ZM129.619 419.526V424H127.819V416.364H129.539V417.661H129.629C129.805 417.234 130.085 416.894 130.469 416.642C130.857 416.39 131.336 416.264 131.906 416.264C132.433 416.264 132.892 416.377 133.283 416.602C133.677 416.828 133.982 417.154 134.198 417.582C134.417 418.009 134.524 418.528 134.521 419.138V424H132.721V419.416C132.721 418.906 132.589 418.506 132.324 418.218C132.062 417.93 131.699 417.786 131.235 417.786C130.92 417.786 130.64 417.855 130.395 417.994C130.153 418.13 129.962 418.327 129.823 418.586C129.687 418.844 129.619 419.158 129.619 419.526ZM138.548 424.154C138.064 424.154 137.628 424.068 137.24 423.896C136.856 423.72 136.551 423.461 136.326 423.12C136.104 422.779 135.993 422.358 135.993 421.857C135.993 421.426 136.072 421.07 136.231 420.788C136.39 420.507 136.607 420.281 136.882 420.112C137.158 419.943 137.467 419.816 137.812 419.729C138.16 419.64 138.52 419.575 138.891 419.536C139.338 419.489 139.701 419.448 139.98 419.411C140.258 419.371 140.46 419.312 140.586 419.232C140.716 419.149 140.78 419.022 140.78 418.849V418.82C140.78 418.445 140.669 418.155 140.447 417.95C140.225 417.744 139.905 417.641 139.488 417.641C139.047 417.641 138.697 417.737 138.439 417.93C138.183 418.122 138.011 418.349 137.922 418.611L136.241 418.372C136.374 417.908 136.592 417.52 136.897 417.209C137.202 416.894 137.575 416.659 138.016 416.503C138.457 416.344 138.944 416.264 139.478 416.264C139.846 416.264 140.212 416.307 140.576 416.393C140.941 416.48 141.274 416.622 141.576 416.821C141.877 417.017 142.119 417.283 142.301 417.621C142.487 417.96 142.58 418.382 142.58 418.889V424H140.85V422.951H140.79C140.681 423.163 140.527 423.362 140.328 423.548C140.132 423.73 139.885 423.877 139.587 423.99C139.292 424.099 138.946 424.154 138.548 424.154ZM139.015 422.832C139.377 422.832 139.69 422.76 139.955 422.618C140.22 422.472 140.424 422.28 140.566 422.041C140.712 421.803 140.785 421.542 140.785 421.261V420.361C140.729 420.407 140.633 420.45 140.497 420.49C140.364 420.53 140.215 420.565 140.049 420.594C139.884 420.624 139.72 420.651 139.557 420.674C139.395 420.697 139.254 420.717 139.135 420.734C138.866 420.77 138.626 420.83 138.414 420.913C138.202 420.996 138.034 421.112 137.912 421.261C137.789 421.406 137.728 421.595 137.728 421.827C137.728 422.159 137.849 422.409 138.091 422.578C138.333 422.747 138.641 422.832 139.015 422.832ZM148.203 416.364V417.756H143.813V416.364H148.203ZM144.897 414.534H146.696V421.703C146.696 421.945 146.733 422.131 146.806 422.26C146.882 422.386 146.981 422.472 147.104 422.518C147.227 422.565 147.363 422.588 147.512 422.588C147.624 422.588 147.727 422.58 147.82 422.563C147.916 422.547 147.989 422.532 148.039 422.518L148.342 423.925C148.246 423.959 148.108 423.995 147.929 424.035C147.754 424.075 147.538 424.098 147.283 424.104C146.832 424.118 146.426 424.05 146.065 423.901C145.704 423.748 145.417 423.513 145.205 423.195C144.996 422.876 144.893 422.479 144.897 422.001V414.534ZM153.007 424.149C152.241 424.149 151.58 423.99 151.023 423.672C150.469 423.35 150.044 422.896 149.745 422.31C149.447 421.72 149.298 421.025 149.298 420.227C149.298 419.441 149.447 418.752 149.745 418.158C150.047 417.562 150.468 417.098 151.008 416.766C151.548 416.432 152.183 416.264 152.912 416.264C153.383 416.264 153.827 416.34 154.244 416.493C154.665 416.642 155.037 416.874 155.358 417.189C155.683 417.504 155.938 417.905 156.124 418.392C156.309 418.876 156.402 419.453 156.402 420.122V420.674H150.143V419.461H154.677C154.674 419.116 154.599 418.81 154.453 418.541C154.307 418.269 154.104 418.056 153.842 417.9C153.583 417.744 153.282 417.666 152.937 417.666C152.569 417.666 152.246 417.756 151.968 417.935C151.689 418.11 151.472 418.342 151.316 418.631C151.164 418.916 151.086 419.229 151.083 419.57V420.629C151.083 421.073 151.164 421.455 151.326 421.773C151.489 422.088 151.716 422.33 152.007 422.499C152.299 422.664 152.64 422.747 153.031 422.747C153.293 422.747 153.53 422.711 153.742 422.638C153.954 422.562 154.138 422.451 154.294 422.305C154.45 422.159 154.568 421.978 154.647 421.763L156.328 421.952C156.222 422.396 156.019 422.784 155.721 423.115C155.426 423.443 155.048 423.698 154.588 423.881C154.127 424.06 153.6 424.149 153.007 424.149Z" fill="white"/>
<path d="M30.9283 448.455H31.919V452.76C31.919 453.218 31.8114 453.624 31.5962 453.977C31.381 454.329 31.0785 454.606 30.6886 454.808C30.2987 455.009 29.8416 455.109 29.3175 455.109C28.7955 455.109 28.3395 455.009 27.9496 454.808C27.5597 454.606 27.2571 454.329 27.0419 453.977C26.8267 453.624 26.7191 453.218 26.7191 452.76V448.455H27.7067V452.68C27.7067 452.976 27.7717 453.239 27.9016 453.469C28.0337 453.699 28.2202 453.88 28.4609 454.012C28.7017 454.142 28.9872 454.207 29.3175 454.207C29.6499 454.207 29.9364 454.142 30.1772 454.012C30.4201 453.88 30.6055 453.699 30.7333 453.469C30.8633 453.239 30.9283 452.976 30.9283 452.68V448.455ZM36.9248 450.174C36.8907 449.871 36.7501 449.637 36.5029 449.471C36.2558 449.303 35.9447 449.218 35.5697 449.218C35.3012 449.218 35.069 449.261 34.873 449.346C34.6769 449.429 34.5246 449.544 34.4159 449.691C34.3094 449.836 34.2561 450.001 34.2561 450.187C34.2561 450.342 34.2923 450.477 34.3648 450.589C34.4394 450.702 34.5363 450.797 34.6556 450.874C34.7771 450.949 34.907 451.011 35.0455 451.062C35.184 451.112 35.3172 451.152 35.445 451.184L36.0843 451.35C36.2931 451.401 36.5072 451.471 36.7267 451.558C36.9461 451.645 37.1496 451.76 37.3371 451.903C37.5246 452.046 37.6759 452.223 37.7909 452.434C37.9081 452.645 37.9667 452.897 37.9667 453.191C37.9667 453.562 37.8708 453.891 37.6791 454.179C37.4894 454.466 37.2135 454.693 36.8513 454.859C36.4912 455.026 36.0555 455.109 35.5441 455.109C35.0541 455.109 34.6301 455.031 34.2721 454.875C33.9142 454.72 33.634 454.499 33.4316 454.214C33.2291 453.926 33.1173 453.585 33.096 453.191H34.0867C34.1059 453.428 34.1826 453.625 34.3169 453.782C34.4532 453.938 34.6269 454.054 34.8378 454.131C35.0509 454.205 35.2842 454.243 35.5377 454.243C35.8169 454.243 36.0651 454.199 36.2824 454.112C36.5019 454.022 36.6744 453.898 36.8002 453.741C36.9259 453.581 36.9887 453.395 36.9887 453.181C36.9887 452.988 36.9333 452.829 36.8225 452.705C36.7139 452.582 36.5658 452.479 36.3783 452.398C36.1929 452.317 35.983 452.246 35.7487 452.184L34.9752 451.973C34.4511 451.831 34.0356 451.621 33.7288 451.344C33.4241 451.067 33.2718 450.7 33.2718 450.244C33.2718 449.867 33.374 449.538 33.5786 449.257C33.7831 448.975 34.0601 448.757 34.4095 448.602C34.759 448.444 35.1531 448.365 35.5921 448.365C36.0352 448.365 36.4262 448.443 36.765 448.598C37.1059 448.754 37.3744 448.968 37.5704 449.241C37.7664 449.511 37.8687 449.822 37.8772 450.174H36.9248ZM41.2658 455H39.1468V448.455H41.3329C41.9743 448.455 42.525 448.586 42.9853 448.848C43.4455 449.108 43.7981 449.482 44.0431 449.969C44.2903 450.455 44.4139 451.038 44.4139 451.718C44.4139 452.4 44.2892 452.985 44.04 453.475C43.7928 453.966 43.4348 454.343 42.9661 454.607C42.4973 454.869 41.9306 455 41.2658 455ZM40.1344 454.137H41.2115C41.71 454.137 42.1245 454.043 42.4547 453.856C42.785 453.666 43.0321 453.392 43.1962 453.034C43.3603 452.674 43.4423 452.235 43.4423 451.718C43.4423 451.204 43.3603 450.768 43.1962 450.411C43.0343 450.053 42.7924 449.781 42.4707 449.596C42.149 449.41 41.7495 449.317 41.2722 449.317H40.1344V454.137Z" fill="currentColor"/>
<path d="M143.719 455V448.455H147.778V449.305H144.707V451.299H147.487V452.146H144.707V455H143.719ZM148.728 455H147.68L150.035 448.455H151.176L153.532 455H152.483L150.633 449.643H150.582L148.728 455ZM148.904 452.437H152.304V453.268H148.904V452.437ZM156.576 452.878H157.547L158.231 453.77L158.554 454.166L159.644 455.588H158.634L157.905 454.639L157.656 454.294L156.576 452.878ZM159.855 451.727C159.855 452.426 159.727 453.027 159.472 453.53C159.216 454.031 158.865 454.416 158.42 454.687C157.977 454.955 157.473 455.089 156.908 455.089C156.342 455.089 155.835 454.955 155.39 454.687C154.947 454.416 154.598 454.029 154.342 453.527C154.086 453.024 153.958 452.424 153.958 451.727C153.958 451.028 154.086 450.429 154.342 449.928C154.598 449.425 154.947 449.039 155.39 448.771C155.835 448.5 156.342 448.365 156.908 448.365C157.473 448.365 157.977 448.5 158.42 448.771C158.865 449.039 159.216 449.425 159.472 449.928C159.727 450.429 159.855 451.028 159.855 451.727ZM158.877 451.727C158.877 451.195 158.791 450.746 158.618 450.382C158.448 450.015 158.213 449.738 157.915 449.551C157.619 449.361 157.283 449.266 156.908 449.266C156.531 449.266 156.195 449.361 155.898 449.551C155.602 449.738 155.368 450.015 155.195 450.382C155.025 450.746 154.94 451.195 154.94 451.727C154.94 452.26 155.025 452.71 155.195 453.076C155.368 453.44 155.602 453.717 155.898 453.907C156.195 454.094 156.531 454.188 156.908 454.188C157.283 454.188 157.619 454.094 157.915 453.907C158.213 453.717 158.448 453.44 158.618 453.076C158.791 452.71 158.877 452.26 158.877 451.727ZM173.699 455V448.455H176.032C176.541 448.455 176.963 448.547 177.297 448.733C177.632 448.918 177.882 449.172 178.048 449.493C178.215 449.813 178.298 450.173 178.298 450.574C178.298 450.976 178.214 451.338 178.045 451.66C177.879 451.98 177.628 452.233 177.291 452.421C176.956 452.606 176.536 452.699 176.028 452.699H174.424V451.862H175.939C176.261 451.862 176.522 451.806 176.722 451.695C176.922 451.582 177.069 451.429 177.163 451.235C177.257 451.041 177.304 450.821 177.304 450.574C177.304 450.326 177.257 450.107 177.163 449.915C177.069 449.723 176.921 449.573 176.719 449.464C176.519 449.356 176.254 449.301 175.926 449.301H174.686V455H173.699ZM179.379 455V450.091H180.302V450.871H180.354C180.443 450.607 180.601 450.399 180.827 450.248C181.055 450.094 181.312 450.017 181.6 450.017C181.66 450.017 181.73 450.02 181.811 450.024C181.894 450.028 181.959 450.033 182.006 450.04V450.954C181.968 450.943 181.899 450.931 181.801 450.919C181.703 450.904 181.605 450.896 181.507 450.896C181.281 450.896 181.08 450.944 180.903 451.04C180.729 451.134 180.59 451.265 180.488 451.433C180.385 451.599 180.334 451.789 180.334 452.002V455H179.379ZM182.833 455V450.091H183.788V455H182.833ZM183.315 449.333C183.149 449.333 183.006 449.278 182.887 449.167C182.77 449.054 182.711 448.92 182.711 448.765C182.711 448.607 182.77 448.473 182.887 448.362C183.006 448.249 183.149 448.192 183.315 448.192C183.482 448.192 183.623 448.249 183.741 448.362C183.86 448.473 183.919 448.607 183.919 448.765C183.919 448.92 183.86 449.054 183.741 449.167C183.623 449.278 183.482 449.333 183.315 449.333ZM189.274 450.091L187.493 455H186.471L184.687 450.091H185.713L186.956 453.869H187.008L188.248 450.091H189.274ZM191.46 455.109C191.149 455.109 190.867 455.051 190.616 454.936C190.365 454.819 190.165 454.65 190.018 454.428C189.873 454.206 189.801 453.935 189.801 453.613C189.801 453.336 189.854 453.108 189.961 452.929C190.067 452.75 190.211 452.608 190.392 452.504C190.573 452.4 190.776 452.321 190.999 452.267C191.223 452.214 191.451 452.174 191.683 452.146C191.977 452.112 192.216 452.084 192.399 452.063C192.583 452.039 192.716 452.002 192.799 451.951C192.882 451.9 192.923 451.817 192.923 451.702V451.679C192.923 451.4 192.845 451.184 192.687 451.031C192.531 450.877 192.299 450.8 191.99 450.8C191.669 450.8 191.415 450.872 191.23 451.015C191.046 451.155 190.92 451.312 190.849 451.484L189.951 451.28C190.058 450.982 190.213 450.741 190.418 450.558C190.624 450.372 190.862 450.238 191.131 450.155C191.399 450.07 191.681 450.027 191.977 450.027C192.173 450.027 192.381 450.05 192.601 450.097C192.822 450.142 193.029 450.225 193.221 450.347C193.415 450.468 193.573 450.642 193.697 450.868C193.82 451.091 193.882 451.382 193.882 451.74V455H192.949V454.329H192.911C192.849 454.452 192.756 454.574 192.633 454.693C192.509 454.812 192.35 454.912 192.156 454.99C191.963 455.069 191.73 455.109 191.46 455.109ZM191.667 454.342C191.932 454.342 192.157 454.289 192.345 454.185C192.535 454.081 192.678 453.944 192.776 453.776C192.877 453.605 192.927 453.423 192.927 453.229V452.597C192.893 452.631 192.827 452.663 192.729 452.692C192.633 452.72 192.523 452.745 192.399 452.766C192.276 452.785 192.155 452.803 192.038 452.82C191.921 452.835 191.823 452.848 191.744 452.859C191.559 452.882 191.389 452.922 191.236 452.977C191.085 453.032 190.963 453.112 190.872 453.217C190.782 453.319 190.737 453.455 190.737 453.626C190.737 453.862 190.825 454.041 190.999 454.163C191.174 454.282 191.397 454.342 191.667 454.342ZM197.223 455.099C196.748 455.099 196.339 454.991 195.996 454.776C195.655 454.559 195.393 454.26 195.209 453.878C195.026 453.497 194.935 453.06 194.935 452.568C194.935 452.069 195.028 451.629 195.216 451.248C195.403 450.864 195.668 450.565 196.008 450.35C196.349 450.135 196.751 450.027 197.213 450.027C197.586 450.027 197.919 450.096 198.21 450.235C198.502 450.371 198.738 450.563 198.917 450.81C199.098 451.057 199.206 451.346 199.24 451.676H198.31C198.258 451.446 198.141 451.248 197.958 451.082C197.777 450.915 197.534 450.832 197.229 450.832C196.963 450.832 196.73 450.903 196.529 451.043C196.331 451.182 196.177 451.38 196.066 451.638C195.955 451.893 195.9 452.196 195.9 452.545C195.9 452.903 195.954 453.212 196.063 453.472C196.171 453.732 196.325 453.934 196.523 454.076C196.723 454.219 196.959 454.29 197.229 454.29C197.41 454.29 197.574 454.257 197.722 454.191C197.871 454.123 197.995 454.026 198.095 453.901C198.198 453.775 198.269 453.624 198.31 453.447H199.24C199.206 453.764 199.102 454.048 198.93 454.297C198.757 454.546 198.526 454.742 198.236 454.885C197.948 455.028 197.611 455.099 197.223 455.099ZM200.866 456.841C200.723 456.841 200.593 456.829 200.476 456.806C200.358 456.784 200.271 456.761 200.214 456.735L200.444 455.952C200.618 455.999 200.774 456.02 200.91 456.013C201.047 456.007 201.167 455.956 201.271 455.86C201.378 455.764 201.472 455.607 201.553 455.39L201.671 455.064L199.875 450.091H200.898L202.141 453.901H202.192L203.435 450.091H204.461L202.438 455.655C202.344 455.911 202.225 456.127 202.08 456.304C201.935 456.483 201.763 456.617 201.562 456.707C201.362 456.796 201.13 456.841 200.866 456.841ZM209.646 455.093C209.207 455.093 208.829 455.013 208.511 454.853C208.196 454.693 207.953 454.476 207.783 454.201C207.612 453.924 207.527 453.611 207.527 453.261C207.527 452.995 207.582 452.759 207.693 452.552C207.804 452.343 207.958 452.15 208.157 451.973C208.355 451.797 208.584 451.619 208.844 451.44L209.898 450.695C210.077 450.578 210.217 450.454 210.317 450.324C210.417 450.192 210.467 450.029 210.467 449.835C210.467 449.682 210.401 449.535 210.269 449.394C210.137 449.254 209.96 449.183 209.739 449.183C209.585 449.183 209.45 449.221 209.333 449.295C209.218 449.37 209.127 449.466 209.061 449.583C208.997 449.698 208.965 449.819 208.965 449.947C208.965 450.096 209.006 450.246 209.087 450.398C209.17 450.549 209.276 450.706 209.406 450.868C209.536 451.027 209.672 451.194 209.815 451.366L212.855 455H211.774L209.259 452.044C209.048 451.794 208.852 451.56 208.671 451.341C208.49 451.119 208.343 450.895 208.23 450.669C208.119 450.441 208.064 450.195 208.064 449.931C208.064 449.631 208.132 449.364 208.268 449.132C208.407 448.898 208.6 448.714 208.847 448.582C209.094 448.45 209.384 448.384 209.716 448.384C210.053 448.384 210.342 448.45 210.582 448.582C210.825 448.712 211.012 448.886 211.142 449.103C211.274 449.319 211.34 449.554 211.34 449.81C211.34 450.121 211.262 450.396 211.106 450.634C210.953 450.871 210.741 451.088 210.47 451.286L209.157 452.255C208.901 452.442 208.723 452.627 208.623 452.811C208.525 452.992 208.476 453.134 208.476 453.236C208.476 453.423 208.524 453.597 208.62 453.757C208.718 453.917 208.854 454.044 209.029 454.14C209.206 454.236 209.413 454.284 209.649 454.284C209.892 454.284 210.128 454.232 210.359 454.127C210.591 454.021 210.801 453.869 210.988 453.67C211.178 453.472 211.328 453.235 211.439 452.958C211.55 452.681 211.605 452.371 211.605 452.028H212.468C212.468 452.45 212.42 452.806 212.324 453.098C212.228 453.388 212.112 453.625 211.976 453.808C211.842 453.989 211.715 454.131 211.595 454.233C211.557 454.267 211.521 454.301 211.487 454.335C211.453 454.369 211.416 454.403 211.378 454.438C211.157 454.661 210.888 454.826 210.573 454.933C210.259 455.039 209.951 455.093 209.646 455.093ZM216.062 455V448.455H217.049V454.15H220.015V455H216.062ZM223.181 455.099C222.697 455.099 222.281 454.996 221.931 454.789C221.584 454.58 221.316 454.287 221.126 453.91C220.938 453.531 220.845 453.087 220.845 452.577C220.845 452.075 220.938 451.631 221.126 451.248C221.316 450.864 221.58 450.565 221.919 450.35C222.259 450.135 222.658 450.027 223.114 450.027C223.391 450.027 223.659 450.073 223.919 450.164C224.179 450.256 224.413 450.4 224.619 450.596C224.826 450.792 224.989 451.047 225.108 451.36C225.228 451.671 225.287 452.049 225.287 452.494V452.833H221.385V452.117H224.351C224.351 451.866 224.3 451.643 224.197 451.449C224.095 451.253 223.951 451.099 223.766 450.986C223.583 450.873 223.367 450.816 223.12 450.816C222.852 450.816 222.617 450.882 222.417 451.015C222.219 451.145 222.066 451.315 221.957 451.526C221.85 451.735 221.797 451.962 221.797 452.207V452.766C221.797 453.094 221.855 453.373 221.97 453.603C222.087 453.833 222.25 454.009 222.459 454.131C222.668 454.25 222.911 454.31 223.191 454.31C223.372 454.31 223.537 454.284 223.686 454.233C223.835 454.18 223.964 454.101 224.073 453.996C224.181 453.892 224.264 453.763 224.322 453.61L225.226 453.773C225.154 454.039 225.024 454.272 224.837 454.473C224.651 454.671 224.418 454.825 224.137 454.936C223.858 455.045 223.539 455.099 223.181 455.099ZM228.406 456.943C228.016 456.943 227.68 456.892 227.399 456.79C227.12 456.688 226.892 456.552 226.715 456.384C226.538 456.216 226.406 456.031 226.319 455.831L227.14 455.492C227.198 455.586 227.274 455.685 227.37 455.789C227.468 455.896 227.6 455.987 227.767 456.061C227.935 456.136 228.151 456.173 228.415 456.173C228.778 456.173 229.077 456.085 229.313 455.908C229.55 455.733 229.668 455.454 229.668 455.07V454.105H229.607C229.55 454.21 229.467 454.326 229.358 454.453C229.252 454.581 229.105 454.692 228.917 454.786C228.73 454.88 228.486 454.926 228.185 454.926C227.797 454.926 227.448 454.836 227.137 454.655C226.828 454.472 226.583 454.202 226.402 453.846C226.223 453.488 226.133 453.048 226.133 452.526C226.133 452.004 226.222 451.557 226.399 451.184C226.578 450.811 226.823 450.526 227.134 450.327C227.445 450.127 227.797 450.027 228.192 450.027C228.496 450.027 228.742 450.078 228.93 450.18C229.117 450.281 229.263 450.398 229.368 450.532C229.474 450.666 229.556 450.784 229.614 450.887H229.684V450.091H230.621V455.109C230.621 455.531 230.523 455.877 230.327 456.147C230.131 456.418 229.865 456.618 229.531 456.748C229.198 456.878 228.823 456.943 228.406 456.943ZM228.396 454.134C228.671 454.134 228.903 454.07 229.093 453.942C229.285 453.812 229.43 453.627 229.528 453.386C229.628 453.143 229.678 452.852 229.678 452.513C229.678 452.183 229.629 451.892 229.531 451.641C229.433 451.39 229.289 451.194 229.099 451.053C228.91 450.91 228.675 450.839 228.396 450.839C228.108 450.839 227.869 450.913 227.677 451.062C227.485 451.21 227.34 451.41 227.242 451.663C227.146 451.917 227.099 452.2 227.099 452.513C227.099 452.835 227.148 453.118 227.246 453.36C227.344 453.603 227.488 453.793 227.68 453.929C227.874 454.066 228.113 454.134 228.396 454.134ZM233.331 455.109C233.02 455.109 232.738 455.051 232.487 454.936C232.236 454.819 232.036 454.65 231.889 454.428C231.744 454.206 231.672 453.935 231.672 453.613C231.672 453.336 231.725 453.108 231.832 452.929C231.938 452.75 232.082 452.608 232.263 452.504C232.444 452.4 232.647 452.321 232.871 452.267C233.094 452.214 233.322 452.174 233.555 452.146C233.849 452.112 234.087 452.084 234.27 452.063C234.454 452.039 234.587 452.002 234.67 451.951C234.753 451.9 234.795 451.817 234.795 451.702V451.679C234.795 451.4 234.716 451.184 234.558 451.031C234.403 450.877 234.17 450.8 233.861 450.8C233.54 450.8 233.286 450.872 233.101 451.015C232.917 451.155 232.791 451.312 232.72 451.484L231.822 451.28C231.929 450.982 232.084 450.741 232.289 450.558C232.496 450.372 232.733 450.238 233.002 450.155C233.27 450.07 233.552 450.027 233.849 450.027C234.045 450.027 234.252 450.05 234.472 450.097C234.693 450.142 234.9 450.225 235.092 450.347C235.286 450.468 235.444 450.642 235.568 450.868C235.692 451.091 235.753 451.382 235.753 451.74V455H234.82V454.329H234.782C234.72 454.452 234.627 454.574 234.504 454.693C234.38 454.812 234.221 454.912 234.028 454.99C233.834 455.069 233.601 455.109 233.331 455.109ZM233.539 454.342C233.803 454.342 234.029 454.289 234.216 454.185C234.406 454.081 234.55 453.944 234.648 453.776C234.748 453.605 234.798 453.423 234.798 453.229V452.597C234.764 452.631 234.698 452.663 234.6 452.692C234.504 452.72 234.394 452.745 234.27 452.766C234.147 452.785 234.026 452.803 233.909 452.82C233.792 452.835 233.694 452.848 233.615 452.859C233.43 452.882 233.26 452.922 233.107 452.977C232.956 453.032 232.834 453.112 232.743 453.217C232.653 453.319 232.608 453.455 232.608 453.626C232.608 453.862 232.696 454.041 232.871 454.163C233.045 454.282 233.268 454.342 233.539 454.342ZM237.982 448.455V455H237.026V448.455H237.982Z" fill="currentColor"/>
<path d="M167.1 446.345V457.109H166.243V446.345H167.1Z" fill="#4F4F4F"/>
</svg>
