<svg width="100%" height="100%" viewBox="0 0 262 479" fill="none" xmlns="http://www.w3.org/2000/svg">
<rect x="3.05176e-05" width="262" height="479" rx="20" fill="white"/>
<path d="M69.8353 341H68.324L70.2871 335.182H72.1592L74.1223 341H72.6109L71.2444 336.648H71.199L69.8353 341ZM69.6336 338.71H72.7927V339.778H69.6336V338.71ZM76.4817 340.159V336.045H77.6265V340.159H76.4817ZM74.9959 338.676V337.528H79.1095V338.676H74.9959ZM81.9362 336.196V335.182H86.7146V336.196H84.9334V341H83.7174V336.196H81.9362ZM87.5015 341V335.182H89.797C90.2364 335.182 90.6114 335.26 90.922 335.418C91.2345 335.573 91.4722 335.794 91.6351 336.08C91.7998 336.364 91.8822 336.698 91.8822 337.082C91.8822 337.469 91.7989 337.801 91.6322 338.08C91.4656 338.356 91.2241 338.568 90.9078 338.716C90.5934 338.864 90.2127 338.938 89.7657 338.938H88.2288V337.949H89.5669C89.8017 337.949 89.9968 337.917 90.1521 337.852C90.3074 337.788 90.4229 337.691 90.4987 337.562C90.5763 337.434 90.6152 337.274 90.6152 337.082C90.6152 336.889 90.5763 336.726 90.4987 336.594C90.4229 336.461 90.3065 336.361 90.1493 336.293C89.994 336.223 89.7979 336.188 89.5612 336.188H88.7317V341H87.5015ZM90.6436 338.352L92.0896 341H90.7317L89.3169 338.352H90.6436ZM93.7544 341H92.4362L94.4447 335.182H96.0299L98.0356 341H96.7174L95.2601 336.511H95.2146L93.7544 341ZM93.672 338.713H96.7856V339.673H93.672V338.713ZM103.602 335.182V341H102.54L100.009 337.338H99.966V341H98.7359V335.182H99.8155L102.327 338.841H102.378V335.182H103.602ZM107.775 336.855C107.752 336.626 107.655 336.448 107.482 336.321C107.31 336.194 107.076 336.131 106.781 336.131C106.58 336.131 106.41 336.159 106.272 336.216C106.134 336.271 106.028 336.348 105.954 336.446C105.882 336.545 105.846 336.656 105.846 336.781C105.842 336.885 105.864 336.976 105.911 337.054C105.961 337.132 106.028 337.199 106.113 337.256C106.198 337.311 106.297 337.359 106.408 337.401C106.52 337.44 106.64 337.474 106.766 337.503L107.289 337.628C107.543 337.685 107.776 337.76 107.988 337.855C108.2 337.95 108.384 338.066 108.539 338.205C108.694 338.343 108.815 338.506 108.9 338.693C108.987 338.881 109.032 339.096 109.033 339.338C109.032 339.694 108.941 340.003 108.761 340.264C108.583 340.524 108.325 340.725 107.988 340.869C107.653 341.011 107.248 341.082 106.775 341.082C106.305 341.082 105.896 341.01 105.548 340.866C105.201 340.723 104.93 340.509 104.735 340.227C104.542 339.943 104.441 339.592 104.431 339.173H105.622C105.635 339.368 105.691 339.531 105.789 339.662C105.89 339.791 106.023 339.888 106.19 339.955C106.358 340.019 106.549 340.051 106.761 340.051C106.969 340.051 107.15 340.021 107.303 339.96C107.459 339.9 107.579 339.815 107.664 339.707C107.749 339.599 107.792 339.475 107.792 339.335C107.792 339.205 107.753 339.095 107.676 339.006C107.6 338.917 107.488 338.841 107.34 338.778C107.194 338.716 107.016 338.659 106.803 338.608L106.17 338.449C105.679 338.33 105.292 338.143 105.008 337.889C104.724 337.635 104.583 337.294 104.585 336.864C104.583 336.511 104.676 336.204 104.866 335.94C105.057 335.677 105.319 335.472 105.653 335.324C105.986 335.176 106.365 335.102 106.789 335.102C107.221 335.102 107.598 335.176 107.92 335.324C108.244 335.472 108.496 335.677 108.676 335.94C108.855 336.204 108.948 336.509 108.954 336.855H107.775ZM109.861 341V335.182H112.156C112.598 335.182 112.974 335.266 113.284 335.435C113.595 335.601 113.832 335.833 113.994 336.131C114.159 336.426 114.242 336.767 114.242 337.153C114.242 337.54 114.158 337.881 113.992 338.176C113.825 338.472 113.583 338.702 113.267 338.866C112.953 339.031 112.572 339.114 112.125 339.114H110.662V338.128H111.926C112.163 338.128 112.358 338.087 112.511 338.006C112.667 337.922 112.782 337.808 112.858 337.662C112.936 337.514 112.975 337.345 112.975 337.153C112.975 336.96 112.936 336.792 112.858 336.648C112.782 336.502 112.667 336.389 112.511 336.31C112.356 336.228 112.159 336.188 111.921 336.188H111.091V341H109.861ZM115.372 341H114.053L116.062 335.182H117.647L119.653 341H118.335L116.877 336.511H116.832L115.372 341ZM115.289 338.713H118.403V339.673H115.289V338.713ZM120.353 341V335.182H122.649C123.088 335.182 123.463 335.26 123.774 335.418C124.086 335.573 124.324 335.794 124.487 336.08C124.651 336.364 124.734 336.698 124.734 337.082C124.734 337.469 124.65 337.801 124.484 338.08C124.317 338.356 124.076 338.568 123.759 338.716C123.445 338.864 123.064 338.938 122.617 338.938H121.08V337.949H122.418C122.653 337.949 122.848 337.917 123.004 337.852C123.159 337.788 123.275 337.691 123.35 337.562C123.428 337.434 123.467 337.274 123.467 337.082C123.467 336.889 123.428 336.726 123.35 336.594C123.275 336.461 123.158 336.361 123.001 336.293C122.846 336.223 122.65 336.188 122.413 336.188H121.583V341H120.353ZM123.495 338.352L124.941 341H123.583L122.168 338.352H123.495ZM125.603 341V335.182H129.524V336.196H126.833V337.582H129.322V338.597H126.833V339.986H129.535V341H125.603ZM135.368 335.182V341H134.306L131.774 337.338H131.732V341H130.502V335.182H131.581L134.092 338.841H134.144V335.182H135.368ZM141.518 337.219H140.274C140.251 337.058 140.204 336.915 140.134 336.79C140.064 336.663 139.974 336.555 139.864 336.466C139.755 336.377 139.628 336.309 139.484 336.261C139.342 336.214 139.187 336.19 139.021 336.19C138.72 336.19 138.457 336.265 138.234 336.415C138.01 336.562 137.837 336.778 137.714 337.062C137.591 337.345 137.529 337.687 137.529 338.091C137.529 338.506 137.591 338.854 137.714 339.136C137.839 339.419 138.013 339.632 138.237 339.776C138.46 339.92 138.719 339.991 139.012 339.991C139.177 339.991 139.329 339.97 139.47 339.926C139.612 339.883 139.738 339.819 139.847 339.736C139.957 339.651 140.048 339.547 140.12 339.426C140.194 339.305 140.245 339.167 140.274 339.011L141.518 339.017C141.486 339.284 141.405 339.542 141.276 339.79C141.15 340.036 140.978 340.257 140.762 340.452C140.548 340.645 140.292 340.798 139.995 340.912C139.7 341.024 139.365 341.08 138.992 341.08C138.473 341.08 138.009 340.962 137.6 340.727C137.193 340.492 136.871 340.152 136.634 339.707C136.4 339.262 136.282 338.723 136.282 338.091C136.282 337.456 136.401 336.917 136.64 336.472C136.879 336.027 137.203 335.687 137.612 335.455C138.021 335.22 138.481 335.102 138.992 335.102C139.329 335.102 139.642 335.15 139.93 335.244C140.22 335.339 140.476 335.477 140.7 335.659C140.923 335.839 141.105 336.06 141.245 336.321C141.387 336.582 141.478 336.882 141.518 337.219ZM142.059 335.182H143.437L144.764 337.688H144.82L146.147 335.182H147.525L145.403 338.943V341H144.181V338.943L142.059 335.182ZM150.048 341V335.182H152.344C152.785 335.182 153.161 335.266 153.472 335.435C153.782 335.601 154.019 335.833 154.182 336.131C154.347 336.426 154.429 336.767 154.429 337.153C154.429 337.54 154.346 337.881 154.179 338.176C154.012 338.472 153.771 338.702 153.455 338.866C153.14 339.031 152.76 339.114 152.313 339.114H150.85V338.128H152.114C152.35 338.128 152.546 338.087 152.699 338.006C152.854 337.922 152.97 337.808 153.046 337.662C153.123 337.514 153.162 337.345 153.162 337.153C153.162 336.96 153.123 336.792 153.046 336.648C152.97 336.502 152.854 336.389 152.699 336.31C152.544 336.228 152.347 336.188 152.108 336.188H151.279V341H150.048ZM155.228 341V335.182H157.524C157.963 335.182 158.338 335.26 158.649 335.418C158.961 335.573 159.199 335.794 159.362 336.08C159.526 336.364 159.609 336.698 159.609 337.082C159.609 337.469 159.525 337.801 159.359 338.08C159.192 338.356 158.951 338.568 158.634 338.716C158.32 338.864 157.939 338.938 157.492 338.938H155.955V337.949H157.293C157.528 337.949 157.723 337.917 157.879 337.852C158.034 337.788 158.149 337.691 158.225 337.562C158.303 337.434 158.342 337.274 158.342 337.082C158.342 336.889 158.303 336.726 158.225 336.594C158.149 336.461 158.033 336.361 157.876 336.293C157.721 336.223 157.524 336.188 157.288 336.188H156.458V341H155.228ZM158.37 338.352L159.816 341H158.458L157.043 338.352H158.37ZM165.825 338.091C165.825 338.725 165.704 339.265 165.464 339.71C165.225 340.155 164.899 340.495 164.487 340.73C164.076 340.963 163.614 341.08 163.1 341.08C162.583 341.08 162.119 340.962 161.708 340.727C161.297 340.492 160.972 340.152 160.734 339.707C160.495 339.262 160.376 338.723 160.376 338.091C160.376 337.456 160.495 336.917 160.734 336.472C160.972 336.027 161.297 335.687 161.708 335.455C162.119 335.22 162.583 335.102 163.1 335.102C163.614 335.102 164.076 335.22 164.487 335.455C164.899 335.687 165.225 336.027 165.464 336.472C165.704 336.917 165.825 337.456 165.825 338.091ZM164.578 338.091C164.578 337.68 164.516 337.333 164.393 337.051C164.272 336.769 164.1 336.555 163.879 336.409C163.657 336.263 163.398 336.19 163.1 336.19C162.803 336.19 162.543 336.263 162.322 336.409C162.1 336.555 161.928 336.769 161.805 337.051C161.684 337.333 161.623 337.68 161.623 338.091C161.623 338.502 161.684 338.848 161.805 339.131C161.928 339.413 162.1 339.627 162.322 339.773C162.543 339.919 162.803 339.991 163.1 339.991C163.398 339.991 163.657 339.919 163.879 339.773C164.1 339.627 164.272 339.413 164.393 339.131C164.516 338.848 164.578 338.502 164.578 338.091ZM166.736 335.182H168.253L169.855 339.091H169.923L171.526 335.182H173.043V341H171.85V337.213H171.801L170.296 340.972H169.483L167.977 337.199H167.929V341H166.736V335.182ZM175.286 335.182V341H174.056V335.182H175.286ZM179.455 336.855C179.432 336.626 179.334 336.448 179.162 336.321C178.99 336.194 178.756 336.131 178.46 336.131C178.26 336.131 178.09 336.159 177.952 336.216C177.814 336.271 177.707 336.348 177.634 336.446C177.562 336.545 177.526 336.656 177.526 336.781C177.522 336.885 177.544 336.976 177.591 337.054C177.64 337.132 177.707 337.199 177.793 337.256C177.878 337.311 177.976 337.359 178.088 337.401C178.2 337.44 178.319 337.474 178.446 337.503L178.969 337.628C179.223 337.685 179.456 337.76 179.668 337.855C179.88 337.95 180.064 338.066 180.219 338.205C180.374 338.343 180.494 338.506 180.58 338.693C180.667 338.881 180.711 339.096 180.713 339.338C180.711 339.694 180.62 340.003 180.44 340.264C180.262 340.524 180.005 340.725 179.668 340.869C179.332 341.011 178.928 341.082 178.455 341.082C177.985 341.082 177.576 341.01 177.227 340.866C176.881 340.723 176.61 340.509 176.415 340.227C176.222 339.943 176.12 339.592 176.111 339.173H177.301C177.315 339.368 177.37 339.531 177.469 339.662C177.569 339.791 177.703 339.888 177.869 339.955C178.038 340.019 178.228 340.051 178.44 340.051C178.649 340.051 178.83 340.021 178.983 339.96C179.138 339.9 179.259 339.815 179.344 339.707C179.429 339.599 179.472 339.475 179.472 339.335C179.472 339.205 179.433 339.095 179.355 339.006C179.279 338.917 179.168 338.841 179.02 338.778C178.874 338.716 178.695 338.659 178.483 338.608L177.85 338.449C177.359 338.33 176.972 338.143 176.688 337.889C176.404 337.635 176.262 337.294 176.264 336.864C176.262 336.511 176.356 336.204 176.546 335.94C176.737 335.677 176.999 335.472 177.332 335.324C177.666 335.176 178.045 335.102 178.469 335.102C178.901 335.102 179.278 335.176 179.6 335.324C179.923 335.472 180.175 335.677 180.355 335.94C180.535 336.204 180.628 336.509 180.634 336.855H179.455ZM181.541 341V335.182H185.461V336.196H182.771V337.582H185.259V338.597H182.771V339.986H185.472V341H181.541ZM191.876 341.091L188.955 338.17C188.722 337.938 188.567 337.667 188.489 337.358C188.414 337.049 188.415 336.742 188.492 336.438C188.57 336.131 188.724 335.864 188.955 335.636C189.192 335.403 189.462 335.249 189.765 335.173C190.07 335.096 190.374 335.096 190.677 335.173C190.982 335.251 191.253 335.405 191.489 335.636L191.876 336.011L192.262 335.636C192.501 335.405 192.772 335.251 193.075 335.173C193.378 335.096 193.681 335.096 193.984 335.173C194.289 335.249 194.56 335.403 194.796 335.636C195.027 335.864 195.182 336.131 195.259 336.438C195.337 336.742 195.337 337.049 195.259 337.358C195.184 337.667 195.029 337.938 194.796 338.17L191.876 341.091Z" fill="#BDBDBD"/>
<path fill-rule="evenodd" clip-rule="evenodd" d="M62 337.498H32C27.5817 337.498 24 341.08 24 345.498V382C24 386.418 27.5817 390 32 390H232C236.418 390 240 386.418 240 382V345.498C240 341.08 236.418 337.498 232 337.498H202V338.498H232C235.866 338.498 239 341.632 239 345.498V382C239 385.866 235.866 389 232 389H32C28.134 389 25 385.866 25 382V345.498C25 341.632 28.134 338.498 32 338.498H62V337.498Z" fill="#BDBDBD"/>
<rect x="53" y="352" width="158" height="12" rx="3" fill="#E0E0E0"/>
<rect x="70" y="368" width="124.985" height="12" rx="3" fill="#E0E0E0"/>
<rect x="24" y="401" width="216" height="36" rx="8" fill="currentColor"/>
<path d="M112.687 424H109.237V413.818H112.757C113.767 413.818 114.636 414.022 115.362 414.43C116.091 414.834 116.651 415.416 117.042 416.175C117.433 416.934 117.629 417.842 117.629 418.899C117.629 419.96 117.432 420.871 117.037 421.634C116.646 422.396 116.081 422.981 115.342 423.388C114.606 423.796 113.721 424 112.687 424ZM111.081 422.404H112.597C113.307 422.404 113.898 422.275 114.372 422.016C114.846 421.754 115.203 421.365 115.441 420.848C115.68 420.328 115.799 419.678 115.799 418.899C115.799 418.12 115.68 417.474 115.441 416.96C115.203 416.443 114.85 416.057 114.382 415.802C113.918 415.543 113.342 415.414 112.652 415.414H111.081V422.404ZM122.633 424.149C121.887 424.149 121.241 423.985 120.694 423.657C120.147 423.329 119.723 422.87 119.421 422.28C119.123 421.69 118.974 421 118.974 420.212C118.974 419.423 119.123 418.732 119.421 418.138C119.723 417.545 120.147 417.085 120.694 416.756C121.241 416.428 121.887 416.264 122.633 416.264C123.378 416.264 124.025 416.428 124.572 416.756C125.118 417.085 125.541 417.545 125.839 418.138C126.141 418.732 126.292 419.423 126.292 420.212C126.292 421 126.141 421.69 125.839 422.28C125.541 422.87 125.118 423.329 124.572 423.657C124.025 423.985 123.378 424.149 122.633 424.149ZM122.643 422.707C123.047 422.707 123.385 422.596 123.657 422.374C123.929 422.149 124.131 421.847 124.263 421.469C124.399 421.092 124.467 420.671 124.467 420.207C124.467 419.739 124.399 419.317 124.263 418.939C124.131 418.558 123.929 418.254 123.657 418.029C123.385 417.804 123.047 417.691 122.643 417.691C122.228 417.691 121.884 417.804 121.608 418.029C121.337 418.254 121.133 418.558 120.997 418.939C120.864 419.317 120.798 419.739 120.798 420.207C120.798 420.671 120.864 421.092 120.997 421.469C121.133 421.847 121.337 422.149 121.608 422.374C121.884 422.596 122.228 422.707 122.643 422.707ZM129.619 419.526V424H127.819V416.364H129.539V417.661H129.629C129.805 417.234 130.085 416.894 130.469 416.642C130.857 416.39 131.336 416.264 131.906 416.264C132.433 416.264 132.892 416.377 133.283 416.602C133.677 416.828 133.982 417.154 134.198 417.582C134.417 418.009 134.524 418.528 134.521 419.138V424H132.721V419.416C132.721 418.906 132.589 418.506 132.324 418.218C132.062 417.93 131.699 417.786 131.235 417.786C130.92 417.786 130.64 417.855 130.395 417.994C130.153 418.13 129.962 418.327 129.823 418.586C129.687 418.844 129.619 419.158 129.619 419.526ZM138.548 424.154C138.064 424.154 137.628 424.068 137.24 423.896C136.856 423.72 136.551 423.461 136.326 423.12C136.104 422.779 135.993 422.358 135.993 421.857C135.993 421.426 136.072 421.07 136.231 420.788C136.39 420.507 136.607 420.281 136.882 420.112C137.158 419.943 137.467 419.816 137.812 419.729C138.16 419.64 138.52 419.575 138.891 419.536C139.338 419.489 139.701 419.448 139.98 419.411C140.258 419.371 140.46 419.312 140.586 419.232C140.716 419.149 140.78 419.022 140.78 418.849V418.82C140.78 418.445 140.669 418.155 140.447 417.95C140.225 417.744 139.905 417.641 139.488 417.641C139.047 417.641 138.697 417.737 138.439 417.93C138.183 418.122 138.011 418.349 137.922 418.611L136.241 418.372C136.374 417.908 136.592 417.52 136.897 417.209C137.202 416.894 137.575 416.659 138.016 416.503C138.457 416.344 138.944 416.264 139.478 416.264C139.846 416.264 140.212 416.307 140.576 416.393C140.941 416.48 141.274 416.622 141.576 416.821C141.877 417.017 142.119 417.283 142.301 417.621C142.487 417.96 142.58 418.382 142.58 418.889V424H140.85V422.951H140.79C140.681 423.163 140.527 423.362 140.328 423.548C140.132 423.73 139.885 423.877 139.587 423.99C139.292 424.099 138.946 424.154 138.548 424.154ZM139.015 422.832C139.377 422.832 139.69 422.76 139.955 422.618C140.22 422.472 140.424 422.28 140.566 422.041C140.712 421.803 140.785 421.542 140.785 421.261V420.361C140.729 420.407 140.633 420.45 140.497 420.49C140.364 420.53 140.215 420.565 140.049 420.594C139.884 420.624 139.72 420.651 139.557 420.674C139.395 420.697 139.254 420.717 139.135 420.734C138.866 420.77 138.626 420.83 138.414 420.913C138.202 420.996 138.034 421.112 137.912 421.261C137.789 421.406 137.728 421.595 137.728 421.827C137.728 422.159 137.849 422.409 138.091 422.578C138.333 422.747 138.641 422.832 139.015 422.832ZM148.203 416.364V417.756H143.813V416.364H148.203ZM144.897 414.534H146.696V421.703C146.696 421.945 146.733 422.131 146.806 422.26C146.882 422.386 146.981 422.472 147.104 422.518C147.227 422.565 147.363 422.588 147.512 422.588C147.624 422.588 147.727 422.58 147.82 422.563C147.916 422.547 147.989 422.532 148.039 422.518L148.342 423.925C148.246 423.959 148.108 423.995 147.929 424.035C147.754 424.075 147.538 424.098 147.283 424.104C146.832 424.118 146.426 424.05 146.065 423.901C145.704 423.748 145.417 423.513 145.205 423.195C144.996 422.876 144.893 422.479 144.897 422.001V414.534ZM153.007 424.149C152.241 424.149 151.58 423.99 151.023 423.672C150.469 423.35 150.044 422.896 149.745 422.31C149.447 421.72 149.298 421.025 149.298 420.227C149.298 419.441 149.447 418.752 149.745 418.158C150.047 417.562 150.468 417.098 151.008 416.766C151.548 416.432 152.183 416.264 152.912 416.264C153.383 416.264 153.827 416.34 154.244 416.493C154.665 416.642 155.037 416.874 155.358 417.189C155.683 417.504 155.938 417.905 156.124 418.392C156.309 418.876 156.402 419.453 156.402 420.122V420.674H150.143V419.461H154.677C154.674 419.116 154.599 418.81 154.453 418.541C154.307 418.269 154.104 418.056 153.842 417.9C153.583 417.744 153.282 417.666 152.937 417.666C152.569 417.666 152.246 417.756 151.968 417.935C151.689 418.11 151.472 418.342 151.316 418.631C151.164 418.916 151.086 419.229 151.083 419.57V420.629C151.083 421.073 151.164 421.455 151.326 421.773C151.489 422.088 151.716 422.33 152.007 422.499C152.299 422.664 152.64 422.747 153.031 422.747C153.293 422.747 153.53 422.711 153.742 422.638C153.954 422.562 154.138 422.451 154.294 422.305C154.45 422.159 154.568 421.978 154.647 421.763L156.328 421.952C156.222 422.396 156.019 422.784 155.721 423.115C155.426 423.443 155.048 423.698 154.588 423.881C154.127 424.06 153.6 424.149 153.007 424.149Z" fill="white"/>
<path d="M30.9283 448.455H31.919V452.76C31.919 453.218 31.8114 453.624 31.5962 453.977C31.381 454.329 31.0785 454.606 30.6886 454.808C30.2987 455.009 29.8416 455.109 29.3175 455.109C28.7955 455.109 28.3395 455.009 27.9496 454.808C27.5597 454.606 27.2571 454.329 27.0419 453.977C26.8267 453.624 26.7191 453.218 26.7191 452.76V448.455H27.7067V452.68C27.7067 452.976 27.7717 453.239 27.9016 453.469C28.0337 453.699 28.2202 453.88 28.4609 454.012C28.7017 454.142 28.9872 454.207 29.3175 454.207C29.6499 454.207 29.9364 454.142 30.1772 454.012C30.4201 453.88 30.6055 453.699 30.7333 453.469C30.8633 453.239 30.9283 452.976 30.9283 452.68V448.455ZM36.9248 450.174C36.8907 449.871 36.7501 449.637 36.5029 449.471C36.2558 449.303 35.9447 449.218 35.5697 449.218C35.3012 449.218 35.069 449.261 34.873 449.346C34.6769 449.429 34.5246 449.544 34.4159 449.691C34.3094 449.836 34.2561 450.001 34.2561 450.187C34.2561 450.342 34.2923 450.477 34.3648 450.589C34.4394 450.702 34.5363 450.797 34.6556 450.874C34.7771 450.949 34.907 451.011 35.0455 451.062C35.184 451.112 35.3172 451.152 35.445 451.184L36.0843 451.35C36.2931 451.401 36.5072 451.471 36.7267 451.558C36.9461 451.645 37.1496 451.76 37.3371 451.903C37.5246 452.046 37.6759 452.223 37.7909 452.434C37.9081 452.645 37.9667 452.897 37.9667 453.191C37.9667 453.562 37.8708 453.891 37.6791 454.179C37.4894 454.466 37.2135 454.693 36.8513 454.859C36.4912 455.026 36.0555 455.109 35.5441 455.109C35.0541 455.109 34.6301 455.031 34.2721 454.875C33.9142 454.72 33.634 454.499 33.4316 454.214C33.2291 453.926 33.1173 453.585 33.096 453.191H34.0867C34.1059 453.428 34.1826 453.625 34.3169 453.782C34.4532 453.938 34.6269 454.054 34.8378 454.131C35.0509 454.205 35.2842 454.243 35.5377 454.243C35.8169 454.243 36.0651 454.199 36.2824 454.112C36.5019 454.022 36.6744 453.898 36.8002 453.741C36.9259 453.581 36.9887 453.395 36.9887 453.181C36.9887 452.988 36.9333 452.829 36.8225 452.705C36.7139 452.582 36.5658 452.479 36.3783 452.398C36.1929 452.317 35.983 452.246 35.7487 452.184L34.9752 451.973C34.4511 451.831 34.0356 451.621 33.7288 451.344C33.4241 451.067 33.2718 450.7 33.2718 450.244C33.2718 449.867 33.374 449.538 33.5786 449.257C33.7831 448.975 34.0601 448.757 34.4095 448.602C34.759 448.444 35.1531 448.365 35.5921 448.365C36.0352 448.365 36.4262 448.443 36.765 448.598C37.1059 448.754 37.3744 448.968 37.5704 449.241C37.7664 449.511 37.8687 449.822 37.8772 450.174H36.9248ZM41.2658 455H39.1468V448.455H41.3329C41.9743 448.455 42.525 448.586 42.9853 448.848C43.4455 449.108 43.7981 449.482 44.0431 449.969C44.2903 450.455 44.4139 451.038 44.4139 451.718C44.4139 452.4 44.2892 452.985 44.04 453.475C43.7928 453.966 43.4348 454.343 42.9661 454.607C42.4973 454.869 41.9306 455 41.2658 455ZM40.1344 454.137H41.2115C41.71 454.137 42.1245 454.043 42.4547 453.856C42.785 453.666 43.0321 453.392 43.1962 453.034C43.3603 452.674 43.4423 452.235 43.4423 451.718C43.4423 451.204 43.3603 450.768 43.1962 450.411C43.0343 450.053 42.7924 449.781 42.4707 449.596C42.149 449.41 41.7495 449.317 41.2722 449.317H40.1344V454.137Z" fill="currentColor"/>
<path d="M143.719 455V448.455H147.778V449.305H144.707V451.299H147.487V452.146H144.707V455H143.719ZM148.728 455H147.68L150.035 448.455H151.176L153.532 455H152.483L150.633 449.643H150.582L148.728 455ZM148.904 452.437H152.304V453.268H148.904V452.437ZM156.576 452.878H157.547L158.231 453.77L158.554 454.166L159.644 455.588H158.634L157.905 454.639L157.656 454.294L156.576 452.878ZM159.855 451.727C159.855 452.426 159.727 453.027 159.472 453.53C159.216 454.031 158.865 454.416 158.42 454.687C157.977 454.955 157.473 455.089 156.908 455.089C156.342 455.089 155.835 454.955 155.39 454.687C154.947 454.416 154.598 454.029 154.342 453.527C154.086 453.024 153.958 452.424 153.958 451.727C153.958 451.028 154.086 450.429 154.342 449.928C154.598 449.425 154.947 449.039 155.39 448.771C155.835 448.5 156.342 448.365 156.908 448.365C157.473 448.365 157.977 448.5 158.42 448.771C158.865 449.039 159.216 449.425 159.472 449.928C159.727 450.429 159.855 451.028 159.855 451.727ZM158.877 451.727C158.877 451.195 158.791 450.746 158.618 450.382C158.448 450.015 158.213 449.738 157.915 449.551C157.619 449.361 157.283 449.266 156.908 449.266C156.531 449.266 156.195 449.361 155.898 449.551C155.602 449.738 155.368 450.015 155.195 450.382C155.025 450.746 154.94 451.195 154.94 451.727C154.94 452.26 155.025 452.71 155.195 453.076C155.368 453.44 155.602 453.717 155.898 453.907C156.195 454.094 156.531 454.188 156.908 454.188C157.283 454.188 157.619 454.094 157.915 453.907C158.213 453.717 158.448 453.44 158.618 453.076C158.791 452.71 158.877 452.26 158.877 451.727ZM173.699 455V448.455H176.032C176.541 448.455 176.963 448.547 177.297 448.733C177.632 448.918 177.882 449.172 178.048 449.493C178.215 449.813 178.298 450.173 178.298 450.574C178.298 450.976 178.214 451.338 178.045 451.66C177.879 451.98 177.628 452.233 177.291 452.421C176.956 452.606 176.536 452.699 176.028 452.699H174.424V451.862H175.939C176.261 451.862 176.522 451.806 176.722 451.695C176.922 451.582 177.069 451.429 177.163 451.235C177.257 451.041 177.304 450.821 177.304 450.574C177.304 450.326 177.257 450.107 177.163 449.915C177.069 449.723 176.921 449.573 176.719 449.464C176.519 449.356 176.254 449.301 175.926 449.301H174.686V455H173.699ZM179.379 455V450.091H180.302V450.871H180.354C180.443 450.607 180.601 450.399 180.827 450.248C181.055 450.094 181.312 450.017 181.6 450.017C181.66 450.017 181.73 450.02 181.811 450.024C181.894 450.028 181.959 450.033 182.006 450.04V450.954C181.968 450.943 181.899 450.931 181.801 450.919C181.703 450.904 181.605 450.896 181.507 450.896C181.281 450.896 181.08 450.944 180.903 451.04C180.729 451.134 180.59 451.265 180.488 451.433C180.385 451.599 180.334 451.789 180.334 452.002V455H179.379ZM182.833 455V450.091H183.788V455H182.833ZM183.315 449.333C183.149 449.333 183.006 449.278 182.887 449.167C182.77 449.054 182.711 448.92 182.711 448.765C182.711 448.607 182.77 448.473 182.887 448.362C183.006 448.249 183.149 448.192 183.315 448.192C183.482 448.192 183.623 448.249 183.741 448.362C183.86 448.473 183.919 448.607 183.919 448.765C183.919 448.92 183.86 449.054 183.741 449.167C183.623 449.278 183.482 449.333 183.315 449.333ZM189.274 450.091L187.493 455H186.471L184.687 450.091H185.713L186.956 453.869H187.008L188.248 450.091H189.274ZM191.46 455.109C191.149 455.109 190.867 455.051 190.616 454.936C190.365 454.819 190.165 454.65 190.018 454.428C189.873 454.206 189.801 453.935 189.801 453.613C189.801 453.336 189.854 453.108 189.961 452.929C190.067 452.75 190.211 452.608 190.392 452.504C190.573 452.4 190.776 452.321 190.999 452.267C191.223 452.214 191.451 452.174 191.683 452.146C191.977 452.112 192.216 452.084 192.399 452.063C192.583 452.039 192.716 452.002 192.799 451.951C192.882 451.9 192.923 451.817 192.923 451.702V451.679C192.923 451.4 192.845 451.184 192.687 451.031C192.531 450.877 192.299 450.8 191.99 450.8C191.669 450.8 191.415 450.872 191.23 451.015C191.046 451.155 190.92 451.312 190.849 451.484L189.951 451.28C190.058 450.982 190.213 450.741 190.418 450.558C190.624 450.372 190.862 450.238 191.131 450.155C191.399 450.07 191.681 450.027 191.977 450.027C192.173 450.027 192.381 450.05 192.601 450.097C192.822 450.142 193.029 450.225 193.221 450.347C193.415 450.468 193.573 450.642 193.697 450.868C193.82 451.091 193.882 451.382 193.882 451.74V455H192.949V454.329H192.911C192.849 454.452 192.756 454.574 192.633 454.693C192.509 454.812 192.35 454.912 192.156 454.99C191.963 455.069 191.73 455.109 191.46 455.109ZM191.667 454.342C191.932 454.342 192.157 454.289 192.345 454.185C192.535 454.081 192.678 453.944 192.776 453.776C192.877 453.605 192.927 453.423 192.927 453.229V452.597C192.893 452.631 192.827 452.663 192.729 452.692C192.633 452.72 192.523 452.745 192.399 452.766C192.276 452.785 192.155 452.803 192.038 452.82C191.921 452.835 191.823 452.848 191.744 452.859C191.559 452.882 191.389 452.922 191.236 452.977C191.085 453.032 190.963 453.112 190.872 453.217C190.782 453.319 190.737 453.455 190.737 453.626C190.737 453.862 190.825 454.041 190.999 454.163C191.174 454.282 191.397 454.342 191.667 454.342ZM197.223 455.099C196.748 455.099 196.339 454.991 195.996 454.776C195.655 454.559 195.393 454.26 195.209 453.878C195.026 453.497 194.935 453.06 194.935 452.568C194.935 452.069 195.028 451.629 195.216 451.248C195.403 450.864 195.668 450.565 196.008 450.35C196.349 450.135 196.751 450.027 197.213 450.027C197.586 450.027 197.919 450.096 198.21 450.235C198.502 450.371 198.738 450.563 198.917 450.81C199.098 451.057 199.206 451.346 199.24 451.676H198.31C198.258 451.446 198.141 451.248 197.958 451.082C197.777 450.915 197.534 450.832 197.229 450.832C196.963 450.832 196.73 450.903 196.529 451.043C196.331 451.182 196.177 451.38 196.066 451.638C195.955 451.893 195.9 452.196 195.9 452.545C195.9 452.903 195.954 453.212 196.063 453.472C196.171 453.732 196.325 453.934 196.523 454.076C196.723 454.219 196.959 454.29 197.229 454.29C197.41 454.29 197.574 454.257 197.722 454.191C197.871 454.123 197.995 454.026 198.095 453.901C198.198 453.775 198.269 453.624 198.31 453.447H199.24C199.206 453.764 199.102 454.048 198.93 454.297C198.757 454.546 198.526 454.742 198.236 454.885C197.948 455.028 197.611 455.099 197.223 455.099ZM200.866 456.841C200.723 456.841 200.593 456.829 200.476 456.806C200.358 456.784 200.271 456.761 200.214 456.735L200.444 455.952C200.618 455.999 200.774 456.02 200.91 456.013C201.047 456.007 201.167 455.956 201.271 455.86C201.378 455.764 201.472 455.607 201.553 455.39L201.671 455.064L199.875 450.091H200.898L202.141 453.901H202.192L203.435 450.091H204.461L202.438 455.655C202.344 455.911 202.225 456.127 202.08 456.304C201.935 456.483 201.763 456.617 201.562 456.707C201.362 456.796 201.13 456.841 200.866 456.841ZM209.646 455.093C209.207 455.093 208.829 455.013 208.511 454.853C208.196 454.693 207.953 454.476 207.783 454.201C207.612 453.924 207.527 453.611 207.527 453.261C207.527 452.995 207.582 452.759 207.693 452.552C207.804 452.343 207.958 452.15 208.157 451.973C208.355 451.797 208.584 451.619 208.844 451.44L209.898 450.695C210.077 450.578 210.217 450.454 210.317 450.324C210.417 450.192 210.467 450.029 210.467 449.835C210.467 449.682 210.401 449.535 210.269 449.394C210.137 449.254 209.96 449.183 209.739 449.183C209.585 449.183 209.45 449.221 209.333 449.295C209.218 449.37 209.127 449.466 209.061 449.583C208.997 449.698 208.965 449.819 208.965 449.947C208.965 450.096 209.006 450.246 209.087 450.398C209.17 450.549 209.276 450.706 209.406 450.868C209.536 451.027 209.672 451.194 209.815 451.366L212.855 455H211.774L209.259 452.044C209.048 451.794 208.852 451.56 208.671 451.341C208.49 451.119 208.343 450.895 208.23 450.669C208.119 450.441 208.064 450.195 208.064 449.931C208.064 449.631 208.132 449.364 208.268 449.132C208.407 448.898 208.6 448.714 208.847 448.582C209.094 448.45 209.384 448.384 209.716 448.384C210.053 448.384 210.342 448.45 210.582 448.582C210.825 448.712 211.012 448.886 211.142 449.103C211.274 449.319 211.34 449.554 211.34 449.81C211.34 450.121 211.262 450.396 211.106 450.634C210.953 450.871 210.741 451.088 210.47 451.286L209.157 452.255C208.901 452.442 208.723 452.627 208.623 452.811C208.525 452.992 208.476 453.134 208.476 453.236C208.476 453.423 208.524 453.597 208.62 453.757C208.718 453.917 208.854 454.044 209.029 454.14C209.206 454.236 209.413 454.284 209.649 454.284C209.892 454.284 210.128 454.232 210.359 454.127C210.591 454.021 210.801 453.869 210.988 453.67C211.178 453.472 211.328 453.235 211.439 452.958C211.55 452.681 211.605 452.371 211.605 452.028H212.468C212.468 452.45 212.42 452.806 212.324 453.098C212.228 453.388 212.112 453.625 211.976 453.808C211.842 453.989 211.715 454.131 211.595 454.233C211.557 454.267 211.521 454.301 211.487 454.335C211.453 454.369 211.416 454.403 211.378 454.438C211.157 454.661 210.888 454.826 210.573 454.933C210.259 455.039 209.951 455.093 209.646 455.093ZM216.062 455V448.455H217.049V454.15H220.015V455H216.062ZM223.181 455.099C222.697 455.099 222.281 454.996 221.931 454.789C221.584 454.58 221.316 454.287 221.126 453.91C220.938 453.531 220.845 453.087 220.845 452.577C220.845 452.075 220.938 451.631 221.126 451.248C221.316 450.864 221.58 450.565 221.919 450.35C222.259 450.135 222.658 450.027 223.114 450.027C223.391 450.027 223.659 450.073 223.919 450.164C224.179 450.256 224.413 450.4 224.619 450.596C224.826 450.792 224.989 451.047 225.108 451.36C225.228 451.671 225.287 452.049 225.287 452.494V452.833H221.385V452.117H224.351C224.351 451.866 224.3 451.643 224.197 451.449C224.095 451.253 223.951 451.099 223.766 450.986C223.583 450.873 223.367 450.816 223.12 450.816C222.852 450.816 222.617 450.882 222.417 451.015C222.219 451.145 222.066 451.315 221.957 451.526C221.85 451.735 221.797 451.962 221.797 452.207V452.766C221.797 453.094 221.855 453.373 221.97 453.603C222.087 453.833 222.25 454.009 222.459 454.131C222.668 454.25 222.911 454.31 223.191 454.31C223.372 454.31 223.537 454.284 223.686 454.233C223.835 454.18 223.964 454.101 224.073 453.996C224.181 453.892 224.264 453.763 224.322 453.61L225.226 453.773C225.154 454.039 225.024 454.272 224.837 454.473C224.651 454.671 224.418 454.825 224.137 454.936C223.858 455.045 223.539 455.099 223.181 455.099ZM228.406 456.943C228.016 456.943 227.68 456.892 227.399 456.79C227.12 456.688 226.892 456.552 226.715 456.384C226.538 456.216 226.406 456.031 226.319 455.831L227.14 455.492C227.198 455.586 227.274 455.685 227.37 455.789C227.468 455.896 227.6 455.987 227.767 456.061C227.935 456.136 228.151 456.173 228.415 456.173C228.778 456.173 229.077 456.085 229.313 455.908C229.55 455.733 229.668 455.454 229.668 455.07V454.105H229.607C229.55 454.21 229.467 454.326 229.358 454.453C229.252 454.581 229.105 454.692 228.917 454.786C228.73 454.88 228.486 454.926 228.185 454.926C227.797 454.926 227.448 454.836 227.137 454.655C226.828 454.472 226.583 454.202 226.402 453.846C226.223 453.488 226.133 453.048 226.133 452.526C226.133 452.004 226.222 451.557 226.399 451.184C226.578 450.811 226.823 450.526 227.134 450.327C227.445 450.127 227.797 450.027 228.192 450.027C228.496 450.027 228.742 450.078 228.93 450.18C229.117 450.281 229.263 450.398 229.368 450.532C229.474 450.666 229.556 450.784 229.614 450.887H229.684V450.091H230.621V455.109C230.621 455.531 230.523 455.877 230.327 456.147C230.131 456.418 229.865 456.618 229.531 456.748C229.198 456.878 228.823 456.943 228.406 456.943ZM228.396 454.134C228.671 454.134 228.903 454.07 229.093 453.942C229.285 453.812 229.43 453.627 229.528 453.386C229.628 453.143 229.678 452.852 229.678 452.513C229.678 452.183 229.629 451.892 229.531 451.641C229.433 451.39 229.289 451.194 229.099 451.053C228.91 450.91 228.675 450.839 228.396 450.839C228.108 450.839 227.869 450.913 227.677 451.062C227.485 451.21 227.34 451.41 227.242 451.663C227.146 451.917 227.099 452.2 227.099 452.513C227.099 452.835 227.148 453.118 227.246 453.36C227.344 453.603 227.488 453.793 227.68 453.929C227.874 454.066 228.113 454.134 228.396 454.134ZM233.331 455.109C233.02 455.109 232.738 455.051 232.487 454.936C232.236 454.819 232.036 454.65 231.889 454.428C231.744 454.206 231.672 453.935 231.672 453.613C231.672 453.336 231.725 453.108 231.832 452.929C231.938 452.75 232.082 452.608 232.263 452.504C232.444 452.4 232.647 452.321 232.871 452.267C233.094 452.214 233.322 452.174 233.555 452.146C233.849 452.112 234.087 452.084 234.27 452.063C234.454 452.039 234.587 452.002 234.67 451.951C234.753 451.9 234.795 451.817 234.795 451.702V451.679C234.795 451.4 234.716 451.184 234.558 451.031C234.403 450.877 234.17 450.8 233.861 450.8C233.54 450.8 233.286 450.872 233.101 451.015C232.917 451.155 232.791 451.312 232.72 451.484L231.822 451.28C231.929 450.982 232.084 450.741 232.289 450.558C232.496 450.372 232.733 450.238 233.002 450.155C233.27 450.07 233.552 450.027 233.849 450.027C234.045 450.027 234.252 450.05 234.472 450.097C234.693 450.142 234.9 450.225 235.092 450.347C235.286 450.468 235.444 450.642 235.568 450.868C235.692 451.091 235.753 451.382 235.753 451.74V455H234.82V454.329H234.782C234.72 454.452 234.627 454.574 234.504 454.693C234.38 454.812 234.221 454.912 234.028 454.99C233.834 455.069 233.601 455.109 233.331 455.109ZM233.539 454.342C233.803 454.342 234.029 454.289 234.216 454.185C234.406 454.081 234.55 453.944 234.648 453.776C234.748 453.605 234.798 453.423 234.798 453.229V452.597C234.764 452.631 234.698 452.663 234.6 452.692C234.504 452.72 234.394 452.745 234.27 452.766C234.147 452.785 234.026 452.803 233.909 452.82C233.792 452.835 233.694 452.848 233.615 452.859C233.43 452.882 233.26 452.922 233.107 452.977C232.956 453.032 232.834 453.112 232.743 453.217C232.653 453.319 232.608 453.455 232.608 453.626C232.608 453.862 232.696 454.041 232.871 454.163C233.045 454.282 233.268 454.342 233.539 454.342ZM237.982 448.455V455H237.026V448.455H237.982Z" fill="currentColor"/>
<path d="M167.1 446.345V457.109H166.243V446.345H167.1Z" fill="#4F4F4F"/>
<rect x="77" y="230" width="106" height="12" rx="3" fill="#E0E0E0"/>
<rect x="69" y="250" width="122" height="12" rx="3" fill="#E0E0E0"/>
<rect x="91" y="270" width="78" height="12" rx="3" fill="#E0E0E0"/>
<rect x="87.0001" y="144" width="86" height="17" rx="3" fill="#BDBDBD"/>
<path d="M107.843 183.182V171.364H108.6V183.182H107.843ZM110.211 175.029C110.162 174.592 109.959 174.254 109.602 174.013C109.245 173.77 108.796 173.649 108.254 173.649C107.866 173.649 107.531 173.71 107.248 173.833C106.965 173.953 106.745 174.12 106.588 174.332C106.434 174.541 106.357 174.78 106.357 175.048C106.357 175.272 106.409 175.466 106.514 175.629C106.621 175.792 106.761 175.929 106.934 176.04C107.109 176.148 107.297 176.239 107.497 176.312C107.697 176.383 107.889 176.442 108.074 176.488L108.997 176.728C109.299 176.802 109.608 176.902 109.925 177.028C110.242 177.154 110.536 177.32 110.807 177.527C111.078 177.733 111.296 177.988 111.463 178.293C111.632 178.598 111.716 178.962 111.716 179.387C111.716 179.923 111.578 180.398 111.301 180.814C111.027 181.229 110.629 181.557 110.105 181.797C109.585 182.037 108.956 182.157 108.217 182.157C107.509 182.157 106.897 182.045 106.38 181.82C105.863 181.595 105.458 181.277 105.166 180.864C104.873 180.449 104.712 179.956 104.681 179.387H106.112C106.14 179.729 106.251 180.013 106.444 180.241C106.641 180.466 106.892 180.634 107.197 180.744C107.505 180.852 107.842 180.906 108.208 180.906C108.611 180.906 108.97 180.843 109.284 180.717C109.601 180.587 109.85 180.409 110.031 180.181C110.213 179.95 110.304 179.681 110.304 179.373C110.304 179.093 110.224 178.864 110.064 178.685C109.907 178.507 109.693 178.359 109.422 178.242C109.154 178.125 108.851 178.022 108.513 177.933L107.395 177.628C106.638 177.422 106.038 177.119 105.595 176.719C105.155 176.319 104.935 175.789 104.935 175.131C104.935 174.586 105.083 174.11 105.378 173.704C105.673 173.298 106.074 172.982 106.578 172.758C107.083 172.53 107.652 172.416 108.286 172.416C108.927 172.416 109.491 172.529 109.981 172.753C110.473 172.978 110.861 173.287 111.144 173.681C111.427 174.072 111.575 174.521 111.587 175.029H110.211ZM116.436 172.416C116.857 172.419 117.273 172.496 117.682 172.647C118.091 172.798 118.461 173.044 118.79 173.386C119.122 173.727 119.387 174.189 119.584 174.771C119.784 175.349 119.886 176.069 119.889 176.931C119.889 177.759 119.806 178.496 119.639 179.142C119.473 179.786 119.235 180.329 118.924 180.772C118.616 181.215 118.242 181.552 117.802 181.783C117.362 182.014 116.867 182.129 116.316 182.129C115.752 182.129 115.252 182.018 114.815 181.797C114.378 181.575 114.023 181.269 113.749 180.878C113.475 180.484 113.304 180.032 113.236 179.521H114.644C114.737 179.927 114.925 180.257 115.208 180.509C115.494 180.758 115.863 180.883 116.316 180.883C117.008 180.883 117.548 180.581 117.936 179.978C118.324 179.372 118.519 178.525 118.522 177.439H118.448C118.288 177.704 118.088 177.931 117.848 178.122C117.611 178.313 117.345 178.461 117.05 178.565C116.754 178.67 116.439 178.722 116.103 178.722C115.559 178.722 115.063 178.588 114.617 178.321C114.171 178.053 113.815 177.685 113.55 177.217C113.286 176.75 113.153 176.216 113.153 175.615C113.153 175.018 113.289 174.477 113.56 173.99C113.833 173.504 114.215 173.119 114.704 172.836C115.197 172.55 115.774 172.41 116.436 172.416ZM116.44 173.616C116.08 173.616 115.755 173.706 115.466 173.884C115.18 174.06 114.954 174.298 114.788 174.6C114.621 174.898 114.538 175.231 114.538 175.597C114.538 175.963 114.618 176.296 114.778 176.594C114.941 176.89 115.163 177.125 115.443 177.3C115.726 177.473 116.049 177.559 116.413 177.559C116.683 177.559 116.936 177.507 117.17 177.402C117.404 177.297 117.608 177.153 117.784 176.968C117.959 176.78 118.096 176.568 118.195 176.331C118.293 176.094 118.342 175.845 118.342 175.583C118.342 175.235 118.259 174.912 118.093 174.614C117.93 174.315 117.705 174.075 117.419 173.893C117.133 173.709 116.807 173.616 116.44 173.616ZM124.7 172.416C125.122 172.419 125.537 172.496 125.947 172.647C126.356 172.798 126.725 173.044 127.055 173.386C127.387 173.727 127.652 174.189 127.849 174.771C128.049 175.349 128.15 176.069 128.153 176.931C128.153 177.759 128.07 178.496 127.904 179.142C127.738 179.786 127.499 180.329 127.189 180.772C126.881 181.215 126.507 181.552 126.067 181.783C125.627 182.014 125.131 182.129 124.58 182.129C124.017 182.129 123.517 182.018 123.08 181.797C122.643 181.575 122.287 181.269 122.014 180.878C121.74 180.484 121.569 180.032 121.501 179.521H122.909C123.001 179.927 123.189 180.257 123.472 180.509C123.759 180.758 124.128 180.883 124.58 180.883C125.273 180.883 125.813 180.581 126.201 179.978C126.588 179.372 126.784 178.525 126.787 177.439H126.713C126.553 177.704 126.353 177.931 126.113 178.122C125.876 178.313 125.61 178.461 125.314 178.565C125.019 178.67 124.703 178.722 124.368 178.722C123.823 178.722 123.328 178.588 122.881 178.321C122.435 178.053 122.08 177.685 121.815 177.217C121.55 176.75 121.418 176.216 121.418 175.615C121.418 175.018 121.553 174.477 121.824 173.99C122.098 173.504 122.48 173.119 122.969 172.836C123.462 172.55 124.039 172.41 124.7 172.416ZM124.705 173.616C124.345 173.616 124.02 173.706 123.731 173.884C123.445 174.06 123.218 174.298 123.052 174.6C122.886 174.898 122.803 175.231 122.803 175.597C122.803 175.963 122.883 176.296 123.043 176.594C123.206 176.89 123.428 177.125 123.708 177.3C123.991 177.473 124.314 177.559 124.677 177.559C124.948 177.559 125.2 177.507 125.434 177.402C125.668 177.297 125.873 177.153 126.048 176.968C126.224 176.78 126.361 176.568 126.459 176.331C126.558 176.094 126.607 175.845 126.607 175.583C126.607 175.235 126.524 174.912 126.358 174.614C126.195 174.315 125.97 174.075 125.684 173.893C125.397 173.709 125.071 173.616 124.705 173.616ZM133.44 172.102L130.394 183.422H129.161L132.208 172.102H133.44ZM134.613 182V174.909H135.938V176.063H136.026C136.173 175.672 136.415 175.368 136.75 175.149C137.086 174.928 137.488 174.817 137.955 174.817C138.429 174.817 138.826 174.928 139.146 175.149C139.47 175.371 139.708 175.675 139.862 176.063H139.936C140.105 175.685 140.374 175.383 140.744 175.158C141.113 174.931 141.553 174.817 142.064 174.817C142.707 174.817 143.232 175.018 143.638 175.422C144.048 175.825 144.252 176.433 144.252 177.245V182H142.872V177.374C142.872 176.894 142.741 176.546 142.48 176.331C142.218 176.116 141.906 176.008 141.542 176.008C141.093 176.008 140.744 176.146 140.494 176.423C140.245 176.697 140.12 177.05 140.12 177.48V182H138.745V177.287C138.745 176.902 138.625 176.593 138.385 176.359C138.145 176.125 137.832 176.008 137.448 176.008C137.186 176.008 136.944 176.077 136.723 176.216C136.504 176.351 136.327 176.54 136.192 176.783C136.06 177.027 135.993 177.308 135.993 177.628V182H134.613ZM149.412 174.909V176.017H145.539V174.909H149.412ZM146.578 173.21H147.958V179.918C147.958 180.186 147.998 180.387 148.078 180.523C148.158 180.655 148.261 180.746 148.387 180.795C148.517 180.841 148.657 180.864 148.808 180.864C148.918 180.864 149.015 180.857 149.098 180.841C149.181 180.826 149.246 180.814 149.292 180.804L149.542 181.945C149.462 181.975 149.348 182.006 149.2 182.037C149.052 182.071 148.868 182.089 148.646 182.092C148.283 182.098 147.944 182.034 147.63 181.898C147.316 181.763 147.063 181.554 146.869 181.271C146.675 180.987 146.578 180.632 146.578 180.204V173.21ZM152.472 177.79V182H151.092V172.545H152.453V176.063H152.541C152.707 175.682 152.961 175.378 153.303 175.154C153.644 174.929 154.091 174.817 154.642 174.817C155.128 174.817 155.553 174.917 155.916 175.117C156.282 175.317 156.565 175.615 156.765 176.012C156.968 176.406 157.07 176.899 157.07 177.49V182H155.69V177.656C155.69 177.136 155.556 176.733 155.288 176.446C155.02 176.157 154.648 176.012 154.171 176.012C153.845 176.012 153.552 176.082 153.294 176.22C153.038 176.359 152.837 176.562 152.689 176.83C152.544 177.094 152.472 177.414 152.472 177.79Z" fill="black"/>
<circle cx="131" cy="103" r="26" fill="currentColor" fill-opacity="0.15"/>
<mask id="mask0_1091_1292" style="mask-type:alpha" maskUnits="userSpaceOnUse" x="105" y="77" width="52" height="52">
<circle cx="131" cy="103" r="26" fill="currentColor"/>
</mask>
<g mask="url(#mask0_1091_1292)">
<path fill-rule="evenodd" clip-rule="evenodd" d="M125.036 128.854L117.95 135.939C117.169 136.72 115.902 136.72 115.121 135.939L100.586 121.404C99.8048 120.623 99.8048 119.356 100.586 118.575L115.121 104.04C115.902 103.259 117.169 103.259 117.95 104.04L125.036 111.126L140.575 95.5858C141.357 94.8047 142.623 94.8047 143.404 95.5858L166.393 118.575C167.174 119.356 167.174 120.623 166.393 121.404L143.404 144.393C142.623 145.174 141.357 145.174 140.575 144.393L125.036 128.854Z" fill="currentColor"/>
</g>
<circle cx="125.5" cy="92.5" r="4.5" fill="currentColor"/>
<g opacity="0.4">
<mask id="mask1_1091_1292" style="mask-type:alpha" maskUnits="userSpaceOnUse" x="214" y="71" width="48" height="123">
<rect x="262" y="194" width="48" height="123" transform="rotate(-180 262 194)" fill="url(#paint0_linear_1091_1292)"/>
</mask>
<g mask="url(#mask1_1091_1292)">
<rect x="217" y="144" width="86" height="17" rx="3" fill="#BDBDBD"/>
<path d="M237.843 183.182V171.364H238.6V183.182H237.843ZM240.211 175.029C240.162 174.592 239.959 174.254 239.602 174.013C239.245 173.77 238.796 173.649 238.254 173.649C237.866 173.649 237.531 173.71 237.248 173.833C236.965 173.953 236.745 174.12 236.588 174.332C236.434 174.541 236.357 174.78 236.357 175.048C236.357 175.272 236.409 175.466 236.514 175.629C236.621 175.792 236.761 175.929 236.934 176.04C237.109 176.148 237.297 176.239 237.497 176.312C237.697 176.383 237.889 176.442 238.074 176.488L238.997 176.728C239.299 176.802 239.608 176.902 239.925 177.028C240.242 177.154 240.536 177.32 240.807 177.527C241.078 177.733 241.296 177.988 241.463 178.293C241.632 178.598 241.716 178.962 241.716 179.387C241.716 179.923 241.578 180.398 241.301 180.814C241.027 181.229 240.629 181.557 240.105 181.797C239.585 182.037 238.956 182.157 238.217 182.157C237.509 182.157 236.897 182.045 236.38 181.82C235.863 181.595 235.458 181.277 235.166 180.864C234.873 180.449 234.712 179.956 234.681 179.387H236.112C236.14 179.729 236.251 180.013 236.444 180.241C236.641 180.466 236.892 180.634 237.197 180.744C237.505 180.852 237.842 180.906 238.208 180.906C238.611 180.906 238.97 180.843 239.284 180.717C239.601 180.587 239.85 180.409 240.031 180.181C240.213 179.95 240.304 179.681 240.304 179.373C240.304 179.093 240.224 178.864 240.064 178.685C239.907 178.507 239.693 178.359 239.422 178.242C239.154 178.125 238.851 178.022 238.513 177.933L237.395 177.628C236.638 177.422 236.038 177.119 235.595 176.719C235.155 176.319 234.935 175.789 234.935 175.131C234.935 174.586 235.083 174.11 235.378 173.704C235.673 173.298 236.074 172.982 236.578 172.758C237.083 172.53 237.652 172.416 238.286 172.416C238.927 172.416 239.491 172.529 239.981 172.753C240.473 172.978 240.861 173.287 241.144 173.681C241.427 174.072 241.575 174.521 241.587 175.029H240.211ZM246.436 172.416C246.857 172.419 247.273 172.496 247.682 172.647C248.091 172.798 248.461 173.044 248.79 173.386C249.122 173.727 249.387 174.189 249.584 174.771C249.784 175.349 249.886 176.069 249.889 176.931C249.889 177.759 249.806 178.496 249.639 179.142C249.473 179.786 249.235 180.329 248.924 180.772C248.616 181.215 248.242 181.552 247.802 181.783C247.362 182.014 246.867 182.129 246.316 182.129C245.752 182.129 245.252 182.018 244.815 181.797C244.378 181.575 244.023 181.269 243.749 180.878C243.475 180.484 243.304 180.032 243.236 179.521H244.644C244.737 179.927 244.925 180.257 245.208 180.509C245.494 180.758 245.863 180.883 246.316 180.883C247.008 180.883 247.548 180.581 247.936 179.978C248.324 179.372 248.519 178.525 248.522 177.439H248.448C248.288 177.704 248.088 177.931 247.848 178.122C247.611 178.313 247.345 178.461 247.05 178.565C246.754 178.67 246.439 178.722 246.103 178.722C245.559 178.722 245.063 178.588 244.617 178.321C244.171 178.053 243.815 177.685 243.55 177.217C243.286 176.75 243.153 176.216 243.153 175.615C243.153 175.018 243.289 174.477 243.56 173.99C243.833 173.504 244.215 173.119 244.704 172.836C245.197 172.55 245.774 172.41 246.436 172.416ZM246.44 173.616C246.08 173.616 245.755 173.706 245.466 173.884C245.18 174.06 244.954 174.298 244.788 174.6C244.621 174.898 244.538 175.231 244.538 175.597C244.538 175.963 244.618 176.296 244.778 176.594C244.941 176.89 245.163 177.125 245.443 177.3C245.726 177.473 246.049 177.559 246.413 177.559C246.683 177.559 246.936 177.507 247.17 177.402C247.404 177.297 247.608 177.153 247.784 176.968C247.959 176.78 248.096 176.568 248.195 176.331C248.293 176.094 248.342 175.845 248.342 175.583C248.342 175.235 248.259 174.912 248.093 174.614C247.93 174.315 247.705 174.075 247.419 173.893C247.133 173.709 246.807 173.616 246.44 173.616ZM254.7 172.416C255.122 172.419 255.537 172.496 255.947 172.647C256.356 172.798 256.725 173.044 257.055 173.386C257.387 173.727 257.652 174.189 257.849 174.771C258.049 175.349 258.15 176.069 258.153 176.931C258.153 177.759 258.07 178.496 257.904 179.142C257.738 179.786 257.499 180.329 257.189 180.772C256.881 181.215 256.507 181.552 256.067 181.783C255.627 182.014 255.131 182.129 254.58 182.129C254.017 182.129 253.517 182.018 253.08 181.797C252.643 181.575 252.287 181.269 252.014 180.878C251.74 180.484 251.569 180.032 251.501 179.521H252.909C253.001 179.927 253.189 180.257 253.472 180.509C253.759 180.758 254.128 180.883 254.58 180.883C255.273 180.883 255.813 180.581 256.201 179.978C256.588 179.372 256.784 178.525 256.787 177.439H256.713C256.553 177.704 256.353 177.931 256.113 178.122C255.876 178.313 255.61 178.461 255.314 178.565C255.019 178.67 254.703 178.722 254.368 178.722C253.823 178.722 253.328 178.588 252.881 178.321C252.435 178.053 252.08 177.685 251.815 177.217C251.55 176.75 251.418 176.216 251.418 175.615C251.418 175.018 251.553 174.477 251.824 173.99C252.098 173.504 252.48 173.119 252.969 172.836C253.462 172.55 254.039 172.41 254.7 172.416ZM254.705 173.616C254.345 173.616 254.02 173.706 253.731 173.884C253.445 174.06 253.218 174.298 253.052 174.6C252.886 174.898 252.803 175.231 252.803 175.597C252.803 175.963 252.883 176.296 253.043 176.594C253.206 176.89 253.428 177.125 253.708 177.3C253.991 177.473 254.314 177.559 254.677 177.559C254.948 177.559 255.2 177.507 255.434 177.402C255.668 177.297 255.873 177.153 256.048 176.968C256.224 176.78 256.361 176.568 256.459 176.331C256.558 176.094 256.607 175.845 256.607 175.583C256.607 175.235 256.524 174.912 256.358 174.614C256.195 174.315 255.97 174.075 255.684 173.893C255.397 173.709 255.071 173.616 254.705 173.616ZM263.44 172.102L260.394 183.422H259.161L262.208 172.102H263.44ZM264.613 182V174.909H265.938V176.063H266.026C266.173 175.672 266.415 175.368 266.75 175.149C267.086 174.928 267.488 174.817 267.955 174.817C268.429 174.817 268.826 174.928 269.146 175.149C269.47 175.371 269.708 175.675 269.862 176.063H269.936C270.105 175.685 270.374 175.383 270.744 175.158C271.113 174.931 271.553 174.817 272.064 174.817C272.707 174.817 273.232 175.018 273.638 175.422C274.048 175.825 274.252 176.433 274.252 177.245V182H272.872V177.374C272.872 176.894 272.741 176.546 272.48 176.331C272.218 176.116 271.906 176.008 271.542 176.008C271.093 176.008 270.744 176.146 270.494 176.423C270.245 176.697 270.12 177.05 270.12 177.48V182H268.745V177.287C268.745 176.902 268.625 176.593 268.385 176.359C268.145 176.125 267.832 176.008 267.448 176.008C267.186 176.008 266.944 176.077 266.723 176.216C266.504 176.351 266.327 176.54 266.192 176.783C266.06 177.027 265.993 177.308 265.993 177.628V182H264.613ZM279.412 174.909V176.017H275.539V174.909H279.412ZM276.578 173.21H277.958V179.918C277.958 180.186 277.998 180.387 278.078 180.523C278.158 180.655 278.261 180.746 278.387 180.795C278.517 180.841 278.657 180.864 278.808 180.864C278.918 180.864 279.015 180.857 279.098 180.841C279.181 180.826 279.246 180.814 279.292 180.804L279.542 181.945C279.462 181.975 279.348 182.006 279.2 182.037C279.052 182.071 278.868 182.089 278.646 182.092C278.283 182.098 277.944 182.034 277.63 181.898C277.316 181.763 277.063 181.554 276.869 181.271C276.675 180.987 276.578 180.632 276.578 180.204V173.21ZM282.472 177.79V182H281.092V172.545H282.453V176.063H282.541C282.707 175.682 282.961 175.378 283.303 175.154C283.644 174.929 284.091 174.817 284.642 174.817C285.128 174.817 285.553 174.917 285.916 175.117C286.282 175.317 286.565 175.615 286.765 176.012C286.968 176.406 287.07 176.899 287.07 177.49V182H285.69V177.656C285.69 177.136 285.556 176.733 285.288 176.446C285.02 176.157 284.648 176.012 284.171 176.012C283.845 176.012 283.552 176.082 283.294 176.22C283.038 176.359 282.837 176.562 282.689 176.83C282.544 177.094 282.472 177.414 282.472 177.79Z" fill="black"/>
<circle cx="261" cy="103" r="26" fill="currentColor" fill-opacity="0.15"/>
<mask id="mask2_1091_1292" style="mask-type:alpha" maskUnits="userSpaceOnUse" x="235" y="77" width="52" height="52">
<circle cx="261" cy="103" r="26" fill="currentColor"/>
</mask>
<g mask="url(#mask2_1091_1292)">
<path fill-rule="evenodd" clip-rule="evenodd" d="M255.036 128.854L247.95 135.939C247.169 136.72 245.902 136.72 245.121 135.939L230.586 121.404C229.805 120.623 229.805 119.356 230.586 118.575L245.121 104.04C245.902 103.259 247.169 103.259 247.95 104.04L255.036 111.126L270.575 95.5858C271.357 94.8047 272.623 94.8047 273.404 95.5858L296.393 118.575C297.174 119.356 297.174 120.623 296.393 121.404L273.404 144.393C272.623 145.174 271.357 145.174 270.575 144.393L255.036 128.854Z" fill="currentColor"/>
</g>
<circle cx="254.5" cy="88.5" r="3.5" fill="currentColor"/>
</g>
</g>
<g opacity="0.4">
<mask id="mask3_1091_1292" style="mask-type:alpha" maskUnits="userSpaceOnUse" x="0" y="71" width="48" height="123">
<rect y="71" width="48" height="123" fill="url(#paint1_linear_1091_1292)"/>
</mask>
<g mask="url(#mask3_1091_1292)">
<rect x="-37" y="144" width="86" height="17" rx="3" fill="#BDBDBD"/>
<path d="M-16.1568 183.182V171.364H-15.3997V183.182H-16.1568ZM-13.7885 175.029C-13.8378 174.592 -14.0409 174.254 -14.3979 174.013C-14.7549 173.77 -15.2043 173.649 -15.7459 173.649C-16.1337 173.649 -16.4692 173.71 -16.7523 173.833C-17.0355 173.953 -17.2555 174.12 -17.4125 174.332C-17.5664 174.541 -17.6433 174.78 -17.6433 175.048C-17.6433 175.272 -17.591 175.466 -17.4863 175.629C-17.3786 175.792 -17.2386 175.929 -17.0662 176.04C-16.8908 176.148 -16.7031 176.239 -16.503 176.312C-16.303 176.383 -16.1106 176.442 -15.926 176.488L-15.0027 176.728C-14.7011 176.802 -14.3918 176.902 -14.0748 177.028C-13.7578 177.154 -13.4639 177.32 -13.193 177.527C-12.9222 177.733 -12.7037 177.988 -12.5375 178.293C-12.3682 178.598 -12.2836 178.962 -12.2836 179.387C-12.2836 179.923 -12.4221 180.398 -12.6991 180.814C-12.973 181.229 -13.3715 181.557 -13.8947 181.797C-14.4148 182.037 -15.0442 182.157 -15.7829 182.157C-16.4907 182.157 -17.1032 182.045 -17.6202 181.82C-18.1373 181.595 -18.542 181.277 -18.8344 180.864C-19.1267 180.449 -19.2883 179.956 -19.3191 179.387H-17.888C-17.8603 179.729 -17.7495 180.013 -17.5556 180.241C-17.3586 180.466 -17.1078 180.634 -16.8031 180.744C-16.4953 180.852 -16.1583 180.906 -15.7921 180.906C-15.3889 180.906 -15.0304 180.843 -14.7165 180.717C-14.3995 180.587 -14.1502 180.409 -13.9686 180.181C-13.787 179.95 -13.6962 179.681 -13.6962 179.373C-13.6962 179.093 -13.7762 178.864 -13.9363 178.685C-14.0932 178.507 -14.3071 178.359 -14.578 178.242C-14.8457 178.125 -15.1489 178.022 -15.4874 177.933L-16.6046 177.628C-17.3617 177.422 -17.9618 177.119 -18.405 176.719C-18.8451 176.319 -19.0652 175.789 -19.0652 175.131C-19.0652 174.586 -18.9174 174.11 -18.622 173.704C-18.3265 173.298 -17.9264 172.982 -17.4217 172.758C-16.917 172.53 -16.3476 172.416 -15.7136 172.416C-15.0735 172.416 -14.5087 172.529 -14.0194 172.753C-13.5269 172.978 -13.1392 173.287 -12.856 173.681C-12.5729 174.072 -12.4251 174.521 -12.4128 175.029H-13.7885ZM-7.56438 172.416C-7.14274 172.419 -6.72726 172.496 -6.31793 172.647C-5.9086 172.798 -5.53928 173.044 -5.20997 173.386C-4.87759 173.727 -4.61291 174.189 -4.41594 174.771C-4.21589 175.349 -4.11433 176.069 -4.11125 176.931C-4.11125 177.759 -4.19435 178.496 -4.36054 179.142C-4.52674 179.786 -4.76525 180.329 -5.0761 180.772C-5.38386 181.215 -5.7578 181.552 -6.1979 181.783C-6.63801 182.014 -7.13351 182.129 -7.68441 182.129C-8.24762 182.129 -8.74774 182.018 -9.18476 181.797C-9.62179 181.575 -9.97726 181.269 -10.2512 180.878C-10.5251 180.484 -10.6959 180.032 -10.7636 179.521H-9.35557C-9.26324 179.927 -9.07551 180.257 -8.79236 180.509C-8.50614 180.758 -8.13682 180.883 -7.68441 180.883C-6.99193 180.883 -6.45181 180.581 -6.06402 179.978C-5.67624 179.372 -5.48081 178.525 -5.47773 177.439H-5.55159C-5.71163 177.704 -5.91168 177.931 -6.15174 178.122C-6.38872 178.313 -6.65493 178.461 -6.95039 178.565C-7.24584 178.67 -7.5613 178.722 -7.89676 178.722C-8.44151 178.722 -8.93701 178.588 -9.38327 178.321C-9.82953 178.053 -10.185 177.685 -10.4497 177.217C-10.7144 176.75 -10.8467 176.216 -10.8467 175.615C-10.8467 175.018 -10.7113 174.477 -10.4404 173.99C-10.1665 173.504 -9.7849 173.119 -9.29556 172.836C-8.80313 172.55 -8.22607 172.41 -7.56438 172.416ZM-7.55976 173.616C-7.91985 173.616 -8.24454 173.706 -8.53384 173.884C-8.82006 174.06 -9.04627 174.298 -9.21246 174.6C-9.37865 174.898 -9.46175 175.231 -9.46175 175.597C-9.46175 175.963 -9.38173 176.296 -9.22169 176.594C-9.05858 176.89 -8.83699 177.125 -8.55692 177.3C-8.27378 177.473 -7.95062 177.559 -7.58746 177.559C-7.31663 177.559 -7.06426 177.507 -6.83036 177.402C-6.59646 177.297 -6.39179 177.153 -6.21637 176.968C-6.04094 176.78 -5.90399 176.568 -5.8055 176.331C-5.70702 176.094 -5.65777 175.845 -5.65777 175.583C-5.65777 175.235 -5.74087 174.912 -5.90706 174.614C-6.07018 174.315 -6.29485 174.075 -6.58107 173.893C-6.86729 173.709 -7.19352 173.616 -7.55976 173.616ZM0.70027 172.416C1.12191 172.419 1.53739 172.496 1.94672 172.647C2.35605 172.798 2.72537 173.044 3.05467 173.386C3.38706 173.727 3.65174 174.189 3.84871 174.771C4.04876 175.349 4.15032 176.069 4.1534 176.931C4.1534 177.759 4.0703 178.496 3.90411 179.142C3.73791 179.786 3.49939 180.329 3.18855 180.772C2.88079 181.215 2.50685 181.552 2.06675 181.783C1.62664 182.014 1.13114 182.129 0.580242 182.129C0.0170316 182.129 -0.483087 182.018 -0.920113 181.797C-1.35714 181.575 -1.71261 181.269 -1.98652 180.878C-2.26043 180.484 -2.43124 180.032 -2.49895 179.521H-1.09092C-0.998593 179.927 -0.810857 180.257 -0.527713 180.509C-0.241491 180.758 0.127827 180.883 0.580242 180.883C1.27271 180.883 1.81284 180.581 2.20063 179.978C2.58841 179.372 2.78384 178.525 2.78692 177.439H2.71305C2.55302 177.704 2.35297 177.931 2.11291 178.122C1.87593 178.313 1.60972 178.461 1.31426 178.565C1.01881 178.67 0.703348 178.722 0.367884 178.722C-0.17686 178.722 -0.672362 178.588 -1.11862 178.321C-1.56488 178.053 -1.92035 177.685 -2.18503 177.217C-2.44971 176.75 -2.58205 176.216 -2.58205 175.615C-2.58205 175.018 -2.44663 174.477 -2.1758 173.99C-1.90188 173.504 -1.52026 173.119 -1.03091 172.836C-0.538484 172.55 0.0385752 172.41 0.70027 172.416ZM0.704887 173.616C0.344802 173.616 0.0201093 173.706 -0.26919 173.884C-0.555412 174.06 -0.781619 174.298 -0.947812 174.6C-1.11401 174.898 -1.1971 175.231 -1.1971 175.597C-1.1971 175.963 -1.11708 176.296 -0.957045 176.594C-0.79393 176.89 -0.572339 177.125 -0.292272 177.3C-0.0091283 177.473 0.314025 177.559 0.677188 177.559C0.948021 177.559 1.20039 177.507 1.43429 177.402C1.66819 177.297 1.87286 177.153 2.04828 176.968C2.22371 176.78 2.36066 176.568 2.45915 176.331C2.55763 176.094 2.60688 175.845 2.60688 175.583C2.60688 175.235 2.52378 174.912 2.35759 174.614C2.19447 174.315 1.9698 174.075 1.68358 173.893C1.39736 173.709 1.07113 173.616 0.704887 173.616ZM9.44042 172.102L6.39354 183.422H5.16094L8.20782 172.102H9.44042ZM10.613 182V174.909H11.9379V176.063H12.0256C12.1734 175.672 12.415 175.368 12.7504 175.149C13.0859 174.928 13.4875 174.817 13.9553 174.817C14.4293 174.817 14.8263 174.928 15.1464 175.149C15.4695 175.371 15.7081 175.675 15.8619 176.063H15.9358C16.1051 175.685 16.3744 175.383 16.7437 175.158C17.113 174.931 17.5531 174.817 18.064 174.817C18.7072 174.817 19.232 175.018 19.6382 175.422C20.0475 175.825 20.2522 176.433 20.2522 177.245V182H18.8719V177.374C18.8719 176.894 18.7411 176.546 18.4795 176.331C18.2179 176.116 17.9055 176.008 17.5423 176.008C17.093 176.008 16.7437 176.146 16.4944 176.423C16.2451 176.697 16.1205 177.05 16.1205 177.48V182H14.7447V177.287C14.7447 176.902 14.6247 176.593 14.3847 176.359C14.1446 176.125 13.8322 176.008 13.4475 176.008C13.1859 176.008 12.9443 176.077 12.7227 176.216C12.5042 176.351 12.3273 176.54 12.1918 176.783C12.0595 177.027 11.9933 177.308 11.9933 177.628V182H10.613ZM25.4123 174.909V176.017H21.539V174.909H25.4123ZM22.5778 173.21H23.9581V179.918C23.9581 180.186 23.9981 180.387 24.0781 180.523C24.1581 180.655 24.2612 180.746 24.3874 180.795C24.5167 180.841 24.6567 180.864 24.8075 180.864C24.9183 180.864 25.0153 180.857 25.0984 180.841C25.1814 180.826 25.2461 180.814 25.2922 180.804L25.5415 181.945C25.4615 181.975 25.3476 182.006 25.1999 182.037C25.0522 182.071 24.8675 182.089 24.6459 182.092C24.2828 182.098 23.9442 182.034 23.6303 181.898C23.3164 181.763 23.0625 181.554 22.8686 181.271C22.6747 180.987 22.5778 180.632 22.5778 180.204V173.21ZM28.4718 177.79V182H27.0915V172.545H28.4534V176.063H28.5411C28.7073 175.682 28.9612 175.378 29.3028 175.154C29.6444 174.929 30.0907 174.817 30.6416 174.817C31.1279 174.817 31.5526 174.917 31.9157 175.117C32.282 175.317 32.5651 175.615 32.7652 176.012C32.9683 176.406 33.0699 176.899 33.0699 177.49V182H31.6895V177.656C31.6895 177.136 31.5557 176.733 31.2879 176.446C31.0201 176.157 30.6477 176.012 30.1707 176.012C29.8445 176.012 29.5521 176.082 29.2936 176.22C29.0381 176.359 28.8365 176.562 28.6888 176.83C28.5442 177.094 28.4718 177.414 28.4718 177.79Z" fill="black"/>
<circle cx="7.00003" cy="103" r="26" fill="currentColor" fill-opacity="0.15"/>
<mask id="mask4_1091_1292" style="mask-type:alpha" maskUnits="userSpaceOnUse" x="-19" y="77" width="52" height="52">
<circle cx="7.00003" cy="103" r="26" fill="currentColor"/>
</mask>
<g mask="url(#mask4_1091_1292)">
<path fill-rule="evenodd" clip-rule="evenodd" d="M1.03555 128.854L-6.05026 135.939C-6.83127 136.72 -8.09763 136.72 -8.87863 135.939L-23.4142 121.404C-24.1952 120.623 -24.1952 119.356 -23.4142 118.575L-8.87863 104.04C-8.09763 103.259 -6.83127 103.259 -6.05026 104.04L1.03555 111.126L16.5754 95.5858C17.3565 94.8047 18.6228 94.8047 19.4038 95.5858L42.3935 118.575C43.1745 119.356 43.1745 120.623 42.3935 121.404L19.4038 144.393C18.6228 145.174 17.3565 145.174 16.5754 144.393L1.03555 128.854Z" fill="currentColor"/>
</g>
<circle cx="0.500031" cy="88.5" r="3.5" fill="currentColor"/>
</g>
</g>
<defs>
<linearGradient id="paint0_linear_1091_1292" x1="310" y1="194" x2="262" y2="194" gradientUnits="userSpaceOnUse">
<stop stop-color="white"/>
<stop offset="1" stop-color="white" stop-opacity="0"/>
</linearGradient>
<linearGradient id="paint1_linear_1091_1292" x1="48" y1="71" x2="0" y2="71" gradientUnits="userSpaceOnUse">
<stop stop-color="white"/>
<stop offset="1" stop-color="white" stop-opacity="0"/>
</linearGradient>
</defs>
</svg>
