<svg width="100%" height="100%" viewBox="0 0 262 479" fill="none" xmlns="http://www.w3.org/2000/svg">
<rect width="262" height="479" rx="20" fill="white"/>
<rect x="87.0001" y="221" width="86" height="17" rx="3" fill="#BDBDBD"/>
<circle cx="131" cy="180" r="26" fill="currentColor" fill-opacity="0.15"/>
<mask id="mask0_1091_1374" style="mask-type:alpha" maskUnits="userSpaceOnUse" x="105" y="154" width="52" height="52">
<circle cx="131" cy="180" r="26" fill="currentColor"/>
</mask>
<g mask="url(#mask0_1091_1374)">
<path fill-rule="evenodd" clip-rule="evenodd" d="M125.036 205.854L117.95 212.939C117.169 213.72 115.902 213.72 115.121 212.939L100.586 198.404C99.8048 197.623 99.8048 196.356 100.586 195.575L115.121 181.04C115.902 180.259 117.169 180.259 117.95 181.04L125.036 188.126L140.575 172.586C141.357 171.805 142.623 171.805 143.404 172.586L166.393 195.575C167.174 196.356 167.174 197.623 166.393 198.404L143.404 221.393C142.623 222.174 141.357 222.174 140.575 221.393L125.036 205.854Z" fill="currentColor"/>
</g>
<circle cx="125.5" cy="169.5" r="4.5" fill="currentColor"/>
<g opacity="0.4">
<mask id="mask1_1091_1374" style="mask-type:alpha" maskUnits="userSpaceOnUse" x="214" y="148" width="48" height="123">
<rect x="262" y="271" width="48" height="123" transform="rotate(-180 262 271)" fill="url(#paint0_linear_1091_1374)"/>
</mask>
<g mask="url(#mask1_1091_1374)">
<rect x="217" y="221" width="86" height="17" rx="3" fill="#BDBDBD"/>
<circle cx="261" cy="180" r="26" fill="currentColor" fill-opacity="0.15"/>
<mask id="mask2_1091_1374" style="mask-type:alpha" maskUnits="userSpaceOnUse" x="235" y="154" width="52" height="52">
<circle cx="261" cy="180" r="26" fill="currentColor"/>
</mask>
<g mask="url(#mask2_1091_1374)">
<path fill-rule="evenodd" clip-rule="evenodd" d="M255.036 205.854L247.95 212.939C247.169 213.72 245.902 213.72 245.121 212.939L230.586 198.404C229.805 197.623 229.805 196.356 230.586 195.575L245.121 181.04C245.902 180.259 247.169 180.259 247.95 181.04L255.036 188.126L270.575 172.586C271.357 171.805 272.623 171.805 273.404 172.586L296.393 195.575C297.174 196.356 297.174 197.623 296.393 198.404L273.404 221.393C272.623 222.174 271.357 222.174 270.575 221.393L255.036 205.854Z" fill="currentColor"/>
</g>
<circle cx="254.5" cy="165.5" r="3.5" fill="currentColor"/>
</g>
</g>
<g opacity="0.4">
<mask id="mask3_1091_1374" style="mask-type:alpha" maskUnits="userSpaceOnUse" x="0" y="148" width="48" height="123">
<rect y="148" width="48" height="123" fill="url(#paint1_linear_1091_1374)"/>
</mask>
<g mask="url(#mask3_1091_1374)">
<rect x="-37" y="221" width="86" height="17" rx="3" fill="#BDBDBD"/>
<circle cx="7" cy="180" r="26" fill="currentColor" fill-opacity="0.15"/>
<mask id="mask4_1091_1374" style="mask-type:alpha" maskUnits="userSpaceOnUse" x="-19" y="154" width="52" height="52">
<circle cx="7" cy="180" r="26" fill="currentColor"/>
</mask>
<g mask="url(#mask4_1091_1374)">
<path fill-rule="evenodd" clip-rule="evenodd" d="M1.03552 205.854L-6.05029 212.939C-6.8313 213.72 -8.09766 213.72 -8.87866 212.939L-23.4142 198.404C-24.1953 197.623 -24.1953 196.356 -23.4142 195.575L-8.87866 181.04C-8.09766 180.259 -6.8313 180.259 -6.05029 181.04L1.03552 188.126L16.5754 172.586C17.3564 171.805 18.6227 171.805 19.4038 172.586L42.3934 195.575C43.1744 196.356 43.1744 197.623 42.3934 198.404L19.4038 221.393C18.6227 222.174 17.3564 222.174 16.5754 221.393L1.03552 205.854Z" fill="currentColor"/>
</g>
<circle cx="0.5" cy="165.5" r="3.5" fill="currentColor"/>
</g>
</g>
<circle cx="58.4798" cy="98.5" r="9.47977" fill="currentColor" fill-opacity="0.15"/>
<path fill-rule="evenodd" clip-rule="evenodd" d="M55.3198 98.1614C55.3198 97.9121 55.5219 97.71 55.7712 97.71H61.1883C61.4376 97.71 61.6397 97.9121 61.6397 98.1614C61.6397 98.4107 61.4376 98.6128 61.1883 98.6128H55.7712C55.5219 98.6128 55.3198 98.4107 55.3198 98.1614Z" fill="currentColor"/>
<path d="M97.1229 121.545V76.0909H100.035V121.545H97.1229ZM104.847 91.0945C104.705 89.6622 104.095 88.5495 103.018 87.7564C101.941 86.9633 100.479 86.5668 98.6321 86.5668C97.3774 86.5668 96.318 86.7443 95.4539 87.0994C94.5897 87.4427 93.9269 87.9221 93.4652 88.5376C93.0154 89.1532 92.7905 89.8516 92.7905 90.6328C92.7668 91.2839 92.903 91.852 93.1989 92.3374C93.5066 92.8227 93.9269 93.2429 94.4595 93.598C94.9922 93.9413 95.6077 94.2431 96.3061 94.5036C97.0045 94.7521 97.7503 94.9652 98.5433 95.1428L101.81 95.924C103.397 96.2791 104.853 96.7526 106.178 97.3445C107.504 97.9363 108.652 98.6643 109.623 99.5284C110.594 100.393 111.345 101.411 111.878 102.582C112.422 103.754 112.701 105.098 112.712 106.613C112.701 108.838 112.132 110.768 111.008 112.401C109.895 114.023 108.285 115.284 106.178 116.183C104.083 117.071 101.556 117.515 98.5966 117.515C95.661 117.515 93.1042 117.065 90.9262 116.165C88.76 115.266 87.0673 113.934 85.848 112.17C84.6406 110.395 84.0074 108.199 83.9482 105.583H91.3878C91.4707 106.802 91.8199 107.82 92.4354 108.637C93.0628 109.442 93.8973 110.052 94.9389 110.466C95.9924 110.868 97.1821 111.07 98.5078 111.07C99.8099 111.07 100.94 110.88 101.899 110.501C102.87 110.123 103.621 109.596 104.154 108.921C104.687 108.246 104.953 107.471 104.953 106.595C104.953 105.778 104.71 105.092 104.225 104.536C103.752 103.979 103.053 103.506 102.13 103.115C101.219 102.724 100.1 102.369 98.7742 102.05L94.8146 101.055C91.7488 100.31 89.3281 99.1437 87.5526 97.5575C85.777 95.9714 84.8951 93.8348 84.907 91.1477C84.8951 88.946 85.4811 87.0225 86.6648 85.3771C87.8603 83.7318 89.4998 82.4474 91.5831 81.5241C93.6664 80.6009 96.0339 80.1392 98.6854 80.1392C101.384 80.1392 103.74 80.6009 105.752 81.5241C107.776 82.4474 109.351 83.7318 110.475 85.3771C111.6 87.0225 112.18 88.9283 112.215 91.0945H104.847ZM130.828 80.1392C132.698 80.1392 134.497 80.4529 136.225 81.0803C137.965 81.7076 139.516 82.7079 140.877 84.081C142.25 85.4541 143.334 87.277 144.127 89.5497C144.932 91.8106 145.34 94.5864 145.352 97.8771C145.352 100.967 145.003 103.725 144.304 106.151C143.618 108.566 142.629 110.62 141.339 112.312C140.049 114.005 138.492 115.295 136.669 116.183C134.846 117.059 132.81 117.497 130.561 117.497C128.135 117.497 125.992 117.03 124.134 116.094C122.275 115.147 120.778 113.863 119.642 112.241C118.517 110.608 117.836 108.773 117.6 106.737H125.181C125.477 108.063 126.099 109.093 127.046 109.827C127.993 110.549 129.164 110.91 130.561 110.91C132.929 110.91 134.728 109.88 135.959 107.82C137.19 105.749 137.812 102.914 137.823 99.3153H137.575C137.03 100.381 136.296 101.298 135.373 102.067C134.45 102.825 133.39 103.411 132.195 103.825C131.011 104.24 129.75 104.447 128.413 104.447C126.27 104.447 124.359 103.944 122.678 102.938C120.997 101.931 119.671 100.546 118.7 98.7827C117.73 97.0189 117.245 95.0066 117.245 92.7457C117.233 90.3073 117.795 88.1352 118.931 86.2294C120.068 84.3236 121.654 82.8321 123.69 81.755C125.738 80.666 128.117 80.1274 130.828 80.1392ZM130.881 86.1761C129.685 86.1761 128.62 86.4602 127.685 87.0284C126.762 87.5966 126.028 88.3601 125.483 89.3189C124.95 90.2777 124.69 91.349 124.702 92.5327C124.702 93.7282 124.962 94.8054 125.483 95.7642C126.016 96.7112 126.738 97.4687 127.649 98.0369C128.573 98.5933 129.626 98.8714 130.81 98.8714C131.698 98.8714 132.52 98.7057 133.278 98.3743C134.035 98.0428 134.692 97.5871 135.249 97.0071C135.817 96.4152 136.261 95.7346 136.58 94.9652C136.9 94.1958 137.06 93.379 137.06 92.5149C137.048 91.3667 136.776 90.3132 136.243 89.3544C135.71 88.3956 134.977 87.6262 134.041 87.0462C133.106 86.4661 132.053 86.1761 130.881 86.1761ZM163.835 80.1392C165.706 80.1392 167.505 80.4529 169.233 81.0803C170.973 81.7076 172.524 82.7079 173.885 84.081C175.258 85.4541 176.341 87.277 177.134 89.5497C177.939 91.8106 178.348 94.5864 178.36 97.8771C178.36 100.967 178.01 103.725 177.312 106.151C176.625 108.566 175.637 110.62 174.347 112.312C173.057 114.005 171.5 115.295 169.677 116.183C167.854 117.059 165.818 117.497 163.569 117.497C161.142 117.497 159 117.03 157.142 116.094C155.283 115.147 153.786 113.863 152.649 112.241C151.525 110.608 150.844 108.773 150.607 106.737H158.189C158.485 108.063 159.106 109.093 160.053 109.827C161 110.549 162.172 110.91 163.569 110.91C165.937 110.91 167.736 109.88 168.967 107.82C170.198 105.749 170.819 102.914 170.831 99.3153H170.583C170.038 100.381 169.304 101.298 168.381 102.067C167.458 102.825 166.398 103.411 165.203 103.825C164.019 104.24 162.758 104.447 161.421 104.447C159.278 104.447 157.366 103.944 155.686 102.938C154.005 101.931 152.679 100.546 151.708 98.7827C150.738 97.0189 150.252 95.0066 150.252 92.7457C150.24 90.3073 150.803 88.1352 151.939 86.2294C153.075 84.3236 154.662 82.8321 156.698 81.755C158.745 80.666 161.125 80.1274 163.835 80.1392ZM163.889 86.1761C162.693 86.1761 161.628 86.4602 160.693 87.0284C159.769 87.5966 159.035 88.3601 158.491 89.3189C157.958 90.2777 157.698 91.349 157.71 92.5327C157.71 93.7282 157.97 94.8054 158.491 95.7642C159.024 96.7112 159.746 97.4687 160.657 98.0369C161.58 98.5933 162.634 98.8714 163.818 98.8714C164.705 98.8714 165.528 98.7057 166.286 98.3743C167.043 98.0428 167.7 97.5871 168.257 97.0071C168.825 96.4152 169.269 95.7346 169.588 94.9652C169.908 94.1958 170.068 93.379 170.068 92.5149C170.056 91.3667 169.784 90.3132 169.251 89.3544C168.718 88.3956 167.984 87.6262 167.049 87.0462C166.114 86.4661 165.061 86.1761 163.889 86.1761Z" fill="black"/>
<circle cx="204.439" cy="98.5" r="9.47977" fill="currentColor" fill-opacity="0.15"/>
<path fill-rule="evenodd" clip-rule="evenodd" d="M204.439 93.7601C204.73 93.7601 204.966 93.9959 204.966 94.2867V97.9733H208.653C208.943 97.9733 209.179 98.2091 209.179 98.5C209.179 98.7908 208.943 99.0266 208.653 99.0266H204.966V102.713C204.966 103.004 204.73 103.24 204.439 103.24C204.148 103.24 203.913 103.004 203.913 102.713V99.0266H200.226C199.935 99.0266 199.699 98.7908 199.699 98.5C199.699 98.2091 199.935 97.9733 200.226 97.9733H203.913V94.2867C203.913 93.9959 204.148 93.7601 204.439 93.7601Z" fill="currentColor"/>
<rect x="56" y="270" width="80" height="22" rx="11" fill="currentColor" fill-opacity="0.1"/>
<path d="M66.6333 278.215V277H73.0161V278.215H70.5435V285H69.106V278.215H66.6333ZM75.9312 285.117C75.3452 285.117 74.8374 284.988 74.4077 284.73C73.978 284.473 73.6447 284.112 73.4077 283.648C73.1733 283.185 73.0562 282.643 73.0562 282.023C73.0562 281.404 73.1733 280.861 73.4077 280.395C73.6447 279.928 73.978 279.566 74.4077 279.309C74.8374 279.051 75.3452 278.922 75.9312 278.922C76.5171 278.922 77.0249 279.051 77.4546 279.309C77.8843 279.566 78.2163 279.928 78.4507 280.395C78.6877 280.861 78.8062 281.404 78.8062 282.023C78.8062 282.643 78.6877 283.185 78.4507 283.648C78.2163 284.112 77.8843 284.473 77.4546 284.73C77.0249 284.988 76.5171 285.117 75.9312 285.117ZM75.939 283.984C76.2567 283.984 76.5223 283.897 76.7358 283.723C76.9494 283.546 77.1082 283.309 77.2124 283.012C77.3192 282.715 77.3726 282.384 77.3726 282.02C77.3726 281.652 77.3192 281.32 77.2124 281.023C77.1082 280.724 76.9494 280.486 76.7358 280.309C76.5223 280.132 76.2567 280.043 75.939 280.043C75.6134 280.043 75.3426 280.132 75.1265 280.309C74.9129 280.486 74.7528 280.724 74.646 281.023C74.5418 281.32 74.4897 281.652 74.4897 282.02C74.4897 282.384 74.5418 282.715 74.646 283.012C74.7528 283.309 74.9129 283.546 75.1265 283.723C75.3426 283.897 75.6134 283.984 75.939 283.984ZM82.2329 285.105C81.7616 285.105 81.3397 284.984 80.9673 284.742C80.5949 284.5 80.3006 284.148 80.0845 283.687C79.8683 283.227 79.7603 282.667 79.7603 282.008C79.7603 281.341 79.8696 280.779 80.0884 280.32C80.3097 279.859 80.6079 279.512 80.9829 279.277C81.3579 279.04 81.7759 278.922 82.2368 278.922C82.5884 278.922 82.8774 278.982 83.104 279.102C83.3306 279.219 83.5103 279.361 83.6431 279.527C83.7759 279.691 83.8787 279.846 83.9517 279.992H84.0103V277H85.4282V285H84.0376V284.055H83.9517C83.8787 284.201 83.7733 284.355 83.6353 284.52C83.4972 284.681 83.3149 284.819 83.0884 284.934C82.8618 285.048 82.5767 285.105 82.2329 285.105ZM82.6274 283.945C82.9269 283.945 83.1821 283.865 83.3931 283.703C83.604 283.539 83.7642 283.311 83.8735 283.02C83.9829 282.728 84.0376 282.388 84.0376 282C84.0376 281.612 83.9829 281.275 83.8735 280.988C83.7668 280.702 83.6079 280.479 83.397 280.32C83.1886 280.161 82.9321 280.082 82.6274 280.082C82.3123 280.082 82.0493 280.164 81.8384 280.328C81.6274 280.492 81.4686 280.719 81.3618 281.008C81.255 281.297 81.2017 281.628 81.2017 282C81.2017 282.375 81.255 282.71 81.3618 283.004C81.4712 283.296 81.6313 283.526 81.8423 283.695C82.0558 283.862 82.3175 283.945 82.6274 283.945ZM88.6616 285.121C88.2814 285.121 87.939 285.053 87.6343 284.918C87.3322 284.78 87.0926 284.577 86.9155 284.309C86.741 284.04 86.6538 283.71 86.6538 283.316C86.6538 282.978 86.7163 282.698 86.8413 282.477C86.9663 282.255 87.1369 282.078 87.353 281.945C87.5692 281.812 87.8127 281.712 88.0835 281.645C88.3569 281.574 88.6395 281.523 88.9312 281.492C89.2827 281.456 89.5679 281.423 89.7866 281.395C90.0054 281.363 90.1642 281.316 90.2632 281.254C90.3647 281.189 90.4155 281.089 90.4155 280.953V280.93C90.4155 280.635 90.3283 280.408 90.1538 280.246C89.9793 280.085 89.728 280.004 89.3999 280.004C89.0535 280.004 88.7788 280.079 88.5757 280.23C88.3752 280.382 88.2397 280.56 88.1694 280.766L86.8491 280.578C86.9533 280.214 87.1252 279.909 87.3647 279.664C87.6043 279.417 87.8973 279.232 88.2437 279.109C88.59 278.984 88.9728 278.922 89.3921 278.922C89.6812 278.922 89.9689 278.956 90.2554 279.023C90.5418 279.091 90.8035 279.203 91.0405 279.359C91.2775 279.513 91.4676 279.723 91.6108 279.988C91.7567 280.254 91.8296 280.586 91.8296 280.984V285H90.4702V284.176H90.4233C90.3374 284.342 90.2163 284.499 90.0601 284.645C89.9064 284.788 89.7124 284.904 89.478 284.992C89.2463 285.078 88.9741 285.121 88.6616 285.121ZM89.0288 284.082C89.3127 284.082 89.5588 284.026 89.7671 283.914C89.9754 283.799 90.1356 283.648 90.2476 283.461C90.3621 283.273 90.4194 283.069 90.4194 282.848V282.141C90.3752 282.177 90.2996 282.211 90.1929 282.242C90.0887 282.273 89.9715 282.301 89.8413 282.324C89.7111 282.348 89.5822 282.368 89.4546 282.387C89.327 282.405 89.2163 282.421 89.1226 282.434C88.9116 282.462 88.7228 282.509 88.5562 282.574C88.3895 282.639 88.258 282.73 88.1616 282.848C88.0653 282.962 88.0171 283.111 88.0171 283.293C88.0171 283.553 88.1121 283.75 88.3022 283.883C88.4924 284.016 88.7345 284.082 89.0288 284.082ZM93.9155 287.25C93.7228 287.25 93.5444 287.234 93.3804 287.203C93.2189 287.174 93.09 287.141 92.9937 287.102L93.3218 286C93.5275 286.06 93.7111 286.089 93.8726 286.086C94.034 286.083 94.1759 286.033 94.2983 285.934C94.4233 285.837 94.5288 285.676 94.6147 285.449L94.7358 285.125L92.5601 279H94.0601L95.4429 283.531H95.5054L96.8921 279H98.396L95.9937 285.727C95.8817 286.044 95.7332 286.316 95.5483 286.543C95.3634 286.772 95.1369 286.947 94.8687 287.066C94.603 287.189 94.2853 287.25 93.9155 287.25ZM109.314 281C109.314 281.862 109.153 282.6 108.83 283.215C108.509 283.827 108.072 284.296 107.517 284.621C106.965 284.947 106.339 285.109 105.638 285.109C104.938 285.109 104.31 284.947 103.755 284.621C103.203 284.293 102.766 283.823 102.443 283.211C102.123 282.596 101.962 281.859 101.962 281C101.962 280.138 102.123 279.401 102.443 278.789C102.766 278.174 103.203 277.704 103.755 277.379C104.31 277.053 104.938 276.891 105.638 276.891C106.339 276.891 106.965 277.053 107.517 277.379C108.072 277.704 108.509 278.174 108.83 278.789C109.153 279.401 109.314 280.138 109.314 281ZM107.857 281C107.857 280.393 107.762 279.882 107.572 279.465C107.384 279.046 107.124 278.729 106.791 278.516C106.457 278.299 106.073 278.191 105.638 278.191C105.203 278.191 104.819 278.299 104.486 278.516C104.153 278.729 103.891 279.046 103.701 279.465C103.513 279.882 103.419 280.393 103.419 281C103.419 281.607 103.513 282.12 103.701 282.539C103.891 282.956 104.153 283.272 104.486 283.488C104.819 283.702 105.203 283.809 105.638 283.809C106.073 283.809 106.457 283.702 106.791 283.488C107.124 283.272 107.384 282.956 107.572 282.539C107.762 282.12 107.857 281.607 107.857 281ZM112.036 281.484V285H110.622V279H111.973V280.02H112.043C112.181 279.684 112.402 279.417 112.704 279.219C113.008 279.021 113.385 278.922 113.833 278.922C114.247 278.922 114.607 279.01 114.915 279.187C115.224 279.365 115.464 279.621 115.633 279.957C115.805 280.293 115.89 280.701 115.887 281.18V285H114.473V281.398C114.473 280.997 114.369 280.684 114.161 280.457C113.955 280.23 113.67 280.117 113.305 280.117C113.058 280.117 112.838 280.172 112.645 280.281C112.455 280.388 112.305 280.543 112.196 280.746C112.089 280.949 112.036 281.195 112.036 281.484ZM118.739 277V285H117.325V277H118.739ZM121.072 287.25C120.879 287.25 120.701 287.234 120.537 287.203C120.375 287.174 120.246 287.141 120.15 287.102L120.478 286C120.684 286.06 120.867 286.089 121.029 286.086C121.19 286.083 121.332 286.033 121.455 285.934C121.58 285.837 121.685 285.676 121.771 285.449L121.892 285.125L119.716 279H121.216L122.599 283.531H122.662L124.048 279H125.552L123.15 285.727C123.038 286.044 122.889 286.316 122.705 286.543C122.52 286.772 122.293 286.947 122.025 287.066C121.759 287.189 121.442 287.25 121.072 287.25Z" fill="currentColor"/>
<rect x="142" y="270" width="81.2" height="22" rx="11" fill="currentColor"/>
<path fill-rule="evenodd" clip-rule="evenodd" d="M162.966 276.734C163.278 277.047 163.278 277.553 162.966 277.866L156.566 284.266C156.253 284.578 155.747 284.578 155.434 284.266L152.234 281.066C151.922 280.753 151.922 280.247 152.234 279.934C152.547 279.622 153.053 279.622 153.366 279.934L156 282.569L161.834 276.734C162.147 276.422 162.653 276.422 162.966 276.734Z" fill="white"/>
<path d="M169.213 277H171.299L173.502 282.375H173.596L175.799 277H177.885V285H176.244V279.793H176.178L174.107 284.961H172.99L170.92 279.773H170.853V285H169.213V277ZM181.958 285.117C181.351 285.117 180.826 284.988 180.384 284.73C179.944 284.47 179.604 284.108 179.364 283.645C179.124 283.178 179.005 282.638 179.005 282.023C179.005 281.404 179.124 280.862 179.364 280.398C179.604 279.932 179.944 279.57 180.384 279.312C180.826 279.052 181.351 278.922 181.958 278.922C182.565 278.922 183.088 279.052 183.528 279.312C183.971 279.57 184.312 279.932 184.552 280.398C184.791 280.862 184.911 281.404 184.911 282.023C184.911 282.638 184.791 283.178 184.552 283.645C184.312 284.108 183.971 284.47 183.528 284.73C183.088 284.988 182.565 285.117 181.958 285.117ZM181.966 283.828C182.242 283.828 182.472 283.75 182.657 283.594C182.842 283.435 182.981 283.219 183.075 282.945C183.171 282.672 183.22 282.361 183.22 282.012C183.22 281.663 183.171 281.352 183.075 281.078C182.981 280.805 182.842 280.589 182.657 280.43C182.472 280.271 182.242 280.191 181.966 280.191C181.687 280.191 181.453 280.271 181.263 280.43C181.075 280.589 180.933 280.805 180.837 281.078C180.743 281.352 180.696 281.663 180.696 282.012C180.696 282.361 180.743 282.672 180.837 282.945C180.933 283.219 181.075 283.435 181.263 283.594C181.453 283.75 181.687 283.828 181.966 283.828ZM187.657 281.531V285H185.993V279H187.579V280.059H187.649C187.782 279.71 188.005 279.434 188.317 279.23C188.63 279.025 189.009 278.922 189.454 278.922C189.871 278.922 190.234 279.013 190.544 279.195C190.854 279.378 191.095 279.638 191.266 279.977C191.438 280.312 191.524 280.714 191.524 281.18V285H189.86V281.477C189.863 281.109 189.769 280.823 189.579 280.617C189.389 280.409 189.127 280.305 188.794 280.305C188.57 280.305 188.372 280.353 188.2 280.449C188.031 280.546 187.898 280.686 187.802 280.871C187.708 281.053 187.66 281.273 187.657 281.531ZM196.027 279V280.25H192.414V279H196.027ZM193.234 277.562H194.898V283.156C194.898 283.31 194.922 283.43 194.969 283.516C195.015 283.599 195.081 283.658 195.164 283.691C195.25 283.725 195.349 283.742 195.461 283.742C195.539 283.742 195.617 283.736 195.695 283.723C195.773 283.707 195.833 283.695 195.875 283.687L196.137 284.926C196.053 284.952 195.936 284.982 195.785 285.016C195.634 285.052 195.45 285.074 195.234 285.082C194.833 285.098 194.482 285.044 194.18 284.922C193.88 284.799 193.647 284.609 193.48 284.352C193.314 284.094 193.232 283.768 193.234 283.375V277.562ZM198.904 281.531V285H197.24V277H198.857V280.059H198.928C199.063 279.704 199.282 279.427 199.584 279.227C199.886 279.023 200.265 278.922 200.721 278.922C201.137 278.922 201.5 279.013 201.81 279.195C202.123 279.375 202.365 279.634 202.537 279.973C202.711 280.309 202.797 280.711 202.795 281.18V285H201.131V281.477C201.133 281.107 201.04 280.819 200.849 280.613C200.662 280.408 200.399 280.305 200.06 280.305C199.834 280.305 199.633 280.353 199.459 280.449C199.287 280.546 199.152 280.686 199.053 280.871C198.956 281.053 198.907 281.273 198.904 281.531ZM205.768 277V285H204.104V277H205.768ZM208.129 287.25C207.918 287.25 207.72 287.233 207.535 287.199C207.353 287.168 207.202 287.128 207.082 287.078L207.457 285.836C207.652 285.896 207.828 285.928 207.984 285.934C208.143 285.939 208.28 285.902 208.394 285.824C208.512 285.746 208.607 285.613 208.68 285.426L208.777 285.172L206.625 279H208.375L209.617 283.406H209.68L210.933 279H212.695L210.363 285.648C210.251 285.971 210.099 286.253 209.906 286.492C209.716 286.734 209.475 286.921 209.183 287.051C208.892 287.184 208.54 287.25 208.129 287.25Z" fill="white"/>
<path d="M68.8353 341H67.324L69.2871 335.182H71.1592L73.1223 341H71.6109L70.2444 336.648H70.199L68.8353 341ZM68.6336 338.71H71.7927V339.778H68.6336V338.71ZM75.4817 340.159V336.045H76.6265V340.159H75.4817ZM73.9959 338.676V337.528H78.1095V338.676H73.9959ZM80.9362 336.196V335.182H85.7146V336.196H83.9334V341H82.7174V336.196H80.9362ZM86.5015 341V335.182H88.797C89.2364 335.182 89.6114 335.26 89.922 335.418C90.2345 335.573 90.4722 335.794 90.6351 336.08C90.7998 336.364 90.8822 336.698 90.8822 337.082C90.8822 337.469 90.7989 337.801 90.6322 338.08C90.4656 338.356 90.2241 338.568 89.9078 338.716C89.5934 338.864 89.2127 338.938 88.7657 338.938H87.2288V337.949H88.5669C88.8017 337.949 88.9968 337.917 89.1521 337.852C89.3074 337.788 89.4229 337.691 89.4987 337.562C89.5763 337.434 89.6152 337.274 89.6152 337.082C89.6152 336.889 89.5763 336.726 89.4987 336.594C89.4229 336.461 89.3065 336.361 89.1493 336.293C88.994 336.223 88.7979 336.188 88.5612 336.188H87.7317V341H86.5015ZM89.6436 338.352L91.0896 341H89.7317L88.3169 338.352H89.6436ZM92.7544 341H91.4362L93.4447 335.182H95.0299L97.0356 341H95.7174L94.2601 336.511H94.2146L92.7544 341ZM92.672 338.713H95.7856V339.673H92.672V338.713ZM102.602 335.182V341H101.54L99.0086 337.338H98.966V341H97.7359V335.182H98.8155L101.327 338.841H101.378V335.182H102.602ZM106.775 336.855C106.752 336.626 106.655 336.448 106.482 336.321C106.31 336.194 106.076 336.131 105.781 336.131C105.58 336.131 105.41 336.159 105.272 336.216C105.134 336.271 105.028 336.348 104.954 336.446C104.882 336.545 104.846 336.656 104.846 336.781C104.842 336.885 104.864 336.976 104.911 337.054C104.961 337.132 105.028 337.199 105.113 337.256C105.198 337.311 105.297 337.359 105.408 337.401C105.52 337.44 105.64 337.474 105.766 337.503L106.289 337.628C106.543 337.685 106.776 337.76 106.988 337.855C107.2 337.95 107.384 338.066 107.539 338.205C107.694 338.343 107.815 338.506 107.9 338.693C107.987 338.881 108.032 339.096 108.033 339.338C108.032 339.694 107.941 340.003 107.761 340.264C107.583 340.524 107.325 340.725 106.988 340.869C106.653 341.011 106.248 341.082 105.775 341.082C105.305 341.082 104.896 341.01 104.548 340.866C104.201 340.723 103.93 340.509 103.735 340.227C103.542 339.943 103.441 339.592 103.431 339.173H104.622C104.635 339.368 104.691 339.531 104.789 339.662C104.89 339.791 105.023 339.888 105.19 339.955C105.358 340.019 105.549 340.051 105.761 340.051C105.969 340.051 106.15 340.021 106.303 339.96C106.459 339.9 106.579 339.815 106.664 339.707C106.749 339.599 106.792 339.475 106.792 339.335C106.792 339.205 106.753 339.095 106.676 339.006C106.6 338.917 106.488 338.841 106.34 338.778C106.194 338.716 106.016 338.659 105.803 338.608L105.17 338.449C104.679 338.33 104.292 338.143 104.008 337.889C103.724 337.635 103.583 337.294 103.585 336.864C103.583 336.511 103.676 336.204 103.866 335.94C104.057 335.677 104.319 335.472 104.653 335.324C104.986 335.176 105.365 335.102 105.789 335.102C106.221 335.102 106.598 335.176 106.92 335.324C107.244 335.472 107.496 335.677 107.676 335.94C107.855 336.204 107.948 336.509 107.954 336.855H106.775ZM108.861 341V335.182H111.156C111.598 335.182 111.974 335.266 112.284 335.435C112.595 335.601 112.832 335.833 112.994 336.131C113.159 336.426 113.242 336.767 113.242 337.153C113.242 337.54 113.158 337.881 112.992 338.176C112.825 338.472 112.583 338.702 112.267 338.866C111.953 339.031 111.572 339.114 111.125 339.114H109.662V338.128H110.926C111.163 338.128 111.358 338.087 111.511 338.006C111.667 337.922 111.782 337.808 111.858 337.662C111.936 337.514 111.975 337.345 111.975 337.153C111.975 336.96 111.936 336.792 111.858 336.648C111.782 336.502 111.667 336.389 111.511 336.31C111.356 336.228 111.159 336.188 110.921 336.188H110.091V341H108.861ZM114.372 341H113.053L115.062 335.182H116.647L118.653 341H117.335L115.877 336.511H115.832L114.372 341ZM114.289 338.713H117.403V339.673H114.289V338.713ZM119.353 341V335.182H121.649C122.088 335.182 122.463 335.26 122.774 335.418C123.086 335.573 123.324 335.794 123.487 336.08C123.651 336.364 123.734 336.698 123.734 337.082C123.734 337.469 123.65 337.801 123.484 338.08C123.317 338.356 123.076 338.568 122.759 338.716C122.445 338.864 122.064 338.938 121.617 338.938H120.08V337.949H121.418C121.653 337.949 121.848 337.917 122.004 337.852C122.159 337.788 122.275 337.691 122.35 337.562C122.428 337.434 122.467 337.274 122.467 337.082C122.467 336.889 122.428 336.726 122.35 336.594C122.275 336.461 122.158 336.361 122.001 336.293C121.846 336.223 121.65 336.188 121.413 336.188H120.583V341H119.353ZM122.495 338.352L123.941 341H122.583L121.168 338.352H122.495ZM124.603 341V335.182H128.524V336.196H125.833V337.582H128.322V338.597H125.833V339.986H128.535V341H124.603ZM134.368 335.182V341H133.306L130.774 337.338H130.732V341H129.502V335.182H130.581L133.092 338.841H133.144V335.182H134.368ZM140.518 337.219H139.274C139.251 337.058 139.204 336.915 139.134 336.79C139.064 336.663 138.974 336.555 138.864 336.466C138.755 336.377 138.628 336.309 138.484 336.261C138.342 336.214 138.187 336.19 138.021 336.19C137.72 336.19 137.457 336.265 137.234 336.415C137.01 336.562 136.837 336.778 136.714 337.062C136.591 337.345 136.529 337.687 136.529 338.091C136.529 338.506 136.591 338.854 136.714 339.136C136.839 339.419 137.013 339.632 137.237 339.776C137.46 339.92 137.719 339.991 138.012 339.991C138.177 339.991 138.329 339.97 138.47 339.926C138.612 339.883 138.738 339.819 138.847 339.736C138.957 339.651 139.048 339.547 139.12 339.426C139.194 339.305 139.245 339.167 139.274 339.011L140.518 339.017C140.486 339.284 140.405 339.542 140.276 339.79C140.15 340.036 139.978 340.257 139.762 340.452C139.548 340.645 139.292 340.798 138.995 340.912C138.7 341.024 138.365 341.08 137.992 341.08C137.473 341.08 137.009 340.962 136.6 340.727C136.193 340.492 135.871 340.152 135.634 339.707C135.4 339.262 135.282 338.723 135.282 338.091C135.282 337.456 135.401 336.917 135.64 336.472C135.879 336.027 136.203 335.687 136.612 335.455C137.021 335.22 137.481 335.102 137.992 335.102C138.329 335.102 138.642 335.15 138.93 335.244C139.22 335.339 139.476 335.477 139.7 335.659C139.923 335.839 140.105 336.06 140.245 336.321C140.387 336.582 140.478 336.882 140.518 337.219ZM141.059 335.182H142.437L143.764 337.688H143.82L145.147 335.182H146.525L144.403 338.943V341H143.181V338.943L141.059 335.182ZM149.048 341V335.182H151.344C151.785 335.182 152.161 335.266 152.472 335.435C152.782 335.601 153.019 335.833 153.182 336.131C153.347 336.426 153.429 336.767 153.429 337.153C153.429 337.54 153.346 337.881 153.179 338.176C153.012 338.472 152.771 338.702 152.455 338.866C152.14 339.031 151.76 339.114 151.313 339.114H149.85V338.128H151.114C151.35 338.128 151.546 338.087 151.699 338.006C151.854 337.922 151.97 337.808 152.046 337.662C152.123 337.514 152.162 337.345 152.162 337.153C152.162 336.96 152.123 336.792 152.046 336.648C151.97 336.502 151.854 336.389 151.699 336.31C151.544 336.228 151.347 336.188 151.108 336.188H150.279V341H149.048ZM154.228 341V335.182H156.524C156.963 335.182 157.338 335.26 157.649 335.418C157.961 335.573 158.199 335.794 158.362 336.08C158.526 336.364 158.609 336.698 158.609 337.082C158.609 337.469 158.525 337.801 158.359 338.08C158.192 338.356 157.951 338.568 157.634 338.716C157.32 338.864 156.939 338.938 156.492 338.938H154.955V337.949H156.293C156.528 337.949 156.723 337.917 156.879 337.852C157.034 337.788 157.149 337.691 157.225 337.562C157.303 337.434 157.342 337.274 157.342 337.082C157.342 336.889 157.303 336.726 157.225 336.594C157.149 336.461 157.033 336.361 156.876 336.293C156.721 336.223 156.524 336.188 156.288 336.188H155.458V341H154.228ZM157.37 338.352L158.816 341H157.458L156.043 338.352H157.37ZM164.825 338.091C164.825 338.725 164.704 339.265 164.464 339.71C164.225 340.155 163.899 340.495 163.487 340.73C163.076 340.963 162.614 341.08 162.1 341.08C161.583 341.08 161.119 340.962 160.708 340.727C160.297 340.492 159.972 340.152 159.734 339.707C159.495 339.262 159.376 338.723 159.376 338.091C159.376 337.456 159.495 336.917 159.734 336.472C159.972 336.027 160.297 335.687 160.708 335.455C161.119 335.22 161.583 335.102 162.1 335.102C162.614 335.102 163.076 335.22 163.487 335.455C163.899 335.687 164.225 336.027 164.464 336.472C164.704 336.917 164.825 337.456 164.825 338.091ZM163.578 338.091C163.578 337.68 163.516 337.333 163.393 337.051C163.272 336.769 163.1 336.555 162.879 336.409C162.657 336.263 162.398 336.19 162.1 336.19C161.803 336.19 161.543 336.263 161.322 336.409C161.1 336.555 160.928 336.769 160.805 337.051C160.684 337.333 160.623 337.68 160.623 338.091C160.623 338.502 160.684 338.848 160.805 339.131C160.928 339.413 161.1 339.627 161.322 339.773C161.543 339.919 161.803 339.991 162.1 339.991C162.398 339.991 162.657 339.919 162.879 339.773C163.1 339.627 163.272 339.413 163.393 339.131C163.516 338.848 163.578 338.502 163.578 338.091ZM165.736 335.182H167.253L168.855 339.091H168.923L170.526 335.182H172.043V341H170.85V337.213H170.801L169.296 340.972H168.483L166.977 337.199H166.929V341H165.736V335.182ZM174.286 335.182V341H173.056V335.182H174.286ZM178.455 336.855C178.432 336.626 178.334 336.448 178.162 336.321C177.99 336.194 177.756 336.131 177.46 336.131C177.26 336.131 177.09 336.159 176.952 336.216C176.814 336.271 176.707 336.348 176.634 336.446C176.562 336.545 176.526 336.656 176.526 336.781C176.522 336.885 176.544 336.976 176.591 337.054C176.64 337.132 176.707 337.199 176.793 337.256C176.878 337.311 176.976 337.359 177.088 337.401C177.2 337.44 177.319 337.474 177.446 337.503L177.969 337.628C178.223 337.685 178.456 337.76 178.668 337.855C178.88 337.95 179.064 338.066 179.219 338.205C179.374 338.343 179.494 338.506 179.58 338.693C179.667 338.881 179.711 339.096 179.713 339.338C179.711 339.694 179.62 340.003 179.44 340.264C179.262 340.524 179.005 340.725 178.668 340.869C178.332 341.011 177.928 341.082 177.455 341.082C176.985 341.082 176.576 341.01 176.227 340.866C175.881 340.723 175.61 340.509 175.415 340.227C175.222 339.943 175.12 339.592 175.111 339.173H176.301C176.315 339.368 176.37 339.531 176.469 339.662C176.569 339.791 176.703 339.888 176.869 339.955C177.038 340.019 177.228 340.051 177.44 340.051C177.649 340.051 177.83 340.021 177.983 339.96C178.138 339.9 178.259 339.815 178.344 339.707C178.429 339.599 178.472 339.475 178.472 339.335C178.472 339.205 178.433 339.095 178.355 339.006C178.279 338.917 178.168 338.841 178.02 338.778C177.874 338.716 177.695 338.659 177.483 338.608L176.85 338.449C176.359 338.33 175.972 338.143 175.688 337.889C175.404 337.635 175.262 337.294 175.264 336.864C175.262 336.511 175.356 336.204 175.546 335.94C175.737 335.677 175.999 335.472 176.332 335.324C176.666 335.176 177.045 335.102 177.469 335.102C177.901 335.102 178.278 335.176 178.6 335.324C178.923 335.472 179.175 335.677 179.355 335.94C179.535 336.204 179.628 336.509 179.634 336.855H178.455ZM180.541 341V335.182H184.461V336.196H181.771V337.582H184.259V338.597H181.771V339.986H184.472V341H180.541ZM190.876 341.091L187.955 338.17C187.722 337.938 187.567 337.667 187.489 337.358C187.414 337.049 187.415 336.742 187.492 336.438C187.57 336.131 187.724 335.864 187.955 335.636C188.192 335.403 188.462 335.249 188.765 335.173C189.07 335.096 189.374 335.096 189.677 335.173C189.982 335.251 190.253 335.405 190.489 335.636L190.876 336.011L191.262 335.636C191.501 335.405 191.772 335.251 192.075 335.173C192.378 335.096 192.681 335.096 192.984 335.173C193.289 335.249 193.56 335.403 193.796 335.636C194.027 335.864 194.182 336.131 194.259 336.438C194.337 336.742 194.337 337.049 194.259 337.358C194.184 337.667 194.029 337.938 193.796 338.17L190.876 341.091Z" fill="#BDBDBD"/>
<path fill-rule="evenodd" clip-rule="evenodd" d="M61 337.498H31C26.5817 337.498 23 341.08 23 345.498V382C23 386.418 26.5817 390 31 390H231C235.418 390 239 386.418 239 382V345.498C239 341.08 235.418 337.498 231 337.498H201V338.498H231C234.866 338.498 238 341.632 238 345.498V382C238 385.866 234.866 389 231 389H31C27.134 389 24 385.866 24 382V345.498C24 341.632 27.134 338.498 31 338.498H61V337.498Z" fill="#BDBDBD"/>
<rect x="52" y="352" width="158" height="12" rx="3" fill="#E0E0E0"/>
<rect x="69" y="368" width="124.985" height="12" rx="3" fill="#E0E0E0"/>
<rect x="23" y="401" width="216" height="36" rx="8" fill="currentColor"/>
<path d="M111.687 424H108.237V413.818H111.757C112.767 413.818 113.636 414.022 114.362 414.43C115.091 414.834 115.651 415.416 116.042 416.175C116.433 416.934 116.629 417.842 116.629 418.899C116.629 419.96 116.432 420.871 116.037 421.634C115.646 422.396 115.081 422.981 114.342 423.388C113.606 423.796 112.721 424 111.687 424ZM110.081 422.404H111.597C112.307 422.404 112.898 422.275 113.372 422.016C113.846 421.754 114.203 421.365 114.441 420.848C114.68 420.328 114.799 419.678 114.799 418.899C114.799 418.12 114.68 417.474 114.441 416.96C114.203 416.443 113.85 416.057 113.382 415.802C112.918 415.543 112.342 415.414 111.652 415.414H110.081V422.404ZM121.633 424.149C120.887 424.149 120.241 423.985 119.694 423.657C119.147 423.329 118.723 422.87 118.421 422.28C118.123 421.69 117.974 421 117.974 420.212C117.974 419.423 118.123 418.732 118.421 418.138C118.723 417.545 119.147 417.085 119.694 416.756C120.241 416.428 120.887 416.264 121.633 416.264C122.378 416.264 123.025 416.428 123.572 416.756C124.118 417.085 124.541 417.545 124.839 418.138C125.141 418.732 125.292 419.423 125.292 420.212C125.292 421 125.141 421.69 124.839 422.28C124.541 422.87 124.118 423.329 123.572 423.657C123.025 423.985 122.378 424.149 121.633 424.149ZM121.643 422.707C122.047 422.707 122.385 422.596 122.657 422.374C122.929 422.149 123.131 421.847 123.263 421.469C123.399 421.092 123.467 420.671 123.467 420.207C123.467 419.739 123.399 419.317 123.263 418.939C123.131 418.558 122.929 418.254 122.657 418.029C122.385 417.804 122.047 417.691 121.643 417.691C121.228 417.691 120.884 417.804 120.608 418.029C120.337 418.254 120.133 418.558 119.997 418.939C119.864 419.317 119.798 419.739 119.798 420.207C119.798 420.671 119.864 421.092 119.997 421.469C120.133 421.847 120.337 422.149 120.608 422.374C120.884 422.596 121.228 422.707 121.643 422.707ZM128.619 419.526V424H126.819V416.364H128.539V417.661H128.629C128.805 417.234 129.085 416.894 129.469 416.642C129.857 416.39 130.336 416.264 130.906 416.264C131.433 416.264 131.892 416.377 132.283 416.602C132.677 416.828 132.982 417.154 133.198 417.582C133.417 418.009 133.524 418.528 133.521 419.138V424H131.721V419.416C131.721 418.906 131.589 418.506 131.324 418.218C131.062 417.93 130.699 417.786 130.235 417.786C129.92 417.786 129.64 417.855 129.395 417.994C129.153 418.13 128.962 418.327 128.823 418.586C128.687 418.844 128.619 419.158 128.619 419.526ZM137.548 424.154C137.064 424.154 136.628 424.068 136.24 423.896C135.856 423.72 135.551 423.461 135.326 423.12C135.104 422.779 134.993 422.358 134.993 421.857C134.993 421.426 135.072 421.07 135.231 420.788C135.39 420.507 135.607 420.281 135.882 420.112C136.158 419.943 136.467 419.816 136.812 419.729C137.16 419.64 137.52 419.575 137.891 419.536C138.338 419.489 138.701 419.448 138.98 419.411C139.258 419.371 139.46 419.312 139.586 419.232C139.716 419.149 139.78 419.022 139.78 418.849V418.82C139.78 418.445 139.669 418.155 139.447 417.95C139.225 417.744 138.905 417.641 138.488 417.641C138.047 417.641 137.697 417.737 137.439 417.93C137.183 418.122 137.011 418.349 136.922 418.611L135.241 418.372C135.374 417.908 135.592 417.52 135.897 417.209C136.202 416.894 136.575 416.659 137.016 416.503C137.457 416.344 137.944 416.264 138.478 416.264C138.846 416.264 139.212 416.307 139.576 416.393C139.941 416.48 140.274 416.622 140.576 416.821C140.877 417.017 141.119 417.283 141.301 417.621C141.487 417.96 141.58 418.382 141.58 418.889V424H139.85V422.951H139.79C139.681 423.163 139.527 423.362 139.328 423.548C139.132 423.73 138.885 423.877 138.587 423.99C138.292 424.099 137.946 424.154 137.548 424.154ZM138.015 422.832C138.377 422.832 138.69 422.76 138.955 422.618C139.22 422.472 139.424 422.28 139.566 422.041C139.712 421.803 139.785 421.542 139.785 421.261V420.361C139.729 420.407 139.633 420.45 139.497 420.49C139.364 420.53 139.215 420.565 139.049 420.594C138.884 420.624 138.72 420.651 138.557 420.674C138.395 420.697 138.254 420.717 138.135 420.734C137.866 420.77 137.626 420.83 137.414 420.913C137.202 420.996 137.034 421.112 136.912 421.261C136.789 421.406 136.728 421.595 136.728 421.827C136.728 422.159 136.849 422.409 137.091 422.578C137.333 422.747 137.641 422.832 138.015 422.832ZM147.203 416.364V417.756H142.813V416.364H147.203ZM143.897 414.534H145.696V421.703C145.696 421.945 145.733 422.131 145.806 422.26C145.882 422.386 145.981 422.472 146.104 422.518C146.227 422.565 146.363 422.588 146.512 422.588C146.624 422.588 146.727 422.58 146.82 422.563C146.916 422.547 146.989 422.532 147.039 422.518L147.342 423.925C147.246 423.959 147.108 423.995 146.929 424.035C146.754 424.075 146.538 424.098 146.283 424.104C145.832 424.118 145.426 424.05 145.065 423.901C144.704 423.748 144.417 423.513 144.205 423.195C143.996 422.876 143.893 422.479 143.897 422.001V414.534ZM152.007 424.149C151.241 424.149 150.58 423.99 150.023 423.672C149.469 423.35 149.044 422.896 148.745 422.31C148.447 421.72 148.298 421.025 148.298 420.227C148.298 419.441 148.447 418.752 148.745 418.158C149.047 417.562 149.468 417.098 150.008 416.766C150.548 416.432 151.183 416.264 151.912 416.264C152.383 416.264 152.827 416.34 153.244 416.493C153.665 416.642 154.037 416.874 154.358 417.189C154.683 417.504 154.938 417.905 155.124 418.392C155.309 418.876 155.402 419.453 155.402 420.122V420.674H149.143V419.461H153.677C153.674 419.116 153.599 418.81 153.453 418.541C153.307 418.269 153.104 418.056 152.842 417.9C152.583 417.744 152.282 417.666 151.937 417.666C151.569 417.666 151.246 417.756 150.968 417.935C150.689 418.11 150.472 418.342 150.316 418.631C150.164 418.916 150.086 419.229 150.083 419.57V420.629C150.083 421.073 150.164 421.455 150.326 421.773C150.489 422.088 150.716 422.33 151.007 422.499C151.299 422.664 151.64 422.747 152.031 422.747C152.293 422.747 152.53 422.711 152.742 422.638C152.954 422.562 153.138 422.451 153.294 422.305C153.45 422.159 153.568 421.978 153.647 421.763L155.328 421.952C155.222 422.396 155.019 422.784 154.721 423.115C154.426 423.443 154.048 423.698 153.588 423.881C153.127 424.06 152.6 424.149 152.007 424.149Z" fill="white"/>
<path d="M29.9283 448.455H30.919V452.76C30.919 453.218 30.8114 453.624 30.5962 453.977C30.381 454.329 30.0785 454.606 29.6886 454.808C29.2987 455.009 28.8416 455.109 28.3175 455.109C27.7955 455.109 27.3395 455.009 26.9496 454.808C26.5597 454.606 26.2571 454.329 26.0419 453.977C25.8267 453.624 25.7191 453.218 25.7191 452.76V448.455H26.7067V452.68C26.7067 452.976 26.7717 453.239 26.9016 453.469C27.0337 453.699 27.2202 453.88 27.4609 454.012C27.7017 454.142 27.9872 454.207 28.3175 454.207C28.6499 454.207 28.9364 454.142 29.1772 454.012C29.4201 453.88 29.6055 453.699 29.7333 453.469C29.8633 453.239 29.9283 452.976 29.9283 452.68V448.455ZM35.9248 450.174C35.8907 449.871 35.7501 449.637 35.5029 449.471C35.2558 449.303 34.9447 449.218 34.5697 449.218C34.3012 449.218 34.069 449.261 33.873 449.346C33.6769 449.429 33.5246 449.544 33.4159 449.691C33.3094 449.836 33.2561 450.001 33.2561 450.187C33.2561 450.342 33.2923 450.477 33.3648 450.589C33.4394 450.702 33.5363 450.797 33.6556 450.874C33.7771 450.949 33.907 451.011 34.0455 451.062C34.184 451.112 34.3172 451.152 34.445 451.184L35.0843 451.35C35.2931 451.401 35.5072 451.471 35.7267 451.558C35.9461 451.645 36.1496 451.76 36.3371 451.903C36.5246 452.046 36.6759 452.223 36.7909 452.434C36.9081 452.645 36.9667 452.897 36.9667 453.191C36.9667 453.562 36.8708 453.891 36.6791 454.179C36.4894 454.466 36.2135 454.693 35.8513 454.859C35.4912 455.026 35.0555 455.109 34.5441 455.109C34.0541 455.109 33.6301 455.031 33.2721 454.875C32.9142 454.72 32.634 454.499 32.4316 454.214C32.2291 453.926 32.1173 453.585 32.096 453.191H33.0867C33.1059 453.428 33.1826 453.625 33.3169 453.782C33.4532 453.938 33.6269 454.054 33.8378 454.131C34.0509 454.205 34.2842 454.243 34.5377 454.243C34.8169 454.243 35.0651 454.199 35.2824 454.112C35.5019 454.022 35.6744 453.898 35.8002 453.741C35.9259 453.581 35.9887 453.395 35.9887 453.181C35.9887 452.988 35.9333 452.829 35.8225 452.705C35.7139 452.582 35.5658 452.479 35.3783 452.398C35.1929 452.317 34.983 452.246 34.7487 452.184L33.9752 451.973C33.4511 451.831 33.0356 451.621 32.7288 451.344C32.4241 451.067 32.2718 450.7 32.2718 450.244C32.2718 449.867 32.374 449.538 32.5786 449.257C32.7831 448.975 33.0601 448.757 33.4095 448.602C33.759 448.444 34.1531 448.365 34.5921 448.365C35.0352 448.365 35.4262 448.443 35.765 448.598C36.1059 448.754 36.3744 448.968 36.5704 449.241C36.7664 449.511 36.8687 449.822 36.8772 450.174H35.9248ZM40.2658 455H38.1468V448.455H40.3329C40.9743 448.455 41.525 448.586 41.9853 448.848C42.4455 449.108 42.7981 449.482 43.0431 449.969C43.2903 450.455 43.4139 451.038 43.4139 451.718C43.4139 452.4 43.2892 452.985 43.04 453.475C42.7928 453.966 42.4348 454.343 41.9661 454.607C41.4973 454.869 40.9306 455 40.2658 455ZM39.1344 454.137H40.2115C40.71 454.137 41.1245 454.043 41.4547 453.856C41.785 453.666 42.0321 453.392 42.1962 453.034C42.3603 452.674 42.4423 452.235 42.4423 451.718C42.4423 451.204 42.3603 450.768 42.1962 450.411C42.0343 450.053 41.7924 449.781 41.4707 449.596C41.149 449.41 40.7495 449.317 40.2722 449.317H39.1344V454.137Z" fill="currentColor"/>
<path d="M142.719 455V448.455H146.778V449.305H143.707V451.299H146.487V452.146H143.707V455H142.719ZM147.728 455H146.68L149.035 448.455H150.176L152.532 455H151.483L149.633 449.643H149.582L147.728 455ZM147.904 452.437H151.304V453.268H147.904V452.437ZM155.576 452.878H156.547L157.231 453.77L157.554 454.166L158.644 455.588H157.634L156.905 454.639L156.656 454.294L155.576 452.878ZM158.855 451.727C158.855 452.426 158.727 453.027 158.472 453.53C158.216 454.031 157.865 454.416 157.42 454.687C156.977 454.955 156.473 455.089 155.908 455.089C155.342 455.089 154.835 454.955 154.39 454.687C153.947 454.416 153.598 454.029 153.342 453.527C153.086 453.024 152.958 452.424 152.958 451.727C152.958 451.028 153.086 450.429 153.342 449.928C153.598 449.425 153.947 449.039 154.39 448.771C154.835 448.5 155.342 448.365 155.908 448.365C156.473 448.365 156.977 448.5 157.42 448.771C157.865 449.039 158.216 449.425 158.472 449.928C158.727 450.429 158.855 451.028 158.855 451.727ZM157.877 451.727C157.877 451.195 157.791 450.746 157.618 450.382C157.448 450.015 157.213 449.738 156.915 449.551C156.619 449.361 156.283 449.266 155.908 449.266C155.531 449.266 155.195 449.361 154.898 449.551C154.602 449.738 154.368 450.015 154.195 450.382C154.025 450.746 153.94 451.195 153.94 451.727C153.94 452.26 154.025 452.71 154.195 453.076C154.368 453.44 154.602 453.717 154.898 453.907C155.195 454.094 155.531 454.188 155.908 454.188C156.283 454.188 156.619 454.094 156.915 453.907C157.213 453.717 157.448 453.44 157.618 453.076C157.791 452.71 157.877 452.26 157.877 451.727ZM172.699 455V448.455H175.032C175.541 448.455 175.963 448.547 176.297 448.733C176.632 448.918 176.882 449.172 177.048 449.493C177.215 449.813 177.298 450.173 177.298 450.574C177.298 450.976 177.214 451.338 177.045 451.66C176.879 451.98 176.628 452.233 176.291 452.421C175.956 452.606 175.536 452.699 175.028 452.699H173.424V451.862H174.939C175.261 451.862 175.522 451.806 175.722 451.695C175.922 451.582 176.069 451.429 176.163 451.235C176.257 451.041 176.304 450.821 176.304 450.574C176.304 450.326 176.257 450.107 176.163 449.915C176.069 449.723 175.921 449.573 175.719 449.464C175.519 449.356 175.254 449.301 174.926 449.301H173.686V455H172.699ZM178.379 455V450.091H179.302V450.871H179.354C179.443 450.607 179.601 450.399 179.827 450.248C180.055 450.094 180.312 450.017 180.6 450.017C180.66 450.017 180.73 450.02 180.811 450.024C180.894 450.028 180.959 450.033 181.006 450.04V450.954C180.968 450.943 180.899 450.931 180.801 450.919C180.703 450.904 180.605 450.896 180.507 450.896C180.281 450.896 180.08 450.944 179.903 451.04C179.729 451.134 179.59 451.265 179.488 451.433C179.385 451.599 179.334 451.789 179.334 452.002V455H178.379ZM181.833 455V450.091H182.788V455H181.833ZM182.315 449.333C182.149 449.333 182.006 449.278 181.887 449.167C181.77 449.054 181.711 448.92 181.711 448.765C181.711 448.607 181.77 448.473 181.887 448.362C182.006 448.249 182.149 448.192 182.315 448.192C182.482 448.192 182.623 448.249 182.741 448.362C182.86 448.473 182.919 448.607 182.919 448.765C182.919 448.92 182.86 449.054 182.741 449.167C182.623 449.278 182.482 449.333 182.315 449.333ZM188.274 450.091L186.493 455H185.471L183.687 450.091H184.713L185.956 453.869H186.008L187.248 450.091H188.274ZM190.46 455.109C190.149 455.109 189.867 455.051 189.616 454.936C189.365 454.819 189.165 454.65 189.018 454.428C188.873 454.206 188.801 453.935 188.801 453.613C188.801 453.336 188.854 453.108 188.961 452.929C189.067 452.75 189.211 452.608 189.392 452.504C189.573 452.4 189.776 452.321 189.999 452.267C190.223 452.214 190.451 452.174 190.683 452.146C190.977 452.112 191.216 452.084 191.399 452.063C191.583 452.039 191.716 452.002 191.799 451.951C191.882 451.9 191.923 451.817 191.923 451.702V451.679C191.923 451.4 191.845 451.184 191.687 451.031C191.531 450.877 191.299 450.8 190.99 450.8C190.669 450.8 190.415 450.872 190.23 451.015C190.046 451.155 189.92 451.312 189.849 451.484L188.951 451.28C189.058 450.982 189.213 450.741 189.418 450.558C189.624 450.372 189.862 450.238 190.131 450.155C190.399 450.07 190.681 450.027 190.977 450.027C191.173 450.027 191.381 450.05 191.601 450.097C191.822 450.142 192.029 450.225 192.221 450.347C192.415 450.468 192.573 450.642 192.697 450.868C192.82 451.091 192.882 451.382 192.882 451.74V455H191.949V454.329H191.911C191.849 454.452 191.756 454.574 191.633 454.693C191.509 454.812 191.35 454.912 191.156 454.99C190.963 455.069 190.73 455.109 190.46 455.109ZM190.667 454.342C190.932 454.342 191.157 454.289 191.345 454.185C191.535 454.081 191.678 453.944 191.776 453.776C191.877 453.605 191.927 453.423 191.927 453.229V452.597C191.893 452.631 191.827 452.663 191.729 452.692C191.633 452.72 191.523 452.745 191.399 452.766C191.276 452.785 191.155 452.803 191.038 452.82C190.921 452.835 190.823 452.848 190.744 452.859C190.559 452.882 190.389 452.922 190.236 452.977C190.085 453.032 189.963 453.112 189.872 453.217C189.782 453.319 189.737 453.455 189.737 453.626C189.737 453.862 189.825 454.041 189.999 454.163C190.174 454.282 190.397 454.342 190.667 454.342ZM196.223 455.099C195.748 455.099 195.339 454.991 194.996 454.776C194.655 454.559 194.393 454.26 194.209 453.878C194.026 453.497 193.935 453.06 193.935 452.568C193.935 452.069 194.028 451.629 194.216 451.248C194.403 450.864 194.668 450.565 195.008 450.35C195.349 450.135 195.751 450.027 196.213 450.027C196.586 450.027 196.919 450.096 197.21 450.235C197.502 450.371 197.738 450.563 197.917 450.81C198.098 451.057 198.206 451.346 198.24 451.676H197.31C197.258 451.446 197.141 451.248 196.958 451.082C196.777 450.915 196.534 450.832 196.229 450.832C195.963 450.832 195.73 450.903 195.529 451.043C195.331 451.182 195.177 451.38 195.066 451.638C194.955 451.893 194.9 452.196 194.9 452.545C194.9 452.903 194.954 453.212 195.063 453.472C195.171 453.732 195.325 453.934 195.523 454.076C195.723 454.219 195.959 454.29 196.229 454.29C196.41 454.29 196.574 454.257 196.722 454.191C196.871 454.123 196.995 454.026 197.095 453.901C197.198 453.775 197.269 453.624 197.31 453.447H198.24C198.206 453.764 198.102 454.048 197.93 454.297C197.757 454.546 197.526 454.742 197.236 454.885C196.948 455.028 196.611 455.099 196.223 455.099ZM199.866 456.841C199.723 456.841 199.593 456.829 199.476 456.806C199.358 456.784 199.271 456.761 199.214 456.735L199.444 455.952C199.618 455.999 199.774 456.02 199.91 456.013C200.047 456.007 200.167 455.956 200.271 455.86C200.378 455.764 200.472 455.607 200.553 455.39L200.671 455.064L198.875 450.091H199.898L201.141 453.901H201.192L202.435 450.091H203.461L201.438 455.655C201.344 455.911 201.225 456.127 201.08 456.304C200.935 456.483 200.763 456.617 200.562 456.707C200.362 456.796 200.13 456.841 199.866 456.841ZM208.646 455.093C208.207 455.093 207.829 455.013 207.511 454.853C207.196 454.693 206.953 454.476 206.783 454.201C206.612 453.924 206.527 453.611 206.527 453.261C206.527 452.995 206.582 452.759 206.693 452.552C206.804 452.343 206.958 452.15 207.157 451.973C207.355 451.797 207.584 451.619 207.844 451.44L208.898 450.695C209.077 450.578 209.217 450.454 209.317 450.324C209.417 450.192 209.467 450.029 209.467 449.835C209.467 449.682 209.401 449.535 209.269 449.394C209.137 449.254 208.96 449.183 208.739 449.183C208.585 449.183 208.45 449.221 208.333 449.295C208.218 449.37 208.127 449.466 208.061 449.583C207.997 449.698 207.965 449.819 207.965 449.947C207.965 450.096 208.006 450.246 208.087 450.398C208.17 450.549 208.276 450.706 208.406 450.868C208.536 451.027 208.672 451.194 208.815 451.366L211.855 455H210.774L208.259 452.044C208.048 451.794 207.852 451.56 207.671 451.341C207.49 451.119 207.343 450.895 207.23 450.669C207.119 450.441 207.064 450.195 207.064 449.931C207.064 449.631 207.132 449.364 207.268 449.132C207.407 448.898 207.6 448.714 207.847 448.582C208.094 448.45 208.384 448.384 208.716 448.384C209.053 448.384 209.342 448.45 209.582 448.582C209.825 448.712 210.012 448.886 210.142 449.103C210.274 449.319 210.34 449.554 210.34 449.81C210.34 450.121 210.262 450.396 210.106 450.634C209.953 450.871 209.741 451.088 209.47 451.286L208.157 452.255C207.901 452.442 207.723 452.627 207.623 452.811C207.525 452.992 207.476 453.134 207.476 453.236C207.476 453.423 207.524 453.597 207.62 453.757C207.718 453.917 207.854 454.044 208.029 454.14C208.206 454.236 208.413 454.284 208.649 454.284C208.892 454.284 209.128 454.232 209.359 454.127C209.591 454.021 209.801 453.869 209.988 453.67C210.178 453.472 210.328 453.235 210.439 452.958C210.55 452.681 210.605 452.371 210.605 452.028H211.468C211.468 452.45 211.42 452.806 211.324 453.098C211.228 453.388 211.112 453.625 210.976 453.808C210.842 453.989 210.715 454.131 210.595 454.233C210.557 454.267 210.521 454.301 210.487 454.335C210.453 454.369 210.416 454.403 210.378 454.438C210.157 454.661 209.888 454.826 209.573 454.933C209.259 455.039 208.951 455.093 208.646 455.093ZM215.062 455V448.455H216.049V454.15H219.015V455H215.062ZM222.181 455.099C221.697 455.099 221.281 454.996 220.931 454.789C220.584 454.58 220.316 454.287 220.126 453.91C219.938 453.531 219.845 453.087 219.845 452.577C219.845 452.075 219.938 451.631 220.126 451.248C220.316 450.864 220.58 450.565 220.919 450.35C221.259 450.135 221.658 450.027 222.114 450.027C222.391 450.027 222.659 450.073 222.919 450.164C223.179 450.256 223.413 450.4 223.619 450.596C223.826 450.792 223.989 451.047 224.108 451.36C224.228 451.671 224.287 452.049 224.287 452.494V452.833H220.385V452.117H223.351C223.351 451.866 223.3 451.643 223.197 451.449C223.095 451.253 222.951 451.099 222.766 450.986C222.583 450.873 222.367 450.816 222.12 450.816C221.852 450.816 221.617 450.882 221.417 451.015C221.219 451.145 221.066 451.315 220.957 451.526C220.85 451.735 220.797 451.962 220.797 452.207V452.766C220.797 453.094 220.855 453.373 220.97 453.603C221.087 453.833 221.25 454.009 221.459 454.131C221.668 454.25 221.911 454.31 222.191 454.31C222.372 454.31 222.537 454.284 222.686 454.233C222.835 454.18 222.964 454.101 223.073 453.996C223.181 453.892 223.264 453.763 223.322 453.61L224.226 453.773C224.154 454.039 224.024 454.272 223.837 454.473C223.651 454.671 223.418 454.825 223.137 454.936C222.858 455.045 222.539 455.099 222.181 455.099ZM227.406 456.943C227.016 456.943 226.68 456.892 226.399 456.79C226.12 456.688 225.892 456.552 225.715 456.384C225.538 456.216 225.406 456.031 225.319 455.831L226.14 455.492C226.198 455.586 226.274 455.685 226.37 455.789C226.468 455.896 226.6 455.987 226.767 456.061C226.935 456.136 227.151 456.173 227.415 456.173C227.778 456.173 228.077 456.085 228.313 455.908C228.55 455.733 228.668 455.454 228.668 455.07V454.105H228.607C228.55 454.21 228.467 454.326 228.358 454.453C228.252 454.581 228.105 454.692 227.917 454.786C227.73 454.88 227.486 454.926 227.185 454.926C226.797 454.926 226.448 454.836 226.137 454.655C225.828 454.472 225.583 454.202 225.402 453.846C225.223 453.488 225.133 453.048 225.133 452.526C225.133 452.004 225.222 451.557 225.399 451.184C225.578 450.811 225.823 450.526 226.134 450.327C226.445 450.127 226.797 450.027 227.192 450.027C227.496 450.027 227.742 450.078 227.93 450.18C228.117 450.281 228.263 450.398 228.368 450.532C228.474 450.666 228.556 450.784 228.614 450.887H228.684V450.091H229.621V455.109C229.621 455.531 229.523 455.877 229.327 456.147C229.131 456.418 228.865 456.618 228.531 456.748C228.198 456.878 227.823 456.943 227.406 456.943ZM227.396 454.134C227.671 454.134 227.903 454.07 228.093 453.942C228.285 453.812 228.43 453.627 228.528 453.386C228.628 453.143 228.678 452.852 228.678 452.513C228.678 452.183 228.629 451.892 228.531 451.641C228.433 451.39 228.289 451.194 228.099 451.053C227.91 450.91 227.675 450.839 227.396 450.839C227.108 450.839 226.869 450.913 226.677 451.062C226.485 451.21 226.34 451.41 226.242 451.663C226.146 451.917 226.099 452.2 226.099 452.513C226.099 452.835 226.148 453.118 226.246 453.36C226.344 453.603 226.488 453.793 226.68 453.929C226.874 454.066 227.113 454.134 227.396 454.134ZM232.331 455.109C232.02 455.109 231.738 455.051 231.487 454.936C231.236 454.819 231.036 454.65 230.889 454.428C230.744 454.206 230.672 453.935 230.672 453.613C230.672 453.336 230.725 453.108 230.832 452.929C230.938 452.75 231.082 452.608 231.263 452.504C231.444 452.4 231.647 452.321 231.871 452.267C232.094 452.214 232.322 452.174 232.555 452.146C232.849 452.112 233.087 452.084 233.27 452.063C233.454 452.039 233.587 452.002 233.67 451.951C233.753 451.9 233.795 451.817 233.795 451.702V451.679C233.795 451.4 233.716 451.184 233.558 451.031C233.403 450.877 233.17 450.8 232.861 450.8C232.54 450.8 232.286 450.872 232.101 451.015C231.917 451.155 231.791 451.312 231.72 451.484L230.822 451.28C230.929 450.982 231.084 450.741 231.289 450.558C231.496 450.372 231.733 450.238 232.002 450.155C232.27 450.07 232.552 450.027 232.849 450.027C233.045 450.027 233.252 450.05 233.472 450.097C233.693 450.142 233.9 450.225 234.092 450.347C234.286 450.468 234.444 450.642 234.568 450.868C234.692 451.091 234.753 451.382 234.753 451.74V455H233.82V454.329H233.782C233.72 454.452 233.627 454.574 233.504 454.693C233.38 454.812 233.221 454.912 233.028 454.99C232.834 455.069 232.601 455.109 232.331 455.109ZM232.539 454.342C232.803 454.342 233.029 454.289 233.216 454.185C233.406 454.081 233.55 453.944 233.648 453.776C233.748 453.605 233.798 453.423 233.798 453.229V452.597C233.764 452.631 233.698 452.663 233.6 452.692C233.504 452.72 233.394 452.745 233.27 452.766C233.147 452.785 233.026 452.803 232.909 452.82C232.792 452.835 232.694 452.848 232.615 452.859C232.43 452.882 232.26 452.922 232.107 452.977C231.956 453.032 231.834 453.112 231.743 453.217C231.653 453.319 231.608 453.455 231.608 453.626C231.608 453.862 231.696 454.041 231.871 454.163C232.045 454.282 232.268 454.342 232.539 454.342ZM236.982 448.455V455H236.026V448.455H236.982Z" fill="currentColor"/>
<path d="M166.1 446.345V457.109H165.243V446.345H166.1Z" fill="#4F4F4F"/>
<defs>
<linearGradient id="paint0_linear_1091_1374" x1="310" y1="271" x2="262" y2="271" gradientUnits="userSpaceOnUse">
<stop stop-color="white"/>
<stop offset="1" stop-color="white" stop-opacity="0"/>
</linearGradient>
<linearGradient id="paint1_linear_1091_1374" x1="48" y1="148" x2="0" y2="148" gradientUnits="userSpaceOnUse">
<stop stop-color="white"/>
<stop offset="1" stop-color="white" stop-opacity="0"/>
</linearGradient>
</defs>
</svg>
