<svg width="100%" height="100%"  viewBox="0 0 262 479" fill="none" xmlns="http://www.w3.org/2000/svg">
<rect width="262" height="479" rx="20" fill="white"/>
<circle cx="230.48" cy="201.48" r="9.47977" fill="currentColor" fill-opacity="0.15"/>
<path fill-rule="evenodd" clip-rule="evenodd" d="M230.48 196.74C230.771 196.74 231.006 196.976 231.006 197.267V200.953H234.693C234.984 200.953 235.22 201.189 235.22 201.48C235.22 201.771 234.984 202.006 234.693 202.006H231.006V205.693C231.006 205.984 230.771 206.22 230.48 206.22C230.189 206.22 229.953 205.984 229.953 205.693V202.006H226.267C225.976 202.006 225.74 201.771 225.74 201.48C225.74 201.189 225.976 200.953 226.267 200.953H229.953V197.267C229.953 196.976 230.189 196.74 230.48 196.74Z" fill="currentColor"/>
<circle cx="33.4798" cy="201.48" r="9.47977" fill="currentColor" fill-opacity="0.15"/>
<path fill-rule="evenodd" clip-rule="evenodd" d="M30.3199 201.141C30.3199 200.892 30.522 200.69 30.7713 200.69H36.1883C36.4376 200.69 36.6397 200.892 36.6397 201.141C36.6397 201.391 36.4376 201.593 36.1883 201.593H30.7713C30.522 201.593 30.3199 201.391 30.3199 201.141Z" fill="currentColor"/>
<rect x="53.5" y="190.5" width="158" height="22" rx="11" fill="currentColor" fill-opacity="0.15" stroke="#2467CC"/>
<path d="M190.035 204.727V197.455H190.501V204.727H190.035ZM191.492 199.71C191.462 199.441 191.337 199.233 191.117 199.085C190.897 198.936 190.621 198.861 190.288 198.861C190.049 198.861 189.843 198.899 189.668 198.974C189.494 199.048 189.359 199.151 189.262 199.281C189.167 199.41 189.12 199.557 189.12 199.722C189.12 199.86 189.152 199.979 189.217 200.08C189.283 200.18 189.369 200.264 189.475 200.332C189.583 200.399 189.699 200.455 189.822 200.5C189.945 200.544 190.063 200.58 190.177 200.608L190.745 200.756C190.931 200.801 191.121 200.863 191.316 200.94C191.511 201.018 191.692 201.12 191.859 201.247C192.025 201.374 192.16 201.531 192.262 201.719C192.366 201.906 192.418 202.131 192.418 202.392C192.418 202.722 192.333 203.014 192.163 203.27C191.994 203.526 191.749 203.727 191.427 203.875C191.107 204.023 190.719 204.097 190.265 204.097C189.829 204.097 189.452 204.027 189.134 203.889C188.816 203.751 188.567 203.555 188.387 203.301C188.207 203.045 188.108 202.742 188.089 202.392H188.969C188.987 202.602 189.055 202.777 189.174 202.918C189.295 203.056 189.45 203.159 189.637 203.227C189.826 203.294 190.034 203.327 190.259 203.327C190.507 203.327 190.728 203.288 190.921 203.21C191.116 203.131 191.27 203.021 191.381 202.881C191.493 202.739 191.549 202.573 191.549 202.384C191.549 202.211 191.5 202.07 191.401 201.96C191.305 201.85 191.173 201.759 191.006 201.688C190.842 201.616 190.655 201.552 190.447 201.497L189.759 201.31C189.293 201.183 188.924 200.996 188.651 200.75C188.38 200.504 188.245 200.178 188.245 199.773C188.245 199.437 188.336 199.145 188.518 198.895C188.7 198.645 188.946 198.451 189.256 198.312C189.567 198.172 189.917 198.102 190.308 198.102C190.701 198.102 191.049 198.171 191.35 198.31C191.653 198.448 191.892 198.638 192.066 198.881C192.24 199.121 192.331 199.398 192.339 199.71H191.492ZM195.322 198.102C195.582 198.104 195.838 198.152 196.089 198.244C196.341 198.337 196.569 198.489 196.771 198.699C196.976 198.909 197.139 199.193 197.26 199.551C197.383 199.907 197.446 200.35 197.447 200.881C197.447 201.39 197.396 201.844 197.294 202.241C197.192 202.637 197.045 202.972 196.854 203.244C196.664 203.517 196.434 203.724 196.163 203.866C195.893 204.009 195.588 204.08 195.249 204.08C194.902 204.08 194.594 204.011 194.325 203.875C194.056 203.739 193.838 203.55 193.669 203.31C193.5 203.067 193.395 202.789 193.354 202.474H194.22C194.277 202.724 194.393 202.927 194.567 203.082C194.743 203.236 194.97 203.312 195.249 203.312C195.675 203.312 196.007 203.127 196.246 202.756C196.484 202.383 196.605 201.862 196.607 201.193H196.561C196.463 201.356 196.339 201.496 196.192 201.614C196.046 201.731 195.882 201.822 195.7 201.886C195.518 201.951 195.324 201.983 195.118 201.983C194.783 201.983 194.478 201.901 194.203 201.736C193.929 201.571 193.71 201.345 193.547 201.057C193.384 200.769 193.303 200.44 193.303 200.071C193.303 199.704 193.386 199.37 193.553 199.071C193.721 198.772 193.956 198.535 194.257 198.361C194.56 198.185 194.915 198.098 195.322 198.102ZM195.325 198.841C195.104 198.841 194.904 198.896 194.726 199.006C194.55 199.114 194.411 199.26 194.308 199.446C194.206 199.63 194.155 199.834 194.155 200.06C194.155 200.285 194.204 200.49 194.303 200.673C194.403 200.855 194.539 201 194.712 201.108C194.886 201.214 195.085 201.267 195.308 201.267C195.475 201.267 195.63 201.235 195.774 201.17C195.918 201.106 196.044 201.017 196.152 200.903C196.26 200.788 196.344 200.657 196.405 200.511C196.465 200.366 196.496 200.212 196.496 200.051C196.496 199.837 196.445 199.638 196.342 199.455C196.242 199.271 196.104 199.123 195.928 199.011C195.751 198.898 195.551 198.841 195.325 198.841ZM200.408 198.102C200.668 198.104 200.924 198.152 201.175 198.244C201.427 198.337 201.655 198.489 201.857 198.699C202.062 198.909 202.225 199.193 202.346 199.551C202.469 199.907 202.531 200.35 202.533 200.881C202.533 201.39 202.482 201.844 202.38 202.241C202.278 202.637 202.131 202.972 201.94 203.244C201.75 203.517 201.52 203.724 201.249 203.866C200.978 204.009 200.674 204.08 200.335 204.08C199.988 204.08 199.68 204.011 199.411 203.875C199.142 203.739 198.924 203.55 198.755 203.31C198.586 203.067 198.481 202.789 198.44 202.474H199.306C199.363 202.724 199.478 202.927 199.653 203.082C199.829 203.236 200.056 203.312 200.335 203.312C200.761 203.312 201.093 203.127 201.332 202.756C201.57 202.383 201.691 201.862 201.692 201.193H201.647C201.549 201.356 201.425 201.496 201.278 201.614C201.132 201.731 200.968 201.822 200.786 201.886C200.604 201.951 200.41 201.983 200.204 201.983C199.869 201.983 199.564 201.901 199.289 201.736C199.014 201.571 198.796 201.345 198.633 201.057C198.47 200.769 198.388 200.44 198.388 200.071C198.388 199.704 198.472 199.37 198.638 199.071C198.807 198.772 199.042 198.535 199.343 198.361C199.646 198.185 200.001 198.098 200.408 198.102ZM200.411 198.841C200.19 198.841 199.99 198.896 199.812 199.006C199.636 199.114 199.496 199.26 199.394 199.446C199.292 199.63 199.241 199.834 199.241 200.06C199.241 200.285 199.29 200.49 199.388 200.673C199.489 200.855 199.625 201 199.798 201.108C199.972 201.214 200.171 201.267 200.394 201.267C200.561 201.267 200.716 201.235 200.86 201.17C201.004 201.106 201.13 201.017 201.238 200.903C201.346 200.788 201.43 200.657 201.491 200.511C201.551 200.366 201.582 200.212 201.582 200.051C201.582 199.837 201.531 199.638 201.428 199.455C201.328 199.271 201.19 199.123 201.013 199.011C200.837 198.898 200.637 198.841 200.411 198.841Z" fill="currentColor"/>
<rect x="62" y="197" width="64" height="9" rx="3" fill="currentColor" fill-opacity="0.25"/>
<circle cx="230.48" cy="230.48" r="9.47977" fill="currentColor" fill-opacity="0.15"/>
<path fill-rule="evenodd" clip-rule="evenodd" d="M230.48 225.74C230.771 225.74 231.006 225.976 231.006 226.267V229.953H234.693C234.984 229.953 235.22 230.189 235.22 230.48C235.22 230.771 234.984 231.006 234.693 231.006H231.006V234.693C231.006 234.984 230.771 235.22 230.48 235.22C230.189 235.22 229.953 234.984 229.953 234.693V231.006H226.267C225.976 231.006 225.74 230.771 225.74 230.48C225.74 230.189 225.976 229.953 226.267 229.953H229.953V226.267C229.953 225.976 230.189 225.74 230.48 225.74Z" fill="currentColor"/>
<circle cx="33.4798" cy="230.48" r="9.47977" fill="currentColor" fill-opacity="0.15"/>
<path fill-rule="evenodd" clip-rule="evenodd" d="M30.3199 230.141C30.3199 229.892 30.522 229.69 30.7713 229.69H36.1883C36.4376 229.69 36.6397 229.892 36.6397 230.141C36.6397 230.391 36.4376 230.593 36.1883 230.593H30.7713C30.522 230.593 30.3199 230.391 30.3199 230.141Z" fill="currentColor"/>
<rect x="53.5" y="219.5" width="158" height="22" rx="11" stroke="#2467CC"/>
<path d="M195.043 233.727V226.455H195.509V233.727H195.043ZM196.5 228.71C196.47 228.441 196.345 228.233 196.125 228.085C195.905 227.936 195.629 227.861 195.295 227.861C195.057 227.861 194.85 227.899 194.676 227.974C194.502 228.048 194.366 228.151 194.27 228.281C194.175 228.41 194.128 228.557 194.128 228.722C194.128 228.86 194.16 228.979 194.224 229.08C194.291 229.18 194.377 229.264 194.483 229.332C194.591 229.399 194.706 229.455 194.83 229.5C194.953 229.544 195.071 229.58 195.185 229.608L195.753 229.756C195.938 229.801 196.129 229.863 196.324 229.94C196.519 230.018 196.7 230.12 196.866 230.247C197.033 230.374 197.168 230.531 197.27 230.719C197.374 230.906 197.426 231.131 197.426 231.392C197.426 231.722 197.341 232.014 197.17 232.27C197.002 232.526 196.757 232.727 196.435 232.875C196.115 233.023 195.727 233.097 195.273 233.097C194.837 233.097 194.46 233.027 194.142 232.889C193.824 232.751 193.575 232.555 193.395 232.301C193.215 232.045 193.116 231.742 193.097 231.392H193.977C193.994 231.602 194.063 231.777 194.182 231.918C194.303 232.056 194.457 232.159 194.645 232.227C194.834 232.294 195.042 232.327 195.267 232.327C195.515 232.327 195.736 232.288 195.929 232.21C196.124 232.131 196.277 232.021 196.389 231.881C196.501 231.739 196.557 231.573 196.557 231.384C196.557 231.211 196.508 231.07 196.409 230.96C196.313 230.85 196.181 230.759 196.014 230.688C195.849 230.616 195.663 230.552 195.455 230.497L194.767 230.31C194.301 230.183 193.932 229.996 193.659 229.75C193.388 229.504 193.253 229.178 193.253 228.773C193.253 228.437 193.344 228.145 193.526 227.895C193.707 227.645 193.954 227.451 194.264 227.312C194.575 227.172 194.925 227.102 195.315 227.102C195.709 227.102 196.057 227.171 196.358 227.31C196.661 227.448 196.9 227.638 197.074 227.881C197.248 228.121 197.339 228.398 197.347 228.71H196.5ZM200.421 233.097C199.972 233.095 199.589 232.976 199.271 232.741C198.952 232.507 198.709 232.165 198.54 231.716C198.372 231.267 198.288 230.726 198.288 230.094C198.288 229.463 198.372 228.924 198.54 228.477C198.711 228.03 198.955 227.689 199.273 227.455C199.594 227.22 199.976 227.102 200.421 227.102C200.866 227.102 201.248 227.221 201.566 227.457C201.884 227.692 202.128 228.033 202.296 228.48C202.467 228.925 202.552 229.463 202.552 230.094C202.552 230.728 202.468 231.27 202.299 231.719C202.13 232.166 201.887 232.508 201.569 232.744C201.251 232.979 200.868 233.097 200.421 233.097ZM200.421 232.338C200.815 232.338 201.123 232.146 201.344 231.761C201.568 231.377 201.68 230.821 201.68 230.094C201.68 229.611 201.629 229.203 201.526 228.869C201.426 228.534 201.281 228.28 201.092 228.108C200.904 227.934 200.681 227.847 200.421 227.847C200.029 227.847 199.721 228.04 199.498 228.426C199.274 228.812 199.162 229.368 199.16 230.094C199.16 230.579 199.21 230.989 199.31 231.324C199.413 231.657 199.558 231.91 199.745 232.082C199.933 232.253 200.158 232.338 200.421 232.338Z" fill="currentColor"/>
<rect x="61" y="226" width="81" height="9" rx="3" fill="currentColor" fill-opacity="0.25"/>
<circle cx="230.48" cy="259.48" r="9.47977" fill="currentColor" fill-opacity="0.15"/>
<path fill-rule="evenodd" clip-rule="evenodd" d="M230.48 254.74C230.771 254.74 231.006 254.976 231.006 255.267V258.953H234.693C234.984 258.953 235.22 259.189 235.22 259.48C235.22 259.771 234.984 260.006 234.693 260.006H231.006V263.693C231.006 263.984 230.771 264.22 230.48 264.22C230.189 264.22 229.953 263.984 229.953 263.693V260.006H226.267C225.976 260.006 225.74 259.771 225.74 259.48C225.74 259.189 225.976 258.953 226.267 258.953H229.953V255.267C229.953 254.976 230.189 254.74 230.48 254.74Z" fill="currentColor"/>
<circle cx="33.4798" cy="259.48" r="9.47977" fill="currentColor" fill-opacity="0.15"/>
<path fill-rule="evenodd" clip-rule="evenodd" d="M30.3199 259.141C30.3199 258.892 30.522 258.69 30.7713 258.69H36.1883C36.4376 258.69 36.6397 258.892 36.6397 259.141C36.6397 259.391 36.4376 259.593 36.1883 259.593H30.7713C30.522 259.593 30.3199 259.391 30.3199 259.141Z" fill="currentColor"/>
<rect x="53.5" y="248.5" width="158" height="22" rx="11" stroke="#2467CC"/>
<path d="M195.043 262.727V255.455H195.509V262.727H195.043ZM196.5 257.71C196.47 257.441 196.345 257.233 196.125 257.085C195.905 256.936 195.629 256.861 195.295 256.861C195.057 256.861 194.85 256.899 194.676 256.974C194.502 257.048 194.366 257.151 194.27 257.281C194.175 257.41 194.128 257.557 194.128 257.722C194.128 257.86 194.16 257.979 194.224 258.08C194.291 258.18 194.377 258.264 194.483 258.332C194.591 258.399 194.706 258.455 194.83 258.5C194.953 258.544 195.071 258.58 195.185 258.608L195.753 258.756C195.938 258.801 196.129 258.863 196.324 258.94C196.519 259.018 196.7 259.12 196.866 259.247C197.033 259.374 197.168 259.531 197.27 259.719C197.374 259.906 197.426 260.131 197.426 260.392C197.426 260.722 197.341 261.014 197.17 261.27C197.002 261.526 196.757 261.727 196.435 261.875C196.115 262.023 195.727 262.097 195.273 262.097C194.837 262.097 194.46 262.027 194.142 261.889C193.824 261.751 193.575 261.555 193.395 261.301C193.215 261.045 193.116 260.742 193.097 260.392H193.977C193.994 260.602 194.063 260.777 194.182 260.918C194.303 261.056 194.457 261.159 194.645 261.227C194.834 261.294 195.042 261.327 195.267 261.327C195.515 261.327 195.736 261.288 195.929 261.21C196.124 261.131 196.277 261.021 196.389 260.881C196.501 260.739 196.557 260.573 196.557 260.384C196.557 260.211 196.508 260.07 196.409 259.96C196.313 259.85 196.181 259.759 196.014 259.688C195.849 259.616 195.663 259.552 195.455 259.497L194.767 259.31C194.301 259.183 193.932 258.996 193.659 258.75C193.388 258.504 193.253 258.178 193.253 257.773C193.253 257.437 193.344 257.145 193.526 256.895C193.707 256.645 193.954 256.451 194.264 256.312C194.575 256.172 194.925 256.102 195.315 256.102C195.709 256.102 196.057 256.171 196.358 256.31C196.661 256.448 196.9 256.638 197.074 256.881C197.248 257.121 197.339 257.398 197.347 257.71H196.5ZM200.421 262.097C199.972 262.095 199.589 261.976 199.271 261.741C198.952 261.507 198.709 261.165 198.54 260.716C198.372 260.267 198.288 259.726 198.288 259.094C198.288 258.463 198.372 257.924 198.54 257.477C198.711 257.03 198.955 256.689 199.273 256.455C199.594 256.22 199.976 256.102 200.421 256.102C200.866 256.102 201.248 256.221 201.566 256.457C201.884 256.692 202.128 257.033 202.296 257.48C202.467 257.925 202.552 258.463 202.552 259.094C202.552 259.728 202.468 260.27 202.299 260.719C202.13 261.166 201.887 261.508 201.569 261.744C201.251 261.979 200.868 262.097 200.421 262.097ZM200.421 261.338C200.815 261.338 201.123 261.146 201.344 260.761C201.568 260.377 201.68 259.821 201.68 259.094C201.68 258.611 201.629 258.203 201.526 257.869C201.426 257.534 201.281 257.28 201.092 257.108C200.904 256.934 200.681 256.847 200.421 256.847C200.029 256.847 199.721 257.04 199.498 257.426C199.274 257.812 199.162 258.368 199.16 259.094C199.16 259.579 199.21 259.989 199.31 260.324C199.413 260.657 199.558 260.91 199.745 261.082C199.933 261.253 200.158 261.338 200.421 261.338Z" fill="currentColor"/>
<rect x="61" y="255" width="44" height="9" rx="3" fill="currentColor" fill-opacity="0.25"/>
<circle cx="230.48" cy="288.48" r="9.47977" fill="currentColor" fill-opacity="0.15"/>
<path fill-rule="evenodd" clip-rule="evenodd" d="M230.48 283.74C230.771 283.74 231.006 283.976 231.006 284.267V287.953H234.693C234.984 287.953 235.22 288.189 235.22 288.48C235.22 288.771 234.984 289.006 234.693 289.006H231.006V292.693C231.006 292.984 230.771 293.22 230.48 293.22C230.189 293.22 229.953 292.984 229.953 292.693V289.006H226.267C225.976 289.006 225.74 288.771 225.74 288.48C225.74 288.189 225.976 287.953 226.267 287.953H229.953V284.267C229.953 283.976 230.189 283.74 230.48 283.74Z" fill="currentColor"/>
<circle cx="33.4798" cy="288.48" r="9.47977" fill="currentColor" fill-opacity="0.15"/>
<path fill-rule="evenodd" clip-rule="evenodd" d="M30.3199 288.141C30.3199 287.892 30.522 287.69 30.7713 287.69H36.1883C36.4376 287.69 36.6397 287.892 36.6397 288.141C36.6397 288.391 36.4376 288.593 36.1883 288.593H30.7713C30.522 288.593 30.3199 288.391 30.3199 288.141Z" fill="currentColor"/>
<rect x="53.5" y="277.5" width="158" height="22" rx="11" stroke="#2467CC"/>
<path d="M195.043 291.727V284.455H195.509V291.727H195.043ZM196.5 286.71C196.47 286.441 196.345 286.233 196.125 286.085C195.905 285.936 195.629 285.861 195.295 285.861C195.057 285.861 194.85 285.899 194.676 285.974C194.502 286.048 194.366 286.151 194.27 286.281C194.175 286.41 194.128 286.557 194.128 286.722C194.128 286.86 194.16 286.979 194.224 287.08C194.291 287.18 194.377 287.264 194.483 287.332C194.591 287.399 194.706 287.455 194.83 287.5C194.953 287.544 195.071 287.58 195.185 287.608L195.753 287.756C195.938 287.801 196.129 287.863 196.324 287.94C196.519 288.018 196.7 288.12 196.866 288.247C197.033 288.374 197.168 288.531 197.27 288.719C197.374 288.906 197.426 289.131 197.426 289.392C197.426 289.722 197.341 290.014 197.17 290.27C197.002 290.526 196.757 290.727 196.435 290.875C196.115 291.023 195.727 291.097 195.273 291.097C194.837 291.097 194.46 291.027 194.142 290.889C193.824 290.751 193.575 290.555 193.395 290.301C193.215 290.045 193.116 289.742 193.097 289.392H193.977C193.994 289.602 194.063 289.777 194.182 289.918C194.303 290.056 194.457 290.159 194.645 290.227C194.834 290.294 195.042 290.327 195.267 290.327C195.515 290.327 195.736 290.288 195.929 290.21C196.124 290.131 196.277 290.021 196.389 289.881C196.501 289.739 196.557 289.573 196.557 289.384C196.557 289.211 196.508 289.07 196.409 288.96C196.313 288.85 196.181 288.759 196.014 288.688C195.849 288.616 195.663 288.552 195.455 288.497L194.767 288.31C194.301 288.183 193.932 287.996 193.659 287.75C193.388 287.504 193.253 287.178 193.253 286.773C193.253 286.437 193.344 286.145 193.526 285.895C193.707 285.645 193.954 285.451 194.264 285.312C194.575 285.172 194.925 285.102 195.315 285.102C195.709 285.102 196.057 285.171 196.358 285.31C196.661 285.448 196.9 285.638 197.074 285.881C197.248 286.121 197.339 286.398 197.347 286.71H196.5ZM200.421 291.097C199.972 291.095 199.589 290.976 199.271 290.741C198.952 290.507 198.709 290.165 198.54 289.716C198.372 289.267 198.288 288.726 198.288 288.094C198.288 287.463 198.372 286.924 198.54 286.477C198.711 286.03 198.955 285.689 199.273 285.455C199.594 285.22 199.976 285.102 200.421 285.102C200.866 285.102 201.248 285.221 201.566 285.457C201.884 285.692 202.128 286.033 202.296 286.48C202.467 286.925 202.552 287.463 202.552 288.094C202.552 288.728 202.468 289.27 202.299 289.719C202.13 290.166 201.887 290.508 201.569 290.744C201.251 290.979 200.868 291.097 200.421 291.097ZM200.421 290.338C200.815 290.338 201.123 290.146 201.344 289.761C201.568 289.377 201.68 288.821 201.68 288.094C201.68 287.611 201.629 287.203 201.526 286.869C201.426 286.534 201.281 286.28 201.092 286.108C200.904 285.934 200.681 285.847 200.421 285.847C200.029 285.847 199.721 286.04 199.498 286.426C199.274 286.812 199.162 287.368 199.16 288.094C199.16 288.579 199.21 288.989 199.31 289.324C199.413 289.657 199.558 289.91 199.745 290.082C199.933 290.253 200.158 290.338 200.421 290.338Z" fill="currentColor"/>
<rect x="61" y="284" width="58" height="9" rx="3" fill="currentColor" fill-opacity="0.25"/>
<path d="M69.8353 341H68.324L70.2871 335.182H72.1592L74.1223 341H72.6109L71.2444 336.648H71.199L69.8353 341ZM69.6336 338.71H72.7927V339.778H69.6336V338.71ZM76.4817 340.159V336.045H77.6265V340.159H76.4817ZM74.9959 338.676V337.528H79.1095V338.676H74.9959ZM81.9362 336.196V335.182H86.7146V336.196H84.9334V341H83.7174V336.196H81.9362ZM87.5015 341V335.182H89.797C90.2364 335.182 90.6114 335.26 90.922 335.418C91.2345 335.573 91.4722 335.794 91.6351 336.08C91.7998 336.364 91.8822 336.698 91.8822 337.082C91.8822 337.469 91.7989 337.801 91.6322 338.08C91.4656 338.356 91.2241 338.568 90.9078 338.716C90.5934 338.864 90.2127 338.938 89.7657 338.938H88.2288V337.949H89.5669C89.8017 337.949 89.9968 337.917 90.1521 337.852C90.3074 337.788 90.4229 337.691 90.4987 337.562C90.5763 337.434 90.6152 337.274 90.6152 337.082C90.6152 336.889 90.5763 336.726 90.4987 336.594C90.4229 336.461 90.3065 336.361 90.1493 336.293C89.994 336.223 89.7979 336.188 89.5612 336.188H88.7317V341H87.5015ZM90.6436 338.352L92.0896 341H90.7317L89.3169 338.352H90.6436ZM93.7544 341H92.4362L94.4447 335.182H96.0299L98.0356 341H96.7174L95.2601 336.511H95.2146L93.7544 341ZM93.672 338.713H96.7856V339.673H93.672V338.713ZM103.602 335.182V341H102.54L100.009 337.338H99.966V341H98.7359V335.182H99.8155L102.327 338.841H102.378V335.182H103.602ZM107.775 336.855C107.752 336.626 107.655 336.448 107.482 336.321C107.31 336.194 107.076 336.131 106.781 336.131C106.58 336.131 106.41 336.159 106.272 336.216C106.134 336.271 106.028 336.348 105.954 336.446C105.882 336.545 105.846 336.656 105.846 336.781C105.842 336.885 105.864 336.976 105.911 337.054C105.961 337.132 106.028 337.199 106.113 337.256C106.198 337.311 106.297 337.359 106.408 337.401C106.52 337.44 106.64 337.474 106.766 337.503L107.289 337.628C107.543 337.685 107.776 337.76 107.988 337.855C108.2 337.95 108.384 338.066 108.539 338.205C108.694 338.343 108.815 338.506 108.9 338.693C108.987 338.881 109.032 339.096 109.033 339.338C109.032 339.694 108.941 340.003 108.761 340.264C108.583 340.524 108.325 340.725 107.988 340.869C107.653 341.011 107.248 341.082 106.775 341.082C106.305 341.082 105.896 341.01 105.548 340.866C105.201 340.723 104.93 340.509 104.735 340.227C104.542 339.943 104.441 339.592 104.431 339.173H105.622C105.635 339.368 105.691 339.531 105.789 339.662C105.89 339.791 106.023 339.888 106.19 339.955C106.358 340.019 106.549 340.051 106.761 340.051C106.969 340.051 107.15 340.021 107.303 339.96C107.459 339.9 107.579 339.815 107.664 339.707C107.749 339.599 107.792 339.475 107.792 339.335C107.792 339.205 107.753 339.095 107.676 339.006C107.6 338.917 107.488 338.841 107.34 338.778C107.194 338.716 107.016 338.659 106.803 338.608L106.17 338.449C105.679 338.33 105.292 338.143 105.008 337.889C104.724 337.635 104.583 337.294 104.585 336.864C104.583 336.511 104.676 336.204 104.866 335.94C105.057 335.677 105.319 335.472 105.653 335.324C105.986 335.176 106.365 335.102 106.789 335.102C107.221 335.102 107.598 335.176 107.92 335.324C108.244 335.472 108.496 335.677 108.676 335.94C108.855 336.204 108.948 336.509 108.954 336.855H107.775ZM109.861 341V335.182H112.156C112.598 335.182 112.974 335.266 113.284 335.435C113.595 335.601 113.832 335.833 113.994 336.131C114.159 336.426 114.242 336.767 114.242 337.153C114.242 337.54 114.158 337.881 113.992 338.176C113.825 338.472 113.583 338.702 113.267 338.866C112.953 339.031 112.572 339.114 112.125 339.114H110.662V338.128H111.926C112.163 338.128 112.358 338.087 112.511 338.006C112.667 337.922 112.782 337.808 112.858 337.662C112.936 337.514 112.975 337.345 112.975 337.153C112.975 336.96 112.936 336.792 112.858 336.648C112.782 336.502 112.667 336.389 112.511 336.31C112.356 336.228 112.159 336.188 111.921 336.188H111.091V341H109.861ZM115.372 341H114.053L116.062 335.182H117.647L119.653 341H118.335L116.877 336.511H116.832L115.372 341ZM115.289 338.713H118.403V339.673H115.289V338.713ZM120.353 341V335.182H122.649C123.088 335.182 123.463 335.26 123.774 335.418C124.086 335.573 124.324 335.794 124.487 336.08C124.651 336.364 124.734 336.698 124.734 337.082C124.734 337.469 124.65 337.801 124.484 338.08C124.317 338.356 124.076 338.568 123.759 338.716C123.445 338.864 123.064 338.938 122.617 338.938H121.08V337.949H122.418C122.653 337.949 122.848 337.917 123.004 337.852C123.159 337.788 123.275 337.691 123.35 337.562C123.428 337.434 123.467 337.274 123.467 337.082C123.467 336.889 123.428 336.726 123.35 336.594C123.275 336.461 123.158 336.361 123.001 336.293C122.846 336.223 122.65 336.188 122.413 336.188H121.583V341H120.353ZM123.495 338.352L124.941 341H123.583L122.168 338.352H123.495ZM125.603 341V335.182H129.524V336.196H126.833V337.582H129.322V338.597H126.833V339.986H129.535V341H125.603ZM135.368 335.182V341H134.306L131.774 337.338H131.732V341H130.502V335.182H131.581L134.092 338.841H134.144V335.182H135.368ZM141.518 337.219H140.274C140.251 337.058 140.204 336.915 140.134 336.79C140.064 336.663 139.974 336.555 139.864 336.466C139.755 336.377 139.628 336.309 139.484 336.261C139.342 336.214 139.187 336.19 139.021 336.19C138.72 336.19 138.457 336.265 138.234 336.415C138.01 336.562 137.837 336.778 137.714 337.062C137.591 337.345 137.529 337.687 137.529 338.091C137.529 338.506 137.591 338.854 137.714 339.136C137.839 339.419 138.013 339.632 138.237 339.776C138.46 339.92 138.719 339.991 139.012 339.991C139.177 339.991 139.329 339.97 139.47 339.926C139.612 339.883 139.738 339.819 139.847 339.736C139.957 339.651 140.048 339.547 140.12 339.426C140.194 339.305 140.245 339.167 140.274 339.011L141.518 339.017C141.486 339.284 141.405 339.542 141.276 339.79C141.15 340.036 140.978 340.257 140.762 340.452C140.548 340.645 140.292 340.798 139.995 340.912C139.7 341.024 139.365 341.08 138.992 341.08C138.473 341.08 138.009 340.962 137.6 340.727C137.193 340.492 136.871 340.152 136.634 339.707C136.4 339.262 136.282 338.723 136.282 338.091C136.282 337.456 136.401 336.917 136.64 336.472C136.879 336.027 137.203 335.687 137.612 335.455C138.021 335.22 138.481 335.102 138.992 335.102C139.329 335.102 139.642 335.15 139.93 335.244C140.22 335.339 140.476 335.477 140.7 335.659C140.923 335.839 141.105 336.06 141.245 336.321C141.387 336.582 141.478 336.882 141.518 337.219ZM142.059 335.182H143.437L144.764 337.688H144.82L146.147 335.182H147.525L145.403 338.943V341H144.181V338.943L142.059 335.182ZM150.048 341V335.182H152.344C152.785 335.182 153.161 335.266 153.472 335.435C153.782 335.601 154.019 335.833 154.182 336.131C154.347 336.426 154.429 336.767 154.429 337.153C154.429 337.54 154.346 337.881 154.179 338.176C154.012 338.472 153.771 338.702 153.455 338.866C153.14 339.031 152.76 339.114 152.313 339.114H150.85V338.128H152.114C152.35 338.128 152.546 338.087 152.699 338.006C152.854 337.922 152.97 337.808 153.046 337.662C153.123 337.514 153.162 337.345 153.162 337.153C153.162 336.96 153.123 336.792 153.046 336.648C152.97 336.502 152.854 336.389 152.699 336.31C152.544 336.228 152.347 336.188 152.108 336.188H151.279V341H150.048ZM155.228 341V335.182H157.524C157.963 335.182 158.338 335.26 158.649 335.418C158.961 335.573 159.199 335.794 159.362 336.08C159.526 336.364 159.609 336.698 159.609 337.082C159.609 337.469 159.525 337.801 159.359 338.08C159.192 338.356 158.951 338.568 158.634 338.716C158.32 338.864 157.939 338.938 157.492 338.938H155.955V337.949H157.293C157.528 337.949 157.723 337.917 157.879 337.852C158.034 337.788 158.149 337.691 158.225 337.562C158.303 337.434 158.342 337.274 158.342 337.082C158.342 336.889 158.303 336.726 158.225 336.594C158.149 336.461 158.033 336.361 157.876 336.293C157.721 336.223 157.524 336.188 157.288 336.188H156.458V341H155.228ZM158.37 338.352L159.816 341H158.458L157.043 338.352H158.37ZM165.825 338.091C165.825 338.725 165.704 339.265 165.464 339.71C165.225 340.155 164.899 340.495 164.487 340.73C164.076 340.963 163.614 341.08 163.1 341.08C162.583 341.08 162.119 340.962 161.708 340.727C161.297 340.492 160.972 340.152 160.734 339.707C160.495 339.262 160.376 338.723 160.376 338.091C160.376 337.456 160.495 336.917 160.734 336.472C160.972 336.027 161.297 335.687 161.708 335.455C162.119 335.22 162.583 335.102 163.1 335.102C163.614 335.102 164.076 335.22 164.487 335.455C164.899 335.687 165.225 336.027 165.464 336.472C165.704 336.917 165.825 337.456 165.825 338.091ZM164.578 338.091C164.578 337.68 164.516 337.333 164.393 337.051C164.272 336.769 164.1 336.555 163.879 336.409C163.657 336.263 163.398 336.19 163.1 336.19C162.803 336.19 162.543 336.263 162.322 336.409C162.1 336.555 161.928 336.769 161.805 337.051C161.684 337.333 161.623 337.68 161.623 338.091C161.623 338.502 161.684 338.848 161.805 339.131C161.928 339.413 162.1 339.627 162.322 339.773C162.543 339.919 162.803 339.991 163.1 339.991C163.398 339.991 163.657 339.919 163.879 339.773C164.1 339.627 164.272 339.413 164.393 339.131C164.516 338.848 164.578 338.502 164.578 338.091ZM166.736 335.182H168.253L169.855 339.091H169.923L171.526 335.182H173.043V341H171.85V337.213H171.801L170.296 340.972H169.483L167.977 337.199H167.929V341H166.736V335.182ZM175.286 335.182V341H174.056V335.182H175.286ZM179.455 336.855C179.432 336.626 179.334 336.448 179.162 336.321C178.99 336.194 178.756 336.131 178.46 336.131C178.26 336.131 178.09 336.159 177.952 336.216C177.814 336.271 177.707 336.348 177.634 336.446C177.562 336.545 177.526 336.656 177.526 336.781C177.522 336.885 177.544 336.976 177.591 337.054C177.64 337.132 177.707 337.199 177.793 337.256C177.878 337.311 177.976 337.359 178.088 337.401C178.2 337.44 178.319 337.474 178.446 337.503L178.969 337.628C179.223 337.685 179.456 337.76 179.668 337.855C179.88 337.95 180.064 338.066 180.219 338.205C180.374 338.343 180.494 338.506 180.58 338.693C180.667 338.881 180.711 339.096 180.713 339.338C180.711 339.694 180.62 340.003 180.44 340.264C180.262 340.524 180.005 340.725 179.668 340.869C179.332 341.011 178.928 341.082 178.455 341.082C177.985 341.082 177.576 341.01 177.227 340.866C176.881 340.723 176.61 340.509 176.415 340.227C176.222 339.943 176.12 339.592 176.111 339.173H177.301C177.315 339.368 177.37 339.531 177.469 339.662C177.569 339.791 177.703 339.888 177.869 339.955C178.038 340.019 178.228 340.051 178.44 340.051C178.649 340.051 178.83 340.021 178.983 339.96C179.138 339.9 179.259 339.815 179.344 339.707C179.429 339.599 179.472 339.475 179.472 339.335C179.472 339.205 179.433 339.095 179.355 339.006C179.279 338.917 179.168 338.841 179.02 338.778C178.874 338.716 178.695 338.659 178.483 338.608L177.85 338.449C177.359 338.33 176.972 338.143 176.688 337.889C176.404 337.635 176.262 337.294 176.264 336.864C176.262 336.511 176.356 336.204 176.546 335.94C176.737 335.677 176.999 335.472 177.332 335.324C177.666 335.176 178.045 335.102 178.469 335.102C178.901 335.102 179.278 335.176 179.6 335.324C179.923 335.472 180.175 335.677 180.355 335.94C180.535 336.204 180.628 336.509 180.634 336.855H179.455ZM181.541 341V335.182H185.461V336.196H182.771V337.582H185.259V338.597H182.771V339.986H185.472V341H181.541ZM191.876 341.091L188.955 338.17C188.722 337.938 188.567 337.667 188.489 337.358C188.414 337.049 188.415 336.742 188.492 336.438C188.57 336.131 188.724 335.864 188.955 335.636C189.192 335.403 189.462 335.249 189.765 335.173C190.07 335.096 190.374 335.096 190.677 335.173C190.982 335.251 191.253 335.405 191.489 335.636L191.876 336.011L192.262 335.636C192.501 335.405 192.772 335.251 193.075 335.173C193.378 335.096 193.681 335.096 193.984 335.173C194.289 335.249 194.56 335.403 194.796 335.636C195.027 335.864 195.182 336.131 195.259 336.438C195.337 336.742 195.337 337.049 195.259 337.358C195.184 337.667 195.029 337.938 194.796 338.17L191.876 341.091Z" fill="#BDBDBD"/>
<path fill-rule="evenodd" clip-rule="evenodd" d="M62 337.498H32C27.5817 337.498 24 341.08 24 345.498V382C24 386.418 27.5817 390 32 390H232C236.418 390 240 386.418 240 382V345.498C240 341.08 236.418 337.498 232 337.498H202V338.498H232C235.866 338.498 239 341.632 239 345.498V382C239 385.866 235.866 389 232 389H32C28.134 389 25 385.866 25 382V345.498C25 341.632 28.134 338.498 32 338.498H62V337.498Z" fill="#BDBDBD"/>
<rect x="53" y="352" width="158" height="12" rx="3" fill="#E0E0E0"/>
<rect x="70" y="368" width="124.985" height="12" rx="3" fill="#E0E0E0"/>
<rect x="24" y="401" width="216" height="36" rx="8" fill="currentColor"/>
<path d="M112.687 424H109.237V413.818H112.757C113.767 413.818 114.636 414.022 115.362 414.43C116.091 414.834 116.651 415.416 117.042 416.175C117.433 416.934 117.629 417.842 117.629 418.899C117.629 419.96 117.432 420.871 117.037 421.634C116.646 422.396 116.081 422.981 115.342 423.388C114.606 423.796 113.721 424 112.687 424ZM111.081 422.404H112.597C113.307 422.404 113.898 422.275 114.372 422.016C114.846 421.754 115.203 421.365 115.441 420.848C115.68 420.328 115.799 419.678 115.799 418.899C115.799 418.12 115.68 417.474 115.441 416.96C115.203 416.443 114.85 416.057 114.382 415.802C113.918 415.543 113.342 415.414 112.652 415.414H111.081V422.404ZM122.633 424.149C121.887 424.149 121.241 423.985 120.694 423.657C120.147 423.329 119.723 422.87 119.421 422.28C119.123 421.69 118.974 421 118.974 420.212C118.974 419.423 119.123 418.732 119.421 418.138C119.723 417.545 120.147 417.085 120.694 416.756C121.241 416.428 121.887 416.264 122.633 416.264C123.378 416.264 124.025 416.428 124.572 416.756C125.118 417.085 125.541 417.545 125.839 418.138C126.141 418.732 126.292 419.423 126.292 420.212C126.292 421 126.141 421.69 125.839 422.28C125.541 422.87 125.118 423.329 124.572 423.657C124.025 423.985 123.378 424.149 122.633 424.149ZM122.643 422.707C123.047 422.707 123.385 422.596 123.657 422.374C123.929 422.149 124.131 421.847 124.263 421.469C124.399 421.092 124.467 420.671 124.467 420.207C124.467 419.739 124.399 419.317 124.263 418.939C124.131 418.558 123.929 418.254 123.657 418.029C123.385 417.804 123.047 417.691 122.643 417.691C122.228 417.691 121.884 417.804 121.608 418.029C121.337 418.254 121.133 418.558 120.997 418.939C120.864 419.317 120.798 419.739 120.798 420.207C120.798 420.671 120.864 421.092 120.997 421.469C121.133 421.847 121.337 422.149 121.608 422.374C121.884 422.596 122.228 422.707 122.643 422.707ZM129.619 419.526V424H127.819V416.364H129.539V417.661H129.629C129.805 417.234 130.085 416.894 130.469 416.642C130.857 416.39 131.336 416.264 131.906 416.264C132.433 416.264 132.892 416.377 133.283 416.602C133.677 416.828 133.982 417.154 134.198 417.582C134.417 418.009 134.524 418.528 134.521 419.138V424H132.721V419.416C132.721 418.906 132.589 418.506 132.324 418.218C132.062 417.93 131.699 417.786 131.235 417.786C130.92 417.786 130.64 417.855 130.395 417.994C130.153 418.13 129.962 418.327 129.823 418.586C129.687 418.844 129.619 419.158 129.619 419.526ZM138.548 424.154C138.064 424.154 137.628 424.068 137.24 423.896C136.856 423.72 136.551 423.461 136.326 423.12C136.104 422.779 135.993 422.358 135.993 421.857C135.993 421.426 136.072 421.07 136.231 420.788C136.39 420.507 136.607 420.281 136.882 420.112C137.158 419.943 137.467 419.816 137.812 419.729C138.16 419.64 138.52 419.575 138.891 419.536C139.338 419.489 139.701 419.448 139.98 419.411C140.258 419.371 140.46 419.312 140.586 419.232C140.716 419.149 140.78 419.022 140.78 418.849V418.82C140.78 418.445 140.669 418.155 140.447 417.95C140.225 417.744 139.905 417.641 139.488 417.641C139.047 417.641 138.697 417.737 138.439 417.93C138.183 418.122 138.011 418.349 137.922 418.611L136.241 418.372C136.374 417.908 136.592 417.52 136.897 417.209C137.202 416.894 137.575 416.659 138.016 416.503C138.457 416.344 138.944 416.264 139.478 416.264C139.846 416.264 140.212 416.307 140.576 416.393C140.941 416.48 141.274 416.622 141.576 416.821C141.877 417.017 142.119 417.283 142.301 417.621C142.487 417.96 142.58 418.382 142.58 418.889V424H140.85V422.951H140.79C140.681 423.163 140.527 423.362 140.328 423.548C140.132 423.73 139.885 423.877 139.587 423.99C139.292 424.099 138.946 424.154 138.548 424.154ZM139.015 422.832C139.377 422.832 139.69 422.76 139.955 422.618C140.22 422.472 140.424 422.28 140.566 422.041C140.712 421.803 140.785 421.542 140.785 421.261V420.361C140.729 420.407 140.633 420.45 140.497 420.49C140.364 420.53 140.215 420.565 140.049 420.594C139.884 420.624 139.72 420.651 139.557 420.674C139.395 420.697 139.254 420.717 139.135 420.734C138.866 420.77 138.626 420.83 138.414 420.913C138.202 420.996 138.034 421.112 137.912 421.261C137.789 421.406 137.728 421.595 137.728 421.827C137.728 422.159 137.849 422.409 138.091 422.578C138.333 422.747 138.641 422.832 139.015 422.832ZM148.203 416.364V417.756H143.813V416.364H148.203ZM144.897 414.534H146.696V421.703C146.696 421.945 146.733 422.131 146.806 422.26C146.882 422.386 146.981 422.472 147.104 422.518C147.227 422.565 147.363 422.588 147.512 422.588C147.624 422.588 147.727 422.58 147.82 422.563C147.916 422.547 147.989 422.532 148.039 422.518L148.342 423.925C148.246 423.959 148.108 423.995 147.929 424.035C147.754 424.075 147.538 424.098 147.283 424.104C146.832 424.118 146.426 424.05 146.065 423.901C145.704 423.748 145.417 423.513 145.205 423.195C144.996 422.876 144.893 422.479 144.897 422.001V414.534ZM153.007 424.149C152.241 424.149 151.58 423.99 151.023 423.672C150.469 423.35 150.044 422.896 149.745 422.31C149.447 421.72 149.298 421.025 149.298 420.227C149.298 419.441 149.447 418.752 149.745 418.158C150.047 417.562 150.468 417.098 151.008 416.766C151.548 416.432 152.183 416.264 152.912 416.264C153.383 416.264 153.827 416.34 154.244 416.493C154.665 416.642 155.037 416.874 155.358 417.189C155.683 417.504 155.938 417.905 156.124 418.392C156.309 418.876 156.402 419.453 156.402 420.122V420.674H150.143V419.461H154.677C154.674 419.116 154.599 418.81 154.453 418.541C154.307 418.269 154.104 418.056 153.842 417.9C153.583 417.744 153.282 417.666 152.937 417.666C152.569 417.666 152.246 417.756 151.968 417.935C151.689 418.11 151.472 418.342 151.316 418.631C151.164 418.916 151.086 419.229 151.083 419.57V420.629C151.083 421.073 151.164 421.455 151.326 421.773C151.489 422.088 151.716 422.33 152.007 422.499C152.299 422.664 152.64 422.747 153.031 422.747C153.293 422.747 153.53 422.711 153.742 422.638C153.954 422.562 154.138 422.451 154.294 422.305C154.45 422.159 154.568 421.978 154.647 421.763L156.328 421.952C156.222 422.396 156.019 422.784 155.721 423.115C155.426 423.443 155.048 423.698 154.588 423.881C154.127 424.06 153.6 424.149 153.007 424.149Z" fill="white"/>
<path d="M30.9283 448.455H31.919V452.76C31.919 453.218 31.8114 453.624 31.5962 453.977C31.381 454.329 31.0785 454.606 30.6886 454.808C30.2987 455.009 29.8416 455.109 29.3175 455.109C28.7955 455.109 28.3395 455.009 27.9496 454.808C27.5597 454.606 27.2571 454.329 27.0419 453.977C26.8267 453.624 26.7191 453.218 26.7191 452.76V448.455H27.7067V452.68C27.7067 452.976 27.7717 453.239 27.9016 453.469C28.0337 453.699 28.2202 453.88 28.4609 454.012C28.7017 454.142 28.9872 454.207 29.3175 454.207C29.6499 454.207 29.9364 454.142 30.1772 454.012C30.4201 453.88 30.6055 453.699 30.7333 453.469C30.8633 453.239 30.9283 452.976 30.9283 452.68V448.455ZM36.9248 450.174C36.8907 449.871 36.7501 449.637 36.5029 449.471C36.2558 449.303 35.9447 449.218 35.5697 449.218C35.3012 449.218 35.069 449.261 34.873 449.346C34.6769 449.429 34.5246 449.544 34.4159 449.691C34.3094 449.836 34.2561 450.001 34.2561 450.187C34.2561 450.342 34.2923 450.477 34.3648 450.589C34.4394 450.702 34.5363 450.797 34.6556 450.874C34.7771 450.949 34.907 451.011 35.0455 451.062C35.184 451.112 35.3172 451.152 35.445 451.184L36.0843 451.35C36.2931 451.401 36.5072 451.471 36.7267 451.558C36.9461 451.645 37.1496 451.76 37.3371 451.903C37.5246 452.046 37.6759 452.223 37.7909 452.434C37.9081 452.645 37.9667 452.897 37.9667 453.191C37.9667 453.562 37.8708 453.891 37.6791 454.179C37.4894 454.466 37.2135 454.693 36.8513 454.859C36.4912 455.026 36.0555 455.109 35.5441 455.109C35.0541 455.109 34.6301 455.031 34.2721 454.875C33.9142 454.72 33.634 454.499 33.4316 454.214C33.2291 453.926 33.1173 453.585 33.096 453.191H34.0867C34.1059 453.428 34.1826 453.625 34.3169 453.782C34.4532 453.938 34.6269 454.054 34.8378 454.131C35.0509 454.205 35.2842 454.243 35.5377 454.243C35.8169 454.243 36.0651 454.199 36.2824 454.112C36.5019 454.022 36.6744 453.898 36.8002 453.741C36.9259 453.581 36.9887 453.395 36.9887 453.181C36.9887 452.988 36.9333 452.829 36.8225 452.705C36.7139 452.582 36.5658 452.479 36.3783 452.398C36.1929 452.317 35.983 452.246 35.7487 452.184L34.9752 451.973C34.4511 451.831 34.0356 451.621 33.7288 451.344C33.4241 451.067 33.2718 450.7 33.2718 450.244C33.2718 449.867 33.374 449.538 33.5786 449.257C33.7831 448.975 34.0601 448.757 34.4095 448.602C34.759 448.444 35.1531 448.365 35.5921 448.365C36.0352 448.365 36.4262 448.443 36.765 448.598C37.1059 448.754 37.3744 448.968 37.5704 449.241C37.7664 449.511 37.8687 449.822 37.8772 450.174H36.9248ZM41.2658 455H39.1468V448.455H41.3329C41.9743 448.455 42.525 448.586 42.9853 448.848C43.4455 449.108 43.7981 449.482 44.0431 449.969C44.2903 450.455 44.4139 451.038 44.4139 451.718C44.4139 452.4 44.2892 452.985 44.04 453.475C43.7928 453.966 43.4348 454.343 42.9661 454.607C42.4973 454.869 41.9306 455 41.2658 455ZM40.1344 454.137H41.2115C41.71 454.137 42.1245 454.043 42.4547 453.856C42.785 453.666 43.0321 453.392 43.1962 453.034C43.3603 452.674 43.4423 452.235 43.4423 451.718C43.4423 451.204 43.3603 450.768 43.1962 450.411C43.0343 450.053 42.7924 449.781 42.4707 449.596C42.149 449.41 41.7495 449.317 41.2722 449.317H40.1344V454.137Z" fill="currentColor"/>
<path d="M143.719 455V448.455H147.778V449.305H144.707V451.299H147.487V452.146H144.707V455H143.719ZM148.728 455H147.68L150.035 448.455H151.176L153.532 455H152.483L150.633 449.643H150.582L148.728 455ZM148.904 452.437H152.304V453.268H148.904V452.437ZM156.576 452.878H157.547L158.231 453.77L158.554 454.166L159.644 455.588H158.634L157.905 454.639L157.656 454.294L156.576 452.878ZM159.855 451.727C159.855 452.426 159.727 453.027 159.472 453.53C159.216 454.031 158.865 454.416 158.42 454.687C157.977 454.955 157.473 455.089 156.908 455.089C156.342 455.089 155.835 454.955 155.39 454.687C154.947 454.416 154.598 454.029 154.342 453.527C154.086 453.024 153.958 452.424 153.958 451.727C153.958 451.028 154.086 450.429 154.342 449.928C154.598 449.425 154.947 449.039 155.39 448.771C155.835 448.5 156.342 448.365 156.908 448.365C157.473 448.365 157.977 448.5 158.42 448.771C158.865 449.039 159.216 449.425 159.472 449.928C159.727 450.429 159.855 451.028 159.855 451.727ZM158.877 451.727C158.877 451.195 158.791 450.746 158.618 450.382C158.448 450.015 158.213 449.738 157.915 449.551C157.619 449.361 157.283 449.266 156.908 449.266C156.531 449.266 156.195 449.361 155.898 449.551C155.602 449.738 155.368 450.015 155.195 450.382C155.025 450.746 154.94 451.195 154.94 451.727C154.94 452.26 155.025 452.71 155.195 453.076C155.368 453.44 155.602 453.717 155.898 453.907C156.195 454.094 156.531 454.188 156.908 454.188C157.283 454.188 157.619 454.094 157.915 453.907C158.213 453.717 158.448 453.44 158.618 453.076C158.791 452.71 158.877 452.26 158.877 451.727ZM173.699 455V448.455H176.032C176.541 448.455 176.963 448.547 177.297 448.733C177.632 448.918 177.882 449.172 178.048 449.493C178.215 449.813 178.298 450.173 178.298 450.574C178.298 450.976 178.214 451.338 178.045 451.66C177.879 451.98 177.628 452.233 177.291 452.421C176.956 452.606 176.536 452.699 176.028 452.699H174.424V451.862H175.939C176.261 451.862 176.522 451.806 176.722 451.695C176.922 451.582 177.069 451.429 177.163 451.235C177.257 451.041 177.304 450.821 177.304 450.574C177.304 450.326 177.257 450.107 177.163 449.915C177.069 449.723 176.921 449.573 176.719 449.464C176.519 449.356 176.254 449.301 175.926 449.301H174.686V455H173.699ZM179.379 455V450.091H180.302V450.871H180.354C180.443 450.607 180.601 450.399 180.827 450.248C181.055 450.094 181.312 450.017 181.6 450.017C181.66 450.017 181.73 450.02 181.811 450.024C181.894 450.028 181.959 450.033 182.006 450.04V450.954C181.968 450.943 181.899 450.931 181.801 450.919C181.703 450.904 181.605 450.896 181.507 450.896C181.281 450.896 181.08 450.944 180.903 451.04C180.729 451.134 180.59 451.265 180.488 451.433C180.385 451.599 180.334 451.789 180.334 452.002V455H179.379ZM182.833 455V450.091H183.788V455H182.833ZM183.315 449.333C183.149 449.333 183.006 449.278 182.887 449.167C182.77 449.054 182.711 448.92 182.711 448.765C182.711 448.607 182.77 448.473 182.887 448.362C183.006 448.249 183.149 448.192 183.315 448.192C183.482 448.192 183.623 448.249 183.741 448.362C183.86 448.473 183.919 448.607 183.919 448.765C183.919 448.92 183.86 449.054 183.741 449.167C183.623 449.278 183.482 449.333 183.315 449.333ZM189.274 450.091L187.493 455H186.471L184.687 450.091H185.713L186.956 453.869H187.008L188.248 450.091H189.274ZM191.46 455.109C191.149 455.109 190.867 455.051 190.616 454.936C190.365 454.819 190.165 454.65 190.018 454.428C189.873 454.206 189.801 453.935 189.801 453.613C189.801 453.336 189.854 453.108 189.961 452.929C190.067 452.75 190.211 452.608 190.392 452.504C190.573 452.4 190.776 452.321 190.999 452.267C191.223 452.214 191.451 452.174 191.683 452.146C191.977 452.112 192.216 452.084 192.399 452.063C192.583 452.039 192.716 452.002 192.799 451.951C192.882 451.9 192.923 451.817 192.923 451.702V451.679C192.923 451.4 192.845 451.184 192.687 451.031C192.531 450.877 192.299 450.8 191.99 450.8C191.669 450.8 191.415 450.872 191.23 451.015C191.046 451.155 190.92 451.312 190.849 451.484L189.951 451.28C190.058 450.982 190.213 450.741 190.418 450.558C190.624 450.372 190.862 450.238 191.131 450.155C191.399 450.07 191.681 450.027 191.977 450.027C192.173 450.027 192.381 450.05 192.601 450.097C192.822 450.142 193.029 450.225 193.221 450.347C193.415 450.468 193.573 450.642 193.697 450.868C193.82 451.091 193.882 451.382 193.882 451.74V455H192.949V454.329H192.911C192.849 454.452 192.756 454.574 192.633 454.693C192.509 454.812 192.35 454.912 192.156 454.99C191.963 455.069 191.73 455.109 191.46 455.109ZM191.667 454.342C191.932 454.342 192.157 454.289 192.345 454.185C192.535 454.081 192.678 453.944 192.776 453.776C192.877 453.605 192.927 453.423 192.927 453.229V452.597C192.893 452.631 192.827 452.663 192.729 452.692C192.633 452.72 192.523 452.745 192.399 452.766C192.276 452.785 192.155 452.803 192.038 452.82C191.921 452.835 191.823 452.848 191.744 452.859C191.559 452.882 191.389 452.922 191.236 452.977C191.085 453.032 190.963 453.112 190.872 453.217C190.782 453.319 190.737 453.455 190.737 453.626C190.737 453.862 190.825 454.041 190.999 454.163C191.174 454.282 191.397 454.342 191.667 454.342ZM197.223 455.099C196.748 455.099 196.339 454.991 195.996 454.776C195.655 454.559 195.393 454.26 195.209 453.878C195.026 453.497 194.935 453.06 194.935 452.568C194.935 452.069 195.028 451.629 195.216 451.248C195.403 450.864 195.668 450.565 196.008 450.35C196.349 450.135 196.751 450.027 197.213 450.027C197.586 450.027 197.919 450.096 198.21 450.235C198.502 450.371 198.738 450.563 198.917 450.81C199.098 451.057 199.206 451.346 199.24 451.676H198.31C198.258 451.446 198.141 451.248 197.958 451.082C197.777 450.915 197.534 450.832 197.229 450.832C196.963 450.832 196.73 450.903 196.529 451.043C196.331 451.182 196.177 451.38 196.066 451.638C195.955 451.893 195.9 452.196 195.9 452.545C195.9 452.903 195.954 453.212 196.063 453.472C196.171 453.732 196.325 453.934 196.523 454.076C196.723 454.219 196.959 454.29 197.229 454.29C197.41 454.29 197.574 454.257 197.722 454.191C197.871 454.123 197.995 454.026 198.095 453.901C198.198 453.775 198.269 453.624 198.31 453.447H199.24C199.206 453.764 199.102 454.048 198.93 454.297C198.757 454.546 198.526 454.742 198.236 454.885C197.948 455.028 197.611 455.099 197.223 455.099ZM200.866 456.841C200.723 456.841 200.593 456.829 200.476 456.806C200.358 456.784 200.271 456.761 200.214 456.735L200.444 455.952C200.618 455.999 200.774 456.02 200.91 456.013C201.047 456.007 201.167 455.956 201.271 455.86C201.378 455.764 201.472 455.607 201.553 455.39L201.671 455.064L199.875 450.091H200.898L202.141 453.901H202.192L203.435 450.091H204.461L202.438 455.655C202.344 455.911 202.225 456.127 202.08 456.304C201.935 456.483 201.763 456.617 201.562 456.707C201.362 456.796 201.13 456.841 200.866 456.841ZM209.646 455.093C209.207 455.093 208.829 455.013 208.511 454.853C208.196 454.693 207.953 454.476 207.783 454.201C207.612 453.924 207.527 453.611 207.527 453.261C207.527 452.995 207.582 452.759 207.693 452.552C207.804 452.343 207.958 452.15 208.157 451.973C208.355 451.797 208.584 451.619 208.844 451.44L209.898 450.695C210.077 450.578 210.217 450.454 210.317 450.324C210.417 450.192 210.467 450.029 210.467 449.835C210.467 449.682 210.401 449.535 210.269 449.394C210.137 449.254 209.96 449.183 209.739 449.183C209.585 449.183 209.45 449.221 209.333 449.295C209.218 449.37 209.127 449.466 209.061 449.583C208.997 449.698 208.965 449.819 208.965 449.947C208.965 450.096 209.006 450.246 209.087 450.398C209.17 450.549 209.276 450.706 209.406 450.868C209.536 451.027 209.672 451.194 209.815 451.366L212.855 455H211.774L209.259 452.044C209.048 451.794 208.852 451.56 208.671 451.341C208.49 451.119 208.343 450.895 208.23 450.669C208.119 450.441 208.064 450.195 208.064 449.931C208.064 449.631 208.132 449.364 208.268 449.132C208.407 448.898 208.6 448.714 208.847 448.582C209.094 448.45 209.384 448.384 209.716 448.384C210.053 448.384 210.342 448.45 210.582 448.582C210.825 448.712 211.012 448.886 211.142 449.103C211.274 449.319 211.34 449.554 211.34 449.81C211.34 450.121 211.262 450.396 211.106 450.634C210.953 450.871 210.741 451.088 210.47 451.286L209.157 452.255C208.901 452.442 208.723 452.627 208.623 452.811C208.525 452.992 208.476 453.134 208.476 453.236C208.476 453.423 208.524 453.597 208.62 453.757C208.718 453.917 208.854 454.044 209.029 454.14C209.206 454.236 209.413 454.284 209.649 454.284C209.892 454.284 210.128 454.232 210.359 454.127C210.591 454.021 210.801 453.869 210.988 453.67C211.178 453.472 211.328 453.235 211.439 452.958C211.55 452.681 211.605 452.371 211.605 452.028H212.468C212.468 452.45 212.42 452.806 212.324 453.098C212.228 453.388 212.112 453.625 211.976 453.808C211.842 453.989 211.715 454.131 211.595 454.233C211.557 454.267 211.521 454.301 211.487 454.335C211.453 454.369 211.416 454.403 211.378 454.438C211.157 454.661 210.888 454.826 210.573 454.933C210.259 455.039 209.951 455.093 209.646 455.093ZM216.062 455V448.455H217.049V454.15H220.015V455H216.062ZM223.181 455.099C222.697 455.099 222.281 454.996 221.931 454.789C221.584 454.58 221.316 454.287 221.126 453.91C220.938 453.531 220.845 453.087 220.845 452.577C220.845 452.075 220.938 451.631 221.126 451.248C221.316 450.864 221.58 450.565 221.919 450.35C222.259 450.135 222.658 450.027 223.114 450.027C223.391 450.027 223.659 450.073 223.919 450.164C224.179 450.256 224.413 450.4 224.619 450.596C224.826 450.792 224.989 451.047 225.108 451.36C225.228 451.671 225.287 452.049 225.287 452.494V452.833H221.385V452.117H224.351C224.351 451.866 224.3 451.643 224.197 451.449C224.095 451.253 223.951 451.099 223.766 450.986C223.583 450.873 223.367 450.816 223.12 450.816C222.852 450.816 222.617 450.882 222.417 451.015C222.219 451.145 222.066 451.315 221.957 451.526C221.85 451.735 221.797 451.962 221.797 452.207V452.766C221.797 453.094 221.855 453.373 221.97 453.603C222.087 453.833 222.25 454.009 222.459 454.131C222.668 454.25 222.911 454.31 223.191 454.31C223.372 454.31 223.537 454.284 223.686 454.233C223.835 454.18 223.964 454.101 224.073 453.996C224.181 453.892 224.264 453.763 224.322 453.61L225.226 453.773C225.154 454.039 225.024 454.272 224.837 454.473C224.651 454.671 224.418 454.825 224.137 454.936C223.858 455.045 223.539 455.099 223.181 455.099ZM228.406 456.943C228.016 456.943 227.68 456.892 227.399 456.79C227.12 456.688 226.892 456.552 226.715 456.384C226.538 456.216 226.406 456.031 226.319 455.831L227.14 455.492C227.198 455.586 227.274 455.685 227.37 455.789C227.468 455.896 227.6 455.987 227.767 456.061C227.935 456.136 228.151 456.173 228.415 456.173C228.778 456.173 229.077 456.085 229.313 455.908C229.55 455.733 229.668 455.454 229.668 455.07V454.105H229.607C229.55 454.21 229.467 454.326 229.358 454.453C229.252 454.581 229.105 454.692 228.917 454.786C228.73 454.88 228.486 454.926 228.185 454.926C227.797 454.926 227.448 454.836 227.137 454.655C226.828 454.472 226.583 454.202 226.402 453.846C226.223 453.488 226.133 453.048 226.133 452.526C226.133 452.004 226.222 451.557 226.399 451.184C226.578 450.811 226.823 450.526 227.134 450.327C227.445 450.127 227.797 450.027 228.192 450.027C228.496 450.027 228.742 450.078 228.93 450.18C229.117 450.281 229.263 450.398 229.368 450.532C229.474 450.666 229.556 450.784 229.614 450.887H229.684V450.091H230.621V455.109C230.621 455.531 230.523 455.877 230.327 456.147C230.131 456.418 229.865 456.618 229.531 456.748C229.198 456.878 228.823 456.943 228.406 456.943ZM228.396 454.134C228.671 454.134 228.903 454.07 229.093 453.942C229.285 453.812 229.43 453.627 229.528 453.386C229.628 453.143 229.678 452.852 229.678 452.513C229.678 452.183 229.629 451.892 229.531 451.641C229.433 451.39 229.289 451.194 229.099 451.053C228.91 450.91 228.675 450.839 228.396 450.839C228.108 450.839 227.869 450.913 227.677 451.062C227.485 451.21 227.34 451.41 227.242 451.663C227.146 451.917 227.099 452.2 227.099 452.513C227.099 452.835 227.148 453.118 227.246 453.36C227.344 453.603 227.488 453.793 227.68 453.929C227.874 454.066 228.113 454.134 228.396 454.134ZM233.331 455.109C233.02 455.109 232.738 455.051 232.487 454.936C232.236 454.819 232.036 454.65 231.889 454.428C231.744 454.206 231.672 453.935 231.672 453.613C231.672 453.336 231.725 453.108 231.832 452.929C231.938 452.75 232.082 452.608 232.263 452.504C232.444 452.4 232.647 452.321 232.871 452.267C233.094 452.214 233.322 452.174 233.555 452.146C233.849 452.112 234.087 452.084 234.27 452.063C234.454 452.039 234.587 452.002 234.67 451.951C234.753 451.9 234.795 451.817 234.795 451.702V451.679C234.795 451.4 234.716 451.184 234.558 451.031C234.403 450.877 234.17 450.8 233.861 450.8C233.54 450.8 233.286 450.872 233.101 451.015C232.917 451.155 232.791 451.312 232.72 451.484L231.822 451.28C231.929 450.982 232.084 450.741 232.289 450.558C232.496 450.372 232.733 450.238 233.002 450.155C233.27 450.07 233.552 450.027 233.849 450.027C234.045 450.027 234.252 450.05 234.472 450.097C234.693 450.142 234.9 450.225 235.092 450.347C235.286 450.468 235.444 450.642 235.568 450.868C235.692 451.091 235.753 451.382 235.753 451.74V455H234.82V454.329H234.782C234.72 454.452 234.627 454.574 234.504 454.693C234.38 454.812 234.221 454.912 234.028 454.99C233.834 455.069 233.601 455.109 233.331 455.109ZM233.539 454.342C233.803 454.342 234.029 454.289 234.216 454.185C234.406 454.081 234.55 453.944 234.648 453.776C234.748 453.605 234.798 453.423 234.798 453.229V452.597C234.764 452.631 234.698 452.663 234.6 452.692C234.504 452.72 234.394 452.745 234.27 452.766C234.147 452.785 234.026 452.803 233.909 452.82C233.792 452.835 233.694 452.848 233.615 452.859C233.43 452.882 233.26 452.922 233.107 452.977C232.956 453.032 232.834 453.112 232.743 453.217C232.653 453.319 232.608 453.455 232.608 453.626C232.608 453.862 232.696 454.041 232.871 454.163C233.045 454.282 233.268 454.342 233.539 454.342ZM237.982 448.455V455H237.026V448.455H237.982Z" fill="currentColor"/>
<path d="M167.1 446.345V457.109H166.243V446.345H167.1Z" fill="#4F4F4F"/>
<circle cx="58.6202" cy="91.5" r="9.47977" fill="currentColor" fill-opacity="0.15"/>
<path fill-rule="evenodd" clip-rule="evenodd" d="M55.4603 91.1614C55.4603 90.9121 55.6624 90.71 55.9117 90.71H61.3288C61.5781 90.71 61.7802 90.9121 61.7802 91.1614C61.7802 91.4107 61.5781 91.6128 61.3288 91.6128H55.9117C55.6624 91.6128 55.4603 91.4107 55.4603 91.1614Z" fill="currentColor"/>
<path d="M97.3249 114.545V69.0909H100.237V114.545H97.3249ZM105.049 84.0945C104.907 82.6622 104.297 81.5495 103.22 80.7564C102.143 79.9633 100.681 79.5668 98.8341 79.5668C97.5794 79.5668 96.52 79.7443 95.6558 80.0994C94.7917 80.4427 94.1289 80.9221 93.6672 81.5376C93.2174 82.1532 92.9925 82.8516 92.9925 83.6328C92.9688 84.2839 93.1049 84.852 93.4009 85.3374C93.7086 85.8227 94.1289 86.2429 94.6615 86.598C95.1942 86.9413 95.8097 87.2431 96.5081 87.5036C97.2065 87.7521 97.9522 87.9652 98.7453 88.1428L102.012 88.924C103.599 89.2791 105.055 89.7526 106.38 90.3445C107.706 90.9363 108.854 91.6643 109.825 92.5284C110.796 93.3925 111.547 94.4105 112.08 95.5824C112.624 96.7543 112.903 98.0978 112.914 99.6129C112.903 101.838 112.334 103.768 111.21 105.401C110.097 107.023 108.487 108.284 106.38 109.183C104.285 110.071 101.758 110.515 98.7986 110.515C95.863 110.515 93.3062 110.065 91.1281 109.165C88.962 108.266 87.2692 106.934 86.05 105.17C84.8426 103.395 84.2094 101.199 84.1502 98.5831H91.5898C91.6727 99.8023 92.0219 100.82 92.6374 101.637C93.2647 102.442 94.0993 103.052 95.1409 103.466C96.1944 103.868 97.3841 104.07 98.7098 104.07C100.012 104.07 101.142 103.88 102.101 103.501C103.072 103.123 103.823 102.596 104.356 101.921C104.889 101.246 105.155 100.471 105.155 99.5952C105.155 98.7784 104.912 98.0919 104.427 97.5355C103.954 96.9792 103.255 96.5057 102.332 96.1151C101.421 95.7244 100.302 95.3693 98.9762 95.0497L95.0166 94.0554C91.9508 93.3097 89.5301 92.1437 87.7546 90.5575C85.979 88.9714 85.0971 86.8348 85.109 84.1477C85.0971 81.946 85.6831 80.0225 86.8668 78.3771C88.0623 76.7318 89.7018 75.4474 91.7851 74.5241C93.8684 73.6009 96.2359 73.1392 98.8874 73.1392C101.586 73.1392 103.942 73.6009 105.954 74.5241C107.978 75.4474 109.553 76.7318 110.677 78.3771C111.802 80.0225 112.382 81.9283 112.417 84.0945H105.049ZM117.322 103.608V97.5533L132.503 73.6364H137.723V82.017H134.634L125.064 97.1626V97.4467H146.637V103.608H117.322ZM134.776 110V101.761L134.918 99.0803V73.6364H142.127V110H134.776ZM165.041 110.497C162.531 110.497 160.294 110.036 158.329 109.112C156.376 108.189 154.825 106.916 153.677 105.295C152.529 103.673 151.931 101.815 151.884 99.7195H159.341C159.424 101.128 160.016 102.27 161.117 103.146C162.217 104.022 163.525 104.46 165.041 104.46C166.248 104.46 167.313 104.194 168.237 103.661C169.172 103.117 169.9 102.365 170.421 101.406C170.953 100.436 171.22 99.3229 171.22 98.0682C171.22 96.7898 170.947 95.6652 170.403 94.6946C169.87 93.724 169.13 92.9664 168.183 92.4219C167.236 91.8774 166.153 91.5992 164.934 91.5874C163.869 91.5874 162.833 91.8063 161.827 92.2443C160.833 92.6823 160.057 93.2801 159.501 94.0376L152.665 92.8125L154.387 73.6364H176.617V79.9219H160.726L159.785 89.0305H159.998C160.637 88.1309 161.602 87.3852 162.892 86.7933C164.182 86.2015 165.627 85.9055 167.225 85.9055C169.414 85.9055 171.368 86.4205 173.084 87.4503C174.8 88.4801 176.156 89.8946 177.15 91.6939C178.144 93.4813 178.636 95.541 178.624 97.8729C178.636 100.323 178.067 102.501 176.919 104.407C175.783 106.301 174.191 107.792 172.143 108.881C170.107 109.959 167.739 110.497 165.041 110.497Z" fill="black"/>
<circle cx="204.58" cy="91.5" r="9.47977" fill="currentColor" fill-opacity="0.15"/>
<path fill-rule="evenodd" clip-rule="evenodd" d="M204.58 86.7601C204.871 86.7601 205.106 86.9959 205.106 87.2868V90.9733H208.793C209.084 90.9733 209.32 91.2091 209.32 91.5C209.32 91.7909 209.084 92.0267 208.793 92.0267H205.106V95.7132C205.106 96.0041 204.871 96.2399 204.58 96.2399C204.289 96.2399 204.053 96.0041 204.053 95.7132V92.0267H200.367C200.076 92.0267 199.84 91.7909 199.84 91.5C199.84 91.2091 200.076 90.9733 200.367 90.9733H204.053V87.2868C204.053 86.9959 204.289 86.7601 204.58 86.7601Z" fill="currentColor"/>
<rect x="48" y="131" width="80" height="22" rx="11" fill="currentColor" fill-opacity="0.1"/>
<path d="M58.6333 139.215V138H65.0161V139.215H62.5435V146H61.106V139.215H58.6333ZM67.9312 146.117C67.3452 146.117 66.8374 145.988 66.4077 145.73C65.978 145.473 65.6447 145.112 65.4077 144.648C65.1733 144.185 65.0562 143.643 65.0562 143.023C65.0562 142.404 65.1733 141.861 65.4077 141.395C65.6447 140.928 65.978 140.566 66.4077 140.309C66.8374 140.051 67.3452 139.922 67.9312 139.922C68.5171 139.922 69.0249 140.051 69.4546 140.309C69.8843 140.566 70.2163 140.928 70.4507 141.395C70.6877 141.861 70.8062 142.404 70.8062 143.023C70.8062 143.643 70.6877 144.185 70.4507 144.648C70.2163 145.112 69.8843 145.473 69.4546 145.73C69.0249 145.988 68.5171 146.117 67.9312 146.117ZM67.939 144.984C68.2567 144.984 68.5223 144.897 68.7358 144.723C68.9494 144.546 69.1082 144.309 69.2124 144.012C69.3192 143.715 69.3726 143.384 69.3726 143.02C69.3726 142.652 69.3192 142.32 69.2124 142.023C69.1082 141.724 68.9494 141.486 68.7358 141.309C68.5223 141.132 68.2567 141.043 67.939 141.043C67.6134 141.043 67.3426 141.132 67.1265 141.309C66.9129 141.486 66.7528 141.724 66.646 142.023C66.5418 142.32 66.4897 142.652 66.4897 143.02C66.4897 143.384 66.5418 143.715 66.646 144.012C66.7528 144.309 66.9129 144.546 67.1265 144.723C67.3426 144.897 67.6134 144.984 67.939 144.984ZM74.2329 146.105C73.7616 146.105 73.3397 145.984 72.9673 145.742C72.5949 145.5 72.3006 145.148 72.0845 144.687C71.8683 144.227 71.7603 143.667 71.7603 143.008C71.7603 142.341 71.8696 141.779 72.0884 141.32C72.3097 140.859 72.6079 140.512 72.9829 140.277C73.3579 140.04 73.7759 139.922 74.2368 139.922C74.5884 139.922 74.8774 139.982 75.104 140.102C75.3306 140.219 75.5103 140.361 75.6431 140.527C75.7759 140.691 75.8787 140.846 75.9517 140.992H76.0103V138H77.4282V146H76.0376V145.055H75.9517C75.8787 145.201 75.7733 145.355 75.6353 145.52C75.4972 145.681 75.3149 145.819 75.0884 145.934C74.8618 146.048 74.5767 146.105 74.2329 146.105ZM74.6274 144.945C74.9269 144.945 75.1821 144.865 75.3931 144.703C75.604 144.539 75.7642 144.311 75.8735 144.02C75.9829 143.728 76.0376 143.388 76.0376 143C76.0376 142.612 75.9829 142.275 75.8735 141.988C75.7668 141.702 75.6079 141.479 75.397 141.32C75.1886 141.161 74.9321 141.082 74.6274 141.082C74.3123 141.082 74.0493 141.164 73.8384 141.328C73.6274 141.492 73.4686 141.719 73.3618 142.008C73.255 142.297 73.2017 142.628 73.2017 143C73.2017 143.375 73.255 143.71 73.3618 144.004C73.4712 144.296 73.6313 144.526 73.8423 144.695C74.0558 144.862 74.3175 144.945 74.6274 144.945ZM80.6616 146.121C80.2814 146.121 79.939 146.053 79.6343 145.918C79.3322 145.78 79.0926 145.577 78.9155 145.309C78.741 145.04 78.6538 144.71 78.6538 144.316C78.6538 143.978 78.7163 143.698 78.8413 143.477C78.9663 143.255 79.1369 143.078 79.353 142.945C79.5692 142.812 79.8127 142.712 80.0835 142.645C80.3569 142.574 80.6395 142.523 80.9312 142.492C81.2827 142.456 81.5679 142.423 81.7866 142.395C82.0054 142.363 82.1642 142.316 82.2632 142.254C82.3647 142.189 82.4155 142.089 82.4155 141.953V141.93C82.4155 141.635 82.3283 141.408 82.1538 141.246C81.9793 141.085 81.728 141.004 81.3999 141.004C81.0535 141.004 80.7788 141.079 80.5757 141.23C80.3752 141.382 80.2397 141.56 80.1694 141.766L78.8491 141.578C78.9533 141.214 79.1252 140.909 79.3647 140.664C79.6043 140.417 79.8973 140.232 80.2437 140.109C80.59 139.984 80.9728 139.922 81.3921 139.922C81.6812 139.922 81.9689 139.956 82.2554 140.023C82.5418 140.091 82.8035 140.203 83.0405 140.359C83.2775 140.513 83.4676 140.723 83.6108 140.988C83.7567 141.254 83.8296 141.586 83.8296 141.984V146H82.4702V145.176H82.4233C82.3374 145.342 82.2163 145.499 82.0601 145.645C81.9064 145.788 81.7124 145.904 81.478 145.992C81.2463 146.078 80.9741 146.121 80.6616 146.121ZM81.0288 145.082C81.3127 145.082 81.5588 145.026 81.7671 144.914C81.9754 144.799 82.1356 144.648 82.2476 144.461C82.3621 144.273 82.4194 144.069 82.4194 143.848V143.141C82.3752 143.177 82.2996 143.211 82.1929 143.242C82.0887 143.273 81.9715 143.301 81.8413 143.324C81.7111 143.348 81.5822 143.368 81.4546 143.387C81.327 143.405 81.2163 143.421 81.1226 143.434C80.9116 143.462 80.7228 143.509 80.5562 143.574C80.3895 143.639 80.258 143.73 80.1616 143.848C80.0653 143.962 80.0171 144.111 80.0171 144.293C80.0171 144.553 80.1121 144.75 80.3022 144.883C80.4924 145.016 80.7345 145.082 81.0288 145.082ZM85.9155 148.25C85.7228 148.25 85.5444 148.234 85.3804 148.203C85.2189 148.174 85.09 148.141 84.9937 148.102L85.3218 147C85.5275 147.06 85.7111 147.089 85.8726 147.086C86.034 147.083 86.1759 147.033 86.2983 146.934C86.4233 146.837 86.5288 146.676 86.6147 146.449L86.7358 146.125L84.5601 140H86.0601L87.4429 144.531H87.5054L88.8921 140H90.396L87.9937 146.727C87.8817 147.044 87.7332 147.316 87.5483 147.543C87.3634 147.772 87.1369 147.947 86.8687 148.066C86.603 148.189 86.2853 148.25 85.9155 148.25ZM101.314 142C101.314 142.862 101.153 143.6 100.83 144.215C100.509 144.827 100.072 145.296 99.5171 145.621C98.965 145.947 98.3387 146.109 97.6382 146.109C96.9377 146.109 96.3101 145.947 95.7554 145.621C95.2033 145.293 94.7658 144.823 94.4429 144.211C94.1226 143.596 93.9624 142.859 93.9624 142C93.9624 141.138 94.1226 140.401 94.4429 139.789C94.7658 139.174 95.2033 138.704 95.7554 138.379C96.3101 138.053 96.9377 137.891 97.6382 137.891C98.3387 137.891 98.965 138.053 99.5171 138.379C100.072 138.704 100.509 139.174 100.83 139.789C101.153 140.401 101.314 141.138 101.314 142ZM99.8569 142C99.8569 141.393 99.7619 140.882 99.5718 140.465C99.3843 140.046 99.1239 139.729 98.7905 139.516C98.4572 139.299 98.0731 139.191 97.6382 139.191C97.2033 139.191 96.8192 139.299 96.4858 139.516C96.1525 139.729 95.8908 140.046 95.7007 140.465C95.5132 140.882 95.4194 141.393 95.4194 142C95.4194 142.607 95.5132 143.12 95.7007 143.539C95.8908 143.956 96.1525 144.272 96.4858 144.488C96.8192 144.702 97.2033 144.809 97.6382 144.809C98.0731 144.809 98.4572 144.702 98.7905 144.488C99.1239 144.272 99.3843 143.956 99.5718 143.539C99.7619 143.12 99.8569 142.607 99.8569 142ZM104.036 142.484V146H102.622V140H103.973V141.02H104.043C104.181 140.684 104.402 140.417 104.704 140.219C105.008 140.021 105.385 139.922 105.833 139.922C106.247 139.922 106.607 140.01 106.915 140.187C107.224 140.365 107.464 140.621 107.633 140.957C107.805 141.293 107.89 141.701 107.887 142.18V146H106.473V142.398C106.473 141.997 106.369 141.684 106.161 141.457C105.955 141.23 105.67 141.117 105.305 141.117C105.058 141.117 104.838 141.172 104.645 141.281C104.455 141.388 104.305 141.543 104.196 141.746C104.089 141.949 104.036 142.195 104.036 142.484ZM110.739 138V146H109.325V138H110.739ZM113.072 148.25C112.879 148.25 112.701 148.234 112.537 148.203C112.375 148.174 112.246 148.141 112.15 148.102L112.478 147C112.684 147.06 112.867 147.089 113.029 147.086C113.19 147.083 113.332 147.033 113.455 146.934C113.58 146.837 113.685 146.676 113.771 146.449L113.892 146.125L111.716 140H113.216L114.599 144.531H114.662L116.048 140H117.552L115.15 146.727C115.038 147.044 114.889 147.316 114.705 147.543C114.52 147.772 114.293 147.947 114.025 148.066C113.759 148.189 113.442 148.25 113.072 148.25Z" fill="currentColor"/>
<rect x="134" y="131" width="81.2" height="22" rx="11" fill="currentColor"/>
<path fill-rule="evenodd" clip-rule="evenodd" d="M154.966 137.734C155.278 138.047 155.278 138.553 154.966 138.866L148.566 145.266C148.253 145.578 147.747 145.578 147.434 145.266L144.234 142.066C143.922 141.753 143.922 141.247 144.234 140.934C144.547 140.622 145.053 140.622 145.366 140.934L148 143.569L153.834 137.734C154.147 137.422 154.653 137.422 154.966 137.734Z" fill="white"/>
<path d="M161.213 138H163.299L165.502 143.375H165.596L167.799 138H169.885V146H168.244V140.793H168.178L166.107 145.961H164.99L162.92 140.773H162.853V146H161.213V138ZM173.958 146.117C173.351 146.117 172.826 145.988 172.384 145.73C171.944 145.47 171.604 145.108 171.364 144.645C171.124 144.178 171.005 143.638 171.005 143.023C171.005 142.404 171.124 141.862 171.364 141.398C171.604 140.932 171.944 140.57 172.384 140.312C172.826 140.052 173.351 139.922 173.958 139.922C174.565 139.922 175.088 140.052 175.528 140.312C175.971 140.57 176.312 140.932 176.552 141.398C176.791 141.862 176.911 142.404 176.911 143.023C176.911 143.638 176.791 144.178 176.552 144.645C176.312 145.108 175.971 145.47 175.528 145.73C175.088 145.988 174.565 146.117 173.958 146.117ZM173.966 144.828C174.242 144.828 174.472 144.75 174.657 144.594C174.842 144.435 174.981 144.219 175.075 143.945C175.171 143.672 175.22 143.361 175.22 143.012C175.22 142.663 175.171 142.352 175.075 142.078C174.981 141.805 174.842 141.589 174.657 141.43C174.472 141.271 174.242 141.191 173.966 141.191C173.687 141.191 173.453 141.271 173.263 141.43C173.075 141.589 172.933 141.805 172.837 142.078C172.743 142.352 172.696 142.663 172.696 143.012C172.696 143.361 172.743 143.672 172.837 143.945C172.933 144.219 173.075 144.435 173.263 144.594C173.453 144.75 173.687 144.828 173.966 144.828ZM179.657 142.531V146H177.993V140H179.579V141.059H179.649C179.782 140.71 180.005 140.434 180.317 140.23C180.63 140.025 181.009 139.922 181.454 139.922C181.871 139.922 182.234 140.013 182.544 140.195C182.854 140.378 183.095 140.638 183.266 140.977C183.438 141.312 183.524 141.714 183.524 142.18V146H181.86V142.477C181.863 142.109 181.769 141.823 181.579 141.617C181.389 141.409 181.127 141.305 180.794 141.305C180.57 141.305 180.372 141.353 180.2 141.449C180.031 141.546 179.898 141.686 179.802 141.871C179.708 142.053 179.66 142.273 179.657 142.531ZM188.027 140V141.25H184.414V140H188.027ZM185.234 138.562H186.898V144.156C186.898 144.31 186.922 144.43 186.969 144.516C187.015 144.599 187.081 144.658 187.164 144.691C187.25 144.725 187.349 144.742 187.461 144.742C187.539 144.742 187.617 144.736 187.695 144.723C187.773 144.707 187.833 144.695 187.875 144.687L188.137 145.926C188.053 145.952 187.936 145.982 187.785 146.016C187.634 146.052 187.45 146.074 187.234 146.082C186.833 146.098 186.482 146.044 186.18 145.922C185.88 145.799 185.647 145.609 185.48 145.352C185.314 145.094 185.232 144.768 185.234 144.375V138.562ZM190.904 142.531V146H189.24V138H190.857V141.059H190.928C191.063 140.704 191.282 140.427 191.584 140.227C191.886 140.023 192.265 139.922 192.721 139.922C193.137 139.922 193.5 140.013 193.81 140.195C194.123 140.375 194.365 140.634 194.537 140.973C194.711 141.309 194.797 141.711 194.795 142.18V146H193.131V142.477C193.133 142.107 193.04 141.819 192.849 141.613C192.662 141.408 192.399 141.305 192.06 141.305C191.834 141.305 191.633 141.353 191.459 141.449C191.287 141.546 191.152 141.686 191.053 141.871C190.956 142.053 190.907 142.273 190.904 142.531ZM197.768 138V146H196.104V138H197.768ZM200.129 148.25C199.918 148.25 199.72 148.233 199.535 148.199C199.353 148.168 199.202 148.128 199.082 148.078L199.457 146.836C199.652 146.896 199.828 146.928 199.984 146.934C200.143 146.939 200.28 146.902 200.394 146.824C200.512 146.746 200.607 146.613 200.68 146.426L200.777 146.172L198.625 140H200.375L201.617 144.406H201.68L202.933 140H204.695L202.363 146.648C202.251 146.971 202.099 147.253 201.906 147.492C201.716 147.734 201.475 147.921 201.183 148.051C200.892 148.184 200.54 148.25 200.129 148.25Z" fill="white"/>
</svg>
