<svg width="100%" height="100%" viewBox="0 0 262 479" fill="none" xmlns="http://www.w3.org/2000/svg">
<rect width="262" height="479" rx="20" fill="white"/>
<rect x="25" y="183" width="104" height="35" rx="8" fill="currentColor"/>
<path d="M69.9048 206.091V195.182H70.6037V206.091H69.9048ZM71.7585 198.783C71.7244 198.439 71.5781 198.172 71.3196 197.982C71.0611 197.791 70.7102 197.696 70.267 197.696C69.9659 197.696 69.7116 197.739 69.5043 197.824C69.2969 197.906 69.1378 198.021 69.027 198.169C68.919 198.317 68.8651 198.484 68.8651 198.672C68.8594 198.828 68.892 198.964 68.9631 199.081C69.0369 199.197 69.1378 199.298 69.2656 199.384C69.3935 199.466 69.5412 199.538 69.7088 199.601C69.8764 199.661 70.0554 199.712 70.2457 199.754L71.0298 199.942C71.4105 200.027 71.7599 200.141 72.0781 200.283C72.3963 200.425 72.6719 200.599 72.9048 200.807C73.1378 201.014 73.3182 201.259 73.446 201.54C73.5767 201.821 73.6435 202.143 73.6463 202.507C73.6435 203.041 73.5071 203.504 73.2372 203.896C72.9702 204.286 72.5838 204.588 72.0781 204.804C71.5753 205.017 70.9688 205.124 70.2585 205.124C69.554 205.124 68.9403 205.016 68.4176 204.8C67.8977 204.584 67.4915 204.264 67.1989 203.841C66.9091 203.415 66.7571 202.888 66.7429 202.26H68.5284C68.5483 202.553 68.6321 202.797 68.7798 202.993C68.9304 203.186 69.1307 203.332 69.3807 203.432C69.6335 203.528 69.919 203.577 70.2372 203.577C70.5497 203.577 70.821 203.531 71.0511 203.44C71.2841 203.349 71.4645 203.223 71.5923 203.061C71.7202 202.899 71.7841 202.713 71.7841 202.503C71.7841 202.307 71.7259 202.142 71.6094 202.009C71.4957 201.875 71.3281 201.761 71.1065 201.668C70.8878 201.574 70.6193 201.489 70.3011 201.412L69.3509 201.173C68.6151 200.994 68.0341 200.714 67.608 200.334C67.1818 199.953 66.9702 199.44 66.973 198.795C66.9702 198.267 67.1108 197.805 67.3949 197.411C67.6818 197.016 68.0753 196.707 68.5753 196.486C69.0753 196.264 69.6435 196.153 70.2798 196.153C70.9276 196.153 71.4929 196.264 71.9759 196.486C72.4616 196.707 72.8395 197.016 73.1094 197.411C73.3793 197.805 73.5185 198.263 73.527 198.783H71.7585ZM78.6332 196.273V205H76.788V198.024H76.7369L74.7383 199.277V197.641L76.8988 196.273H78.6332ZM83.8949 205.119C83.2926 205.119 82.7557 205.009 82.2841 204.787C81.8153 204.565 81.4432 204.26 81.1676 203.871C80.892 203.482 80.7486 203.036 80.7372 202.533H82.527C82.5469 202.871 82.6889 203.145 82.9531 203.355C83.2173 203.565 83.5312 203.67 83.8949 203.67C84.1847 203.67 84.4403 203.607 84.6619 203.479C84.8864 203.348 85.0611 203.168 85.1861 202.938C85.3139 202.705 85.3778 202.437 85.3778 202.136C85.3778 201.83 85.3125 201.56 85.1818 201.327C85.054 201.094 84.8764 200.912 84.6491 200.781C84.4219 200.651 84.1619 200.584 83.8693 200.581C83.6136 200.581 83.3651 200.634 83.1236 200.739C82.8849 200.844 82.6989 200.987 82.5653 201.169L80.9247 200.875L81.3381 196.273H86.6733V197.781H82.8594L82.6335 199.967H82.6847C82.8381 199.751 83.0696 199.572 83.3793 199.43C83.6889 199.288 84.0355 199.217 84.419 199.217C84.9446 199.217 85.4134 199.341 85.8253 199.588C86.2372 199.835 86.5625 200.175 86.8011 200.607C87.0398 201.036 87.1577 201.53 87.1548 202.089C87.1577 202.678 87.0213 203.2 86.7457 203.658C86.473 204.112 86.0909 204.47 85.5994 204.732C85.1108 204.99 84.5426 205.119 83.8949 205.119Z" fill="white"/>
<rect x="137" y="183" width="104" height="35" rx="8" fill="currentColor" fill-opacity="0.15"/>
<path d="M181.061 206.091V195.182H181.76V206.091H181.061ZM182.915 198.783C182.881 198.439 182.734 198.172 182.476 197.982C182.217 197.791 181.866 197.696 181.423 197.696C181.122 197.696 180.868 197.739 180.661 197.824C180.453 197.906 180.294 198.021 180.183 198.169C180.075 198.317 180.021 198.484 180.021 198.672C180.016 198.828 180.048 198.964 180.119 199.081C180.193 199.197 180.294 199.298 180.422 199.384C180.55 199.466 180.697 199.538 180.865 199.601C181.033 199.661 181.212 199.712 181.402 199.754L182.186 199.942C182.567 200.027 182.916 200.141 183.234 200.283C183.553 200.425 183.828 200.599 184.061 200.807C184.294 201.014 184.474 201.259 184.602 201.54C184.733 201.821 184.8 202.143 184.803 202.507C184.8 203.041 184.663 203.504 184.393 203.896C184.126 204.286 183.74 204.588 183.234 204.804C182.732 205.017 182.125 205.124 181.415 205.124C180.71 205.124 180.097 205.016 179.574 204.8C179.054 204.584 178.648 204.264 178.355 203.841C178.065 203.415 177.913 202.888 177.899 202.26H179.685C179.705 202.553 179.788 202.797 179.936 202.993C180.087 203.186 180.287 203.332 180.537 203.432C180.79 203.528 181.075 203.577 181.393 203.577C181.706 203.577 181.977 203.531 182.207 203.44C182.44 203.349 182.621 203.223 182.749 203.061C182.876 202.899 182.94 202.713 182.94 202.503C182.94 202.307 182.882 202.142 182.766 202.009C182.652 201.875 182.484 201.761 182.263 201.668C182.044 201.574 181.776 201.489 181.457 201.412L180.507 201.173C179.771 200.994 179.19 200.714 178.764 200.334C178.338 199.953 178.126 199.44 178.129 198.795C178.126 198.267 178.267 197.805 178.551 197.411C178.838 197.016 179.232 196.707 179.732 196.486C180.232 196.264 180.8 196.153 181.436 196.153C182.084 196.153 182.649 196.264 183.132 196.486C183.618 196.707 183.996 197.016 184.266 197.411C184.536 197.805 184.675 198.263 184.683 198.783H182.915ZM185.993 205V203.67L189.099 200.794C189.363 200.538 189.585 200.308 189.764 200.104C189.946 199.899 190.083 199.699 190.177 199.503C190.271 199.304 190.318 199.089 190.318 198.859C190.318 198.604 190.26 198.384 190.143 198.199C190.027 198.011 189.868 197.868 189.666 197.768C189.464 197.666 189.235 197.615 188.98 197.615C188.713 197.615 188.48 197.669 188.281 197.777C188.082 197.885 187.929 198.04 187.821 198.241C187.713 198.443 187.659 198.683 187.659 198.962H185.907C185.907 198.391 186.037 197.895 186.295 197.474C186.554 197.054 186.916 196.729 187.382 196.499C187.848 196.268 188.385 196.153 188.993 196.153C189.618 196.153 190.162 196.264 190.625 196.486C191.091 196.705 191.453 197.009 191.711 197.398C191.97 197.787 192.099 198.233 192.099 198.736C192.099 199.065 192.034 199.391 191.903 199.712C191.775 200.033 191.547 200.389 191.217 200.781C190.887 201.17 190.423 201.638 189.824 202.183L188.549 203.432V203.491H192.214V205H185.993ZM196.739 205.119C196.136 205.119 195.599 205.009 195.128 204.787C194.659 204.565 194.287 204.26 194.011 203.871C193.736 203.482 193.592 203.036 193.581 202.533H195.371C195.391 202.871 195.533 203.145 195.797 203.355C196.061 203.565 196.375 203.67 196.739 203.67C197.028 203.67 197.284 203.607 197.506 203.479C197.73 203.348 197.905 203.168 198.03 202.938C198.158 202.705 198.222 202.437 198.222 202.136C198.222 201.83 198.156 201.56 198.026 201.327C197.898 201.094 197.72 200.912 197.493 200.781C197.266 200.651 197.006 200.584 196.713 200.581C196.457 200.581 196.209 200.634 195.967 200.739C195.729 200.844 195.543 200.987 195.409 201.169L193.768 200.875L194.182 196.273H199.517V197.781H195.703L195.477 199.967H195.528C195.682 199.751 195.913 199.572 196.223 199.43C196.533 199.288 196.879 199.217 197.263 199.217C197.788 199.217 198.257 199.341 198.669 199.588C199.081 199.835 199.406 200.175 199.645 200.607C199.884 201.036 200.001 201.53 199.999 202.089C200.001 202.678 199.865 203.2 199.589 203.658C199.317 204.112 198.935 204.47 198.443 204.732C197.955 204.99 197.386 205.119 196.739 205.119Z" fill="currentColor"/>
<rect x="25" y="227" width="104" height="35" rx="8" fill="currentColor" fill-opacity="0.15"/>
<path d="M68.7095 250.091V239.182H69.4084V250.091H68.7095ZM70.5632 242.783C70.5291 242.439 70.3828 242.172 70.1243 241.982C69.8658 241.791 69.5149 241.696 69.0717 241.696C68.7706 241.696 68.5163 241.739 68.3089 241.824C68.1016 241.906 67.9425 242.021 67.8317 242.169C67.7237 242.317 67.6697 242.484 67.6697 242.672C67.6641 242.828 67.6967 242.964 67.7678 243.081C67.8416 243.197 67.9425 243.298 68.0703 243.384C68.1982 243.466 68.3459 243.538 68.5135 243.601C68.6811 243.661 68.8601 243.712 69.0504 243.754L69.8345 243.942C70.2152 244.027 70.5646 244.141 70.8828 244.283C71.201 244.425 71.4766 244.599 71.7095 244.807C71.9425 245.014 72.1229 245.259 72.2507 245.54C72.3814 245.821 72.4482 246.143 72.451 246.507C72.4482 247.041 72.3118 247.504 72.0419 247.896C71.7749 248.286 71.3885 248.588 70.8828 248.804C70.38 249.017 69.7734 249.124 69.0632 249.124C68.3587 249.124 67.745 249.016 67.2223 248.8C66.7024 248.584 66.2962 248.264 66.0036 247.841C65.7138 247.415 65.5618 246.888 65.5476 246.26H67.3331C67.353 246.553 67.4368 246.797 67.5845 246.993C67.7351 247.186 67.9354 247.332 68.1854 247.432C68.4382 247.528 68.7237 247.577 69.0419 247.577C69.3544 247.577 69.6257 247.531 69.8558 247.44C70.0888 247.349 70.2692 247.223 70.397 247.061C70.5249 246.899 70.5888 246.713 70.5888 246.503C70.5888 246.307 70.5305 246.142 70.4141 246.009C70.3004 245.875 70.1328 245.761 69.9112 245.668C69.6925 245.574 69.424 245.489 69.1058 245.412L68.1555 245.173C67.4197 244.994 66.8388 244.714 66.4126 244.334C65.9865 243.953 65.7749 243.44 65.7777 242.795C65.7749 242.267 65.9155 241.805 66.1996 241.411C66.4865 241.016 66.88 240.707 67.38 240.486C67.88 240.264 68.4482 240.153 69.0845 240.153C69.7322 240.153 70.2976 240.264 70.7805 240.486C71.2663 240.707 71.6442 241.016 71.9141 241.411C72.1839 241.805 72.3232 242.263 72.3317 242.783H70.5632ZM76.8285 249.119C76.2262 249.119 75.6893 249.009 75.2177 248.787C74.7489 248.565 74.3768 248.26 74.1012 247.871C73.8256 247.482 73.6822 247.036 73.6708 246.533H75.4606C75.4805 246.871 75.6225 247.145 75.8867 247.355C76.1509 247.565 76.4648 247.67 76.8285 247.67C77.1183 247.67 77.3739 247.607 77.5955 247.479C77.82 247.348 77.9947 247.168 78.1197 246.938C78.2475 246.705 78.3114 246.437 78.3114 246.136C78.3114 245.83 78.2461 245.56 78.1154 245.327C77.9876 245.094 77.81 244.912 77.5827 244.781C77.3555 244.651 77.0955 244.584 76.8029 244.581C76.5472 244.581 76.2987 244.634 76.0572 244.739C75.8185 244.844 75.6325 244.987 75.4989 245.169L73.8583 244.875L74.2717 240.273H79.6069V241.781H75.793L75.5671 243.967H75.6183C75.7717 243.751 76.0032 243.572 76.3129 243.43C76.6225 243.288 76.9691 243.217 77.3526 243.217C77.8782 243.217 78.3469 243.341 78.7589 243.588C79.1708 243.835 79.4961 244.175 79.7347 244.607C79.9734 245.036 80.0913 245.53 80.0884 246.089C80.0913 246.678 79.9549 247.2 79.6793 247.658C79.4066 248.112 79.0245 248.47 78.533 248.732C78.0444 248.99 77.4762 249.119 76.8285 249.119ZM84.7972 249.192C84.0643 249.189 83.4336 249.009 82.9052 248.651C82.3796 248.293 81.9748 247.774 81.6907 247.095C81.4094 246.416 81.2702 245.599 81.2731 244.645C81.2731 243.693 81.4137 242.882 81.695 242.212C81.979 241.541 82.3839 241.031 82.9094 240.682C83.4379 240.33 84.0671 240.153 84.7972 240.153C85.5273 240.153 86.1552 240.33 86.6808 240.682C87.2092 241.034 87.6154 241.545 87.8995 242.216C88.1836 242.884 88.3242 243.693 88.3214 244.645C88.3214 245.602 88.1793 246.42 87.8952 247.099C87.614 247.778 87.2106 248.297 86.685 248.655C86.1594 249.013 85.5302 249.192 84.7972 249.192ZM84.7972 247.662C85.2972 247.662 85.6964 247.411 85.9947 246.908C86.293 246.405 86.4407 245.651 86.4379 244.645C86.4379 243.983 86.3697 243.432 86.2333 242.991C86.0998 242.551 85.9094 242.22 85.6623 241.999C85.418 241.777 85.1296 241.666 84.7972 241.666C84.3001 241.666 83.9023 241.915 83.604 242.412C83.3058 242.909 83.1552 243.653 83.1523 244.645C83.1523 245.315 83.2191 245.875 83.3526 246.324C83.489 246.77 83.6808 247.105 83.9279 247.33C84.1751 247.551 84.4648 247.662 84.7972 247.662Z" fill="currentColor"/>
<rect x="137" y="227" width="104" height="35" rx="8" fill="currentColor" fill-opacity="0.15"/>
<path d="M177.51 250.091V239.182H178.209V250.091H177.51ZM179.364 242.783C179.33 242.439 179.184 242.172 178.925 241.982C178.667 241.791 178.316 241.696 177.873 241.696C177.571 241.696 177.317 241.739 177.11 241.824C176.902 241.906 176.743 242.021 176.632 242.169C176.525 242.317 176.471 242.484 176.471 242.672C176.465 242.828 176.498 242.964 176.569 243.081C176.642 243.197 176.743 243.298 176.871 243.384C176.999 243.466 177.147 243.538 177.314 243.601C177.482 243.661 177.661 243.712 177.851 243.754L178.635 243.942C179.016 244.027 179.365 244.141 179.684 244.283C180.002 244.425 180.277 244.599 180.51 244.807C180.743 245.014 180.924 245.259 181.051 245.54C181.182 245.821 181.249 246.143 181.252 246.507C181.249 247.041 181.113 247.504 180.843 247.896C180.576 248.286 180.189 248.588 179.684 248.804C179.181 249.017 178.574 249.124 177.864 249.124C177.159 249.124 176.546 249.016 176.023 248.8C175.503 248.584 175.097 248.264 174.804 247.841C174.515 247.415 174.363 246.888 174.348 246.26H176.134C176.154 246.553 176.238 246.797 176.385 246.993C176.536 247.186 176.736 247.332 176.986 247.432C177.239 247.528 177.525 247.577 177.843 247.577C178.155 247.577 178.426 247.531 178.657 247.44C178.89 247.349 179.07 247.223 179.198 247.061C179.326 246.899 179.39 246.713 179.39 246.503C179.39 246.307 179.331 246.142 179.215 246.009C179.101 245.875 178.934 245.761 178.712 245.668C178.493 245.574 178.225 245.489 177.907 245.412L176.956 245.173C176.221 244.994 175.64 244.714 175.213 244.334C174.787 243.953 174.576 243.44 174.578 242.795C174.576 242.267 174.716 241.805 175 241.411C175.287 241.016 175.681 240.707 176.181 240.486C176.681 240.264 177.249 240.153 177.885 240.153C178.533 240.153 179.098 240.264 179.581 240.486C180.067 240.707 180.445 241.016 180.715 241.411C180.985 241.805 181.124 242.263 181.132 242.783H179.364ZM186.239 240.273V249H184.393V242.024H184.342L182.344 243.277V241.641L184.504 240.273H186.239ZM191.735 249.192C191.002 249.189 190.371 249.009 189.843 248.651C189.317 248.293 188.912 247.774 188.628 247.095C188.347 246.416 188.208 245.599 188.211 244.645C188.211 243.693 188.351 242.882 188.632 242.212C188.917 241.541 189.321 241.031 189.847 240.682C190.375 240.33 191.005 240.153 191.735 240.153C192.465 240.153 193.093 240.33 193.618 240.682C194.147 241.034 194.553 241.545 194.837 242.216C195.121 242.884 195.262 243.693 195.259 244.645C195.259 245.602 195.117 246.42 194.833 247.099C194.551 247.778 194.148 248.297 193.623 248.655C193.097 249.013 192.468 249.192 191.735 249.192ZM191.735 247.662C192.235 247.662 192.634 247.411 192.932 246.908C193.23 246.405 193.378 245.651 193.375 244.645C193.375 243.983 193.307 243.432 193.171 242.991C193.037 242.551 192.847 242.22 192.6 241.999C192.355 241.777 192.067 241.666 191.735 241.666C191.238 241.666 190.84 241.915 190.542 242.412C190.243 242.909 190.093 243.653 190.09 244.645C190.09 245.315 190.157 245.875 190.29 246.324C190.426 246.77 190.618 247.105 190.865 247.33C191.113 247.551 191.402 247.662 191.735 247.662ZM199.996 249.192C199.263 249.189 198.633 249.009 198.104 248.651C197.579 248.293 197.174 247.774 196.89 247.095C196.609 246.416 196.469 245.599 196.472 244.645C196.472 243.693 196.613 242.882 196.894 242.212C197.178 241.541 197.583 241.031 198.109 240.682C198.637 240.33 199.266 240.153 199.996 240.153C200.727 240.153 201.354 240.33 201.88 240.682C202.408 241.034 202.815 241.545 203.099 242.216C203.383 242.884 203.523 243.693 203.521 244.645C203.521 245.602 203.379 246.42 203.094 247.099C202.813 247.778 202.41 248.297 201.884 248.655C201.359 249.013 200.729 249.192 199.996 249.192ZM199.996 247.662C200.496 247.662 200.896 247.411 201.194 246.908C201.492 246.405 201.64 245.651 201.637 244.645C201.637 243.983 201.569 243.432 201.433 242.991C201.299 242.551 201.109 242.22 200.862 241.999C200.617 241.777 200.329 241.666 199.996 241.666C199.499 241.666 199.102 241.915 198.803 242.412C198.505 242.909 198.354 243.653 198.352 244.645C198.352 245.315 198.418 245.875 198.552 246.324C198.688 246.77 198.88 247.105 199.127 247.33C199.374 247.551 199.664 247.662 199.996 247.662Z" fill="currentColor"/>
<rect x="25" y="271" width="104" height="35" rx="8" fill="currentColor" fill-opacity="0.15"/>
<path d="M64.9302 294.091V283.182H65.6291V294.091H64.9302ZM66.7839 286.783C66.7498 286.439 66.6035 286.172 66.345 285.982C66.0865 285.791 65.7356 285.696 65.2924 285.696C64.9913 285.696 64.737 285.739 64.5297 285.824C64.3223 285.906 64.1632 286.021 64.0524 286.169C63.9444 286.317 63.8904 286.484 63.8904 286.672C63.8848 286.828 63.9174 286.964 63.9885 287.081C64.0623 287.197 64.1632 287.298 64.291 287.384C64.4189 287.466 64.5666 287.538 64.7342 287.601C64.9018 287.661 65.0808 287.712 65.2711 287.754L66.0552 287.942C66.4359 288.027 66.7853 288.141 67.1035 288.283C67.4217 288.425 67.6973 288.599 67.9302 288.807C68.1632 289.014 68.3436 289.259 68.4714 289.54C68.6021 289.821 68.6689 290.143 68.6717 290.507C68.6689 291.041 68.5325 291.504 68.2626 291.896C67.9956 292.286 67.6092 292.588 67.1035 292.804C66.6007 293.017 65.9941 293.124 65.2839 293.124C64.5794 293.124 63.9657 293.016 63.443 292.8C62.9231 292.584 62.5169 292.264 62.2243 291.841C61.9345 291.415 61.7825 290.888 61.7683 290.26H63.5538C63.5737 290.553 63.6575 290.797 63.8052 290.993C63.9558 291.186 64.1561 291.332 64.4061 291.432C64.6589 291.528 64.9444 291.577 65.2626 291.577C65.5751 291.577 65.8464 291.531 66.0765 291.44C66.3095 291.349 66.4899 291.223 66.6177 291.061C66.7456 290.899 66.8095 290.713 66.8095 290.503C66.8095 290.307 66.7512 290.142 66.6348 290.009C66.5211 289.875 66.3535 289.761 66.1319 289.668C65.9132 289.574 65.6447 289.489 65.3265 289.412L64.3762 289.173C63.6404 288.994 63.0595 288.714 62.6333 288.334C62.2072 287.953 61.9956 287.44 61.9984 286.795C61.9956 286.267 62.1362 285.805 62.4203 285.411C62.7072 285.016 63.1007 284.707 63.6007 284.486C64.1007 284.264 64.6689 284.153 65.3052 284.153C65.9529 284.153 66.5183 284.264 67.0012 284.486C67.487 284.707 67.8649 285.016 68.1348 285.411C68.4047 285.805 68.5439 286.263 68.5524 286.783H66.7839ZM69.8617 293V291.67L72.9682 288.794C73.2324 288.538 73.454 288.308 73.633 288.104C73.8148 287.899 73.9526 287.699 74.0463 287.503C74.1401 287.304 74.187 287.089 74.187 286.859C74.187 286.604 74.1287 286.384 74.0123 286.199C73.8958 286.011 73.7367 285.868 73.535 285.768C73.3333 285.666 73.1046 285.615 72.8489 285.615C72.5819 285.615 72.3489 285.669 72.15 285.777C71.9512 285.885 71.7978 286.04 71.6898 286.241C71.5819 286.443 71.5279 286.683 71.5279 286.962H69.7765C69.7765 286.391 69.9057 285.895 70.1642 285.474C70.4228 285.054 70.785 284.729 71.2509 284.499C71.7168 284.268 72.2537 284.153 72.8617 284.153C73.4867 284.153 74.0307 284.264 74.4938 284.486C74.9597 284.705 75.3219 285.009 75.5804 285.398C75.839 285.787 75.9682 286.233 75.9682 286.736C75.9682 287.065 75.9029 287.391 75.7722 287.712C75.6444 288.033 75.4157 288.389 75.0861 288.781C74.7566 289.17 74.2921 289.638 73.6926 290.183L72.4185 291.432V291.491H76.0833V293H69.8617ZM80.6078 293.119C80.0055 293.119 79.4686 293.009 78.997 292.787C78.5282 292.565 78.1561 292.26 77.8805 291.871C77.6049 291.482 77.4615 291.036 77.4501 290.533H79.2399C79.2598 290.871 79.4018 291.145 79.666 291.355C79.9302 291.565 80.2441 291.67 80.6078 291.67C80.8975 291.67 81.1532 291.607 81.3748 291.479C81.5993 291.348 81.774 291.168 81.899 290.938C82.0268 290.705 82.0907 290.437 82.0907 290.136C82.0907 289.83 82.0254 289.56 81.8947 289.327C81.7669 289.094 81.5893 288.912 81.362 288.781C81.1348 288.651 80.8748 288.584 80.5822 288.581C80.3265 288.581 80.0779 288.634 79.8365 288.739C79.5978 288.844 79.4118 288.987 79.2782 289.169L77.6376 288.875L78.051 284.273H83.3862V285.781H79.5723L79.3464 287.967H79.3975C79.551 287.751 79.7825 287.572 80.0922 287.43C80.4018 287.288 80.7484 287.217 81.1319 287.217C81.6575 287.217 82.1262 287.341 82.5382 287.588C82.9501 287.835 83.2754 288.175 83.514 288.607C83.7527 289.036 83.8706 289.53 83.8677 290.089C83.8706 290.678 83.7342 291.2 83.4586 291.658C83.1859 292.112 82.8038 292.47 82.3123 292.732C81.8237 292.99 81.2555 293.119 80.6078 293.119ZM88.5765 293.192C87.8436 293.189 87.2129 293.009 86.6845 292.651C86.1589 292.293 85.7541 291.774 85.47 291.095C85.1887 290.416 85.0495 289.599 85.0524 288.645C85.0524 287.693 85.193 286.882 85.4743 286.212C85.7583 285.541 86.1632 285.031 86.6887 284.682C87.2172 284.33 87.8464 284.153 88.5765 284.153C89.3066 284.153 89.9345 284.33 90.4601 284.682C90.9885 285.034 91.3947 285.545 91.6788 286.216C91.9629 286.884 92.1035 287.693 92.1007 288.645C92.1007 289.602 91.9586 290.42 91.6745 291.099C91.3933 291.778 90.9899 292.297 90.4643 292.655C89.9387 293.013 89.3095 293.192 88.5765 293.192ZM88.5765 291.662C89.0765 291.662 89.4757 291.411 89.774 290.908C90.0723 290.405 90.22 289.651 90.2172 288.645C90.2172 287.983 90.149 287.432 90.0126 286.991C89.8791 286.551 89.6887 286.22 89.4416 285.999C89.1973 285.777 88.9089 285.666 88.5765 285.666C88.0794 285.666 87.6816 285.915 87.3833 286.412C87.085 286.909 86.9345 287.653 86.9316 288.645C86.9316 289.315 86.9984 289.875 87.1319 290.324C87.2683 290.77 87.46 291.105 87.7072 291.33C87.9544 291.551 88.2441 291.662 88.5765 291.662Z" fill="currentColor"/>
<rect x="137" y="271" width="104" height="35" rx="8" fill="currentColor" fill-opacity="0.15"/>
<path d="M180.898 288.636C180.898 289.588 180.717 290.398 180.356 291.065C179.998 291.733 179.51 292.243 178.89 292.595C178.274 292.945 177.581 293.119 176.811 293.119C176.035 293.119 175.339 292.943 174.723 292.591C174.106 292.239 173.619 291.729 173.261 291.061C172.903 290.393 172.724 289.585 172.724 288.636C172.724 287.685 172.903 286.875 173.261 286.207C173.619 285.54 174.106 285.031 174.723 284.682C175.339 284.33 176.035 284.153 176.811 284.153C177.581 284.153 178.274 284.33 178.89 284.682C179.51 285.031 179.998 285.54 180.356 286.207C180.717 286.875 180.898 287.685 180.898 288.636ZM179.027 288.636C179.027 288.02 178.934 287.5 178.75 287.077C178.568 286.653 178.311 286.332 177.979 286.114C177.646 285.895 177.257 285.786 176.811 285.786C176.365 285.786 175.976 285.895 175.643 286.114C175.311 286.332 175.052 286.653 174.868 287.077C174.686 287.5 174.595 288.02 174.595 288.636C174.595 289.253 174.686 289.773 174.868 290.196C175.052 290.619 175.311 290.94 175.643 291.159C175.976 291.378 176.365 291.487 176.811 291.487C177.257 291.487 177.646 291.378 177.979 291.159C178.311 290.94 178.568 290.619 178.75 290.196C178.934 289.773 179.027 289.253 179.027 288.636ZM185.712 286.455V287.818H181.77V286.455H185.712ZM182.665 284.886H184.48V290.989C184.48 291.156 184.506 291.287 184.557 291.381C184.608 291.472 184.679 291.536 184.77 291.572C184.864 291.609 184.972 291.628 185.094 291.628C185.179 291.628 185.264 291.621 185.35 291.607C185.435 291.589 185.5 291.577 185.546 291.568L185.831 292.919C185.74 292.947 185.612 292.98 185.448 293.017C185.283 293.057 185.083 293.081 184.847 293.089C184.409 293.107 184.026 293.048 183.696 292.915C183.369 292.781 183.115 292.574 182.933 292.293C182.752 292.011 182.662 291.656 182.665 291.227V284.886ZM188.85 289.216V293H187.035V284.273H188.799V287.609H188.876C189.024 287.223 189.262 286.92 189.592 286.702C189.921 286.48 190.335 286.369 190.832 286.369C191.286 286.369 191.683 286.469 192.021 286.668C192.362 286.864 192.626 287.146 192.813 287.516C193.004 287.882 193.097 288.321 193.095 288.832V293H191.279V289.156C191.282 288.753 191.18 288.439 190.972 288.214C190.768 287.99 190.481 287.878 190.112 287.878C189.865 287.878 189.646 287.93 189.455 288.036C189.268 288.141 189.12 288.294 189.012 288.496C188.907 288.695 188.853 288.935 188.85 289.216ZM197.506 293.128C196.833 293.128 196.253 292.991 195.768 292.719C195.285 292.443 194.912 292.054 194.651 291.551C194.39 291.045 194.259 290.447 194.259 289.757C194.259 289.084 194.39 288.493 194.651 287.984C194.912 287.476 195.28 287.08 195.755 286.795C196.232 286.511 196.792 286.369 197.434 286.369C197.866 286.369 198.268 286.439 198.64 286.578C199.015 286.714 199.341 286.92 199.62 287.196C199.901 287.472 200.12 287.818 200.276 288.236C200.432 288.651 200.51 289.136 200.51 289.693V290.192H194.983V289.067H198.802C198.802 288.805 198.745 288.574 198.631 288.372C198.518 288.17 198.36 288.013 198.158 287.899C197.959 287.783 197.728 287.724 197.464 287.724C197.188 287.724 196.944 287.788 196.731 287.916C196.52 288.041 196.356 288.21 196.236 288.423C196.117 288.634 196.056 288.868 196.053 289.126V290.196C196.053 290.52 196.113 290.8 196.232 291.036C196.354 291.271 196.526 291.453 196.748 291.581C196.969 291.709 197.232 291.773 197.536 291.773C197.738 291.773 197.922 291.744 198.09 291.688C198.258 291.631 198.401 291.545 198.52 291.432C198.64 291.318 198.731 291.179 198.793 291.014L200.472 291.125C200.387 291.528 200.212 291.881 199.948 292.182C199.687 292.48 199.349 292.713 198.934 292.881C198.522 293.045 198.046 293.128 197.506 293.128ZM201.695 293V286.455H203.455V287.597H203.523C203.643 287.19 203.843 286.884 204.124 286.676C204.405 286.466 204.729 286.361 205.096 286.361C205.187 286.361 205.285 286.366 205.39 286.378C205.495 286.389 205.587 286.405 205.667 286.425V288.036C205.581 288.01 205.464 287.987 205.313 287.967C205.162 287.947 205.025 287.938 204.9 287.938C204.633 287.938 204.394 287.996 204.184 288.112C203.976 288.226 203.812 288.385 203.689 288.589C203.57 288.794 203.51 289.03 203.51 289.297V293H201.695Z" fill="currentColor"/>
<path d="M69.8353 341H68.324L70.2871 335.182H72.1592L74.1223 341H72.6109L71.2444 336.648H71.199L69.8353 341ZM69.6336 338.71H72.7927V339.778H69.6336V338.71ZM76.4817 340.159V336.045H77.6265V340.159H76.4817ZM74.9959 338.676V337.528H79.1095V338.676H74.9959ZM81.9362 336.196V335.182H86.7146V336.196H84.9334V341H83.7174V336.196H81.9362ZM87.5015 341V335.182H89.797C90.2364 335.182 90.6114 335.26 90.922 335.418C91.2345 335.573 91.4722 335.794 91.6351 336.08C91.7998 336.364 91.8822 336.698 91.8822 337.082C91.8822 337.469 91.7989 337.801 91.6322 338.08C91.4656 338.356 91.2241 338.568 90.9078 338.716C90.5934 338.864 90.2127 338.938 89.7657 338.938H88.2288V337.949H89.5669C89.8017 337.949 89.9968 337.917 90.1521 337.852C90.3074 337.788 90.4229 337.691 90.4987 337.562C90.5763 337.434 90.6152 337.274 90.6152 337.082C90.6152 336.889 90.5763 336.726 90.4987 336.594C90.4229 336.461 90.3065 336.361 90.1493 336.293C89.994 336.223 89.7979 336.188 89.5612 336.188H88.7317V341H87.5015ZM90.6436 338.352L92.0896 341H90.7317L89.3169 338.352H90.6436ZM93.7544 341H92.4362L94.4447 335.182H96.0299L98.0356 341H96.7174L95.2601 336.511H95.2146L93.7544 341ZM93.672 338.713H96.7856V339.673H93.672V338.713ZM103.602 335.182V341H102.54L100.009 337.338H99.966V341H98.7359V335.182H99.8155L102.327 338.841H102.378V335.182H103.602ZM107.775 336.855C107.752 336.626 107.655 336.448 107.482 336.321C107.31 336.194 107.076 336.131 106.781 336.131C106.58 336.131 106.41 336.159 106.272 336.216C106.134 336.271 106.028 336.348 105.954 336.446C105.882 336.545 105.846 336.656 105.846 336.781C105.842 336.885 105.864 336.976 105.911 337.054C105.961 337.132 106.028 337.199 106.113 337.256C106.198 337.311 106.297 337.359 106.408 337.401C106.52 337.44 106.64 337.474 106.766 337.503L107.289 337.628C107.543 337.685 107.776 337.76 107.988 337.855C108.2 337.95 108.384 338.066 108.539 338.205C108.694 338.343 108.815 338.506 108.9 338.693C108.987 338.881 109.032 339.096 109.033 339.338C109.032 339.694 108.941 340.003 108.761 340.264C108.583 340.524 108.325 340.725 107.988 340.869C107.653 341.011 107.248 341.082 106.775 341.082C106.305 341.082 105.896 341.01 105.548 340.866C105.201 340.723 104.93 340.509 104.735 340.227C104.542 339.943 104.441 339.592 104.431 339.173H105.622C105.635 339.368 105.691 339.531 105.789 339.662C105.89 339.791 106.023 339.888 106.19 339.955C106.358 340.019 106.549 340.051 106.761 340.051C106.969 340.051 107.15 340.021 107.303 339.96C107.459 339.9 107.579 339.815 107.664 339.707C107.749 339.599 107.792 339.475 107.792 339.335C107.792 339.205 107.753 339.095 107.676 339.006C107.6 338.917 107.488 338.841 107.34 338.778C107.194 338.716 107.016 338.659 106.803 338.608L106.17 338.449C105.679 338.33 105.292 338.143 105.008 337.889C104.724 337.635 104.583 337.294 104.585 336.864C104.583 336.511 104.676 336.204 104.866 335.94C105.057 335.677 105.319 335.472 105.653 335.324C105.986 335.176 106.365 335.102 106.789 335.102C107.221 335.102 107.598 335.176 107.92 335.324C108.244 335.472 108.496 335.677 108.676 335.94C108.855 336.204 108.948 336.509 108.954 336.855H107.775ZM109.861 341V335.182H112.156C112.598 335.182 112.974 335.266 113.284 335.435C113.595 335.601 113.832 335.833 113.994 336.131C114.159 336.426 114.242 336.767 114.242 337.153C114.242 337.54 114.158 337.881 113.992 338.176C113.825 338.472 113.583 338.702 113.267 338.866C112.953 339.031 112.572 339.114 112.125 339.114H110.662V338.128H111.926C112.163 338.128 112.358 338.087 112.511 338.006C112.667 337.922 112.782 337.808 112.858 337.662C112.936 337.514 112.975 337.345 112.975 337.153C112.975 336.96 112.936 336.792 112.858 336.648C112.782 336.502 112.667 336.389 112.511 336.31C112.356 336.228 112.159 336.188 111.921 336.188H111.091V341H109.861ZM115.372 341H114.053L116.062 335.182H117.647L119.653 341H118.335L116.877 336.511H116.832L115.372 341ZM115.289 338.713H118.403V339.673H115.289V338.713ZM120.353 341V335.182H122.649C123.088 335.182 123.463 335.26 123.774 335.418C124.086 335.573 124.324 335.794 124.487 336.08C124.651 336.364 124.734 336.698 124.734 337.082C124.734 337.469 124.65 337.801 124.484 338.08C124.317 338.356 124.076 338.568 123.759 338.716C123.445 338.864 123.064 338.938 122.617 338.938H121.08V337.949H122.418C122.653 337.949 122.848 337.917 123.004 337.852C123.159 337.788 123.275 337.691 123.35 337.562C123.428 337.434 123.467 337.274 123.467 337.082C123.467 336.889 123.428 336.726 123.35 336.594C123.275 336.461 123.158 336.361 123.001 336.293C122.846 336.223 122.65 336.188 122.413 336.188H121.583V341H120.353ZM123.495 338.352L124.941 341H123.583L122.168 338.352H123.495ZM125.603 341V335.182H129.524V336.196H126.833V337.582H129.322V338.597H126.833V339.986H129.535V341H125.603ZM135.368 335.182V341H134.306L131.774 337.338H131.732V341H130.502V335.182H131.581L134.092 338.841H134.144V335.182H135.368ZM141.518 337.219H140.274C140.251 337.058 140.204 336.915 140.134 336.79C140.064 336.663 139.974 336.555 139.864 336.466C139.755 336.377 139.628 336.309 139.484 336.261C139.342 336.214 139.187 336.19 139.021 336.19C138.72 336.19 138.457 336.265 138.234 336.415C138.01 336.562 137.837 336.778 137.714 337.062C137.591 337.345 137.529 337.687 137.529 338.091C137.529 338.506 137.591 338.854 137.714 339.136C137.839 339.419 138.013 339.632 138.237 339.776C138.46 339.92 138.719 339.991 139.012 339.991C139.177 339.991 139.329 339.97 139.47 339.926C139.612 339.883 139.738 339.819 139.847 339.736C139.957 339.651 140.048 339.547 140.12 339.426C140.194 339.305 140.245 339.167 140.274 339.011L141.518 339.017C141.486 339.284 141.405 339.542 141.276 339.79C141.15 340.036 140.978 340.257 140.762 340.452C140.548 340.645 140.292 340.798 139.995 340.912C139.7 341.024 139.365 341.08 138.992 341.08C138.473 341.08 138.009 340.962 137.6 340.727C137.193 340.492 136.871 340.152 136.634 339.707C136.4 339.262 136.282 338.723 136.282 338.091C136.282 337.456 136.401 336.917 136.64 336.472C136.879 336.027 137.203 335.687 137.612 335.455C138.021 335.22 138.481 335.102 138.992 335.102C139.329 335.102 139.642 335.15 139.93 335.244C140.22 335.339 140.476 335.477 140.7 335.659C140.923 335.839 141.105 336.06 141.245 336.321C141.387 336.582 141.478 336.882 141.518 337.219ZM142.059 335.182H143.437L144.764 337.688H144.82L146.147 335.182H147.525L145.403 338.943V341H144.181V338.943L142.059 335.182ZM150.048 341V335.182H152.344C152.785 335.182 153.161 335.266 153.472 335.435C153.782 335.601 154.019 335.833 154.182 336.131C154.347 336.426 154.429 336.767 154.429 337.153C154.429 337.54 154.346 337.881 154.179 338.176C154.012 338.472 153.771 338.702 153.455 338.866C153.14 339.031 152.76 339.114 152.313 339.114H150.85V338.128H152.114C152.35 338.128 152.546 338.087 152.699 338.006C152.854 337.922 152.97 337.808 153.046 337.662C153.123 337.514 153.162 337.345 153.162 337.153C153.162 336.96 153.123 336.792 153.046 336.648C152.97 336.502 152.854 336.389 152.699 336.31C152.544 336.228 152.347 336.188 152.108 336.188H151.279V341H150.048ZM155.228 341V335.182H157.524C157.963 335.182 158.338 335.26 158.649 335.418C158.961 335.573 159.199 335.794 159.362 336.08C159.526 336.364 159.609 336.698 159.609 337.082C159.609 337.469 159.525 337.801 159.359 338.08C159.192 338.356 158.951 338.568 158.634 338.716C158.32 338.864 157.939 338.938 157.492 338.938H155.955V337.949H157.293C157.528 337.949 157.723 337.917 157.879 337.852C158.034 337.788 158.149 337.691 158.225 337.562C158.303 337.434 158.342 337.274 158.342 337.082C158.342 336.889 158.303 336.726 158.225 336.594C158.149 336.461 158.033 336.361 157.876 336.293C157.721 336.223 157.524 336.188 157.288 336.188H156.458V341H155.228ZM158.37 338.352L159.816 341H158.458L157.043 338.352H158.37ZM165.825 338.091C165.825 338.725 165.704 339.265 165.464 339.71C165.225 340.155 164.899 340.495 164.487 340.73C164.076 340.963 163.614 341.08 163.1 341.08C162.583 341.08 162.119 340.962 161.708 340.727C161.297 340.492 160.972 340.152 160.734 339.707C160.495 339.262 160.376 338.723 160.376 338.091C160.376 337.456 160.495 336.917 160.734 336.472C160.972 336.027 161.297 335.687 161.708 335.455C162.119 335.22 162.583 335.102 163.1 335.102C163.614 335.102 164.076 335.22 164.487 335.455C164.899 335.687 165.225 336.027 165.464 336.472C165.704 336.917 165.825 337.456 165.825 338.091ZM164.578 338.091C164.578 337.68 164.516 337.333 164.393 337.051C164.272 336.769 164.1 336.555 163.879 336.409C163.657 336.263 163.398 336.19 163.1 336.19C162.803 336.19 162.543 336.263 162.322 336.409C162.1 336.555 161.928 336.769 161.805 337.051C161.684 337.333 161.623 337.68 161.623 338.091C161.623 338.502 161.684 338.848 161.805 339.131C161.928 339.413 162.1 339.627 162.322 339.773C162.543 339.919 162.803 339.991 163.1 339.991C163.398 339.991 163.657 339.919 163.879 339.773C164.1 339.627 164.272 339.413 164.393 339.131C164.516 338.848 164.578 338.502 164.578 338.091ZM166.736 335.182H168.253L169.855 339.091H169.923L171.526 335.182H173.043V341H171.85V337.213H171.801L170.296 340.972H169.483L167.977 337.199H167.929V341H166.736V335.182ZM175.286 335.182V341H174.056V335.182H175.286ZM179.455 336.855C179.432 336.626 179.334 336.448 179.162 336.321C178.99 336.194 178.756 336.131 178.46 336.131C178.26 336.131 178.09 336.159 177.952 336.216C177.814 336.271 177.707 336.348 177.634 336.446C177.562 336.545 177.526 336.656 177.526 336.781C177.522 336.885 177.544 336.976 177.591 337.054C177.64 337.132 177.707 337.199 177.793 337.256C177.878 337.311 177.976 337.359 178.088 337.401C178.2 337.44 178.319 337.474 178.446 337.503L178.969 337.628C179.223 337.685 179.456 337.76 179.668 337.855C179.88 337.95 180.064 338.066 180.219 338.205C180.374 338.343 180.494 338.506 180.58 338.693C180.667 338.881 180.711 339.096 180.713 339.338C180.711 339.694 180.62 340.003 180.44 340.264C180.262 340.524 180.005 340.725 179.668 340.869C179.332 341.011 178.928 341.082 178.455 341.082C177.985 341.082 177.576 341.01 177.227 340.866C176.881 340.723 176.61 340.509 176.415 340.227C176.222 339.943 176.12 339.592 176.111 339.173H177.301C177.315 339.368 177.37 339.531 177.469 339.662C177.569 339.791 177.703 339.888 177.869 339.955C178.038 340.019 178.228 340.051 178.44 340.051C178.649 340.051 178.83 340.021 178.983 339.96C179.138 339.9 179.259 339.815 179.344 339.707C179.429 339.599 179.472 339.475 179.472 339.335C179.472 339.205 179.433 339.095 179.355 339.006C179.279 338.917 179.168 338.841 179.02 338.778C178.874 338.716 178.695 338.659 178.483 338.608L177.85 338.449C177.359 338.33 176.972 338.143 176.688 337.889C176.404 337.635 176.262 337.294 176.264 336.864C176.262 336.511 176.356 336.204 176.546 335.94C176.737 335.677 176.999 335.472 177.332 335.324C177.666 335.176 178.045 335.102 178.469 335.102C178.901 335.102 179.278 335.176 179.6 335.324C179.923 335.472 180.175 335.677 180.355 335.94C180.535 336.204 180.628 336.509 180.634 336.855H179.455ZM181.541 341V335.182H185.461V336.196H182.771V337.582H185.259V338.597H182.771V339.986H185.472V341H181.541ZM191.876 341.091L188.955 338.17C188.722 337.938 188.567 337.667 188.489 337.358C188.414 337.049 188.415 336.742 188.492 336.438C188.57 336.131 188.724 335.864 188.955 335.636C189.192 335.403 189.462 335.249 189.765 335.173C190.07 335.096 190.374 335.096 190.677 335.173C190.982 335.251 191.253 335.405 191.489 335.636L191.876 336.011L192.262 335.636C192.501 335.405 192.772 335.251 193.075 335.173C193.378 335.096 193.681 335.096 193.984 335.173C194.289 335.249 194.56 335.403 194.796 335.636C195.027 335.864 195.182 336.131 195.259 336.438C195.337 336.742 195.337 337.049 195.259 337.358C195.184 337.667 195.029 337.938 194.796 338.17L191.876 341.091Z" fill="#BDBDBD"/>
<path fill-rule="evenodd" clip-rule="evenodd" d="M62 337.498H32C27.5817 337.498 24 341.08 24 345.498V382C24 386.418 27.5817 390 32 390H232C236.418 390 240 386.418 240 382V345.498C240 341.08 236.418 337.498 232 337.498H202V338.498H232C235.866 338.498 239 341.632 239 345.498V382C239 385.866 235.866 389 232 389H32C28.134 389 25 385.866 25 382V345.498C25 341.632 28.134 338.498 32 338.498H62V337.498Z" fill="#BDBDBD"/>
<rect x="53" y="352" width="158" height="12" rx="3" fill="#E0E0E0"/>
<rect x="70" y="368" width="124.985" height="12" rx="3" fill="#E0E0E0"/>
<rect x="24" y="401" width="216" height="36" rx="8" fill="currentColor"/>
<path d="M112.687 424H109.237V413.818H112.757C113.767 413.818 114.636 414.022 115.362 414.43C116.091 414.834 116.651 415.416 117.042 416.175C117.433 416.934 117.629 417.842 117.629 418.899C117.629 419.96 117.432 420.871 117.037 421.634C116.646 422.396 116.081 422.981 115.342 423.388C114.606 423.796 113.721 424 112.687 424ZM111.081 422.404H112.597C113.307 422.404 113.898 422.275 114.372 422.016C114.846 421.754 115.203 421.365 115.441 420.848C115.68 420.328 115.799 419.678 115.799 418.899C115.799 418.12 115.68 417.474 115.441 416.96C115.203 416.443 114.85 416.057 114.382 415.802C113.918 415.543 113.342 415.414 112.652 415.414H111.081V422.404ZM122.633 424.149C121.887 424.149 121.241 423.985 120.694 423.657C120.147 423.329 119.723 422.87 119.421 422.28C119.123 421.69 118.974 421 118.974 420.212C118.974 419.423 119.123 418.732 119.421 418.138C119.723 417.545 120.147 417.085 120.694 416.756C121.241 416.428 121.887 416.264 122.633 416.264C123.378 416.264 124.025 416.428 124.572 416.756C125.118 417.085 125.541 417.545 125.839 418.138C126.141 418.732 126.292 419.423 126.292 420.212C126.292 421 126.141 421.69 125.839 422.28C125.541 422.87 125.118 423.329 124.572 423.657C124.025 423.985 123.378 424.149 122.633 424.149ZM122.643 422.707C123.047 422.707 123.385 422.596 123.657 422.374C123.929 422.149 124.131 421.847 124.263 421.469C124.399 421.092 124.467 420.671 124.467 420.207C124.467 419.739 124.399 419.317 124.263 418.939C124.131 418.558 123.929 418.254 123.657 418.029C123.385 417.804 123.047 417.691 122.643 417.691C122.228 417.691 121.884 417.804 121.608 418.029C121.337 418.254 121.133 418.558 120.997 418.939C120.864 419.317 120.798 419.739 120.798 420.207C120.798 420.671 120.864 421.092 120.997 421.469C121.133 421.847 121.337 422.149 121.608 422.374C121.884 422.596 122.228 422.707 122.643 422.707ZM129.619 419.526V424H127.819V416.364H129.539V417.661H129.629C129.805 417.234 130.085 416.894 130.469 416.642C130.857 416.39 131.336 416.264 131.906 416.264C132.433 416.264 132.892 416.377 133.283 416.602C133.677 416.828 133.982 417.154 134.198 417.582C134.417 418.009 134.524 418.528 134.521 419.138V424H132.721V419.416C132.721 418.906 132.589 418.506 132.324 418.218C132.062 417.93 131.699 417.786 131.235 417.786C130.92 417.786 130.64 417.855 130.395 417.994C130.153 418.13 129.962 418.327 129.823 418.586C129.687 418.844 129.619 419.158 129.619 419.526ZM138.548 424.154C138.064 424.154 137.628 424.068 137.24 423.896C136.856 423.72 136.551 423.461 136.326 423.12C136.104 422.779 135.993 422.358 135.993 421.857C135.993 421.426 136.072 421.07 136.231 420.788C136.39 420.507 136.607 420.281 136.882 420.112C137.158 419.943 137.467 419.816 137.812 419.729C138.16 419.64 138.52 419.575 138.891 419.536C139.338 419.489 139.701 419.448 139.98 419.411C140.258 419.371 140.46 419.312 140.586 419.232C140.716 419.149 140.78 419.022 140.78 418.849V418.82C140.78 418.445 140.669 418.155 140.447 417.95C140.225 417.744 139.905 417.641 139.488 417.641C139.047 417.641 138.697 417.737 138.439 417.93C138.183 418.122 138.011 418.349 137.922 418.611L136.241 418.372C136.374 417.908 136.592 417.52 136.897 417.209C137.202 416.894 137.575 416.659 138.016 416.503C138.457 416.344 138.944 416.264 139.478 416.264C139.846 416.264 140.212 416.307 140.576 416.393C140.941 416.48 141.274 416.622 141.576 416.821C141.877 417.017 142.119 417.283 142.301 417.621C142.487 417.96 142.58 418.382 142.58 418.889V424H140.85V422.951H140.79C140.681 423.163 140.527 423.362 140.328 423.548C140.132 423.73 139.885 423.877 139.587 423.99C139.292 424.099 138.946 424.154 138.548 424.154ZM139.015 422.832C139.377 422.832 139.69 422.76 139.955 422.618C140.22 422.472 140.424 422.28 140.566 422.041C140.712 421.803 140.785 421.542 140.785 421.261V420.361C140.729 420.407 140.633 420.45 140.497 420.49C140.364 420.53 140.215 420.565 140.049 420.594C139.884 420.624 139.72 420.651 139.557 420.674C139.395 420.697 139.254 420.717 139.135 420.734C138.866 420.77 138.626 420.83 138.414 420.913C138.202 420.996 138.034 421.112 137.912 421.261C137.789 421.406 137.728 421.595 137.728 421.827C137.728 422.159 137.849 422.409 138.091 422.578C138.333 422.747 138.641 422.832 139.015 422.832ZM148.203 416.364V417.756H143.813V416.364H148.203ZM144.897 414.534H146.696V421.703C146.696 421.945 146.733 422.131 146.806 422.26C146.882 422.386 146.981 422.472 147.104 422.518C147.227 422.565 147.363 422.588 147.512 422.588C147.624 422.588 147.727 422.58 147.82 422.563C147.916 422.547 147.989 422.532 148.039 422.518L148.342 423.925C148.246 423.959 148.108 423.995 147.929 424.035C147.754 424.075 147.538 424.098 147.283 424.104C146.832 424.118 146.426 424.05 146.065 423.901C145.704 423.748 145.417 423.513 145.205 423.195C144.996 422.876 144.893 422.479 144.897 422.001V414.534ZM153.007 424.149C152.241 424.149 151.58 423.99 151.023 423.672C150.469 423.35 150.044 422.896 149.745 422.31C149.447 421.72 149.298 421.025 149.298 420.227C149.298 419.441 149.447 418.752 149.745 418.158C150.047 417.562 150.468 417.098 151.008 416.766C151.548 416.432 152.183 416.264 152.912 416.264C153.383 416.264 153.827 416.34 154.244 416.493C154.665 416.642 155.037 416.874 155.358 417.189C155.683 417.504 155.938 417.905 156.124 418.392C156.309 418.876 156.402 419.453 156.402 420.122V420.674H150.143V419.461H154.677C154.674 419.116 154.599 418.81 154.453 418.541C154.307 418.269 154.104 418.056 153.842 417.9C153.583 417.744 153.282 417.666 152.937 417.666C152.569 417.666 152.246 417.756 151.968 417.935C151.689 418.11 151.472 418.342 151.316 418.631C151.164 418.916 151.086 419.229 151.083 419.57V420.629C151.083 421.073 151.164 421.455 151.326 421.773C151.489 422.088 151.716 422.33 152.007 422.499C152.299 422.664 152.64 422.747 153.031 422.747C153.293 422.747 153.53 422.711 153.742 422.638C153.954 422.562 154.138 422.451 154.294 422.305C154.45 422.159 154.568 421.978 154.647 421.763L156.328 421.952C156.222 422.396 156.019 422.784 155.721 423.115C155.426 423.443 155.048 423.698 154.588 423.881C154.127 424.06 153.6 424.149 153.007 424.149Z" fill="white"/>
<path d="M30.9283 448.455H31.919V452.76C31.919 453.218 31.8114 453.624 31.5962 453.977C31.381 454.329 31.0785 454.606 30.6886 454.808C30.2987 455.009 29.8416 455.109 29.3175 455.109C28.7955 455.109 28.3395 455.009 27.9496 454.808C27.5597 454.606 27.2571 454.329 27.0419 453.977C26.8267 453.624 26.7191 453.218 26.7191 452.76V448.455H27.7067V452.68C27.7067 452.976 27.7717 453.239 27.9016 453.469C28.0337 453.699 28.2202 453.88 28.4609 454.012C28.7017 454.142 28.9872 454.207 29.3175 454.207C29.6499 454.207 29.9364 454.142 30.1772 454.012C30.4201 453.88 30.6055 453.699 30.7333 453.469C30.8633 453.239 30.9283 452.976 30.9283 452.68V448.455ZM36.9248 450.174C36.8907 449.871 36.7501 449.637 36.5029 449.471C36.2558 449.303 35.9447 449.218 35.5697 449.218C35.3012 449.218 35.069 449.261 34.873 449.346C34.6769 449.429 34.5246 449.544 34.4159 449.691C34.3094 449.836 34.2561 450.001 34.2561 450.187C34.2561 450.342 34.2923 450.477 34.3648 450.589C34.4394 450.702 34.5363 450.797 34.6556 450.874C34.7771 450.949 34.907 451.011 35.0455 451.062C35.184 451.112 35.3172 451.152 35.445 451.184L36.0843 451.35C36.2931 451.401 36.5072 451.471 36.7267 451.558C36.9461 451.645 37.1496 451.76 37.3371 451.903C37.5246 452.046 37.6759 452.223 37.7909 452.434C37.9081 452.645 37.9667 452.897 37.9667 453.191C37.9667 453.562 37.8708 453.891 37.6791 454.179C37.4894 454.466 37.2135 454.693 36.8513 454.859C36.4912 455.026 36.0555 455.109 35.5441 455.109C35.0541 455.109 34.6301 455.031 34.2721 454.875C33.9142 454.72 33.634 454.499 33.4316 454.214C33.2291 453.926 33.1173 453.585 33.096 453.191H34.0867C34.1059 453.428 34.1826 453.625 34.3169 453.782C34.4532 453.938 34.6269 454.054 34.8378 454.131C35.0509 454.205 35.2842 454.243 35.5377 454.243C35.8169 454.243 36.0651 454.199 36.2824 454.112C36.5019 454.022 36.6744 453.898 36.8002 453.741C36.9259 453.581 36.9887 453.395 36.9887 453.181C36.9887 452.988 36.9333 452.829 36.8225 452.705C36.7139 452.582 36.5658 452.479 36.3783 452.398C36.1929 452.317 35.983 452.246 35.7487 452.184L34.9752 451.973C34.4511 451.831 34.0356 451.621 33.7288 451.344C33.4241 451.067 33.2718 450.7 33.2718 450.244C33.2718 449.867 33.374 449.538 33.5786 449.257C33.7831 448.975 34.0601 448.757 34.4095 448.602C34.759 448.444 35.1531 448.365 35.5921 448.365C36.0352 448.365 36.4262 448.443 36.765 448.598C37.1059 448.754 37.3744 448.968 37.5704 449.241C37.7664 449.511 37.8687 449.822 37.8772 450.174H36.9248ZM41.2658 455H39.1468V448.455H41.3329C41.9743 448.455 42.525 448.586 42.9853 448.848C43.4455 449.108 43.7981 449.482 44.0431 449.969C44.2903 450.455 44.4139 451.038 44.4139 451.718C44.4139 452.4 44.2892 452.985 44.04 453.475C43.7928 453.966 43.4348 454.343 42.9661 454.607C42.4973 454.869 41.9306 455 41.2658 455ZM40.1344 454.137H41.2115C41.71 454.137 42.1245 454.043 42.4547 453.856C42.785 453.666 43.0321 453.392 43.1962 453.034C43.3603 452.674 43.4423 452.235 43.4423 451.718C43.4423 451.204 43.3603 450.768 43.1962 450.411C43.0343 450.053 42.7924 449.781 42.4707 449.596C42.149 449.41 41.7495 449.317 41.2722 449.317H40.1344V454.137Z" fill="currentColor"/>
<path d="M143.719 455V448.455H147.778V449.305H144.707V451.299H147.487V452.146H144.707V455H143.719ZM148.728 455H147.68L150.035 448.455H151.176L153.532 455H152.483L150.633 449.643H150.582L148.728 455ZM148.904 452.437H152.304V453.268H148.904V452.437ZM156.576 452.878H157.547L158.231 453.77L158.554 454.166L159.644 455.588H158.634L157.905 454.639L157.656 454.294L156.576 452.878ZM159.855 451.727C159.855 452.426 159.727 453.027 159.472 453.53C159.216 454.031 158.865 454.416 158.42 454.687C157.977 454.955 157.473 455.089 156.908 455.089C156.342 455.089 155.835 454.955 155.39 454.687C154.947 454.416 154.598 454.029 154.342 453.527C154.086 453.024 153.958 452.424 153.958 451.727C153.958 451.028 154.086 450.429 154.342 449.928C154.598 449.425 154.947 449.039 155.39 448.771C155.835 448.5 156.342 448.365 156.908 448.365C157.473 448.365 157.977 448.5 158.42 448.771C158.865 449.039 159.216 449.425 159.472 449.928C159.727 450.429 159.855 451.028 159.855 451.727ZM158.877 451.727C158.877 451.195 158.791 450.746 158.618 450.382C158.448 450.015 158.213 449.738 157.915 449.551C157.619 449.361 157.283 449.266 156.908 449.266C156.531 449.266 156.195 449.361 155.898 449.551C155.602 449.738 155.368 450.015 155.195 450.382C155.025 450.746 154.94 451.195 154.94 451.727C154.94 452.26 155.025 452.71 155.195 453.076C155.368 453.44 155.602 453.717 155.898 453.907C156.195 454.094 156.531 454.188 156.908 454.188C157.283 454.188 157.619 454.094 157.915 453.907C158.213 453.717 158.448 453.44 158.618 453.076C158.791 452.71 158.877 452.26 158.877 451.727ZM173.699 455V448.455H176.032C176.541 448.455 176.963 448.547 177.297 448.733C177.632 448.918 177.882 449.172 178.048 449.493C178.215 449.813 178.298 450.173 178.298 450.574C178.298 450.976 178.214 451.338 178.045 451.66C177.879 451.98 177.628 452.233 177.291 452.421C176.956 452.606 176.536 452.699 176.028 452.699H174.424V451.862H175.939C176.261 451.862 176.522 451.806 176.722 451.695C176.922 451.582 177.069 451.429 177.163 451.235C177.257 451.041 177.304 450.821 177.304 450.574C177.304 450.326 177.257 450.107 177.163 449.915C177.069 449.723 176.921 449.573 176.719 449.464C176.519 449.356 176.254 449.301 175.926 449.301H174.686V455H173.699ZM179.379 455V450.091H180.302V450.871H180.354C180.443 450.607 180.601 450.399 180.827 450.248C181.055 450.094 181.312 450.017 181.6 450.017C181.66 450.017 181.73 450.02 181.811 450.024C181.894 450.028 181.959 450.033 182.006 450.04V450.954C181.968 450.943 181.899 450.931 181.801 450.919C181.703 450.904 181.605 450.896 181.507 450.896C181.281 450.896 181.08 450.944 180.903 451.04C180.729 451.134 180.59 451.265 180.488 451.433C180.385 451.599 180.334 451.789 180.334 452.002V455H179.379ZM182.833 455V450.091H183.788V455H182.833ZM183.315 449.333C183.149 449.333 183.006 449.278 182.887 449.167C182.77 449.054 182.711 448.92 182.711 448.765C182.711 448.607 182.77 448.473 182.887 448.362C183.006 448.249 183.149 448.192 183.315 448.192C183.482 448.192 183.623 448.249 183.741 448.362C183.86 448.473 183.919 448.607 183.919 448.765C183.919 448.92 183.86 449.054 183.741 449.167C183.623 449.278 183.482 449.333 183.315 449.333ZM189.274 450.091L187.493 455H186.471L184.687 450.091H185.713L186.956 453.869H187.008L188.248 450.091H189.274ZM191.46 455.109C191.149 455.109 190.867 455.051 190.616 454.936C190.365 454.819 190.165 454.65 190.018 454.428C189.873 454.206 189.801 453.935 189.801 453.613C189.801 453.336 189.854 453.108 189.961 452.929C190.067 452.75 190.211 452.608 190.392 452.504C190.573 452.4 190.776 452.321 190.999 452.267C191.223 452.214 191.451 452.174 191.683 452.146C191.977 452.112 192.216 452.084 192.399 452.063C192.583 452.039 192.716 452.002 192.799 451.951C192.882 451.9 192.923 451.817 192.923 451.702V451.679C192.923 451.4 192.845 451.184 192.687 451.031C192.531 450.877 192.299 450.8 191.99 450.8C191.669 450.8 191.415 450.872 191.23 451.015C191.046 451.155 190.92 451.312 190.849 451.484L189.951 451.28C190.058 450.982 190.213 450.741 190.418 450.558C190.624 450.372 190.862 450.238 191.131 450.155C191.399 450.07 191.681 450.027 191.977 450.027C192.173 450.027 192.381 450.05 192.601 450.097C192.822 450.142 193.029 450.225 193.221 450.347C193.415 450.468 193.573 450.642 193.697 450.868C193.82 451.091 193.882 451.382 193.882 451.74V455H192.949V454.329H192.911C192.849 454.452 192.756 454.574 192.633 454.693C192.509 454.812 192.35 454.912 192.156 454.99C191.963 455.069 191.73 455.109 191.46 455.109ZM191.667 454.342C191.932 454.342 192.157 454.289 192.345 454.185C192.535 454.081 192.678 453.944 192.776 453.776C192.877 453.605 192.927 453.423 192.927 453.229V452.597C192.893 452.631 192.827 452.663 192.729 452.692C192.633 452.72 192.523 452.745 192.399 452.766C192.276 452.785 192.155 452.803 192.038 452.82C191.921 452.835 191.823 452.848 191.744 452.859C191.559 452.882 191.389 452.922 191.236 452.977C191.085 453.032 190.963 453.112 190.872 453.217C190.782 453.319 190.737 453.455 190.737 453.626C190.737 453.862 190.825 454.041 190.999 454.163C191.174 454.282 191.397 454.342 191.667 454.342ZM197.223 455.099C196.748 455.099 196.339 454.991 195.996 454.776C195.655 454.559 195.393 454.26 195.209 453.878C195.026 453.497 194.935 453.06 194.935 452.568C194.935 452.069 195.028 451.629 195.216 451.248C195.403 450.864 195.668 450.565 196.008 450.35C196.349 450.135 196.751 450.027 197.213 450.027C197.586 450.027 197.919 450.096 198.21 450.235C198.502 450.371 198.738 450.563 198.917 450.81C199.098 451.057 199.206 451.346 199.24 451.676H198.31C198.258 451.446 198.141 451.248 197.958 451.082C197.777 450.915 197.534 450.832 197.229 450.832C196.963 450.832 196.73 450.903 196.529 451.043C196.331 451.182 196.177 451.38 196.066 451.638C195.955 451.893 195.9 452.196 195.9 452.545C195.9 452.903 195.954 453.212 196.063 453.472C196.171 453.732 196.325 453.934 196.523 454.076C196.723 454.219 196.959 454.29 197.229 454.29C197.41 454.29 197.574 454.257 197.722 454.191C197.871 454.123 197.995 454.026 198.095 453.901C198.198 453.775 198.269 453.624 198.31 453.447H199.24C199.206 453.764 199.102 454.048 198.93 454.297C198.757 454.546 198.526 454.742 198.236 454.885C197.948 455.028 197.611 455.099 197.223 455.099ZM200.866 456.841C200.723 456.841 200.593 456.829 200.476 456.806C200.358 456.784 200.271 456.761 200.214 456.735L200.444 455.952C200.618 455.999 200.774 456.02 200.91 456.013C201.047 456.007 201.167 455.956 201.271 455.86C201.378 455.764 201.472 455.607 201.553 455.39L201.671 455.064L199.875 450.091H200.898L202.141 453.901H202.192L203.435 450.091H204.461L202.438 455.655C202.344 455.911 202.225 456.127 202.08 456.304C201.935 456.483 201.763 456.617 201.562 456.707C201.362 456.796 201.13 456.841 200.866 456.841ZM209.646 455.093C209.207 455.093 208.829 455.013 208.511 454.853C208.196 454.693 207.953 454.476 207.783 454.201C207.612 453.924 207.527 453.611 207.527 453.261C207.527 452.995 207.582 452.759 207.693 452.552C207.804 452.343 207.958 452.15 208.157 451.973C208.355 451.797 208.584 451.619 208.844 451.44L209.898 450.695C210.077 450.578 210.217 450.454 210.317 450.324C210.417 450.192 210.467 450.029 210.467 449.835C210.467 449.682 210.401 449.535 210.269 449.394C210.137 449.254 209.96 449.183 209.739 449.183C209.585 449.183 209.45 449.221 209.333 449.295C209.218 449.37 209.127 449.466 209.061 449.583C208.997 449.698 208.965 449.819 208.965 449.947C208.965 450.096 209.006 450.246 209.087 450.398C209.17 450.549 209.276 450.706 209.406 450.868C209.536 451.027 209.672 451.194 209.815 451.366L212.855 455H211.774L209.259 452.044C209.048 451.794 208.852 451.56 208.671 451.341C208.49 451.119 208.343 450.895 208.23 450.669C208.119 450.441 208.064 450.195 208.064 449.931C208.064 449.631 208.132 449.364 208.268 449.132C208.407 448.898 208.6 448.714 208.847 448.582C209.094 448.45 209.384 448.384 209.716 448.384C210.053 448.384 210.342 448.45 210.582 448.582C210.825 448.712 211.012 448.886 211.142 449.103C211.274 449.319 211.34 449.554 211.34 449.81C211.34 450.121 211.262 450.396 211.106 450.634C210.953 450.871 210.741 451.088 210.47 451.286L209.157 452.255C208.901 452.442 208.723 452.627 208.623 452.811C208.525 452.992 208.476 453.134 208.476 453.236C208.476 453.423 208.524 453.597 208.62 453.757C208.718 453.917 208.854 454.044 209.029 454.14C209.206 454.236 209.413 454.284 209.649 454.284C209.892 454.284 210.128 454.232 210.359 454.127C210.591 454.021 210.801 453.869 210.988 453.67C211.178 453.472 211.328 453.235 211.439 452.958C211.55 452.681 211.605 452.371 211.605 452.028H212.468C212.468 452.45 212.42 452.806 212.324 453.098C212.228 453.388 212.112 453.625 211.976 453.808C211.842 453.989 211.715 454.131 211.595 454.233C211.557 454.267 211.521 454.301 211.487 454.335C211.453 454.369 211.416 454.403 211.378 454.438C211.157 454.661 210.888 454.826 210.573 454.933C210.259 455.039 209.951 455.093 209.646 455.093ZM216.062 455V448.455H217.049V454.15H220.015V455H216.062ZM223.181 455.099C222.697 455.099 222.281 454.996 221.931 454.789C221.584 454.58 221.316 454.287 221.126 453.91C220.938 453.531 220.845 453.087 220.845 452.577C220.845 452.075 220.938 451.631 221.126 451.248C221.316 450.864 221.58 450.565 221.919 450.35C222.259 450.135 222.658 450.027 223.114 450.027C223.391 450.027 223.659 450.073 223.919 450.164C224.179 450.256 224.413 450.4 224.619 450.596C224.826 450.792 224.989 451.047 225.108 451.36C225.228 451.671 225.287 452.049 225.287 452.494V452.833H221.385V452.117H224.351C224.351 451.866 224.3 451.643 224.197 451.449C224.095 451.253 223.951 451.099 223.766 450.986C223.583 450.873 223.367 450.816 223.12 450.816C222.852 450.816 222.617 450.882 222.417 451.015C222.219 451.145 222.066 451.315 221.957 451.526C221.85 451.735 221.797 451.962 221.797 452.207V452.766C221.797 453.094 221.855 453.373 221.97 453.603C222.087 453.833 222.25 454.009 222.459 454.131C222.668 454.25 222.911 454.31 223.191 454.31C223.372 454.31 223.537 454.284 223.686 454.233C223.835 454.18 223.964 454.101 224.073 453.996C224.181 453.892 224.264 453.763 224.322 453.61L225.226 453.773C225.154 454.039 225.024 454.272 224.837 454.473C224.651 454.671 224.418 454.825 224.137 454.936C223.858 455.045 223.539 455.099 223.181 455.099ZM228.406 456.943C228.016 456.943 227.68 456.892 227.399 456.79C227.12 456.688 226.892 456.552 226.715 456.384C226.538 456.216 226.406 456.031 226.319 455.831L227.14 455.492C227.198 455.586 227.274 455.685 227.37 455.789C227.468 455.896 227.6 455.987 227.767 456.061C227.935 456.136 228.151 456.173 228.415 456.173C228.778 456.173 229.077 456.085 229.313 455.908C229.55 455.733 229.668 455.454 229.668 455.07V454.105H229.607C229.55 454.21 229.467 454.326 229.358 454.453C229.252 454.581 229.105 454.692 228.917 454.786C228.73 454.88 228.486 454.926 228.185 454.926C227.797 454.926 227.448 454.836 227.137 454.655C226.828 454.472 226.583 454.202 226.402 453.846C226.223 453.488 226.133 453.048 226.133 452.526C226.133 452.004 226.222 451.557 226.399 451.184C226.578 450.811 226.823 450.526 227.134 450.327C227.445 450.127 227.797 450.027 228.192 450.027C228.496 450.027 228.742 450.078 228.93 450.18C229.117 450.281 229.263 450.398 229.368 450.532C229.474 450.666 229.556 450.784 229.614 450.887H229.684V450.091H230.621V455.109C230.621 455.531 230.523 455.877 230.327 456.147C230.131 456.418 229.865 456.618 229.531 456.748C229.198 456.878 228.823 456.943 228.406 456.943ZM228.396 454.134C228.671 454.134 228.903 454.07 229.093 453.942C229.285 453.812 229.43 453.627 229.528 453.386C229.628 453.143 229.678 452.852 229.678 452.513C229.678 452.183 229.629 451.892 229.531 451.641C229.433 451.39 229.289 451.194 229.099 451.053C228.91 450.91 228.675 450.839 228.396 450.839C228.108 450.839 227.869 450.913 227.677 451.062C227.485 451.21 227.34 451.41 227.242 451.663C227.146 451.917 227.099 452.2 227.099 452.513C227.099 452.835 227.148 453.118 227.246 453.36C227.344 453.603 227.488 453.793 227.68 453.929C227.874 454.066 228.113 454.134 228.396 454.134ZM233.331 455.109C233.02 455.109 232.738 455.051 232.487 454.936C232.236 454.819 232.036 454.65 231.889 454.428C231.744 454.206 231.672 453.935 231.672 453.613C231.672 453.336 231.725 453.108 231.832 452.929C231.938 452.75 232.082 452.608 232.263 452.504C232.444 452.4 232.647 452.321 232.871 452.267C233.094 452.214 233.322 452.174 233.555 452.146C233.849 452.112 234.087 452.084 234.27 452.063C234.454 452.039 234.587 452.002 234.67 451.951C234.753 451.9 234.795 451.817 234.795 451.702V451.679C234.795 451.4 234.716 451.184 234.558 451.031C234.403 450.877 234.17 450.8 233.861 450.8C233.54 450.8 233.286 450.872 233.101 451.015C232.917 451.155 232.791 451.312 232.72 451.484L231.822 451.28C231.929 450.982 232.084 450.741 232.289 450.558C232.496 450.372 232.733 450.238 233.002 450.155C233.27 450.07 233.552 450.027 233.849 450.027C234.045 450.027 234.252 450.05 234.472 450.097C234.693 450.142 234.9 450.225 235.092 450.347C235.286 450.468 235.444 450.642 235.568 450.868C235.692 451.091 235.753 451.382 235.753 451.74V455H234.82V454.329H234.782C234.72 454.452 234.627 454.574 234.504 454.693C234.38 454.812 234.221 454.912 234.028 454.99C233.834 455.069 233.601 455.109 233.331 455.109ZM233.539 454.342C233.803 454.342 234.029 454.289 234.216 454.185C234.406 454.081 234.55 453.944 234.648 453.776C234.748 453.605 234.798 453.423 234.798 453.229V452.597C234.764 452.631 234.698 452.663 234.6 452.692C234.504 452.72 234.394 452.745 234.27 452.766C234.147 452.785 234.026 452.803 233.909 452.82C233.792 452.835 233.694 452.848 233.615 452.859C233.43 452.882 233.26 452.922 233.107 452.977C232.956 453.032 232.834 453.112 232.743 453.217C232.653 453.319 232.608 453.455 232.608 453.626C232.608 453.862 232.696 454.041 232.871 454.163C233.045 454.282 233.268 454.342 233.539 454.342ZM237.982 448.455V455H237.026V448.455H237.982Z" fill="currentColor"/>
<path d="M167.1 446.345V457.109H166.243V446.345H167.1Z" fill="#4F4F4F"/>
<path d="M97.2249 123.545V78.0909H100.137V123.545H97.2249ZM104.949 93.0945C104.807 91.6622 104.197 90.5495 103.12 89.7564C102.043 88.9633 100.581 88.5668 98.7341 88.5668C97.4794 88.5668 96.42 88.7443 95.5558 89.0994C94.6917 89.4427 94.0289 89.9221 93.5672 90.5376C93.1174 91.1532 92.8925 91.8516 92.8925 92.6328C92.8688 93.2839 93.0049 93.852 93.3009 94.3374C93.6086 94.8227 94.0289 95.2429 94.5615 95.598C95.0942 95.9413 95.7097 96.2431 96.4081 96.5036C97.1065 96.7521 97.8522 96.9652 98.6453 97.1428L101.912 97.924C103.499 98.2791 104.955 98.7526 106.28 99.3445C107.606 99.9363 108.754 100.664 109.725 101.528C110.696 102.393 111.447 103.411 111.98 104.582C112.524 105.754 112.803 107.098 112.814 108.613C112.803 110.838 112.234 112.768 111.11 114.401C109.997 116.023 108.387 117.284 106.28 118.183C104.185 119.071 101.658 119.515 98.6986 119.515C95.763 119.515 93.2062 119.065 91.0281 118.165C88.8619 117.266 87.1692 115.934 85.95 114.17C84.7426 112.395 84.1093 110.199 84.0502 107.583H91.4898C91.5727 108.802 91.9218 109.82 92.5374 110.637C93.1647 111.442 93.9993 112.052 95.0409 112.466C96.0944 112.868 97.2841 113.07 98.6098 113.07C99.9119 113.07 101.042 112.88 102.001 112.501C102.972 112.123 103.723 111.596 104.256 110.921C104.789 110.246 105.055 109.471 105.055 108.595C105.055 107.778 104.812 107.092 104.327 106.536C103.854 105.979 103.155 105.506 102.232 105.115C101.321 104.724 100.202 104.369 98.8762 104.05L94.9166 103.055C91.8508 102.31 89.4301 101.144 87.6546 99.5575C85.879 97.9714 84.9971 95.8348 85.009 93.1477C84.9971 90.946 85.5831 89.0225 86.7668 87.3771C87.9623 85.7318 89.6018 84.4474 91.6851 83.5241C93.7684 82.6009 96.1359 82.1392 98.7874 82.1392C101.486 82.1392 103.842 82.6009 105.854 83.5241C107.878 84.4474 109.453 85.7318 110.577 87.3771C111.702 89.0225 112.282 90.9283 112.317 93.0945H104.949ZM117.222 112.608V106.553L132.403 82.6364H137.623V91.017H134.534L124.964 106.163V106.447H146.537V112.608H117.222ZM134.676 119V110.761L134.818 108.08V82.6364H142.027V119H134.676ZM164.941 119.497C162.431 119.497 160.194 119.036 158.229 118.112C156.276 117.189 154.725 115.916 153.577 114.295C152.429 112.673 151.831 110.815 151.784 108.719H159.241C159.324 110.128 159.916 111.27 161.017 112.146C162.117 113.022 163.425 113.46 164.941 113.46C166.148 113.46 167.213 113.194 168.137 112.661C169.072 112.117 169.8 111.365 170.321 110.406C170.853 109.436 171.12 108.323 171.12 107.068C171.12 105.79 170.847 104.665 170.303 103.695C169.77 102.724 169.03 101.966 168.083 101.422C167.136 100.877 166.053 100.599 164.834 100.587C163.769 100.587 162.733 100.806 161.727 101.244C160.733 101.682 159.957 102.28 159.401 103.038L152.565 101.812L154.287 82.6364H176.517V88.9219H160.626L159.685 98.0305H159.898C160.537 97.1309 161.502 96.3852 162.792 95.7933C164.082 95.2015 165.527 94.9055 167.125 94.9055C169.314 94.9055 171.268 95.4205 172.984 96.4503C174.7 97.4801 176.056 98.8946 177.05 100.694C178.044 102.481 178.536 104.541 178.524 106.873C178.536 109.323 177.967 111.501 176.819 113.407C175.683 115.301 174.091 116.792 172.043 117.881C170.007 118.959 167.639 119.497 164.941 119.497Z" fill="black"/>
<rect x="50" y="140" width="79" height="19" rx="9.5" fill="currentColor" fill-opacity="0.1"/>
<path d="M62.4625 146.995V145.727H68.4355V146.995H66.209V153H64.6891V146.995H62.4625ZM71.0643 153.107C70.5127 153.107 70.0356 152.989 69.6332 152.755C69.2331 152.518 68.9241 152.189 68.7063 151.768C68.4885 151.344 68.3796 150.853 68.3796 150.294C68.3796 149.731 68.4885 149.238 68.7063 148.817C68.9241 148.393 69.2331 148.064 69.6332 147.83C70.0356 147.593 70.5127 147.474 71.0643 147.474C71.6159 147.474 72.0917 147.593 72.4918 147.83C72.8943 148.064 73.2044 148.393 73.4222 148.817C73.64 149.238 73.7489 149.731 73.7489 150.294C73.7489 150.853 73.64 151.344 73.4222 151.768C73.2044 152.189 72.8943 152.518 72.4918 152.755C72.0917 152.989 71.6159 153.107 71.0643 153.107ZM71.0714 151.935C71.3223 151.935 71.5318 151.864 71.6999 151.722C71.868 151.577 71.9947 151.381 72.0799 151.132C72.1675 150.884 72.2113 150.601 72.2113 150.283C72.2113 149.966 72.1675 149.683 72.0799 149.435C71.9947 149.186 71.868 148.99 71.6999 148.845C71.5318 148.701 71.3223 148.629 71.0714 148.629C70.8181 148.629 70.605 148.701 70.4322 148.845C70.2617 148.99 70.1327 149.186 70.0451 149.435C69.9599 149.683 69.9173 149.966 69.9173 150.283C69.9173 150.601 69.9599 150.884 70.0451 151.132C70.1327 151.381 70.2617 151.577 70.4322 151.722C70.605 151.864 70.8181 151.935 71.0714 151.935ZM76.7425 153.089C76.3282 153.089 75.953 152.982 75.6168 152.769C75.283 152.554 75.0179 152.238 74.8214 151.821C74.6272 151.402 74.5302 150.888 74.5302 150.28C74.5302 149.655 74.6308 149.135 74.832 148.721C75.0333 148.304 75.3008 147.993 75.6346 147.787C75.9708 147.579 76.3389 147.474 76.739 147.474C77.0444 147.474 77.2989 147.527 77.5025 147.631C77.7085 147.732 77.8742 147.86 77.9996 148.014C78.1275 148.166 78.2246 148.315 78.2908 148.462H78.337V145.727H79.8462V153H78.3548V152.126H78.2908C78.2198 152.278 78.1192 152.428 77.989 152.577C77.8612 152.724 77.6942 152.846 77.4883 152.943C77.2847 153.04 77.0361 153.089 76.7425 153.089ZM77.2219 151.885C77.4658 151.885 77.6718 151.819 77.8398 151.686C78.0103 151.551 78.1405 151.363 78.2305 151.121C78.3228 150.88 78.369 150.597 78.369 150.273C78.369 149.948 78.324 149.667 78.234 149.428C78.1441 149.188 78.0138 149.004 77.8434 148.874C77.6729 148.743 77.4658 148.678 77.2219 148.678C76.9734 148.678 76.7638 148.746 76.5934 148.881C76.4229 149.016 76.2939 149.203 76.2063 149.442C76.1187 149.681 76.0749 149.958 76.0749 150.273C76.0749 150.59 76.1187 150.871 76.2063 151.114C76.2963 151.356 76.4253 151.545 76.5934 151.683C76.7638 151.817 76.9734 151.885 77.2219 151.885ZM82.6454 153.103C82.2974 153.103 81.9873 153.043 81.715 152.922C81.4428 152.799 81.2273 152.618 81.0687 152.379C80.9125 152.137 80.8343 151.836 80.8343 151.477C80.8343 151.174 80.89 150.919 81.0012 150.713C81.1125 150.507 81.264 150.341 81.4558 150.216C81.6475 150.09 81.8654 149.996 82.1092 149.932C82.3554 149.868 82.6135 149.823 82.8833 149.797C83.2006 149.764 83.4563 149.733 83.6504 149.705C83.8445 149.674 83.9854 149.629 84.073 149.57C84.1606 149.51 84.2044 149.423 84.2044 149.307V149.286C84.2044 149.061 84.1333 148.887 83.9913 148.763C83.8516 148.64 83.6528 148.579 83.3947 148.579C83.1225 148.579 82.9058 148.639 82.7449 148.76C82.5839 148.878 82.4773 149.027 82.4252 149.207L81.0261 149.094C81.0971 148.762 81.2368 148.476 81.4451 148.234C81.6535 147.991 81.9222 147.804 82.2512 147.673C82.5827 147.541 82.9662 147.474 83.4018 147.474C83.7048 147.474 83.9949 147.51 84.2718 147.581C84.5512 147.652 84.7986 147.762 85.014 147.911C85.2318 148.06 85.4035 148.252 85.5289 148.487C85.6544 148.719 85.7172 148.997 85.7172 149.321V153H84.2825V152.244H84.2399C84.1523 152.414 84.0351 152.564 83.8883 152.695C83.7415 152.822 83.5652 152.923 83.3592 152.996C83.1532 153.067 82.9153 153.103 82.6454 153.103ZM83.0787 152.059C83.3012 152.059 83.4977 152.015 83.6681 151.928C83.8386 151.838 83.9724 151.717 84.0694 151.565C84.1665 151.414 84.215 151.242 84.215 151.05V150.472C84.1677 150.502 84.1026 150.531 84.0197 150.557C83.9392 150.58 83.8481 150.603 83.7463 150.624C83.6445 150.643 83.5427 150.661 83.4409 150.678C83.3391 150.692 83.2467 150.705 83.1639 150.717C82.9863 150.743 82.8313 150.784 82.6987 150.841C82.5661 150.898 82.4631 150.975 82.3897 151.072C82.3163 151.166 82.2797 151.285 82.2797 151.427C82.2797 151.633 82.3542 151.79 82.5034 151.899C82.6549 152.006 82.8467 152.059 83.0787 152.059ZM87.6294 155.045C87.4377 155.045 87.2578 155.03 87.0897 154.999C86.9239 154.971 86.7866 154.934 86.6777 154.889L87.0186 153.76C87.1962 153.814 87.356 153.844 87.498 153.849C87.6425 153.853 87.7667 153.82 87.8709 153.749C87.9775 153.678 88.0639 153.558 88.1301 153.387L88.2189 153.156L86.2623 147.545H87.8532L88.9824 151.551H89.0392L90.1792 147.545H91.7807L89.6607 153.589C89.5589 153.883 89.4204 154.139 89.2452 154.357C89.0724 154.577 88.8534 154.746 88.5882 154.864C88.3231 154.985 88.0035 155.045 87.6294 155.045ZM101.581 149.364C101.581 150.157 101.431 150.831 101.13 151.388C100.832 151.944 100.424 152.369 99.9084 152.663C99.3946 152.954 98.817 153.099 98.1754 153.099C97.5291 153.099 96.9491 152.953 96.4354 152.659C95.9216 152.366 95.5156 151.941 95.2173 151.384C94.919 150.828 94.7699 150.154 94.7699 149.364C94.7699 148.571 94.919 147.896 95.2173 147.339C95.5156 146.783 95.9216 146.359 96.4354 146.068C96.9491 145.775 97.5291 145.628 98.1754 145.628C98.817 145.628 99.3946 145.775 99.9084 146.068C100.424 146.359 100.832 146.783 101.13 147.339C101.431 147.896 101.581 148.571 101.581 149.364ZM100.022 149.364C100.022 148.85 99.9451 148.417 99.7912 148.064C99.6397 147.711 99.4254 147.444 99.1484 147.261C98.8714 147.079 98.5471 146.988 98.1754 146.988C97.8037 146.988 97.4794 147.079 97.2024 147.261C96.9254 147.444 96.71 147.711 96.5561 148.064C96.4046 148.417 96.3288 148.85 96.3288 149.364C96.3288 149.877 96.4046 150.311 96.5561 150.663C96.71 151.016 96.9254 151.284 97.2024 151.466C97.4794 151.648 97.8037 151.739 98.1754 151.739C98.5471 151.739 98.8714 151.648 99.1484 151.466C99.4254 151.284 99.6397 151.016 99.7912 150.663C99.9451 150.311 100.022 149.877 100.022 149.364ZM104.204 149.847V153H102.692V147.545H104.133V148.508H104.197C104.318 148.191 104.52 147.94 104.805 147.755C105.089 147.568 105.433 147.474 105.838 147.474C106.217 147.474 106.547 147.557 106.829 147.723C107.11 147.889 107.329 148.125 107.486 148.433C107.642 148.739 107.72 149.103 107.72 149.527V153H106.207V149.797C106.21 149.463 106.124 149.203 105.952 149.016C105.779 148.826 105.541 148.732 105.238 148.732C105.034 148.732 104.854 148.775 104.698 148.863C104.544 148.951 104.423 149.078 104.336 149.246C104.251 149.412 104.207 149.612 104.204 149.847ZM110.425 145.727V153H108.912V145.727H110.425ZM112.571 155.045C112.379 155.045 112.199 155.03 112.031 154.999C111.865 154.971 111.728 154.934 111.619 154.889L111.96 153.76C112.138 153.814 112.297 153.844 112.439 153.849C112.584 153.853 112.708 153.82 112.812 153.749C112.919 153.678 113.005 153.558 113.072 153.387L113.16 153.156L111.204 147.545H112.795L113.924 151.551H113.981L115.121 147.545H116.722L114.602 153.589C114.5 153.883 114.362 154.139 114.187 154.357C114.014 154.577 113.795 154.746 113.53 154.864C113.265 154.985 112.945 155.045 112.571 155.045Z" fill="currentColor"/>
<rect x="135" y="140" width="78" height="19" rx="9.5" fill="currentColor"/>
<path fill-rule="evenodd" clip-rule="evenodd" d="M154.833 146.176C155.056 146.41 155.056 146.79 154.833 147.024L150.261 151.824C150.038 152.059 149.676 152.059 149.453 151.824L147.167 149.424C146.944 149.19 146.944 148.81 147.167 148.576C147.391 148.341 147.752 148.341 147.975 148.576L149.857 150.551L154.025 146.176C154.248 145.941 154.609 145.941 154.833 146.176Z" fill="white"/>
<path d="M160.966 145.727H162.862L164.865 150.614H164.95L166.953 145.727H168.85V153H167.358V148.266H167.298L165.416 152.964H164.4L162.518 148.249H162.458V153H160.966V145.727ZM172.553 153.107C172.001 153.107 171.524 152.989 171.121 152.755C170.721 152.518 170.412 152.189 170.195 151.768C169.977 151.344 169.868 150.853 169.868 150.294C169.868 149.731 169.977 149.238 170.195 148.817C170.412 148.393 170.721 148.064 171.121 147.83C171.524 147.593 172.001 147.474 172.553 147.474C173.104 147.474 173.58 147.593 173.98 147.83C174.383 148.064 174.693 148.393 174.911 148.817C175.128 149.238 175.237 149.731 175.237 150.294C175.237 150.853 175.128 151.344 174.911 151.768C174.693 152.189 174.383 152.518 173.98 152.755C173.58 152.989 173.104 153.107 172.553 153.107ZM172.56 151.935C172.811 151.935 173.02 151.864 173.188 151.722C173.356 151.577 173.483 151.381 173.568 151.132C173.656 150.884 173.7 150.601 173.7 150.283C173.7 149.966 173.656 149.683 173.568 149.435C173.483 149.186 173.356 148.99 173.188 148.845C173.02 148.701 172.811 148.629 172.56 148.629C172.306 148.629 172.093 148.701 171.92 148.845C171.75 148.99 171.621 149.186 171.533 149.435C171.448 149.683 171.406 149.966 171.406 150.283C171.406 150.601 171.448 150.884 171.533 151.132C171.621 151.381 171.75 151.577 171.92 151.722C172.093 151.864 172.306 151.935 172.56 151.935ZM177.734 149.847V153H176.221V147.545H177.663V148.508H177.727C177.847 148.191 178.05 147.94 178.334 147.755C178.618 147.568 178.962 147.474 179.367 147.474C179.746 147.474 180.076 147.557 180.358 147.723C180.64 147.889 180.859 148.125 181.015 148.433C181.171 148.739 181.249 149.103 181.249 149.527V153H179.737V149.797C179.739 149.463 179.654 149.203 179.481 149.016C179.308 148.826 179.07 148.732 178.767 148.732C178.563 148.732 178.384 148.775 178.227 148.863C178.073 148.951 177.953 149.078 177.865 149.246C177.78 149.412 177.736 149.612 177.734 149.847ZM185.343 147.545V148.682H182.058V147.545H185.343ZM182.804 146.239H184.317V151.324C184.317 151.464 184.338 151.572 184.381 151.651C184.423 151.726 184.482 151.78 184.558 151.81C184.636 151.841 184.726 151.857 184.828 151.857C184.899 151.857 184.97 151.851 185.041 151.839C185.112 151.825 185.166 151.814 185.204 151.807L185.442 152.933C185.367 152.956 185.26 152.983 185.123 153.014C184.985 153.047 184.818 153.067 184.622 153.075C184.257 153.089 183.938 153.04 183.663 152.929C183.391 152.818 183.179 152.645 183.028 152.411C182.876 152.176 182.801 151.88 182.804 151.523V146.239ZM187.958 149.847V153H186.445V145.727H187.916V148.508H187.98C188.103 148.186 188.302 147.934 188.576 147.751C188.851 147.567 189.195 147.474 189.61 147.474C189.988 147.474 190.319 147.557 190.6 147.723C190.884 147.886 191.105 148.122 191.261 148.43C191.419 148.735 191.498 149.101 191.495 149.527V153H189.982V149.797C189.985 149.461 189.9 149.199 189.727 149.012C189.556 148.825 189.317 148.732 189.009 148.732C188.803 148.732 188.621 148.775 188.463 148.863C188.306 148.951 188.183 149.078 188.093 149.246C188.006 149.412 187.961 149.612 187.958 149.847ZM194.199 145.727V153H192.686V145.727H194.199ZM196.344 155.045C196.153 155.045 195.973 155.03 195.805 154.999C195.639 154.971 195.501 154.934 195.393 154.889L195.733 153.76C195.911 153.814 196.071 153.844 196.213 153.849C196.357 153.853 196.482 153.82 196.586 153.749C196.692 153.678 196.779 153.558 196.845 153.387L196.934 153.156L194.977 147.545H196.568L197.697 151.551H197.754L198.894 147.545H200.496L198.376 153.589C198.274 153.883 198.135 154.139 197.96 154.357C197.787 154.577 197.568 154.746 197.303 154.864C197.038 154.985 196.718 155.045 196.344 155.045Z" fill="white"/>
</svg>
