<svg id="Capa_1" enable-background="new 0 0 512 512" height="512" viewBox="0 0 512 512" width="512" xmlns="http://www.w3.org/2000/svg"><g><g><g><g><g><g><g><circle cx="256" cy="256" fill="#606aea" r="256"/></g></g></g></g></g></g><g fill="#4855b7"><path d="m466.44 401.817-285.233-285.234-33.552 29.796 115.015 115.016-167.172 112.278 137.289 137.289c7.646.686 15.388 1.038 23.213 1.038 87.199 0 164.215-43.597 210.44-110.183z"/><path d="m377.614 140.499 33.047-31.222 96.393 96.393c3.244 16.273 4.946 33.103 4.946 50.33 0 50.163-14.428 96.956-39.36 136.456l-255.845-255.845 23.062-6.701.992-52.91 28.87-33.581 56.014 56.014 1.373-7.564z"/></g><g><path d="m292.765 95.468 13.824 3.457c1.045.261 2.151.078 3.056-.506l12.039-7.775c2.519-1.627 5.853.086 5.998 3.08l.68 14.019c.053 1.1.571 2.126 1.423 2.824l10.824 8.854c2.292 1.875 1.734 5.521-1.015 6.624l-13.424 5.387c-.986.396-1.767 1.177-2.162 2.162l-5.387 13.424c-1.103 2.748-4.749 3.307-6.624 1.015l-8.854-10.824c-.697-.853-1.723-1.37-2.824-1.423l-14.019-.68c-2.995-.145-4.707-3.48-3.08-5.998l7.775-12.039c.584-.905.768-2.011.506-3.056l-3.457-13.824c-.711-2.852 1.871-5.434 4.721-4.721z" fill="#fff"/></g><g><path d="m430.542 254.853 4.29 13.589c.324 1.027 1.059 1.874 2.031 2.339l12.926 6.188c2.704 1.295 2.99 5.032.515 6.723l-11.589 7.918c-.909.621-1.513 1.599-1.661 2.691l-1.878 13.857c-.398 2.934-3.797 4.367-6.175 2.603l-11.616-8.618c-.853-.633-1.927-.89-2.974-.711l-14.257 2.436c-2.919.499-5.303-2.316-4.332-5.113l4.589-13.21c.361-1.04.265-2.185-.265-3.151l-6.758-12.301c-1.444-2.628.501-5.832 3.499-5.764l14.328.324c1.077.024 2.115-.399 2.869-1.168l9.969-10.182c2.052-2.1 5.604-1.252 6.489 1.55z" fill="#e9edf5"/></g><g><path d="m142.8 420.975-47.302-47.302 121.646-210.086 135.742 135.742z" fill="#ffce00"/></g><g><path d="m118.034 396.208 24.766 24.767 210.086-121.646-68.986-68.986z" fill="#fdba12"/></g><g><path d="m171.929 222.047h205.9v39.095h-205.9z" fill="#fa0" transform="matrix(.707 .707 -.707 .707 251.343 -123.607)"/></g><g><path d="m291.172 225.171h39.095v104.527h-39.095z" fill="#ff9500" transform="matrix(.707 -.707 .707 .707 -105.169 300.971)"/></g><g><path d="m296.336 332.073 25.132-14.552-143.699-85.932-12.723 21.972z" fill="#ff636e"/></g><g><path d="m175.741 401.902 25.131-14.553-84.154-50.324-12.723 21.973z" fill="#ff636e"/></g><g><path d="m236.038 366.987 25.132-14.552-113.926-68.128-12.723 21.973z" fill="#ff636e"/></g><g><path d="m224.893 289.35 71.443 42.723 25.132-14.552-78.064-46.683z" fill="#f03049"/></g><g><path d="m136.066 378.176 39.674 23.725 25.132-14.551-46.295-27.685z" fill="#f03049"/></g><g><path d="m180.479 333.763 55.559 33.224 25.132-14.552-62.18-37.183z" fill="#f03049"/></g><g><path d="m350.399 241.364-.951-29.986 17.852-.566 13.897-21.688 25.746-.819 13.901-21.69 33.64-1.07.954 29.984-17.856.569-13.9 21.691-25.746.818-13.898 21.688z" fill="#19cffc"/></g><g><path d="m240.98 154.362-24.185-17.751 10.569-14.4-8.494-24.317 15.242-20.768-8.493-24.321 19.914-27.135 24.186 17.749-10.571 14.405 8.494 24.322-15.242 20.766 8.494 24.317z" fill="#96e8ff"/></g><g><circle cx="161.72" cy="128.436" fill="#ffce00" r="22.805"/></g><g><circle cx="375.691" cy="366.987" fill="#fdba12" r="22.805"/></g><g><circle cx="392.899" cy="123.574" fill="#ffce00" r="22.805"/></g><g><path d="m407.866 106.376-32.166 32.166c4.181 4.8 10.333 7.837 17.198 7.837 12.595 0 22.805-10.21 22.805-22.805.001-6.865-3.037-13.017-7.837-17.198z" fill="#fdba12"/></g></g></svg>