<svg id="Capa_1" enable-background="new 0 0 512 512" height="512" viewBox="0 0 512 512" width="512" xmlns="http://www.w3.org/2000/svg"><g><g><g><g><g><g><circle cx="256" cy="256" fill="#96e8ff" r="256"/></g></g></g></g></g><path d="m269.118 511.67c135.289-6.829 242.882-118.685 242.882-255.67 0-15.219-1.328-30.129-3.875-44.618l-127.469-127.469-24.534 184.824-119.18-119.651-79.63 211.486 27.892 27.127-37.772 2.285z" fill="#19cffc"/><g><path d="m256 175.716c-15.323-31.886-47.924-53.898-85.666-53.898-52.461 0-94.99 42.528-94.99 94.99 0 121.797 180.656 210.377 180.656 210.377s.602-.307 1.536-3.254l11.339-148.424-8.468-97.114z" fill="#ff7d81"/></g><g><path d="m256 175.716c15.323-31.886 47.924-53.897 85.666-53.897 52.461 0 94.99 42.528 94.99 94.99 0 118.3-180.656 210.377-180.656 210.377z" fill="#ff475a"/></g><g><path d="m380.656 218.879c-22.099-59.663-7.82-45.384-67.483-67.483 59.663-22.099 45.384-7.82 67.483-67.483 22.099 59.662 7.82 45.384 67.483 67.483-59.662 22.099-45.384 7.82-67.483 67.483z" fill="#e9edf5"/></g><g><path d="m188.939 431.49c-13.592-36.696-4.81-27.914-41.506-41.506 36.696-13.592 27.914-4.81 41.506-41.506 13.592 36.696 4.81 27.914 41.506 41.506-36.696 13.592-27.914 4.81-41.506 41.506z" fill="#fff"/></g></g></svg>