<svg id="Capa_1" enable-background="new 0 0 512 512" height="512" viewBox="0 0 512 512" width="512" xmlns="http://www.w3.org/2000/svg"><g><g><g><g><g><g><g><g><g><g><g><g><g><g><g><g><g><circle cx="256" cy="256" fill="#b2d7f3" r="256"/></g></g></g></g></g></g></g></g></g></g></g></g></g></g></g></g><path d="m144.58 173.816 75.633 75.633 28.834 41.969-86.24 10.449 21.016 21.016-2.453 96.487-18.563 6.235 86.301 86.301c2.29.061 4.587.095 6.892.094 136.094 0 247.366-106.203 255.504-240.251l-176.636-176.635z" fill="#95c7ee"/><g><g><g><path d="m204.605 153.614h15v162.897h-15z" fill="#544f56" transform="matrix(.82 -.572 .572 .82 -96.339 163.611)"/></g><g><path d="m218.446 227.563h162.897v15h-162.897z" fill="#444145" transform="matrix(.572 -.82 .82 .572 -64.473 346.542)"/></g></g><g><g><g><path d="m144.58 173.816c0-61.536 49.885-111.42 111.42-111.42l42.878 68.709-43.149 42.711z" fill="#00cb76"/></g></g><path d="m256 62.395c61.536 0 111.42 49.885 111.42 111.42h-111.691z" fill="#00a963"/></g><g><g><path d="m256 416.892h-82.388v-123.716h82.388l14.394 66.774z" fill="#fff"/><path d="m256 293.176h82.388v123.716h-82.388z" fill="#f4f4f4"/></g><g><path d="m256 301.866h-93.193v-17.402h93.193l16.282 9.393z" fill="#ff3c7d"/><path d="m256 284.464h93.193v17.402h-93.193z" fill="#e40058"/></g><g><path d="m256 425.605h-93.193v-17.403h93.193l16.282 9.393z" fill="#ff3c7d"/><path d="m256 408.202h93.193v17.402h-93.193z" fill="#e40058"/></g><g><path d="m262.258 355.754-6.258-28.549h-9.445v18.384h-18.352v18.891h18.352v18.384h9.445z" fill="#ff3c7d"/><path d="m283.797 345.589h-18.351v-18.384h-9.446v55.659h9.446v-18.384h18.351z" fill="#e40058"/></g></g></g></g></svg>