<svg id="Capa_1" enable-background="new 0 0 512 512" height="512" viewBox="0 0 512 512" width="512" xmlns="http://www.w3.org/2000/svg"><g><g><g><circle cx="256" cy="256" fill="#534dca" r="256"/></g></g><path d="m502.087 326.761-206.905-206.906-.327 112.31-112.31-112.31-44.046 158.029 214.911 214.912c71.694-29.525 127.039-90.646 148.677-166.035z" fill="#3530a3"/><g><path d="m217.99 233.209-35.445 62.741c-34.651 0-62.741-28.09-62.741-62.741s62.741-113.354 62.741-113.354z" fill="#8bbbff"/><path d="m245.286 233.209c0 34.651-28.09 62.741-62.741 62.741v-176.095s62.741 78.703 62.741 113.354z" fill="#6aa8ff"/></g><g><path d="m350.432 296.547-55.25 97.799c-54.013 0-97.799-43.786-97.799-97.799s97.799-176.692 97.799-176.692z" fill="#adcfff"/><path d="m392.98 296.547c0 54.013-43.786 97.799-97.799 97.799v-274.49c.001-.001 97.799 122.678 97.799 176.691z" fill="#8bbbff"/></g></g></svg>