<svg width="190" height="100" viewBox='0 0 190 100' xmlns="http://www.w3.org/2000/svg" xmlns:xlink="http://www.w3.org/1999/xlink">
    <defs>
        <path id="a" d="m0-1 .588 1.809-1.54-1.118h1.904l-1.54 1.118z" />
    </defs>
    <rect fill="#db828c" height="100%" width="100%" />
    <g fill="#fff">
        <g transform="scale(7.6923)">
            <rect height="1" width="100%" y="1" />
            <rect height="1" width="100%" y="3" />
            <rect height="1" width="100%" y="5" />
            <rect height="1" width="100%" y="7" />
            <rect height="1" width="100%" y="9" />
            <rect height="1" width="100%" y="11" />
            <path d="m0 0h10v7h-10z" fill="#002868" />
        </g>
        <g transform="scale(6.3 5.4)">
            <use transform="matrix(.49 0 0 .57 1 1)" xlink:actuate="onLoad" xlink:href="#a" xlink:show="embed" xlink:type="simple" />
            <use transform="matrix(.49 0 0 .57 3 1)" xlink:actuate="onLoad" xlink:href="#a" xlink:show="embed" xlink:type="simple" />
            <use transform="matrix(.49 0 0 .57 5 1)" xlink:actuate="onLoad" xlink:href="#a" xlink:show="embed" xlink:type="simple" />
            <use transform="matrix(.49 0 0 .57 7 1)" xlink:actuate="onLoad" xlink:href="#a" xlink:show="embed" xlink:type="simple" />
            <use transform="matrix(.49 0 0 .57 9 1)" xlink:actuate="onLoad" xlink:href="#a" xlink:show="embed" xlink:type="simple" />
            <use transform="matrix(.49 0 0 .57 11 1)" xlink:actuate="onLoad" xlink:href="#a" xlink:show="embed" xlink:type="simple" />
            <use transform="matrix(.49 0 0 .57 2 2)" xlink:actuate="onLoad" xlink:href="#a" xlink:show="embed" xlink:type="simple" />
            <use transform="matrix(.49 0 0 .57 4 2)" xlink:actuate="onLoad" xlink:href="#a" xlink:show="embed" xlink:type="simple" />
            <use transform="matrix(.49 0 0 .57 6 2)" xlink:actuate="onLoad" xlink:href="#a" xlink:show="embed" xlink:type="simple" />
            <use transform="matrix(.49 0 0 .57 8 2)" xlink:actuate="onLoad" xlink:href="#a" xlink:show="embed" xlink:type="simple" />
            <use transform="matrix(.49 0 0 .57 10 2)" xlink:actuate="onLoad" xlink:href="#a" xlink:show="embed" xlink:type="simple" />
            <use transform="matrix(.49 0 0 .57 1 3)" xlink:actuate="onLoad" xlink:href="#a" xlink:show="embed" xlink:type="simple" />
            <use transform="matrix(.49 0 0 .57 3 3)" xlink:actuate="onLoad" xlink:href="#a" xlink:show="embed" xlink:type="simple" />
            <use transform="matrix(.49 0 0 .57 5 3)" xlink:actuate="onLoad" xlink:href="#a" xlink:show="embed" xlink:type="simple" />
            <use transform="matrix(.49 0 0 .57 7 3)" xlink:actuate="onLoad" xlink:href="#a" xlink:show="embed" xlink:type="simple" />
            <use transform="matrix(.49 0 0 .57 9 3)" xlink:actuate="onLoad" xlink:href="#a" xlink:show="embed" xlink:type="simple" />
            <use transform="matrix(.49 0 0 .57 11 3)" xlink:actuate="onLoad" xlink:href="#a" xlink:show="embed" xlink:type="simple" />
            <use transform="matrix(.49 0 0 .57 2 4)" xlink:actuate="onLoad" xlink:href="#a" xlink:show="embed" xlink:type="simple" />
            <use transform="matrix(.49 0 0 .57 4 4)" xlink:actuate="onLoad" xlink:href="#a" xlink:show="embed" xlink:type="simple" />
            <use transform="matrix(.49 0 0 .57 6 4)" xlink:actuate="onLoad" xlink:href="#a" xlink:show="embed" xlink:type="simple" />
            <use transform="matrix(.49 0 0 .57 8 4)" xlink:actuate="onLoad" xlink:href="#a" xlink:show="embed" xlink:type="simple" />
            <use transform="matrix(.49 0 0 .57 10 4)" xlink:actuate="onLoad" xlink:href="#a" xlink:show="embed" xlink:type="simple" />
            <use transform="matrix(.49 0 0 .57 1 5)" xlink:actuate="onLoad" xlink:href="#a" xlink:show="embed" xlink:type="simple" />
            <use transform="matrix(.49 0 0 .57 3 5)" xlink:actuate="onLoad" xlink:href="#a" xlink:show="embed" xlink:type="simple" />
            <use transform="matrix(.49 0 0 .57 5 5)" xlink:actuate="onLoad" xlink:href="#a" xlink:show="embed" xlink:type="simple" />
            <use transform="matrix(.49 0 0 .57 7 5)" xlink:actuate="onLoad" xlink:href="#a" xlink:show="embed" xlink:type="simple" />
            <use transform="matrix(.49 0 0 .57 9 5)" xlink:actuate="onLoad" xlink:href="#a" xlink:show="embed" xlink:type="simple" />
            <use transform="matrix(.49 0 0 .57 11 5)" xlink:actuate="onLoad" xlink:href="#a" xlink:show="embed" xlink:type="simple" />
            <use transform="matrix(.49 0 0 .57 2 6)" xlink:actuate="onLoad" xlink:href="#a" xlink:show="embed" xlink:type="simple" />
            <use transform="matrix(.49 0 0 .57 4 6)" xlink:actuate="onLoad" xlink:href="#a" xlink:show="embed" xlink:type="simple" />
            <use transform="matrix(.49 0 0 .57 6 6)" xlink:actuate="onLoad" xlink:href="#a" xlink:show="embed" xlink:type="simple" />
            <use transform="matrix(.49 0 0 .57 8 6)" xlink:actuate="onLoad" xlink:href="#a" xlink:show="embed" xlink:type="simple" />
            <use transform="matrix(.49 0 0 .57 10 6)" xlink:actuate="onLoad" xlink:href="#a" xlink:show="embed" xlink:type="simple" />
            <use transform="matrix(.49 0 0 .57 1 7)" xlink:actuate="onLoad" xlink:href="#a" xlink:show="embed" xlink:type="simple" />
            <use transform="matrix(.49 0 0 .57 3 7)" xlink:actuate="onLoad" xlink:href="#a" xlink:show="embed" xlink:type="simple" />
            <use transform="matrix(.49 0 0 .57 5 7)" xlink:actuate="onLoad" xlink:href="#a" xlink:show="embed" xlink:type="simple" />
            <use transform="matrix(.49 0 0 .57 7 7)" xlink:actuate="onLoad" xlink:href="#a" xlink:show="embed" xlink:type="simple" />
            <use transform="matrix(.49 0 0 .57 9 7)" xlink:actuate="onLoad" xlink:href="#a" xlink:show="embed" xlink:type="simple" />
            <use transform="matrix(.49 0 0 .57 11 7)" xlink:actuate="onLoad" xlink:href="#a" xlink:show="embed" xlink:type="simple" />
            <use transform="matrix(.49 0 0 .57 2 8)" xlink:actuate="onLoad" xlink:href="#a" xlink:show="embed" xlink:type="simple" />
            <use transform="matrix(.49 0 0 .57 4 8)" xlink:actuate="onLoad" xlink:href="#a" xlink:show="embed" xlink:type="simple" />
            <use transform="matrix(.49 0 0 .57 6 8)" xlink:actuate="onLoad" xlink:href="#a" xlink:show="embed" xlink:type="simple" />
            <use transform="matrix(.49 0 0 .57 8 8)" xlink:actuate="onLoad" xlink:href="#a" xlink:show="embed" xlink:type="simple" />
            <use transform="matrix(.49 0 0 .57 10 8)" xlink:actuate="onLoad" xlink:href="#a" xlink:show="embed" xlink:type="simple" />
            <use transform="matrix(.49 0 0 .57 1 9)" xlink:actuate="onLoad" xlink:href="#a" xlink:show="embed" xlink:type="simple" />
            <use transform="matrix(.49 0 0 .57 3 9)" xlink:actuate="onLoad" xlink:href="#a" xlink:show="embed" xlink:type="simple" />
            <use transform="matrix(.49 0 0 .57 5 9)" xlink:actuate="onLoad" xlink:href="#a" xlink:show="embed" xlink:type="simple" />
            <use transform="matrix(.49 0 0 .57 7 9)" xlink:actuate="onLoad" xlink:href="#a" xlink:show="embed" xlink:type="simple" />
            <use transform="matrix(.49 0 0 .57 9 9)" xlink:actuate="onLoad" xlink:href="#a" xlink:show="embed" xlink:type="simple" />
            <use transform="matrix(.49 0 0 .57 11 9)" xlink:actuate="onLoad" xlink:href="#a" xlink:show="embed" xlink:type="simple" />
        </g>
    </g>
</svg>
