<svg width="200" height="100" viewBox='0 0 200 100' xmlns:svg="http://www.w3.org/2000/svg" xmlns:xlink="http://www.w3.org/1999/xlink" xmlns="http://www.w3.org/2000/svg">
    <rect width="100%" height="100%" fill="red" />
    <g>
        <rect x="25%" width="50%" height="100%" fill="white" />
        <path d="M -0.5 30 L -0.4 24 -0.5 23.5 -7 24.5 -6 22 -12.5 17 -11 15.5 -12 11.5 -8.5 12.5 -7.5 10.5 -4 14 -5 6 -3 7.5 0 3 3 7.5 5 6 4 14 7.5 10.5 8.5 12.5 12 11.5 11 15.5 12.5 17 6 22 7 24.5 0.5 23.5 0.4 24 0.5 30 Z" fill="red" transform="translate(100,0) scale(3.125)" />
    </g>
</svg>
