<svg id="Capa_1" enable-background="new 0 0 512 512" width="100%" height="100%" viewBox="0 0 512 512"  xmlns="http://www.w3.org/2000/svg"><g><g><g><g><g><g><g><circle cx="256" cy="256" fill="#00c8c8" r="256"/></g></g></g></g></g></g><path d="m129.738 385.459 126.612 126.541c141.224-.189 255.65-114.732 255.65-256 0-18.198-1.899-35.953-5.509-53.077l-81.773-81.772z" fill="#00a0aa"/><g><path d="m196.37 230.239-88.023 27.46-21.065-136.548 118.868 48.084z" fill="#e9edf5"/></g><g><path d="m315.63 230.239 88.023 27.46 21.065-136.548-118.868 48.084z" fill="#cdd2e1"/></g><g><path d="m256 146.504c-86.862 0-157.277 70.415-157.277 157.277s70.416 123.503 157.277 123.503c.691 0 1.379-.009 2.068-.014l10-150.984-10-129.757c-.689-.008-1.377-.025-2.068-.025z" fill="#fff"/></g><g><path d="m413.277 303.781c0 86.862-70.415 123.503-157.277 123.503v-280.78c86.862 0 157.277 70.415 157.277 157.277z" fill="#e9edf5"/></g><g><g><circle cx="171.587" cy="276.286" fill="#636978" r="16.956"/></g><g><circle cx="340.413" cy="276.286" fill="#414952" r="16.956"/></g></g><path d="m267.046 295.422-8.978-15.527h-34.519l21.405 31.511v69.234h13.114l3.406-39.309-1.878-21.677z" fill="#636978"/><path d="m288.451 279.895h-32.55v100.745h11.145v-69.234z" fill="#414952"/><g><path d="m279.878 228.669 30.238-72.607-.001-.001c-11.728-4.297-24.11-7.238-36.956-8.632z" fill="#afb4c8"/></g><g><path d="m232.122 228.669-30.238-72.607.001-.001c11.728-4.297 24.11-7.238 36.956-8.632z" fill="#cdd2e1"/></g></g></svg>
