<svg id="Layer_1" enable-background="new 0 0 512 512" width="100%" height="100%" viewBox="0 0 512 512" xmlns="http://www.w3.org/2000/svg"><g><g id="XMLID_91_"><g id="XMLID_92_"><g id="XMLID_93_"><g id="XMLID_94_"><g id="XMLID_95_"><g id="XMLID_96_"><g id="XMLID_97_"><g id="XMLID_98_"><g id="XMLID_99_"><g id="XMLID_100_"><g id="XMLID_101_"><g id="XMLID_102_"><g id="XMLID_103_"><g id="XMLID_104_"><circle id="XMLID_105_" cx="256" cy="256" fill="#27e0c9" r="256"/></g></g></g></g></g></g></g></g></g></g></g></g></g></g><path d="m512 256c0-24.594-3.477-48.375-9.951-70.887l-26.307-26.565s-115.487-22.465-115.603-20.561l-11.265-11.168s-154.13-16.093-179.649 14.541l-20.853-21.47-104.592 213.77 176.031 175.782c11.825 1.673 23.903 2.558 36.189 2.558 141.385 0 256-114.615 256-256z" fill="#17bfab"/><g><g><path d="m354.959 292.86c-8.29 46.73-.69 130.14-37.2 130.14-45.31 0-61.76-24.51-61.76-24.51s-16.44 24.51-61.75 24.51c-36.52 0-28.91-83.41-37.2-130.14-1.99-11.27 52.9-182.656 98.95-182.656 46.06 0 100.95 171.386 98.96 182.656z" fill="#fffefd"/><path d="m354.96 292.86c-8.29 46.73-.69 130.14-37.2 130.14-45.31 0-61.76-24.51-61.76-24.51v-288.29c46.06 0 100.95 171.39 98.96 182.66z" fill="#e6e9ed"/><path d="m364.559 267.13c-4.68 5.33-7.61 14.46-9.6 25.73-143.34-26.54-43.2-146.62-98.96-151.83-55.75 5.21 44.37 125.29-98.95 151.83-1.99-11.27-4.92-20.4-9.6-25.73-24.13-27.41-27.42-75.66 0-119.52 27.41-43.86 62.5-55.94 108.55-55.94 46.06 0 81.15 12.08 108.56 55.94s24.12 92.11 0 119.52z" fill="#cc8656"/><path d="m364.56 267.13c-4.68 5.33-7.61 14.46-9.6 25.73-143.34-26.54-43.2-146.62-98.96-151.83v-49.36c46.06 0 81.15 12.08 108.56 55.94s24.12 92.11 0 119.52z" fill="#b56f40"/><path d="m293.572 323.175c-3.795-12.903-13.662-19.923-37.57-19.923s-33.775 7.021-37.57 19.923c-3.795 12.903 11.005 34.724 37.57 34.724 26.564 0 41.365-21.821 37.57-34.724z" fill="#514b40"/><path d="m256.002 357.903v-54.653c23.908 0 33.771 7.022 37.573 19.929 3.794 12.898-11.01 34.724-37.573 34.724z" fill="#3a352e"/><g><circle cx="191.154" cy="224.232" fill="#514b40" r="15.707"/><circle cx="320.846" cy="224.232" fill="#423c34" r="15.707"/></g><g><path d="m153.728 130.916c-2.327-7.192-5.568-20.609-29.564-15.016-26.866 6.262-81.985 31.255-89.394 44.792s-22.126 134.354 3.178 166.63 77.788 25.793 88.89-23.661c11.102-49.453 31.989-156.982 26.89-172.745z" fill="#b56f40"/><path d="m358.272 130.916c2.327-7.192 5.568-20.609 29.564-15.016 26.866 6.262 81.985 31.255 89.394 44.792s22.126 134.354-3.178 166.63-77.788 25.793-88.89-23.661c-11.102-49.453-31.989-156.982-26.89-172.745z" fill="#a35d2e"/></g></g></g></g></svg>
