<svg id="Layer_1" enable-background="new 0 0 512 512" width="100%" height="100%" viewBox="0 0 512 512" xmlns="http://www.w3.org/2000/svg"><g><g id="XMLID_16_"><g id="XMLID_18_"><g id="XMLID_20_"><g id="XMLID_21_"><g id="XMLID_22_"><g id="XMLID_24_"><g id="XMLID_26_"><g id="XMLID_27_"><g id="XMLID_28_"><g id="XMLID_29_"><g id="XMLID_31_"><g id="XMLID_33_"><g id="XMLID_34_"><g id="XMLID_35_"><circle id="XMLID_36_" cx="256" cy="256" fill="#14c4a2" r="256"/></g></g></g></g></g></g></g></g></g></g></g></g></g></g><path d="m512 256c0-37.458-8.048-73.035-22.504-105.101l-39.507-39.507s-34.627 13.262-49.215 64.652l-29.005-28.921s-185.944-16.997-214.805 12.571l-33.759-33.502-40.983 269.44 107.755 107.755c21.066 5.608 43.192 8.613 66.023 8.613 141.385 0 256-114.615 256-256z" fill="#02a082"/><g><g id="XMLID_301_"><g><g id="XMLID_562_"><g id="XMLID_564_"><g id="XMLID_565_"><g id="XMLID_566_"><g id="XMLID_567_"><g id="XMLID_569_"><g id="XMLID_570_"><g id="XMLID_581_"><g id="XMLID_618_"><g id="XMLID_619_"><g id="XMLID_620_"><g id="XMLID_621_"><g id="XMLID_622_"><circle id="XMLID_623_" cx="256" cy="256" fill="#fcfcfc" r="158.934"/></g></g></g></g></g></g></g></g></g></g></g></g></g></g></g><g id="XMLID_392_"><g><g id="XMLID_571_"><g id="XMLID_572_"><g id="XMLID_576_"><g id="XMLID_577_"><g id="XMLID_578_"><g id="XMLID_579_"><g id="XMLID_580_"><g id="XMLID_590_"><g id="XMLID_599_"><g id="XMLID_607_"><g id="XMLID_608_"><g id="XMLID_609_"><g id="XMLID_617_"><path d="m414.93 256c0 87.78-71.15 158.93-158.93 158.93v-317.86c87.78 0 158.93 71.15 158.93 158.93z" fill="#e2e2e2"/></g></g></g></g></g></g></g></g></g></g></g></g></g></g></g><g id="XMLID_324_"><g><g id="XMLID_582_"><g id="XMLID_583_"><g id="XMLID_584_"><g id="XMLID_585_"><g id="XMLID_586_"><g id="XMLID_587_"><g id="XMLID_588_"><g id="XMLID_589_"><g id="XMLID_639_"><g id="XMLID_640_"><g id="XMLID_643_"><g id="XMLID_645_"><g id="XMLID_646_"><circle id="XMLID_647_" cx="256" cy="256" fill="#e2e2e2" r="101.998"/></g></g></g></g></g></g></g></g></g></g></g></g></g></g></g><g id="XMLID_325_"><g><g id="XMLID_625_"><g id="XMLID_626_"><g id="XMLID_627_"><g id="XMLID_628_"><g id="XMLID_629_"><g id="XMLID_630_"><g id="XMLID_631_"><g id="XMLID_632_"><g id="XMLID_633_"><g id="XMLID_634_"><g id="XMLID_635_"><g id="XMLID_636_"><g id="XMLID_637_"><path d="m358 256c0 56.33-45.67 102-102 102v-204c56.33 0 102 45.67 102 102z" fill="#c6c6c6"/></g></g></g></g></g></g></g></g></g></g></g></g></g></g></g><g><path d="m292.938 211.302c-7.024-2.408-14.611-2.246-21.364.459-6.152 2.464-11.47 6.938-15.574 13.061-4.105-6.123-9.422-10.597-15.574-13.061-6.752-2.704-14.339-2.867-21.364-.459-13.358 4.581-25.688 19.239-21.194 40.599 1.694 8.054 5.789 16.142 12.169 24.04 5.028 6.224 11.487 12.353 19.198 18.218 13.063 9.935 25.072 15.622 25.577 15.859l1.188.558 1.188-.558c.505-.237 12.515-5.924 25.577-15.859 7.711-5.865 14.17-11.994 19.198-18.218 6.381-7.898 10.475-15.987 12.169-24.04 4.494-21.359-7.836-36.018-21.194-40.599z" fill="#ff735c"/><path d="m314.132 251.901c-1.695 8.053-5.789 16.141-12.17 24.038-5.028 6.224-11.485 12.356-19.195 18.22-13.064 9.934-25.072 15.625-25.577 15.857l-1.19.563v-85.759c4.105-6.12 9.424-10.596 15.572-13.058 6.753-2.706 14.342-2.868 21.367-.459 13.355 4.581 25.687 19.236 21.193 40.598z" fill="#fc435f"/></g><path d="m93.808 111.393c-30.242 0-62.465 39.878-21.398 104.311v162.44c0 11.34 9.193 20.534 20.534 20.534 11.34 0 20.534-9.193 20.534-20.534v-162.44c41.067-64.433 10.571-104.311-19.67-104.311z" fill="#e2e2e2"/><path d="m389.498 209.887c-.001.079-.002.158-.003.237v.002c-.12 15.703 5.342 34.912 19.426 57.009v111.009c0 11.34 9.193 20.534 20.534 20.534 11.34 0 20.534-9.193 20.534-20.534v-111.009-155.742c.001 0-60.38 10.494-60.491 98.494z" fill="#c6c6c6"/></g></g></svg>
