<svg id="Capa_1" enable-background="new 0 0 512 512" width="100%" height="100%" viewBox="0 0 512 512" xmlns="http://www.w3.org/2000/svg"><g><g><g><g><g><g><circle cx="256" cy="256" fill="#bfe1ff" r="256"/></g></g></g></g></g><path d="m512 256c0-11.327-.736-22.483-2.162-33.421l-82.609-82.609-8.38 14.094-60.157-60.157-273.921 140.283 103.94 103.94-93.508 65.74 101.142 101.142c19.141 4.569 39.115 6.988 59.655 6.988 141.385 0 256-114.615 256-256z" fill="#87c7ff"/><g><path d="m248.319 144.451h-102.812v-31.267c0-18.985 18.661-32.348 36.634-26.232l66.178 22.517z" fill="#fa0"/><path d="m263.681 144.451h102.812v-31.267c0-18.985-18.661-32.348-36.634-26.232l-66.178 22.517z" fill="#ff9500"/></g><path d="m95.203 174.436h321.594v229.434h-321.594z" fill="#ff73a5"/><path d="m256.108 174.436h160.688v229.434h-160.688z" fill="#ff468c"/><path d="m84.771 139.969h342.458v94.221h-342.458z" fill="#ff5f96"/><path d="m256.108 139.969h171.12v94.221h-171.12z" fill="#d72878"/><path d="m273.558 154.405h-35.116c-9.072 0-16.426-7.354-16.426-16.426v-27.647c0-9.072 7.354-16.426 16.426-16.426h35.116c9.072 0 16.426 7.354 16.426 16.426v27.647c0 9.072-7.354 16.426-16.426 16.426z" fill="#ff9500"/><path d="m273.558 93.907h-17.45v60.499h17.45c9.072 0 16.426-7.354 16.426-16.426v-27.648c0-9.071-7.354-16.425-16.426-16.425z" fill="#fe6a16"/><path d="m207.157 139.969h97.686v263.901h-97.686z" fill="#ffce00"/><path d="m256.108 139.969h48.735v263.901h-48.735z" fill="#fdba12"/></g></svg>
