<svg xmlns="http://www.w3.org/2000/svg" width="100%" height="100%" version="1.1" viewBox="0 0 512 512">
<g id="surface1">
<path d="M 512 256 C 512 397.386719 397.386719 512 256 512 C 114.613281 512 0 397.386719 0 256 C 0 114.613281 114.613281 0 256 0 C 397.386719 0 512 114.613281 512 256 Z M 512 256 " style=" stroke:none;fill-rule:nonzero;fill:rgb(0%,93.72549%,81.960784%);fill-opacity:1;" />
<path d="M 510.6875 282.082031 L 314.300781 85.753906 C 311.765625 82.941406 308.828125 80.519531 305.453125 78.578125 L 264.566406 38.664062 L 247.433594 38.664062 L 247.433594 81.46875 C 245.980469 80.804688 244.566406 79.996094 243.226562 79.015625 C 234.601562 72.699219 222.402344 69.480469 206.550781 78.578125 C 172.394531 98.175781 182.71875 167.152344 208.238281 191.925781 L 217.804688 201.164062 L 123.164062 201.164062 C 109.449219 201.164062 98.335938 212.28125 98.335938 225.996094 L 98.335938 281.328125 C 98.335938 288.253906 101.167969 294.511719 105.738281 299.015625 L 112.910156 306.160156 L 105.582031 306.160156 C 94.289062 306.160156 85.140625 315.300781 85.140625 326.59375 L 85.140625 401.722656 C 85.140625 407.707031 87.722656 413.078125 91.824219 416.8125 L 173.960938 498.570312 C 199.714844 507.277344 227.304688 512 256 512 C 388.578125 512 497.617188 411.21875 510.6875 282.082031 Z M 510.6875 282.082031 " style=" stroke:none;fill-rule:nonzero;fill:rgb(0%,67.843137%,58.431373%);fill-opacity:1;" />
<path d="M 426.859375 326.59375 L 426.859375 401.722656 C 426.859375 413.011719 417.710938 422.164062 406.421875 422.164062 L 105.578125 422.164062 C 94.289062 422.164062 85.140625 413.011719 85.140625 401.722656 L 85.140625 326.59375 C 85.140625 315.304688 94.289062 306.164062 105.578125 306.164062 L 406.421875 306.164062 C 417.710938 306.164062 426.859375 315.304688 426.859375 326.59375 Z M 426.859375 326.59375 " style=" stroke:none;fill-rule:nonzero;fill:rgb(100%,30.980392%,9.803922%);fill-opacity:1;" />
<path d="M 426.859375 326.59375 L 426.859375 401.722656 C 426.859375 413.011719 417.710938 422.164062 406.421875 422.164062 L 256 422.164062 L 256 306.164062 L 406.421875 306.164062 C 417.710938 306.164062 426.859375 315.304688 426.859375 326.59375 Z M 426.859375 326.59375 " style=" stroke:none;fill-rule:nonzero;fill:rgb(93.333333%,14.901961%,0%);fill-opacity:1;" />
<path d="M 121.75 306.160156 L 158.511719 306.160156 L 158.511719 422.160156 L 121.75 422.160156 Z M 121.75 306.160156 " style=" stroke:none;fill-rule:nonzero;fill:rgb(79.215686%,10.980392%,0%);fill-opacity:1;" />
<path d="M 353.488281 306.160156 L 390.25 306.160156 L 390.25 422.160156 L 353.488281 422.160156 Z M 353.488281 306.160156 " style=" stroke:none;fill-rule:nonzero;fill:rgb(62.745098%,9.019608%,0%);fill-opacity:1;" />
<path d="M 331.949219 389.910156 L 331.949219 338.40625 C 324.058594 338.40625 317.660156 332.007812 317.660156 324.117188 L 194.335938 324.117188 C 194.335938 332.007812 187.9375 338.40625 180.042969 338.40625 L 180.042969 389.910156 C 187.9375 389.910156 194.335938 396.308594 194.335938 404.203125 L 317.660156 404.203125 C 317.660156 396.308594 324.058594 389.910156 331.949219 389.910156 Z M 331.949219 389.910156 " style=" stroke:none;fill-rule:nonzero;fill:rgb(79.215686%,10.980392%,0%);fill-opacity:1;" />
<path d="M 317.660156 404.203125 C 317.660156 396.308594 324.058594 389.910156 331.949219 389.910156 L 331.949219 338.40625 C 324.058594 338.40625 317.660156 332.007812 317.660156 324.117188 L 255.996094 324.117188 L 255.996094 404.203125 Z M 317.660156 404.203125 " style=" stroke:none;fill-rule:nonzero;fill:rgb(62.745098%,9.019608%,0%);fill-opacity:1;" />
<path d="M 398.191406 217.867188 L 407.332031 217.867188 L 413.664062 201.164062 L 123.164062 201.164062 C 109.449219 201.164062 98.332031 212.28125 98.332031 225.996094 L 98.332031 281.328125 C 98.332031 295.039062 109.449219 306.15625 123.164062 306.15625 L 413.667969 306.15625 L 407.335938 289.457031 L 398.195312 289.457031 L 398.195312 217.867188 Z M 398.191406 217.867188 " style=" stroke:none;fill-rule:nonzero;fill:rgb(57.647059%,19.215686%,69.803922%);fill-opacity:1;" />
<path d="M 407.328125 289.464844 L 413.671875 306.164062 L 256 306.164062 L 256 201.164062 L 413.671875 201.164062 L 407.328125 217.863281 L 398.191406 217.863281 L 398.191406 289.464844 Z M 407.328125 289.464844 " style=" stroke:none;fill-rule:nonzero;fill:rgb(27.058824%,6.666667%,32.156863%);fill-opacity:1;" />
<path d="M 128.597656 289.460938 L 398.191406 289.460938 L 398.191406 217.867188 L 128.597656 217.867188 C 122.101562 217.867188 116.832031 223.132812 116.832031 229.632812 L 116.832031 277.695312 C 116.832031 284.191406 122.101562 289.460938 128.597656 289.460938 Z M 128.597656 289.460938 " style=" stroke:none;fill-rule:nonzero;fill:rgb(100%,100%,100%);fill-opacity:1;" />
<path d="M 256 217.863281 L 398.191406 217.863281 L 398.191406 289.464844 L 256 289.464844 Z M 256 217.863281 " style=" stroke:none;fill-rule:nonzero;fill:rgb(100%,96.078431%,79.607843%);fill-opacity:1;" />
<path d="M 247.433594 38.667969 L 264.566406 38.667969 L 264.566406 85.097656 L 247.433594 85.097656 Z M 247.433594 38.667969 " style=" stroke:none;fill-rule:nonzero;fill:rgb(75.294118%,38.431373%,0%);fill-opacity:1;" />
<path d="M 256 38.667969 L 264.566406 38.667969 L 264.566406 85.097656 L 256 85.097656 Z M 256 38.667969 " style=" stroke:none;fill-rule:nonzero;fill:rgb(43.921569%,21.568627%,0%);fill-opacity:1;" />
<path d="M 243.226562 79.015625 C 234.597656 72.699219 222.402344 69.480469 206.546875 78.578125 C 166.734375 101.425781 187.363281 191.382812 222.050781 200.179688 C 237.566406 204.113281 244.710938 195.09375 256 194.039062 L 256 83.546875 C 251.527344 83.34375 247.09375 81.847656 243.226562 79.015625 Z M 243.226562 79.015625 " style=" stroke:none;fill-rule:nonzero;fill:rgb(100%,38.823529%,24.313725%);fill-opacity:1;" />
<path d="M 268.773438 79.015625 C 277.402344 72.699219 289.597656 69.480469 305.453125 78.578125 C 345.265625 101.425781 324.636719 191.382812 289.949219 200.179688 C 274.433594 204.113281 267.289062 195.09375 256 194.039062 L 256 83.546875 C 260.472656 83.34375 264.90625 81.847656 268.773438 79.015625 Z M 268.773438 79.015625 " style=" stroke:none;fill-rule:nonzero;fill:rgb(100%,19.607843%,0%);fill-opacity:1;" />
</g>
</svg>
