<svg id="Capa_1" enable-background="new 0 0 512 512" viewBox="0 0 512 512" xmlns="http://www.w3.org/2000/svg"><g><path d="m512 256c0 57.46-18.93 110.5-50.9 153.22l-205.1 51.39-205.1-51.39c-31.97-42.72-50.9-95.76-50.9-153.22 0-141.38 114.62-256 256-256s256 114.62 256 256z" fill="#b6f8ff"/><path d="m98.574 421.165 157.426 39.445 205.1-51.39c31.97-42.72 50.9-95.76 50.9-153.22 0-8.141-.397-16.188-1.141-24.135l-199.578-199.578-20.234 20.234-35.047-35.047-29.053 73.506-81.508 37.056 35.046 35.046-20.234 20.234 59.092 59.092-6.689 3.583-89.506-89.505-19.059 39.529-28.019 20.397 24.698 24.698-47.782 39.715 25.866 25.866-48.153 46.6z" fill="#71e1ff"/><g><g><g><path d="m234.188 46.631-33.469-14.344-4.311 36.156-36.157 4.312 14.344 33.468-29.156 21.813 29.156 21.812-14.344 33.468 36.157 4.312 4.311 36.157 33.469-14.345 21.812 29.157 55.281-105.703-55.281-115.42z" fill="#ffe252"/></g></g><path d="m366.561 128.036-29.156-21.813 14.344-33.468-36.157-4.312-4.311-36.156-33.469 14.344-21.812-29.157v221.123l21.812-29.157 33.469 14.345 4.311-36.157 36.157-4.312-14.344-33.468z" fill="#ffb236"/><g><g><path d="m193.109 128.036c0 34.734 28.157 62.891 62.891 62.891l46.224-59.665-46.224-66.118c-34.734 0-62.891 28.158-62.891 62.892z" fill="#ffff97"/></g></g><path d="m256 65.144v125.783c34.734 0 62.891-28.157 62.891-62.891s-28.157-62.892-62.891-62.892z" fill="#ffe252"/></g><g><g><path d="m363.568 331.103v82.12h25.284l16.456-41.06-16.456-41.06z" fill="#935241"/><path d="m388.852 331.103h25.285v82.119h-25.285z" fill="#66352b"/></g><g><path d="m388.852 156.486-47.077 59.926h21.362l-44.446 64.414h23.084l-45.371 72.465h92.448l41.696-83.374z" fill="#3ec185"/><path d="m388.852 156.486 47.078 59.926h-21.362l44.445 64.414h-23.083l45.37 72.465h-92.448z" fill="#209171"/></g><g><path d="m97.863 331.103v82.12h25.285l20.975-38.018-20.975-44.102z" fill="#935241"/><path d="m123.148 331.103h25.285v82.119h-25.285z" fill="#66352b"/></g><g><path d="m123.148 156.486-47.078 59.926h21.362l-44.446 64.414h23.084l-45.37 72.465h92.448l32.641-81.211z" fill="#3ec185"/><path d="m123.148 156.486 47.077 59.926h-21.362l44.446 64.414h-23.084l45.371 72.465h-92.448z" fill="#209171"/></g><g><path d="m230.715 331.103v82.12h25.285l18.912-33.679-18.912-48.441z" fill="#935241"/><path d="m256 331.103h25.285v82.119h-25.285z" fill="#66352b"/></g><g><path d="m256 156.486-47.078 59.926h21.362l-44.445 64.414h23.083l-45.37 72.465h92.448l35.947-80.1z" fill="#3ec185"/><path d="m256 156.486 47.078 59.926h-21.362l44.445 64.414h-23.083l45.37 72.465h-92.448z" fill="#209171"/></g></g><g><path d="m50.9 409.22c46.69 62.39 121.18 102.78 205.1 102.78l94.865-51.39-94.865-51.39z" fill="#ed7a1b"/></g><path d="m256 409.22v102.78c83.92 0 158.41-40.39 205.1-102.78z" fill="#bc5013"/></g></svg>
