<svg width="30" height="9" viewBox="0 0 30 9" fill="none" xmlns="http://www.w3.org/2000/svg">
<path fill-rule="evenodd" clip-rule="evenodd" d="M3.68536 0.733856L0.362976 8.25641H4.34033L4.83341 7.057H5.96047L6.45354 8.25641H10.8315V7.34098L11.2216 8.25641H13.4862L13.8763 7.32163V8.25641H22.9813L24.0884 7.08815L25.125 8.25641L29.8015 8.26608L26.4687 4.51613L29.8015 0.733856H25.1976L24.1199 1.88053L23.1158 0.733856H13.2108L12.3603 2.67549L11.4898 0.733856H7.52076V1.61813L7.07923 0.733856H3.68536ZM4.45497 1.80208H6.39372L8.59745 6.90317V1.80208H10.7213L12.4234 5.45954L13.9921 1.80208H16.1053V7.20001H14.8195L14.809 2.97023L12.9344 7.20001H11.7841L9.89898 2.97023V7.20001H7.25372L6.75222 5.98987H4.04284L3.54239 7.19895H2.12508L4.45497 1.80208ZM22.5102 1.80208H17.2817V7.19683H22.4293L24.0884 5.40892L25.6875 7.19683H27.3592L24.9295 4.51509L27.3592 1.80208H25.7601L24.1094 3.56946L22.5102 1.80208ZM5.39812 2.71548L4.50549 4.87126H6.28971L5.39812 2.71548ZM18.5729 3.90507V2.91969V2.91874H21.8353L23.2588 4.49463L21.7722 6.07913H18.5729V5.00337H21.4253V3.90507H18.5729Z" fill="white"/>
</svg>
