<svg width="36" height="14" viewBox="0 0 36 14" fill="none" xmlns="http://www.w3.org/2000/svg">
<path d="M7.23928 2.72401C6.38623 2.72401 5.69806 3.24014 5.25361 3.24014C4.78766 3.24014 4.16401 2.75269 3.42566 2.75269C2.02064 2.75269 0.594116 3.92115 0.594116 6.10753C0.594116 7.4767 1.12458 8.91756 1.77691 9.85663C2.32888 10.638 2.82351 11.2832 3.52602 11.2832C4.22136 11.2832 4.5296 10.8244 5.39698 10.8244C6.27154 10.8244 6.47225 11.2688 7.23928 11.2688C8.0063 11.2688 8.51526 10.5735 8.99555 9.88531C9.52602 9.08961 9.75541 8.31541 9.76258 8.27957C9.71956 8.26523 8.2572 7.67025 8.2572 5.99283C8.2572 4.5448 9.40415 3.89964 9.46867 3.84946C8.71598 2.75269 7.56186 2.72401 7.23928 2.72401ZM6.84501 1.79928C7.1891 1.37634 7.43283 0.802867 7.43283 0.222222C7.43283 0.143369 7.42566 0.0645161 7.41132 0C6.85218 0.0215054 6.16401 0.37276 5.75541 0.853047C5.43999 1.21864 5.13892 1.79928 5.13892 2.37993C5.13892 2.46595 5.15326 2.55914 5.16042 2.58781C5.19627 2.59498 5.25361 2.60215 5.31096 2.60215C5.81992 2.60215 6.46508 2.25806 6.84501 1.79928Z" fill="white"/>
<path d="M12.5804 0.810036V11.1541H14.4298V7.76344H16.6736C18.7668 7.76344 20.2291 6.35842 20.2291 4.30824C20.2291 2.22222 18.8169 0.810036 16.7524 0.810036H12.5804ZM14.4298 2.35842H16.265C17.5983 2.35842 18.351 3.03943 18.351 4.30824C18.351 5.54122 17.5768 6.22939 16.2578 6.22939H14.4298V2.35842Z" fill="white"/>
<path d="M23.6993 9.88531C22.9107 9.88531 22.3444 9.49104 22.3444 8.83154C22.3444 8.19355 22.8104 7.83513 23.8068 7.77061L25.5774 7.65591V8.27957C25.5774 9.18996 24.7745 9.88531 23.6993 9.88531ZM23.176 11.2832C24.2011 11.2832 25.0613 10.8387 25.4985 10.0789H25.6204V11.1541H27.3337V5.79928C27.3337 4.1362 26.201 3.15412 24.1867 3.15412C22.3229 3.15412 21.0254 4.03584 20.8821 5.41935H22.5595C22.7243 4.88889 23.2835 4.60215 24.1007 4.60215C25.0613 4.60215 25.5774 5.03226 25.5774 5.79928V6.45878L23.5559 6.58065C21.6491 6.69534 20.581 7.51255 20.581 8.9319C20.581 10.3656 21.6634 11.2832 23.176 11.2832Z" fill="white"/>
<path d="M29.3128 14C31.069 14 31.9077 13.3548 32.5744 11.405L35.406 3.31183H33.5278L31.6999 9.43369H31.578L29.7429 3.31183H27.793L30.5959 11.19L30.5027 11.5341C30.2733 12.2581 29.8504 12.5448 29.0977 12.5448C28.9758 12.5448 28.7106 12.5376 28.6103 12.5161V13.9713C28.7249 13.9928 29.2052 14 29.3128 14Z" fill="white"/>
</svg>
