<svg viewBox="0 -34 512.00017 512" xmlns="http://www.w3.org/2000/svg"><path d="m351.703125 58.789062c0-5.53125 4.480469-10.015624 10.011719-10.015624s10.015625 4.484374 10.015625 10.015624v12.867188c8.234375 1.898438 15.589843 6.089844 21.363281 11.863281 8.03125 8.03125 13 19.125 13 31.375 0 5.53125-4.484375 10.015625-10.015625 10.015625s-10.015625-4.480468-10.015625-10.015625c0-6.722656-2.726562-12.808593-7.128906-17.214843-4.40625-4.40625-10.492188-7.128907-17.21875-7.128907-6.722656 0-12.8125 2.722657-17.214844 7.128907-4.40625 4.40625-7.128906 10.492187-7.128906 17.214843 0 6.726563 2.722656 12.8125 7.128906 17.21875 4.402344 4.402344 10.492188 7.128907 17.214844 7.128907 12.253906 0 23.347656 4.96875 31.378906 12.996093 8.03125 8.03125 12.996094 19.125 12.996094 31.378907 0 12.253906-4.964844 23.347656-12.996094 31.378906-5.773438 5.773437-13.128906 9.964844-21.363281 11.863281v12.867187c0 5.53125-4.484375 10.015626-10.015625 10.015626s-10.015625-4.484376-10.015625-10.015626v-12.867187c-8.230469-1.902344-15.589844-6.089844-21.359375-11.863281-8.03125-8.03125-13-19.125-13-31.378906 0-5.53125 4.484375-10.015626 10.015625-10.015626s10.015625 4.484376 10.015625 10.015626c0 6.726562 2.722656 12.8125 7.128906 17.21875 4.40625 4.402343 10.492188 7.128906 17.214844 7.128906 6.726562 0 12.8125-2.726563 17.21875-7.128906 4.40625-4.40625 7.128906-10.492188 7.128906-17.21875 0-6.722657-2.722656-12.808594-7.128906-17.214844s-10.492188-7.132813-17.21875-7.132813c-12.25 0-23.34375-4.964843-31.375-12.996093s-13-19.125-13-31.378907c0-12.25 4.96875-23.34375 13-31.375 5.773437-5.773437 13.128906-9.964843 21.363281-11.863281zm109.199219-17.691406c5.523437 0 10 4.476563 10 10 0 5.523438-4.476563 10-10 10-5.523438 0-10-4.476562-10-10 0-5.523437 4.476562-10 10-10zm-25.636719-21.898437c-22.511719-12.65625-47.730469-19.199219-73.550781-19.199219-41.496094 0-79.066406 16.820312-106.265625 44.019531-27.195313 27.195313-44.019531 64.765625-44.019531 106.261719 0 22.375 4.914062 43.640625 13.726562 62.777344 8.394531 18.226562 20.339844 34.492187 34.949219 47.910156l-5.402344 57.875c-.28125 1.914062-.015625 3.929688.886719 5.800781 2.398437 4.96875 8.371094 7.054688 13.339844 4.65625l64.691406-31.386719c3.992187.753907 8.089844 1.355469 12.273437 1.796876 5.355469.5625 10.636719.855468 15.820313.855468 41.5 0 79.070312-16.820312 106.265625-44.019531 27.199219-27.195313 44.019531-64.765625 44.019531-106.265625 0-25.285156-6.277344-50.007812-18.445312-72.183594-1.699219-3.089844-4.125-5.179687-8.773438-5.179687s-10 6.367187-10 10c0 2.84375 0 2.601562 1.210938 4.8125 10.1875 18.566406 15.980468 39.882812 15.980468 62.550781 0 35.972656-14.582031 68.535156-38.152344 92.105469-23.570312 23.570312-56.132812 38.148437-92.105468 38.148437-4.8125 0-9.410156-.234375-13.78125-.695312-4.523438-.476563-9.050782-1.203125-13.5625-2.167969-2.386719-.503906-4.753906-.113281-6.75.945313l-51.449219 24.960937 4.277344-45.832031c.300781-3.34375-1.082031-6.449219-3.449219-8.480469l.007812-.007813c-14.210937-12.167968-25.769531-27.355468-33.699218-44.570312-7.601563-16.519531-11.847656-34.945312-11.847656-54.40625 0-35.96875 14.582031-68.53125 38.152343-92.101562 23.570313-23.570313 56.132813-38.152344 92.101563-38.152344 23.003906 0 44.609375 5.964844 63.359375 16.425781.128906.074219.261719.144531.386719.214844h.003906c1.386718.730469 2.972656 1.144531 4.648437 1.144531 5.523438 0 10-5.414062 10-10 .003907-4.582031-1.933593-6.867188-4.847656-8.613281zm-253.316406 251.917969c5.519531 0 10 4.476562 10 10 0 5.523437-4.480469 10-10 10-5.523438 0-10-4.476563-10-10 0-5.523438 4.476562-10 10-10zm16.363281 35.390624c4.945312 0 9.050781 3.585938 9.855469 8.304688 1.601562 7.074219 2.484375 14.367188 2.589843 21.777344.144532 10.503906-1.296874 20.871094-4.183593 30.78125l23.242187 48.394531c2.375 4.972656.273438 10.925781-4.695312 13.300781-1.984375.953125-4.128906 1.1875-6.136719.808594l-48.332031-9.097656c-3.699219 2.917968-7.640625 5.617187-11.8125 8.070312-29.761719 17.488282-66.34375 19.460938-97.980469 4.710938-52.691406-24.570313-75.554687-87.351563-50.980469-140.046875 24.566406-52.695313 87.347656-75.554688 140.046875-50.984375 3.175781 1.484375 6.273438 3.125 9.289063 4.914062 2.316406 1.828125 3.753906 3.582032 3.753906 7.9375 0 6.582032-7.5625 12.023438-13.96875 9.28125-2.441406-1.449218-4.953125-2.78125-7.523438-3.980468-42.746093-19.933594-93.515624-1.46875-113.449218 41.28125-19.929688 42.746093-1.464844 93.511718 41.28125 113.445312 25.589844 11.933594 55.332031 10.394531 79.4375-3.773438 4.40625-2.589843 8.542968-5.566406 12.378906-8.867187 2.238281-2.070313 5.394531-3.09375 8.625-2.488281l33.535156 6.324218-16.390625-34.144531c-1.074219-2.242187-1.316406-4.886719-.472656-7.429687 2.996094-8.992188 4.515625-18.519532 4.382813-28.203125-.082032-5.910157-.785157-11.730469-2.054688-17.382813-.285156-.929687-.4375-1.914062-.4375-2.933594 0-5.523437 4.476562-10 10-10zm-146.992188 49.039063h14.273438c5.53125 0 10.015625-4.480469 10.015625-10.015625 0-5.527344-4.484375-10.011719-10.015625-10.011719h-14.273438c-5.527343 0-10.011718 4.484375-10.011718 10.011719 0 5.535156 4.484375 10.015625 10.011718 10.015625zm92.390626 0h14.269531c5.53125 0 10.015625-4.480469 10.015625-10.015625 0-5.527344-4.484375-10.011719-10.015625-10.011719h-14.269531c-5.53125 0-10.015626 4.484375-10.015626 10.011719 0 5.535156 4.484376 10.015625 10.015626 10.015625zm-46.195313 0h14.269531c5.53125 0 10.015625-4.480469 10.015625-10.015625 0-5.527344-4.484375-10.011719-10.015625-10.011719h-14.269531c-5.53125 0-10.015625 4.484375-10.015625 10.011719 0 5.535156 4.484375 10.015625 10.015625 10.015625zm0 0" fill-rule="evenodd"/></svg>