<?xml version="1.0" encoding="iso-8859-1"?>
<!-- Generator: Adobe Illustrator 19.0.0, SVG Export Plug-In . SVG Version: 6.00 Build 0)  -->
<svg version="1.1" id="Capa_1" xmlns="http://www.w3.org/2000/svg" xmlns:xlink="http://www.w3.org/1999/xlink" x="0px" y="0px"
	 viewBox="0 0 512.229 512.229" style="enable-background:new 0 0 512.229 512.229;" xml:space="preserve">
<g transform="translate(0 -1)">
	<g>
		<g>
			<path d="M511.693,410.128c-3.392-34.53-25.568-64.367-57.653-77.572c-32.085-13.205-68.839-7.62-95.554,14.52V192.313
				c15.573,8.973,33.227,13.702,51.2,13.716c56.538-0.039,102.361-45.862,102.4-102.4c0.086-38.689-21.64-74.123-56.16-91.594
				c-34.52-17.47-75.939-13.994-107.063,8.987c-31.125,22.98-46.64,61.541-40.106,99.674H203.415
				c6.446-38.09-9.096-76.565-40.19-99.49C132.13-1.72,90.78-5.191,56.299,12.23C21.818,29.651,0.08,64.997,0.086,103.629
				c0.035,56.54,45.86,102.365,102.4,102.4c17.973-0.013,35.627-4.743,51.2-13.716v154.762
				c-26.721-22.108-63.46-27.668-95.527-14.458S3.932,375.652,0.537,410.167s12.53,68.086,41.408,87.291l0.05,0.031l0.064,0.039
				c31.427,20.934,72.355,20.935,103.783,0.003l0.073-0.045l0.038-0.023c34.055-22.482,49.532-64.498,38.199-103.7H328.02
				c-11.332,39.198,4.141,81.211,38.191,103.696l0.05,0.031l0.064,0.039c31.387,20.915,72.264,20.936,103.673,0.054l0.24-0.145
				C499.14,478.24,515.086,444.658,511.693,410.128z M409.686,188.962c-18.469-0.022-36.433-6.03-51.2-17.122v-21.848
				c5.325-8.951,12.914-16.341,22.002-21.427c17.564,12.286,40.941,12.261,58.479-0.063c14.346,8.035,24.714,21.663,28.628,37.633
				C451.917,180.862,431.196,189.029,409.686,188.962z M375.553,86.562c0-18.851,15.282-34.133,34.133-34.133
				c18.851,0,34.133,15.282,34.133,34.133c-0.02,18.843-15.29,34.113-34.133,34.133C390.835,120.695,375.553,105.413,375.553,86.562
				z M382.244,22.765c34.633-11.762,72.91-0.145,95.164,28.882c22.253,29.027,23.534,69.008,3.182,99.399
				c-5.939-14.343-16.105-26.537-29.146-34.959c15.079-21.254,11.789-50.443-7.643-67.806
				c-19.432-17.364-48.806-17.361-68.236,0.005c-19.43,17.367-22.715,46.556-7.633,67.808c-4.813,3.185-9.252,6.904-13.231,11.085
				c-3.205-4.076-8.097-6.464-13.282-6.483h-15.146c-1.226-5.608-1.87-11.327-1.921-17.067
				C324.326,67.053,347.611,34.527,382.244,22.765z M27.211,63.404C42.049,35.622,70.99,18.28,102.486,18.295
				c47.106,0.054,85.279,38.227,85.333,85.333c-0.051,5.74-0.695,11.459-1.921,17.067h-15.146
				c-5.185,0.019-10.078,2.406-13.282,6.483c-3.979-4.181-8.418-7.9-13.231-11.085c15.082-21.251,11.796-50.44-7.633-67.807
				c-19.429-17.366-48.803-17.368-68.235-0.005s-22.722,46.552-7.643,67.805c-13.042,8.424-23.209,20.62-29.148,34.965
				C14.053,124.883,12.373,91.185,27.211,63.404z M136.62,86.562c0,18.851-15.282,34.133-34.133,34.133
				c-18.843-0.02-34.113-15.29-34.133-34.133c0-18.851,15.282-34.133,34.133-34.133S136.62,67.711,136.62,86.562z M102.486,188.962
				c-21.509,0.065-42.229-8.102-57.909-22.825c3.914-15.971,14.282-29.6,28.629-37.635c17.538,12.324,40.915,12.349,58.479,0.062
				c9.089,5.086,16.677,12.477,22.002,21.428v21.848C138.919,182.932,120.955,188.94,102.486,188.962z M134.112,484.593
				c-24.696,14.911-55.621,14.911-80.318,0.001c-6.354-17.568-0.364-37.222,14.709-48.259c15.017,11.503,35.882,11.503,50.899,0
				C134.476,447.371,140.466,467.025,134.112,484.593z M75.851,384.193c7.322-7.322,18.333-9.512,27.899-5.549
				c9.566,3.962,15.803,13.297,15.803,23.651c-0.015,14.132-11.468,25.585-25.6,25.6c-10.354,0-19.689-6.237-23.651-15.803
				C66.339,402.526,68.529,391.515,75.851,384.193z M153.488,467.637c-0.83-17.297-9.146-33.376-22.782-44.05
				c3.828-6.445,5.87-13.795,5.913-21.292c0-23.564-19.102-42.667-42.667-42.667c-23.564,0-42.667,19.102-42.667,42.667
				c0.043,7.497,2.085,14.846,5.913,21.292c-13.636,10.674-21.952,26.755-22.782,44.052c-17.357-21.291-21.993-50.242-12.151-75.888
				c9.841-25.646,32.655-44.064,59.799-48.277c27.144-4.214,54.468,6.422,71.621,27.877v5.344
				c0.027,7.553,5.024,14.187,12.277,16.297c3.157,8.433,4.78,17.364,4.79,26.369C170.728,436.961,164.629,454.013,153.488,467.637z
				 M171.996,376.695h-1.243V137.762H341.42v238.933H171.996z M458.338,484.726c-24.585,15.29-55.732,15.245-80.272-0.116
				c-6.363-17.572-0.374-37.234,14.704-48.275c15.017,11.503,35.882,11.503,50.899,0
				C458.778,447.407,464.756,467.128,458.338,484.726z M400.118,384.193c7.322-7.322,18.333-9.512,27.899-5.549
				c9.566,3.962,15.803,13.297,15.803,23.651c-0.015,14.132-11.468,25.585-25.6,25.6c-10.354,0-19.689-6.237-23.651-15.803
				C390.606,402.526,392.796,391.515,400.118,384.193z M477.764,467.779c-0.792-17.349-9.115-33.488-22.791-44.192
				c3.828-6.445,5.87-13.795,5.913-21.292c0-23.564-19.103-42.667-42.667-42.667s-42.667,19.102-42.667,42.667
				c0.044,7.497,2.085,14.846,5.913,21.292c-13.636,10.674-21.952,26.755-22.782,44.052c-11.141-13.625-17.24-30.677-17.265-48.277
				c0.01-9.005,1.633-17.936,4.79-26.369c7.253-2.11,12.25-8.744,12.277-16.297v-5.344c14.553-18.11,36.5-28.688,59.733-28.789
				c29.636-0.025,56.637,17.018,69.364,43.782C500.31,413.107,496.488,444.807,477.764,467.779z"/>
			<path d="M221.953,231.629c18.851,0,34.133-15.282,34.133-34.133s-15.282-34.133-34.133-34.133s-34.133,15.282-34.133,34.133
				C187.84,216.338,203.11,231.609,221.953,231.629z M221.953,180.429c9.426,0,17.067,7.641,17.067,17.067
				s-7.641,17.067-17.067,17.067s-17.067-7.641-17.067-17.067C204.897,188.074,212.532,180.439,221.953,180.429z"/>
			<path d="M315.82,163.362h-34.133c-4.713,0-8.533,3.82-8.533,8.533s3.82,8.533,8.533,8.533h34.133c4.713,0,8.533-3.82,8.533-8.533
				S320.532,163.362,315.82,163.362z"/>
			<path d="M315.82,188.962h-34.133c-4.713,0-8.533,3.82-8.533,8.533s3.82,8.533,8.533,8.533h34.133c4.713,0,8.533-3.82,8.533-8.533
				S320.532,188.962,315.82,188.962z"/>
			<path d="M315.82,214.562h-34.133c-4.713,0-8.533,3.82-8.533,8.533s3.82,8.533,8.533,8.533h34.133c4.713,0,8.533-3.82,8.533-8.533
				S320.532,214.562,315.82,214.562z"/>
			<path d="M315.82,248.695H196.353c-4.713,0-8.533,3.82-8.533,8.533s3.82,8.533,8.533,8.533H315.82c4.713,0,8.533-3.82,8.533-8.533
				S320.532,248.695,315.82,248.695z"/>
			<path d="M315.82,282.829H196.353c-4.713,0-8.533,3.82-8.533,8.533s3.82,8.533,8.533,8.533H315.82c4.713,0,8.533-3.82,8.533-8.533
				S320.532,282.829,315.82,282.829z"/>
			<path d="M315.82,316.962H196.353c-4.713,0-8.533,3.82-8.533,8.533s3.82,8.533,8.533,8.533H315.82c4.713,0,8.533-3.82,8.533-8.533
				S320.532,316.962,315.82,316.962z"/>
		</g>
	</g>
</g>
<g>
</g>
<g>
</g>
<g>
</g>
<g>
</g>
<g>
</g>
<g>
</g>
<g>
</g>
<g>
</g>
<g>
</g>
<g>
</g>
<g>
</g>
<g>
</g>
<g>
</g>
<g>
</g>
<g>
</g>
</svg>
