<svg width="22" height="13" viewBox="0 0 22 13" fill="none" xmlns="http://www.w3.org/2000/svg">
<path fill-rule="evenodd" clip-rule="evenodd" d="M10.9116 11.4472C9.75589 12.4155 8.25671 13 6.61852 13C2.96321 13 0 10.0899 0 6.5C0 2.91015 2.96321 0 6.61852 0C8.25671 0 9.75589 0.584514 10.9116 1.55277C12.0673 0.584514 13.5665 0 15.2047 0C18.86 0 21.8232 2.91015 21.8232 6.5C21.8232 10.0899 18.86 13 15.2047 13C13.5665 13 12.0673 12.4155 10.9116 11.4472Z" fill="white"/>
<path fill-rule="evenodd" clip-rule="evenodd" d="M10.9116 11.4472C12.3347 10.255 13.2371 8.48101 13.2371 6.5C13.2371 4.51899 12.3347 2.74497 10.9116 1.55275C12.0673 0.584509 13.5665 0 15.2047 0C18.86 0 21.8232 2.91015 21.8232 6.5C21.8232 10.0899 18.86 13 15.2047 13C13.5665 13 12.0673 12.4155 10.9116 11.4472Z" fill="white"/>
<path fill-rule="evenodd" clip-rule="evenodd" d="M10.9116 11.4472C12.3347 10.255 13.237 8.48098 13.237 6.5C13.237 4.51902 12.3347 2.74501 10.9116 1.5528C9.48858 2.74501 8.58624 4.51902 8.58624 6.5C8.58624 8.48098 9.48858 10.255 10.9116 11.4472Z" fill="white"/>
</svg>
