<svg fill="#000000" xmlns="http://www.w3.org/2000/svg"  viewBox="0 0 64 64" width="256px" height="256px"><path d="M 7 6 C 5.347656 6 4 7.347656 4 9 L 4 49 C 4 50.652344 5.347656 52 7 52 L 37.34375 52 C 38.296875 54.039063 41.789063 60.199219 49.78125 61.976563 C 49.855469 61.992188 49.929688 62 50 62 C 50.316406 62 50.621094 61.847656 50.8125 61.582031 C 51.046875 61.261719 51.0625 60.828125 50.859375 60.484375 C 48.816406 57.085938 48.234375 53.648438 48.066406 52 L 57 52 C 58.652344 52 60 50.652344 60 49 L 60 9 C 60 7.347656 58.652344 6 57 6 Z M 7 8 L 57 8 C 57.550781 8 58 8.449219 58 9 L 58 49 C 58 49.550781 57.550781 50 57 50 L 47 50 C 46.445313 50 46 50.449219 46 51 C 46 51.1875 46.027344 55.003906 48.015625 59.363281 C 41.359375 56.839844 38.960938 50.714844 38.9375 50.648438 C 38.789063 50.257813 38.417969 50 38 50 L 7 50 C 6.449219 50 6 49.550781 6 49 L 6 9 C 6 8.449219 6.449219 8 7 8 Z M 22 16 C 20.898438 16 20 16.898438 20 18 L 20 20.382813 L 19.105469 20.828125 C 18.425781 21.167969 18 21.855469 18 22.617188 L 18 26.382813 C 18 27.144531 18.425781 27.832031 19.105469 28.171875 L 20 28.617188 L 20 36 C 20 37.101563 20.898438 38 22 38 L 38 38 C 39.101563 38 40 37.101563 40 36 L 40 31.804688 L 46.46875 35.847656 C 46.78125 36.039063 47.167969 36.050781 47.484375 35.875 C 47.800781 35.695313 48 35.363281 48 35 L 48 19 C 48 18.636719 47.804688 18.300781 47.484375 18.125 C 47.167969 17.949219 46.777344 17.957031 46.46875 18.152344 L 40 22.195313 L 40 18 C 40 16.898438 39.101563 16 38 16 Z M 22 18 L 38 18 L 38 26 C 38 26.550781 38.445313 27 39 27 C 39.554688 27 40 26.550781 40 26 L 40 24.554688 L 46 20.804688 L 46 33.195313 L 39.53125 29.152344 C 39.21875 28.960938 38.832031 28.949219 38.515625 29.125 C 38.199219 29.304688 38 29.636719 38 30 L 38 36 L 22 36 L 22 28.617188 C 22 27.855469 21.574219 27.167969 20.894531 26.828125 L 20 26.382813 L 20 22.617188 L 20.894531 22.171875 C 21.574219 21.832031 22 21.144531 22 20.382813 Z M 29 22 C 28.445313 22 28 22.449219 28 23 C 28 23.550781 28.445313 24 29 24 L 33 24 C 33.554688 24 34 23.550781 34 23 C 34 22.449219 33.554688 22 33 22 Z M 9 44 C 8.445313 44 8 44.449219 8 45 L 8 47 C 8 47.550781 8.445313 48 9 48 C 9.554688 48 10 47.550781 10 47 L 10 45 C 10 44.449219 9.554688 44 9 44 Z M 14 44 C 13.445313 44 13 44.449219 13 45 L 13 47 C 13 47.550781 13.445313 48 14 48 C 14.554688 48 15 47.550781 15 47 L 15 45 C 15 44.449219 14.554688 44 14 44 Z M 19 44 C 18.445313 44 18 44.449219 18 45 L 18 47 C 18 47.550781 18.445313 48 19 48 C 19.554688 48 20 47.550781 20 47 L 20 45 C 20 44.449219 19.554688 44 19 44 Z M 24 44 C 23.445313 44 23 44.449219 23 45 L 23 47 C 23 47.550781 23.445313 48 24 48 C 24.554688 48 25 47.550781 25 47 L 25 45 C 25 44.449219 24.554688 44 24 44 Z M 29 44 C 28.445313 44 28 44.449219 28 45 L 28 47 C 28 47.550781 28.445313 48 29 48 C 29.554688 48 30 47.550781 30 47 L 30 45 C 30 44.449219 29.554688 44 29 44 Z M 34 44 C 33.445313 44 33 44.449219 33 45 L 33 47 C 33 47.550781 33.445313 48 34 48 C 34.554688 48 35 47.550781 35 47 L 35 45 C 35 44.449219 34.554688 44 34 44 Z M 39 44 C 38.445313 44 38 44.449219 38 45 L 38 47 C 38 47.550781 38.445313 48 39 48 C 39.554688 48 40 47.550781 40 47 L 40 45 C 40 44.449219 39.554688 44 39 44 Z M 44 44 C 43.445313 44 43 44.449219 43 45 L 43 47 C 43 47.550781 43.445313 48 44 48 C 44.554688 48 45 47.550781 45 47 L 45 45 C 45 44.449219 44.554688 44 44 44 Z M 49 44 C 48.445313 44 48 44.449219 48 45 L 48 47 C 48 47.550781 48.445313 48 49 48 C 49.554688 48 50 47.550781 50 47 L 50 45 C 50 44.449219 49.554688 44 49 44 Z M 54 44 C 53.445313 44 53 44.449219 53 45 L 53 47 C 53 47.550781 53.445313 48 54 48 C 54.554688 48 55 47.550781 55 47 L 55 45 C 55 44.449219 54.554688 44 54 44 Z"/></svg>