<svg width="26" height="9" viewBox="0 0 26 9" fill="none" xmlns="http://www.w3.org/2000/svg">
<path fill-rule="evenodd" clip-rule="evenodd" d="M6.55574 8.49541H4.40453L2.79138 2.19867C2.71482 1.90902 2.55224 1.65295 2.3131 1.53226C1.7163 1.22897 1.05867 0.987595 0.341248 0.865858V0.623433H3.80668C4.28496 0.623433 4.64367 0.987595 4.70345 1.41053L5.54044 5.95257L7.6906 0.623433H9.78203L6.55574 8.49541ZM10.9778 8.49541H8.94616L10.6191 0.623433H12.6507L10.9778 8.49541ZM15.2791 2.80419C15.3389 2.38021 15.6976 2.13779 16.1161 2.13779C16.7737 2.07692 17.4901 2.19865 18.088 2.5009L18.4467 0.806025C17.8488 0.563601 17.1912 0.441864 16.5944 0.441864C14.6225 0.441864 13.1877 1.53225 13.1877 3.04557C13.1877 4.19682 14.204 4.80131 14.9215 5.16547C15.6976 5.52858 15.9965 5.771 15.9368 6.13412C15.9368 6.67878 15.3389 6.92121 14.7421 6.92121C14.0247 6.92121 13.3073 6.73965 12.6507 6.43636L12.292 8.13228C13.0094 8.43452 13.7855 8.55626 14.503 8.55626C16.714 8.61608 18.088 7.52674 18.088 5.89169C18.088 3.83266 15.2791 3.71197 15.2791 2.80419ZM25.1982 8.49541L23.585 0.623433H21.8523C21.4936 0.623433 21.1349 0.865858 21.0153 1.22897L18.0282 8.49541H20.1196L20.5371 7.3452H23.1068L23.3459 8.49541H25.1982ZM22.1513 2.74342L22.7481 5.71023H21.0751L22.1513 2.74342Z" fill="white"/>
</svg>
