<svg width="43" height="28" viewBox="0 0 43 28" xmlns="http://www.w3.org/2000/svg" xmlns:xlink="http://www.w3.org/1999/xlink"><title>E06A9D60-42A9-4459-8131-FA3002495928</title><defs><linearGradient x1="50%" y1="17.279%" x2="50%" y2="100%" id="c"><stop stop-color="#0DA6E0" offset="0%"/><stop stop-color="#2E77BC" offset="100%"/></linearGradient><rect id="a" width="42.102" height="28" rx="2"/><mask id="b" x="0" y="0" width="42.102" height="28" fill="#fff"><use xlink:href="#a"/></mask></defs><g fill="none" fill-rule="evenodd"><use stroke="#2E77BC" mask="url(#b)" fill="url(#c)" xlink:href="#a"/><path d="M37.424 9.394H33.43l-1.275 1.377-1.195-1.377-11.58.004-1.006 2.322-1.034-2.322h-4.723v1.062l-.519-1.062H8.07l-3.392 7.747v1.244h4.16l.596-1.432h1.332l.594 1.432h5.193v-1.095l.463 1.1h2.696l.463-1.116v1.111l10.628.002 1.315-1.399 1.238 1.399h4.068V16.79l-2.583-2.864 2.583-2.772v-1.76zm-14.547 7.729h-1.583l-.006-5.049-2.24 5.049h-1.356l-2.246-5.053v5.053h-3.142l-.593-1.438H8.495l-.6 1.438H6.218l2.766-6.447h2.295l2.627 6.104v-6.104h2.52l2.022 4.374 1.857-4.374h2.572v6.447zm11.149.002l-1.902-2.135-1.977 2.135h-6.119v-6.449h6.213l1.9 2.114 1.965-2.114h2.027l-3.015 3.236 2.898 3.213h-1.99zM9.045 14.34h2.108l-1.057-2.57-1.051 2.57m20.32 1.44h-3.798v-1.283h3.391v-1.316h-3.39V12.01h3.872l1.69 1.879-1.765 1.892" fill="#FFF"/></g></svg>