<svg xmlns="http://www.w3.org/2000/svg" viewBox="0 0 359.72 263.65332" height="250" width="359.72">
  <path d="M357.6773244 238.0491973c0 13.01454635-10.79333307 23.56298608-24.10933274 23.56298608H26.151066c-13.31355965 0-24.10679938-10.54843973-24.10679938-23.56298607V25.6026693c0-13.01599967 10.79323973-23.5639994 24.1067994-23.5639994h307.41692564c13.31599967 0 24.10933273 10.54799973 24.10933273 23.5639994v212.446528" fill="#fff"/>
  <path d="M26.151066 263.65333C11.74374638 263.63041333.00520834 252.2278103 0 238.0491973V25.6026693C.00520833 11.4213363 11.74374637.01733658 26.151066-.00533008h307.414259c14.40933297.02266667 26.146666 11.4266664 26.154666 25.60799936V238.0491973c-.008 14.178613-11.74533303 25.58121603-26.154666 25.6041327zM4.08593324 25.60266928V238.0491973c.02344 11.8467997 9.8411331 21.51350614 22.06513278 21.51610614h307.414259c12.22133302-.0026 22.04533278-9.66930643 22.06533278-21.51610613V25.6026693c-.02-11.85066637-9.84399976-21.51999946-22.0653328-21.51999946H26.15106602c-12.22399968 0-22.04169277 9.6693331-22.06513277 21.51999946" fill="#214e8d"/>
  <path d="M34.71933247 159.10906595c0-5.82079986-3.04013326-5.4385332-5.94999986-5.49999987v-1.68226662c2.5228.1224 5.1098666.1224 7.6390665.1224 2.7170666 0 6.4066665-.1224 11.2003997-.1224 16.7619996 0 25.8933327 11.19319972 25.8933327 22.65573277 0 6.41453317-3.7557332 22.52959943-26.673466 22.52959943-3.2974666 0-6.3442665-.12813333-9.3854664-.12813333-2.9109332 0-5.7639998.06-8.6738664.12813333v-1.68426662c3.8801333-.39173332 5.7629332-.51826665 5.9499999-4.91986654zm6.34519984 30.36039924c0 4.9865332 3.5636 5.5666665 6.7343999 5.5666665 13.9870663 0 18.5761329-10.5494664 18.5761329-20.1937329 0-12.1051997-7.7662664-20.8421329-20.2583995-20.8421329-2.6603999 0-3.8843999.1890666-5.0521332.2582666v35.2109325m34.7047991 5.9583999h1.2270667c1.8114666 0 3.1077333 0 3.1077333-2.1412v-17.5411996c0-2.8442666-.9692-3.2374666-3.3677332-4.5281332v-1.0333333c3.0422666-.9145333 6.6703998-2.1358666 6.9266665-2.3306666.4557333-.2598667.8385333-.3292 1.1676-.3292.3172 0 .4505333.3890666.4505333.912v24.8505327c0 2.1411999 1.4272 2.1411999 3.2417333 2.1411999h1.0958666v1.6842666c-2.2015999 0-4.4709332-.1281334-6.7933331-.1281334-2.3306666 0-4.6623999.06-7.0561331.1281333zm6.9254665-37.8693324c-1.6869333 0-3.1718666-1.5530666-3.1718666-3.2358666 0-1.6214667 1.5557333-3.1136 3.1718666-3.1136 1.6802666 0 3.1729333 1.364 3.1729333 3.1136 0 1.7504-1.4276 3.2358666-3.1729332 3.2358666m13.0759996 18.5759995c0-2.3905333-.7145333-3.0374666-3.7519999-4.2691999v-1.2292c2.7785333-.9057334 5.4301332-1.7510667 8.5410665-3.112.1958667 0 .3838667.1292.3838667.6464v4.2093332c3.6964-2.6494666 6.8687999-4.8557332 11.2125331-4.8557332 5.4947999 0 7.4358665 4.0146665 7.4358665 9.0641331v16.6983996c0 2.1411999 1.4281333 2.1411999 3.2385333 2.1411999h1.1677333v1.6842666c-2.2733332 0-4.5353332-.1281334-6.8634665-.1281334-2.3322666 0-4.6641332.06-6.9947998.1281333v-1.6842666h1.1677333c1.814 0 3.1030666 0 3.1030666-2.1412V176.527865c0-3.6942666-2.2546666-5.5051999-5.9494665-5.5051999-2.0734666 0-5.3750665 1.6801333-7.5177331 3.1109332v19.1530662c0 2.1411999 1.4313333 2.1411999 3.2442666 2.1411999h1.1630667v1.6842666c-2.2646666 0-4.5307998-.1281333-6.8650665-.1281333-2.3261332 0-4.6594665.06-6.9875998.1281333v-1.6842666h1.1682667c1.8104 0 3.1041333 0 3.1041333-2.14119995V176.134532m33.1485325 3.1119999c-.1329333.5828-.1329333 1.5521333 0 3.7546666.3801334 6.14799986 4.3379999 11.19479973 9.5113331 11.19479973 3.5653333 0 6.3506665-1.9426666 8.7413332-4.3333332l.904.9068c-2.9786666 3.94786655-6.6666665 7.3155998-11.9706664 7.3155998-10.2954664 0-12.367333-9.97439975-12.367333-14.11453298 0-12.68906637 8.5437332-16.4463996 13.0699997-16.4463996 5.2493332 0 10.8853331 3.3010666 10.9453331 10.16519974 0 .3932 0 .7776-.06 1.1666666l-.5853333.3905333zm11.4619998-2.0734666c1.6146667 0 1.804-.84266664 1.804-1.62239995 0-3.29573326-2.0053332-5.95039986-5.6319998-5.95039986-3.9459999 0-6.6647998 2.9077333-7.4418665 7.5727998h11.269866m8.8639998 18.2547995h1.7493333c1.8053333 0 3.1013333 0 3.1013333-2.1412v-18.1863995c0-2.0032-2.3933332-2.3974666-3.3653332-2.9151999v-.9677333c4.7253332-2.0082667 7.3159998-3.6931999 7.9079998-3.6931999.3786667 0 .5733333.1942666.5733333.8453333v5.8265332h.136c1.6133333-2.5238666 4.3373332-6.6718665 8.2839998-6.6718665 1.6173333 0 3.6866666 1.0999999 3.6866666 3.4318665 0 1.7467999-1.2239999 3.3077332-3.0359999 3.3077332-2.0133333 0-2.0133333-1.5609333-4.2813332-1.5609333-1.0986666 0-4.7239999 1.4931999-4.7239999 5.3797332v15.204133c0 2.1411999 1.2933333 2.1411999 3.1066666 2.1411999h3.6213333v1.6842666c-3.5599999-.0681334-6.2693331-.1281334-9.0559997-.1281334-2.6546666 0-5.3746665.06-7.7039998.1281333v-1.6842666m24.9199994-7.3171998c.844 4.2718665 3.4279999 7.9025331 8.1626665 7.9025331 3.8133333 0 5.2359999-2.3333333 5.2359999-4.5973332 0-7.6427998-14.1079996-5.1797332-14.1079996-15.6010663 0-3.6297333 2.9146666-8.2895998 10.0359998-8.2895998 2.06799995 0 4.85066655.5869333 7.37333315 1.8827999l.4546667 6.5974665h-1.488c-.64666664-4.0761332-2.90933325-6.4051998-7.05733314-6.4051998-2.5893333 0-5.04666656 1.4863999-5.04666656 4.2702665 0 7.5786665 15.0146663 5.2442665 15.0146663 15.4082663 0 4.2693332-3.4266666 8.8062664-11.1333331 8.8062664-2.5866666 0-5.63466658-.9077333-7.8933332-2.2025333l-.716-7.4453332 1.1653333-.3265334m77.03199806-24.4709327h-1.6146666c-1.232-7.5666665-6.6053332-10.6129331-13.85066635-10.6129331-7.4533331 0-18.2599995 4.9811999-18.2599995 20.5171995 0 13.0811997 9.3253331 22.4691994 19.2919996 22.4691994 6.4026665 0 11.7226664-4.4041333 13.0146663-11.2051997l1.4893333.3865333-1.4893333 9.4546664c-2.7186666 1.6853333-10.03599972 3.4358666-14.313333 3.4358666-15.1413329 0-24.7213327-9.7770665-24.7213327-24.3410661 0-13.274533 11.8466664-22.7933328 24.5346661-22.7933328 5.2413332 0 10.289333 1.6881333 15.2746663 3.4375999l.6439999 9.2514664m2.3373333 31.7881325h1.2253333c1.8186666 0 3.1106666 0 3.1106666-2.1412V157.238799c0-4.2119999-.9693333-4.34013323-3.4319999-5.0537332v-1.03693332c2.5879999-.8401333 5.3093332-2.0026666 6.6719998-2.78546657.7026667-.3828 1.2253333-.7134666 1.416-.7134666.396 0 .524.3932.524.9134667v44.7239989c0 2.1411999 1.4253333 2.1411999 3.2359999 2.1411999h1.096v1.6842666c-2.1946666 0-4.4599999-.1281333-6.79199985-.1281333-2.32933325 0-4.6573332.06-7.0559998.1281334v-1.6842666m41.56399897-1.8797333c0 1.1692.708 1.2306667 1.8053333 1.2306667.7813333 0 1.748-.0614667 2.5959999-.0614667v1.3625333c-2.7853332.2562667-8.0959998 1.6161333-9.3279997 2.0052l-.3226666-.1968v-5.2442665c-3.8799999 3.1707999-6.86133317 5.4410665-11.4639997 5.4410665-3.4946666 0-7.11733318-2.2702666-7.11733318-7.7010664v-16.5775996c0-1.6847999-.2573334-3.3035999-3.8773333-3.6223999v-1.2333333c2.33199995-.064 7.4999998-.4504 8.3439998-.4504.71866665 0 .71866665.4504.71866665 1.8770667v16.6999995c0 1.9442667 0 7.5051999 5.63066656 7.5051999 2.1973333 0 5.11066656-1.6786666 7.8279998-3.9411999v-17.4186662c0-1.2933333-3.10533323-2.0053333-5.43199984-2.6495999v-1.164c5.8199998-.3942667 9.4493331-.9088 10.0959997-.9088.52266667 0 .52266667.4504.52266667 1.1650666v23.8827994m12.8786664-21.3630661c2.5879999-2.1957333 6.0853332-4.6609332 9.6453331-4.6609332 7.51066647 0 12.04266636 6.5453332 12.04266636 13.5999996 0 8.4770665-6.2173332 16.9609329-15.4786663 16.9609329-4.7853332 0-7.3106665-1.5582666-8.9973331-2.2702666l-1.936 1.4890667-1.3573333-.7093333c.5786666-3.8187999.9053333-7.5729331.9053333-11.5239997v-27.8317326c0-4.2119999-.97466667-4.3401332-3.4346666-5.0537332v-1.0369333c2.59199993-.8401333 5.3079999-2.0026666 6.6666665-2.7854666.71466664-.3828 1.23066663-.71346662 1.428-.71346662.3853333 0 .516.3948.516.9134666zm0 17.6094662c0 2.4588 2.33199995 6.6057332 6.6679998 6.6057332 6.9253332 0 9.8373331-6.7990665 9.8373331-12.5630663 0-6.9890665-5.3026665-12.814533-10.3506664-12.814533-2.4053333 0-4.4079999 1.5561333-6.1546665 3.0467999v15.7250663M28.697333 234.7517308h.49479998c1.26626665 0 2.60519995-.1729333 2.60519995-2.0062666v-18.4535996c0-1.8358666-1.3389333-2.01039994-2.60519994-2.01039994h-.4948v-1.0587999c1.3729333 0 3.4870666.14 5.2171999.14 1.7599999 0 3.8709332-.14 5.5271998-.14v1.0588h-.498c-1.2614666 0-2.6025333.1745334-2.6025333 2.0104v18.4535996c0 1.8333333 1.3410666 2.0062667 2.6025332 2.0062667h.498v1.0589333c-1.6896 0-3.8083999-.136-5.5635999-.136-1.7291999 0-3.8078666.136-5.1807998.136v-1.0589333" fill="#231f20"/>
  <path d="M39.44173235 235.96119736c-1.70479996 0-3.81253324-.1412-5.56626653-.1412-1.72386662 0-3.7951999.1412-5.1781332.1412h-.1536v-1.3609333h.64586665c1.27866663-.0308 2.4406666-.13333333 2.45159994-1.85479995v-18.4535995c-.0109333-1.7239999-1.1729333-1.8358666-2.4515999-1.8582666h-.6458666v-1.3641333h.1536c1.3829333 0 3.4947999.1369333 5.2171999.1369333 1.7521333 0 3.8614666-.1369333 5.5271999-.1369333h.1566667v1.3641333h-.6478666c-1.2802666.0224-2.4489332.1342667-2.4562666 1.8582666v18.4535996c.0073334 1.7214667 1.176 1.824 2.4562666 1.8548h.6478667v1.3609333zm-.15266667-.30106666l.0016-.74946665h-.34013332c-1.25986664 0-2.75733326-.22133333-2.76559993-2.16519994v-18.4535995c.00826667-1.9478666 1.5057333-2.1650666 2.76559993-2.1650666h.33853332v-.7521333c-1.62506662.0010667-3.66666657.1426667-5.3745332.1426667-1.6733333 0-3.69893324-.1322666-5.0629332-.1426666v.7521333h.338c1.2557333 0 2.75573325.2172 2.75573325 2.1650667v18.4535996c0 1.9438667-1.49999996 2.1652-2.75573326 2.1652h-.338v.7494667c1.36399997-.012 3.35359992-.1417333 5.02386655-.1417333 1.71626662 0 3.75213324.1322667 5.41359986.1417334m24.3515994-6.7922665l.07026666-.0692V215.593465c0-2.8906666-2.01039995-3.3135999-3.06613326-3.3135999h-.77599998v-1.0572c1.65826663 0 3.27853325.14 4.93066655.14 1.4437333 0 2.8958666-.14 4.33333322-.14v1.0572h-.52293332c-1.48439996 0-3.14013325.2813333-3.14013325 4.47346655v16.02653298c0 1.2349333.03493333 2.4666666.20786666 3.5598666h-1.3385333l-18.13693288-20.2223995v14.5162663c0 3.0666666.59479998 4.1181332 3.30773325 4.1181332h.59999998v1.0589333c-1.5145332 0-3.0281332-.1376-4.5426665-.1376-1.5811999 0-3.2035999.1376-4.7906665.1376v-1.0589333h.4937334c2.4302666 0 3.1693333-1.6557333 3.1693333-4.4650665V215.445465c0-1.97079996-1.6245333-3.16559993-3.2031999-3.16559993h-.4598666v-1.0571999c1.336 0 2.7114666.14 4.0469333.14 1.0598667 0 2.0822666-.14 3.1379999-.14l15.6791996 17.64519957" fill="#231f20"/>
  <path d="M65.67706502 236.488264l-1.4505333-.04946665-17.8754662-19.9239995v14.11879964c.04213332 3.0623999.5077333 3.9333332 3.15933324 3.9666665h.75466665v1.3609333h-.1557333c-1.5238666 0-3.0399999-.1412-4.5431999-.1412-1.5770666 0-3.1958665.1412-4.7910665.1412h-.1553333v-1.3609333h.6510667c2.3276-.0136 2.9927999-1.5094666 3.0182666-4.3151999v-14.8343996c-.0068-1.876-1.5447999-3.0170666-3.0521332-3.0170666h-.6171999v-1.3641333h.1553334c1.3457333 0 2.7249333.1369333 4.0457333.1369333 1.0510667 0 2.0688-.1369334 3.2567999-.0822667l15.4797329 17.4250663v-12.955733c-.0177333-2.7974666-1.8870666-3.1374666-2.9119999-3.1598666h-.9317333v-1.3641333h.1557334c1.6639999 0 3.2847999.1369333 4.9306665.1369333 1.4327999 0 2.8770666-.1369334 4.3333332-.1369334h.1541333v1.3641333h-.6781333c-1.4552.0369333-2.9462666.1650666-2.9895999 4.3197332v16.026533c0 1.2333333.0390667 2.4630666.2084 3.5322666l.0317334.1761333zm-1.3369333-.30679998h1.16506664c-.15786666-1.05986664-.18546666-2.22973328-.18546666-3.4015999v-16.02653295c0-4.22813323 1.77199996-4.62653322 3.28959992-4.62919988h.3704v-.7494667c-1.38799998.0104-2.7786666.1385333-4.17973324.1385333-1.61306663 0-3.18119992-.1281334-4.77346655-.1385334l-.0036.7494666h.6224c1.08279996.0026666 3.2171999.4838666 3.2171999 3.4693332l-.04693333 13.316133-.06866666.0677333-.12093333.1134666-15.6650662-17.7161329c-1.0463999 0-2.0650666.1385333-3.1401332.1385333-1.2901333 0-2.6129332-.1281333-3.8905332-.1385333l-.0062666.7494666h.3129333c1.6526667.0026666 3.3521333 1.2641333 3.3521333 3.3265332v14.8343997c0 2.8187999-.7849333 4.6187999-3.3182666 4.6281332l-.3405333-.0093334v.7562666c1.5254667-.012 3.0978666-.1417334 4.6358666-.1417334 1.4698666 0 2.9365333.1297333 4.3895999.1417333v-.7469333h-.4453334c-2.7723999-.0093333-3.4582666-1.2172-3.4609332-4.2795999v-14.910933zm-.6989333-7.31359982l.11093332-.10093333zm-.08386668-.0692v-.0136l-.02813333-.0224zm10.85413306-15.81466627c-2.64533326 0-2.74693326.6376-3.2759999 3.20533326h-1.05733332c.13853333-.9865334.31453333-1.972.424-2.9933333.14106665-.9905333.21093332-1.9733333.21093332-2.9921333h.84479998c.28333332 1.0573333 1.16399997 1.0187999 2.11919994 1.0187999h18.16826622c.9557333 0 1.83439995-.0344 1.90733328-1.0922667l.84053332.1442666c-.13586667.9479999-.28013333 1.8999999-.3828 2.8531999-.06866666.9509333-.06866666 1.8989332-.06866666 2.8494666l-1.05999997.3921333c-.0713333-1.3016-.2453333-3.3854666-2.6051999-3.3854666h-5.7775998v18.7401329c0 2.7171999 1.2338667 3.0275999 2.9218666 3.0275999h.6718667v1.0589333c-1.3733333 0-3.8405332-.136-5.7399998-.136-2.1157332 0-4.5838665.136-5.9583998.136v-1.0589333h.6718667c1.9417333 0 2.9229333-.1729334 2.9229333-2.9546666v-18.8130662h-5.7776" fill="#231f20"/>
  <path d="M88.29586446 235.96119736c-1.38799997 0-3.85106657-.1396-5.74319986-.1396-2.1130666 0-4.57613322.1396-5.95839985.1396h-.14946666v-1.3609333h.8213333c1.9417333-.04533333 2.7213332-.07093333 2.7661332-2.80319993v-18.66253287h-5.6207998v-.30773333h5.9265332v18.9702662c0 2.82813326-1.1401333 3.11359992-3.0718666 3.11613326h-.5213334v.7442666c1.3895999-.0093334 3.7630665-.1390667 5.8078665-.1390667 1.8347999 0 4.1869332.1297333 5.5827998.1390666v-.7442667h-.5146667c-1.7025332-.0025334-3.0743999-.4213334-3.0743999-3.1890666v-18.8973328h5.9301332c2.3625333.0093333 2.6750666 2.0171999 2.7494666 3.3281332l.7614667-.2818667c0-.9197333.0042666-1.8410667.0677333-2.7666666.1032-.9104.2312-1.8052.3641333-2.7077333l-.536-.0896c-.164 1.0254666-1.1562666 1.0802666-2.0395999 1.0666666H73.4926648c-.8281333.0016-1.7317333-.0385334-2.0478666-1.0208h-.5812c-.0068.9729333-.07293333 1.9181333-.2068 2.8571999-.1052.9677333-.2656 1.8969333-.39426665 2.8302666h.75146664c.4641333-2.4573333.7652-3.2505333 3.3974666-3.2155999v.3077333c-2.6084.0521333-2.5521333.4881333-3.126 3.0906666l-.0256.1202666h-1.3571999l.0192-.1828c.1432-.9828.3213333-1.9718666.4245333-2.9947999.1462666-.9770667.214-1.9546666.214-2.9639999v-.1557334h1.1182666l.0265333.1104c.238.888.8890667.8948 1.7874667.9109333H91.843731c.9813333-.0161333 1.6958667-.0297333 1.7557333-.9510666l.0130667-.1666667.1588.0322666.9964.1573333-.0256.1557333c-.14.9458666-.2776 1.8937332-.3828 2.8374666-.06666665.9442666-.06666665 1.8906666-.06666665 2.8427999v.1066666l-.1025333.0412-1.2453333.4562667-.0093333-.2041333c-.0964-1.3256-.2328-3.2428-2.4589333-3.2428h-5.6238665v18.5895995c.03586665 2.6557333 1.08946662 2.8428 2.76813325 2.8761333h.82506668v1.3609333h-.15m7.4223998-1.2094666h.4957333c1.26519996 0 2.60679993-.1729333 2.60679993-2.0062666V214.291864c0-1.8358666-1.3416-2.01039996-2.6067999-2.01039996h-.4957333v-1.05879996c2.1421333 0 5.8139999.14 8.7666665.14 2.9650666 0 6.6223999-.14 9.0181331-.14-.0609333 1.5145333-.028 3.8451999.0750667 5.3921332l-1.0609333.2797333c-.1698667-2.2906666-.5917333-4.1171999-4.2926665-4.1171999h-4.8906665v9.2229331h4.1843999c2.1129333 0 2.5738666-1.19386666 2.7827999-3.0974666h1.0557334c-.0698667 1.3759999-.1068 2.7489332-.1068 4.1213332 0 1.34119996.0369333 2.6786666.1068 4.01466656l-1.0557333.2104c-.2089333-2.1103999-.3146667-3.48386653-2.7469333-3.48386653h-4.2202665v8.2025332c0 2.2933332 2.0358666 2.2933332 4.2911999 2.2933332 4.2275999 0 6.0931999-.2838667 7.1514665-4.2942666l.9822667.2421334c-.4577333 1.8708-.8781333 3.7322666-1.1931999 5.6015999-2.2571999 0-6.3077331-.136-9.4718664-.136-3.1770666 0-7.3650665.136-9.3754664.136v-1.0589333" fill="#231f20"/>
  <path d="M114.5630638 235.96119736c-2.26039994 0-6.31359984-.1464-9.4729331-.1464-3.1739999 0-7.3603998.1464-9.37239976.1464h-.148v-1.3609333h.64386665c1.2743999-.02146667 2.4347999-.13333333 2.4503999-1.85479995v-18.4535995c-.0156-1.7213333-1.176-1.8358666-2.4504-1.8582666h-.6438667v-1.3641333h.148c2.1519999 0 5.8161332.1369333 8.7682664.1369333 2.9613332 0 6.6181331-.1369333 9.0170664-.1369333h.1557333l-.0052.1625334c-.0229333.5265334-.0369333 1.1530667-.0369333 1.8161333 0 1.2172.0369333 2.5521333.1068 3.5546666l.0062666.1250667-.1193334.0358667-1.238.3245334-.0052-.1818666c-.2084-2.2847999-.5150667-3.9478665-4.1426666-3.9822665h-4.7463999l-.0030667 8.9213331h4.0426666c2.0301332-.0213333 2.3931999-1.0588 2.6333332-2.9587999l.0077333-.1412h1.3547999l-.0026666.1609334c-.0682667 1.3761333-.1093334 2.7453333-.1093334 4.1177332 0 1.3318667.0410667 2.6693333.1093333 4.0078666l.0026666.1281333-.1281334.0292-1.2266666.2442667-.0077334-.1657333c-.2442667-2.1505332-.2598667-3.3290665-2.5979999-3.3546665H103.47813v8.0546665c.0046666 2.1411999 1.8499999 2.1291999 4.1463999 2.1411999 4.2410665-.0250666 5.9399998-.2333333 7.0009331-4.1838665l.036-.1426667.1484.0238667 1.1292.2938667-.0322667.1452c-.4568 1.8636-.8765333 3.7266666-1.19586664 5.5906665l-.0265334.1250667zm-.1308-.30373333c.30786666-1.7817333.70946665-3.5603999 1.14119998-5.3333332l-.6932-.17493333c-1.05479996 3.94013324-3.09853324 4.29213323-7.25573314 4.2655999-2.22039994 0-4.43906655 0-4.45053322-2.44693327V223.612131h4.37906656c2.46053327-.02546667 2.70893326 1.4573333 2.88439993 3.46093325l.7604-.15573333c-.0681333-1.2989333-.1025333-2.60253327-.1025333-3.8931999 0-1.3229333.0344-2.6426666.1025334-3.9723999h-.7604c-.1984 1.84013328-.7734666 3.12399992-2.9197332 3.10159992h-4.3437332v-9.5349331h5.0505332c3.6634666-.02906666 4.2702666 1.86666662 4.4301333 4.0827999l.7589333-.20666666c-.0614666-.9933333-.1021333-2.27039994-.1021333-3.4463999 0-.60266667.0150667-1.17506665.0354667-1.67346664-2.3933332.0104-5.9657331.13853333-8.8609331.13853333-2.8947999 0-6.4578665-.12813333-8.6135998-.13853333v.74946665h.3412c1.2530667.0026666 2.752.2198666 2.7604 2.1677332v18.4535995c-.0084 1.9438666-1.5073333 2.1583999-2.7603999 2.1677333h-.3412v.7442666c2.0510666-.0068 6.1223999-.1390667 9.2177331-.1390667 3.1087999 0 7.0713332.1322666 9.3421331.1390666m6.0838665-20.7041328c0-2.5682666-1.4103999-2.6734666-2.5035999-2.6734666h-.6365333v-1.0572c1.1276 0 3.3119999.14 5.4625332.14 2.1093333 0 3.8026666-.14 5.6693332-.14 4.4322666 0 8.3854665 1.1957333 8.3854665 6.2014665 0 3.1677332-2.1146666 5.1026665-4.8959999 6.2010665l6.0199999 9.0119997c.9893333 1.4906666 1.688 1.9082666 3.4186666 2.1145333v1.0589333c-1.1653333 0-2.2919999-.136-3.4506665-.136-1.092 0-2.2239999.136-3.3106666.136-2.7142666-3.5557333-5.0413332-7.3589332-7.3287998-11.4161331h-2.3218666v7.5426665c0 2.7119999 1.2656 2.8145332 2.8801333 2.8145332h.6385333v1.0589333c-2.0119999 0-4.0462665-.136-6.0587998-.136-1.6901333 0-3.3463999.136-5.1078665.136v-1.0589333h.6365333c1.3077333 0 2.5036-.5957333 2.5036-1.8968zm4.5078666 8.1707998h1.7213333c3.5270666 0 5.4249332-1.3348 5.4249332-5.4937332 0-3.1317333-2.0071999-5.1395999-5.1462665-5.1395999-1.0573333 0-1.5078666.1078666-1.9999999.1428v10.4905331" fill="#231f20"/>
  <path d="M141.43599646 235.96119736c-1.1813333 0-2.30133327-.1412-3.4599999-.1412-1.07333332 0-2.19999995.1412-3.4266666.0828-2.70239992-3.5467999-5.01866653-7.32813315-7.2935998-11.34946638h-2.08119996v7.37706648c.03906667 2.65213327 1.10146664 2.6322666 2.72959994 2.6698666h.79066664v1.3609333h-.15626666c-2.01306662 0-4.05986657-.1412-6.05626652-.1412-1.68226662 0-3.33693325.1412-5.10626653.1412h-.15306667v-1.3609333h.78959997c1.2661333-.00946667 2.3369333-.56146665 2.3421333-1.7453333v-17.90159954c-.02653334-2.49733327-1.2489333-2.4854666-2.3421333-2.51973327h-.78959997v-1.3641333h.15306667c1.1401333 0 3.31466658.13693333 5.4625332.13693333 2.10319994 0 3.79213323-.13693333 5.66933318-.13693333 4.44106656.00933333 8.52813312 1.2317333 8.5387998 6.34893317 0 3.1786666-2.1013333 5.16559987-4.81746656 6.2734665l5.9147998 8.86146646c.9853333 1.46146663 1.5986666 1.8265333 3.3119999 2.04693328l.128.01973333v1.3411999zM125.0229302 224.242931h2.40679995l.04373333.07866665c2.29373328 4.04626657 4.60773322 7.85053314 7.20119982 11.33853305 1.07199997 0 2.20399994-.14173333 3.30133325-.14173333 1.12399997 0 2.21199995.12293333 3.30533325.13906666v-.77346664c-1.65066662-.2014667-2.4266666-.7-3.3879999-2.1598667l-6.13239986-9.1691998.174-.0709334c2.75839993-1.0869333 4.80239987-2.9681333 4.8037332-6.0655999-.00133333-4.8863999-3.80266656-6.0197332-8.2307998-6.0437332-1.8542666 0-3.54746656.1426666-5.66933318.1426666-2.06919995 0-4.15933323-.1322667-5.31199986-.1426667v.7494666h.48599998c1.09319998.0026667 2.64893327.1838667 2.64893327 2.8291999v17.9015995c0 1.4129333-1.3245333 2.0557332-2.64893327 2.0582666h-.48599998v.7442666c1.69319995-.0068 3.3015999-.1390667 4.9557332-.1390667 1.96666662 0 3.9567999.1322666 5.9041332.1390666v-.7442666h-.48226666c-1.6041333-.0025334-3.0374666-.2010667-3.0374666-2.9828v-7.6874664zm0-.9672h-.15626666v-10.78493305l.13493333-.01093334c.48226666-.0385333.95719998-.1358666 2.02239995-.1358666 3.20773326 0 5.2973332 2.0838666 5.3005332 5.2957332-.01 4.2057333-2.02559994 5.6349332-5.57919986 5.6359999zm1.72239996-.29999998c3.48639992-.0344 5.24426654-1.2437333 5.27866654-5.33599987-.02133333-3.0770666-1.93226662-4.98639988-4.99999988-4.99999987-.9505333 0-1.39946663.08813333-1.84946662.1324V222.975731h1.57079996m38.60533237 5.8921332l.06133333-.0692v-13.20519967c0-2.8906666-2.00133328-3.3135999-3.0586666-3.3135999h-.77199997v-1.0572c1.6559999 0 3.2706665.14 4.9306665.14 1.4479999 0 2.8813332-.14 4.3359999-.14v1.0572h-.5306667c-1.48 0-3.1346666.2813333-3.1346666 4.47346654v16.02653294c0 1.2349333.0346666 2.4666666.208 3.5598666h-1.3333333l-18.1386662-20.2223995v14.5162663c0 3.0666666.5946666 4.1181333 3.3066665 4.1181333h.6v1.0589333c-1.5133333 0-3.0306666-.1376-4.5439999-.1376-1.5906667 0-3.2079999.1376-4.7919999.1376v-1.0589333h.4893333c2.4319999 0 3.1759999-1.6557333 3.1759999-4.4650665v-14.8411997c0-1.9707999-1.6226666-3.1655999-3.2066666-3.1655999h-.4586667v-1.0572c1.3333333 0 2.7173332.14 4.0533332.14 1.0466666 0 2.0733333-.14 3.1319999-.14l15.6759996 17.6451995" fill="#231f20"/>
  <path d="M167.38932915 236.488264l-1.44666663-.04946665-17.87866622-19.92146617v14.1146663c.04133333 3.0682666.50533332 3.93493325 3.16133325 3.96826658h.74666665v1.3609333h-.15333333c-1.52266663 0-3.0346666-.1464-4.5439999-.1464-1.57199995 0-3.1999999.1464-4.78666653.1464h-.15733333v-1.3609333h.648c2.3266666-.00946667 2.9933333-1.50946663 3.016-4.32293323v-14.8318663c-.004-1.87759994-1.5399999-3.01186658-3.0466666-3.01186658h-.6173333v-1.3641333h.1573333c1.3453333 0 2.724.13693333 4.0533333.13693333 1.0346667 0 2.0546666-.13693333 3.2359999-.0916l15.485333 17.43439956v-12.955733c-.0093333-2.7974666-1.8853333-3.1442666-2.9093332-3.1598666h-.9293333v-1.3641333h.1533334c1.664 0 3.2879999.13693334 4.9346665.13693334 1.4346667 0 2.8773333-.13693333 4.3293333-.13693333h.156v1.3641333h-.68c-1.4533333.03426666-2.9506666.16506666-2.9853332 4.31973322v16.02653294c0 1.2333333.0306667 2.4546666.2106667 3.5349333l.0173334.1734667zm-1.3333333-.30679998h1.15466664c-.1546667-1.05359997-.1853334-2.22973328-.1853334-3.4015999v-16.02653295c.0026666-4.22813323 1.7839999-4.61973322 3.2919999-4.62919988h.3706666v-.7494667c-1.3866667.0104-2.7786666.1385333-4.1759999.1385333-1.6186666 0-3.1879999-.1281334-4.7813332-.1385334v.7494666h.6226666c1.0853333.0094666 3.2186666.4838666 3.2186666 3.4693332l-.0506667 13.316133-.064.0677333-.1106667.1161333-15.6719996-17.7187996c-1.048 0-2.0693333.1385333-3.1333333.1385333-1.3066667 0-2.6226666-.1281334-3.9026666-.1385334v.7494666h.3093333c1.6573333.0094666 3.3519999 1.2583999 3.3519999 3.3213332v14.8318663c0 2.8265333-.796 4.6265332-3.3213333 4.6358666l-.34-.0025333v.7478666c1.5213333-.0104 3.0906666-.1401334 4.6359998-.1401334 1.4773333 0 2.9413332.1297333 4.3973332.1401333v-.7453333h-.4466667c-2.772-.0025334-3.4626666-1.2129334-3.4706666-4.2811999v-14.904133zm-.70933332-7.31359982l.11466667-.10093333zm-.084-.0692v-.00933333l-.02533333-.02666666zm11.24799972 1.97599996c-.35466665 1.19319997-.77999998 2.11879994-.77999998 2.74373326 0 1.06039997 1.48399997 1.2349333 2.6426666 1.2349333h.39333333v1.0573333c-1.41466663-.07613332-2.85199993-.136-4.26933323-.136-1.26799997 0-2.52933327.05986668-3.80133324.136v-1.0573333h.21466666c1.3706666 0 2.5373332-.81199998 3.0599999-2.29213327l5.6359998-16.16253293c.46-1.30679997 1.0946666-3.0666666 1.3093333-4.37346656 1.1199999-.38546666 2.5346666-1.08546664 3.2013332-1.51306663.1093333-.0364.1746666-.0724.2813333-.0724.1066666 0 .172 0 .2493333.11093333.104.27866666.2066666.59586666.316.87719998l6.4839998 18.4254662c.4226666 1.22919998.8413333 2.53173328 1.2919999 3.59479992.4293333.98799997 1.1693333 1.40519996 2.3359999 1.40519996h.2106666v1.0573333c-1.5866666-.07613332-3.1759999-.136-4.8586665-.136-1.7266666 0-3.4933333.05986668-5.2893332.136v-1.0573333h.388c.8053333 0 2.1879999-.14013333 2.1879999-1.0213333 0-.45466666-.3186667-1.40679997-.712-2.53853328l-1.372-4.0843999h-7.9946665zm5.14266654-15.6051996h-.0733334l-3.2733333 9.96933307h6.5813331l-3.2346666-9.96933308" fill="#231f20"/>
  <path d="M195.27599512 235.96119736c-1.58266663-.06773333-3.1706666-.1464-4.84799988-.1464-1.72666662 0-3.4839999.07866667-5.2813332.1464l-.16266666.00826667v-1.37599997h.54266666c.81599997 0 2.0266666-.1828 2.02933327-.86146665.008-.4015999-.3079999-1.3666666-.6959999-2.4865332l-1.3413333-3.9853332h-7.7693331l-1.0959999 3.5598666c-.3546666 1.1973333-.7826666 2.1281333-.776 2.7015999.012.8598667 1.3266667 1.0718667 2.496 1.0718667h.5413334v1.376l-.16-.0082666c-1.4079999-.0677333-2.8453332-.1464-4.2546665-.1464-1.2573333 0-2.5306666.0786667-3.7919999.1464l-.164.0082667v-1.376h.3653333c1.3093333-.0026666 2.4026666-.7510666 2.912-2.1813332l5.6413332-16.1681329c.4546667-1.3042666 1.0946666-3.0557332 1.3986666-4.4641332 1.1053333-.3744 2.5226666-1.0853333 3.1986666-1.5103999.0986667-.0349333.196-.0801333.3373333-.0801333.0866667-.0053333.276.0170667.3906667.2014667.1.2890667.212.6052.3186667.8890667l6.4853332 18.4229329c.4146667 1.2333333.836 2.5343999 1.2973333 3.5786666.408.9385333 1.0546667 1.3093333 2.1866666 1.312h.356v1.376zm-9.98399975-.31306666c1.74266662-.06146667 3.45333324-.12973333 5.13599987-.12973333 1.6333333 0 3.16933325.06826666 4.69999988.12973333v-.73746665h-.052c-1.20799997.00773334-2.0386666-.46666665-2.4706666-1.50519996-.45866666-1.0641334-.88666665-2.3718667-1.30266664-3.6052l-6.48533317-18.4245329c-.1066666-.2812-.2066666-.5958667-.2986666-.8464-.0346666-.0348-.0266666-.0348-.0546666-.0348h-.0666666c-.0706666 0-.1133333.0213333-.204.0442666-.6773333.4399999-2.0893332 1.1342666-3.1373332 1.4093333-.2146666 1.3343999-.8493333 3.0942665-1.3066666 4.3999998l-5.6359998 16.1639996c-.536 1.5302666-1.7746666 2.4010666-3.2039999 2.3985332h-.0586666v.7374666c1.208-.0614667 2.4266666-.1297333 3.6493333-.1297333 1.3626667 0 2.752.0682666 4.0999999.1297333v-.7374667h-.2266666c-1.1506666-.0161334-2.7533332-.1412-2.7933332-1.3890667.0026667-.6989333.4346667-1.5999999.78-2.7911999l.1493334.0442667-.1493333-.0478667 1.16-3.7641333h8.2133332l1.4106666 4.1827999c.396 1.1333333.716 2.0718666.716 2.5865332-.052 1.0786666-1.5346666 1.1588-2.3333333 1.1786666h-.2346666zm-7.19999982-10.35733307l3.3719999-10.27759975h.18933334v.15626667l-.0373334.0104.0373333-.0104v-.15626667h.1053333l3.3479999 10.27759975zm.42133332-.30826666h6.1666665l-3.06533324-9.4385331zm2.9866666-9.7677331l.08133332-.02546666-.0813334.0254667m15.3346663-2.2307999c-2.6413333 0-2.748.6376-3.2786666 3.2053333h-1.0586667c.1386666-.9865333.3186666-1.9719999.428-2.9933332.1373333-.9905333.2053333-1.9733333.2053333-2.9921332h.8519999c.276 1.0573333 1.1586666 1.0188 2.1093333 1.0188h18.1786662c.9466666 0 1.8266666-.0344 1.8959999-1.0922666l.8426666.1442667c-.1306667.948-.2706667 1.9-.3813333 2.8532-.0773334.9509333-.0773334 1.8989333-.0773334 2.8494666l-1.052.3921333c-.0626667-1.3015999-.24-3.3854666-2.6053333-3.3854666h-5.7759998v18.7401329c0 2.7171999 1.2346666 3.0275999 2.9226666 3.0275999h.6733333v1.0589333c-1.376 0-3.8373333-.136-5.7439999-.136-2.1093333 0-4.5813332.136-5.9546665.136v-1.0589333h.6706666c1.9413333 0 2.9239999-.1729333 2.9239999-2.9546666V212.983998h-5.7746666" fill="#231f20"/>
  <path d="M210.71332807 235.96119736c-1.38399997 0-3.85333324-.1396-5.74666653-.1396-2.10399994 0-4.57066655.1396-5.95066652.1396h-.156v-1.3609333h.82533332c1.94266662-.04533333 2.72133327-.07093333 2.76799993-2.80319993l-.00266666-18.66253287h-5.6159998v-.30773333h5.9266665v18.9702662c0 2.82813326-1.1413333 3.10679992-3.0759999 3.11359992h-.5186666v.74946665c1.392-.012 3.7586666-.14173333 5.7999999-.14173333 1.8413333 0 4.1986666.12973333 5.5893332.14173333v-.74946665h-.5173333c-1.6973333-.0068-3.0693332-.41466665-3.0719999-3.18653325v-18.89733286h5.9266665c2.3666666.00933333 2.6746666 2.01719995 2.7426666 3.32813325l.7653333-.2818667c0-.9197333.0053334-1.8410666.0773334-2.7624.0946667-.9078667.228-1.8094667.356-2.7078666l-.532-.0937334c-.1613333 1.0254666-1.1559999 1.0827999-2.0319999 1.0666666h-18.3586662c-.8306666.0093333-1.7293333-.0385334-2.0493332-1.024h-.576c-.008.9750666-.0773333 1.9213333-.216 2.8603999-.096.9718666-.2653333 1.9037333-.4 2.8302666h.7573333c.4626667-2.4573333.768-3.2541333 3.4066666-3.2155999v.3077333c-2.6119999.0453333-2.5546666.4881333-3.1293332 3.0906666l-.0253333.1202666h-1.36l.0213334-.1749334c.148-.9906667.3213333-1.9797333.424-2.9948.144-.9849333.2093333-1.9625333.2093333-2.9718666v-.1557333h1.1186667l.0293333.1104c.2466667.888.888.8947999 1.7893333.9109333h18.3586662c.9746667-.0161334 1.6853333-.0297333 1.748-.9478667l.0053333-.1698667.164.0322666.9999999.1573333-.024.1557333c-.1453333.9458666-.2786666 1.8937332-.3853333 2.8374666-.072.9442666-.072 1.8922666-.072 2.8427999v.1066666l-.1026666.0412-1.2466666.4562666-.0053333-.20413335c-.092-1.32559995-.232-3.2427999-2.4586666-3.2427999h-5.6239998V231.72413c.036 2.65573324 1.0906667 2.8427999 2.7693333 2.8761332h.8213333v1.3609333h-.1466666m7.5999998-1.2094666h.4933334c1.2693333 0 2.6026666-.17293333 2.6026666-2.0062666V214.291864c0-1.83586664-1.3333333-2.0104-2.6026666-2.0104h-.4933333v-1.0588c1.3746667 0 3.4839999.14 5.2079999.14 1.7653333 0 3.8799999-.14 5.5386665-.14v1.0588h-.4946666c-1.2733333 0-2.6119999.17453333-2.6119999 2.01039995v18.4535995c0 1.8333333 1.3386667 2.0062666 2.612 2.0062666h.4946667v1.0589333c-1.6919999 0-3.8079999-.136-5.5666665-.136-1.7293333 0-3.8053332.136-5.17999982.136v-1.0589333" fill="#231f20"/>
  <path d="M229.05999427 235.96119736c-1.70266662 0-3.80933323-.1464-5.56666652-.1464-1.72399996 0-3.8039999.1464-5.17999987.1464h-.15066667v-1.3609333h.6453334c1.2693333-.02146667 2.44-.13333333 2.448-1.85479995v-18.4535995c-.008-1.7213333-1.1786666-1.8358666-2.4479999-1.8582666h-.6453333v-1.3641333h.1506667c1.376 0 3.4946666.1369333 5.2079999.1369333 1.756 0 3.8693332-.1369333 5.5386665-.1369333h.1466667v1.3641333h-.64c-1.2893333.0224-2.4479999.1369334-2.4599999 1.8582666v18.4535996c.012 1.7214667 1.1706667 1.8333333 2.46 1.8548h.64v1.3609333zm-.16-.30373333v-.74679998h-.33333332c-1.26399997 0-2.7586666-.22133333-2.7586666-2.16519994v-18.4535995c0-1.9478666 1.49466663-2.1650666 2.7586666-2.1677332h.33333333v-.7494666c-1.62399996.0104-3.6639999.1385334-5.37866653.1385334-1.67199996 0-3.6879999-.1281333-5.05466655-.1385333v.7494667h.34133333c1.25066664.0026667 2.75199993.2198667 2.75599993 2.1677333v18.4535996c-.004 1.9438667-1.5053333 2.1652-2.75599993 2.1652h-.34133333v.7468c1.3573333-.0161333 3.34933325-.1390666 5.02666655-.1390666 1.70799995 0 3.74533324.1297333 5.40666653.1390667m14.20533298-24.9629327c7.50933314 0 13.49466632 4.6546666 13.49466632 12.1571997 0 8.1031998-5.81333318 13.4879997-13.313333 13.4879997-7.47066648 0-13.17466633-5.0727999-13.17466633-12.6478664 0-7.3223998 5.6693332-12.997333 12.993333-12.997333m.532 24.0947994c6.83599982 0 8.0279998-6.0281332 8.0279998-11.1641331 0-5.1478665-2.77599994-11.379733-8.62666646-11.379733-6.1626666 0-7.9959998 5.4958665-7.9959998 10.2119998 0 6.3037332 2.8906665 12.3318664 8.5946664 12.3318664" fill="#231f20"/>
  <path d="M229.95466092 223.69186433c.01466666-7.40786648 5.7493332-13.138533 13.149333-13.150533v.30786666c-7.24133315 0-12.84266634 5.5973331-12.85066634 12.8426663.01466666 7.4895998 5.63599986 12.486933 13.03466634 12.4895997 7.4239998-.0026667 13.153333-5.3109332 13.16266634-13.334933-.00666667-7.4093332-5.8973332-11.9905331-13.34666634-11.9973331v-.3078667c7.56266648.0078666 13.633333 4.7078665 13.64666633 12.3051997-.008 8.1870664-5.89066652 13.628133-13.46266633 13.641733-7.53466648-.0136-13.31866634-5.1375999-13.333333-12.7963997m4.9333332-1.2344c.01066667-4.7401332 1.85999996-10.3691998 8.14933314-10.3691998 5.98133318.0129333 8.77066644 6.3609331 8.78266644 11.536933-.012 5.1359999-1.21999997 11.3083997-8.18133312 11.3083997v-.2990667c6.69733316-.0052 7.86133313-5.8733332 7.8719998-11.0093331 0-5.1025332-2.74799993-11.2171997-8.47333312-11.2265331-6.04266652.0068-7.8279998 5.3666665-7.8439998 10.0587997.00266666 6.2745332 2.8666666 12.167733 8.44533312 12.1770663v.2990666c-5.84666652-.0057333-8.7399998-6.1349332-8.75066645-12.476133m45.44799887 6.4103999l.07333332-.0692v-13.2051996c0-2.8906666-2.0146666-3.3135999-3.0706666-3.3135999h-.76666663v-1.0572c1.6506666 0 3.2746665.14 4.9253332.14 1.4479999 0 2.8919999-.14 4.3373332-.14v1.0572h-.5293333c-1.476 0-3.1386666.2813333-3.1386666 4.4734665v16.026533c0 1.2349333.0373333 2.4666666.216 3.5598666h-1.34L262.89866 216.1173312v14.5162663c0 3.0666666.6013333 4.1181332 3.3079999 4.1181332h.604v1.0589333c-1.51599997 0-3.02799993-.1376-4.54266656-.1376-1.5866666 0-3.2079999.1376-4.7933332.1376v-1.0589333h.49466664c2.4346666 0 3.16933327-1.6557333 3.16933327-4.46506658V215.4454645c0-1.97079994-1.6146666-3.1655999-3.2079999-3.1655999h-.456v-1.05719998c1.33866664 0 2.7106666.14 4.0519999.14 1.05466665 0 2.0706666-.14 3.13199993-.14l15.677333 17.64519958" fill="#231f20"/>
  <path d="M282.38399294 236.488264l-1.4573333-.04946665-17.87599955-19.92146617v14.1162663c.0413333 3.0666666.5066666 3.92906658 3.1519999 3.95986658h.7586666v1.3677333h-.1493334c-1.5253333 0-3.0373333-.1412-4.5439999-.1412-1.5786666 0-3.1999999.1412-4.7973332.1412h-.144v-1.3677333h.6413333c2.3213332-.0068 2.9906666-1.50266663 3.0186666-4.3083999v-14.83959962c-.0013334-1.87759995-1.5413333-3.0118666-3.0546666-3.0118666h-.6053334v-1.3641333h.144c1.3506666 0 2.7239999.13693334 4.0546666.13693334 1.0453333 0 2.0573332-.13693333 3.2519999-.08226667l15.4773329 17.4250663v-12.955733c-.012-2.7974666-1.888-3.1374666-2.916-3.1598666h-.928v-1.3641333h.1613333c1.6546666 0 3.2799999.1369334 4.9213332.1369334 1.4413333 0 2.8786666-.1369333 4.3426665-.1369333h.148v1.3641333h-.68c-1.452.0369334-2.9506666.1702667-2.9799999 4.3197332v16.026533c0 1.2333333.028 2.4630666.1986666 3.5349333l.0306667.1734667zm-1.3413333-.30679998h1.15466664c-.14933333-1.05986664-.184-2.22973328-.184-3.4015999v-16.02653295c0-4.23493322 1.77866663-4.61973322 3.2906666-4.62919988h.3813333v-.7494667c-1.39866662.0104-2.78399992.1385333-4.19199988.1385333-1.60399996 0-3.1786666-.1281334-4.77333322-.1385334v.7494666h.61866665c1.08799998.0094666 3.2146666.4906666 3.2146666 3.4693332l-.03733334 13.316133-.068.0677333-.112.1161333-15.6759997-17.7187996c-1.0426667 0-2.068.1385333-3.1346666.1385333-1.2986667 0-2.6213333-.1281334-3.9026666-.1385334v.7494666h.3093333c1.6559999.0094666 3.3573332 1.2583999 3.3573332 3.3213332v14.8395997c0 2.8187999-.7866667 4.6187999-3.3213333 4.6281332l-.3453333-.0025333v.7478666c1.5293333-.0104 3.0973332-.1401334 4.6453332-.1401334 1.4693333 0 2.9293332.1297333 4.3893332.1401333v-.7453333h-.4546666c-2.764-.0025334-3.4573333-1.2129334-3.4573333-4.2795999v-14.910933zm-.70666665-7.31359982l.112-.10093333zm-.0813334-.0692v-.00933333l-.028-.02666666zm11.2386664 1.97599996c-.3453334 1.19319997-.7706667 2.11879994-.7706667 2.74373326 0 1.06039997 1.4839999 1.2349333 2.6386666 1.2349333h.3933333v1.0573333c-1.4106666-.07613332-2.8559999-.136-4.2666666-.136-1.268 0-2.5346666.05986668-3.7973333.136v-1.0573333h.2c1.3813333 0 2.5479999-.81199998 3.0626666-2.29213327l5.6479998-16.16253293c.4546666-1.30679997 1.0919999-3.0666666 1.2946666-4.37346656 1.1319999-.38546666 2.5373332-1.08546664 3.2159999-1.51306663.0986667-.0364.1693333-.0724.2786666-.0724.1026667 0 .1693333 0 .2413333.11093333.1066667.27866666.212.59586666.3186667.87719998l6.4813332 18.4254662c.42 1.22919998.8453333 2.53173328 1.3053333 3.59479992.4226666.98799997 1.1613333 1.40519996 2.3226666 1.40519996h.2173333v1.0573333c-1.588-.07613332-3.1746666-.136-4.8666666-.136-1.7226666 0-3.4866666.05986668-5.2853332.136v-1.0573333h.3906666c.8053333 0 2.1866666-.14013333 2.1866666-1.0213333 0-.45466666-.316-1.40679997-.7093333-2.53853328l-1.3733333-4.0843999h-7.9946664zm5.1506665-15.6051996h-.0706667l-3.2839999 9.96933307h6.5973331l-3.2426666-9.96933308" fill="#231f20"/>
  <path d="M310.26132558 235.96119736c-1.58799996-.06253333-3.16933326-.1412-4.84933322-.1412-1.71866662 0-3.4839999.07866667-5.27866653.1412l-.156.00826667v-1.36919997h.536c.81866664 0 2.03199994-.1896 2.03333327-.86826665.00933334-.4015999-.30933332-1.3625332-.7053333-2.4865332l-1.33599998-3.9853332h-7.7759998l-1.08799998 3.5598666c-.35466666 1.2068-.77066665 2.1281333-.76666665 2.6983999 0 .8630667 1.3213333 1.0818667 2.4853332 1.0818667h.5386666v1.3692l-.1586667-.0082666c-1.4066667-.0625333-2.8493333-.1412-4.2519999-.1412-1.2626667 0-2.5266666.0786667-3.7973333.1412l-.1533333.0082667v-1.3692h.3533333c1.3133333-.0068 2.4119999-.7589333 2.9279999-2.1881332l5.6333332-16.1681329c.452-1.3042666 1.088-3.0557332 1.3973333-4.4589332 1.1066666-.3838666 2.5213333-1.0905333 3.2066666-1.5155999.0906667-.0349333.1893333-.0776.3333333-.0776.0906666-.0078667.276.0145333.384.2068.1066666.2770666.2106666.5973333.3253333.8812l6.4773332 18.4229329c.4239999 1.2333333.8439999 2.5344 1.3013333 3.5854666.4146666.9317333 1.0519999 1.3025333 2.1786666 1.312h.364v1.3692zm-9.9853331-.31053333c1.74266664-.064 3.45599993-.13226666 5.13599988-.13226666 1.6373333 0 3.16933326.06826666 4.70666655.12973333l-.004-.73746665h-.0586666c-1.1933333.00253334-2.0239999-.46666665-2.4639999-1.50519996-.464-1.0641334-.8826666-2.3718667-1.3053333-3.6016l-6.4813331-18.4281329c-.104-.2812-.216-.5958667-.2986666-.8396-.0293333-.0416-.0266666-.0416-.048-.0416h-.0693333c-.076 0-.1146666.0238666-.1986666.0478666-.6893333.4306666-2.0986666 1.1374666-3.1386666 1.4057333-.2186666 1.3343999-.8586666 3.0915999-1.3119999 4.3999998l-5.6413332 16.1639996c-.536 1.5302666-1.7666666 2.4010666-3.2079999 2.3985332h-.052v.7374666c1.2133333-.0614667 2.4239999-.1297333 3.6493332-.1297333 1.364 0 2.7573333.0682666 4.1106666.1297333v-.7374667h-.2386666c-1.1453333-.0161334-2.7506666-.1376-2.7959999-1.3922667.0093334-.6957333.4426667-1.5942666.788-2.7879999l.1413334.0442667-.1413334-.0478667 1.1586667-3.7641333h8.2106665l1.4146667 4.1827999c.388 1.1333333.7093333 2.0718666.7093333 2.5865332-.0506666 1.0786666-1.5319999 1.1588-2.3319999 1.1786666h-.2373333zm-7.19733314-10.36133307l3.38266658-10.27613308h.18266666v.15626667l-.04.0104.04-.0104v-.15626667h.10666667l3.33066658 10.27613308zm.42533332-.3068h6.1626665l-3.0639999-9.4333331zm2.99333326-9.76773308l.06933333-.02546667-.06933333.0254667m22.65199943 17.1411996c0 1.4161333.97866665 1.8333333 2.1093333 1.9801333 1.44133328.1052 3.0279999.1052 4.6533332-.0749333 1.4773333-.1772 2.74533327-1.0171999 3.37733325-1.9051999.56-.7734666.8773333-1.7599999 1.0933333-2.5333332h1.01866665c-.388 2.0077333-.87999998 3.9827999-1.30266664 5.9879999-3.0933332 0-6.2026665-.136-9.2973331-.136-3.1026665 0-6.1999998.136-9.2986664.136v-1.0589333h.488c1.2706666 0 2.6493333-.1729333 2.6493333-2.3571999v-18.1026662c0-1.8358666-1.3786666-2.0119999-2.6493332-2.0119999h-.488v-1.0572c1.864 0 3.6986666.14 5.5626666.14 1.8 0 3.5573333-.14 5.3586666-.14v1.0572h-.8853333c-1.3386666 0-2.3893333.0374667-2.3893333 1.9041333v18.1719996" fill="#231f20"/>
  <path d="M330.09999175 235.96119736c-3.1066666 0-6.20933318-.1412-9.29866644-.1412-3.0986665 0-6.1986665.1412-9.3053331.1412h-.1479999v-1.3609333h.6426667c1.2733333-.0308 2.4826666-.1204 2.4973333-2.20573328v-18.1094662c-.0146666-1.7145333-1.2186666-1.82906663-2.4973332-1.85146663h-.6426666v-1.3641333h.148c1.876 0 3.7093333.13693333 5.5666665.13693333 1.7933333 0 3.5479999-.13693333 5.3613332-.13693333h.1413334v1.3641333h-1.0266666c-1.3666666.03426666-2.2146666-.0272-2.2453333 1.75039995v18.17199955c.0093334 1.31706663.872 1.66919996 1.9733333 1.8265333.62.04266665 1.276.0656 1.9533333.0656.8613333 0 1.756-.04013335 2.6666666-.136 1.4346667-.1708 2.6693333-1 3.2786666-1.83999997.544-.7537333.8506667-1.71879995 1.064-2.4854666l.0293333-.11613333h1.328l-.0306666.18546666c-.3986666 2.0134667-.884 3.9785333-1.3106666 5.9863999l-.028.1188zm-.12933333-.30373333c.408-1.91346662.86799998-3.7843999 1.2493333-5.68439985h-.72666665c-.216.76666664-.53066665 1.71199995-1.08266664 2.4786666-.65866665.91199998-1.96266662 1.77346662-3.49066658 1.96306662-.9213333.0932-1.8373333.1412-2.69999993.1412-.68266665 0-1.3413333-.0308-1.98266662-.07613334-1.1453333-.12493333-2.25333327-.61719998-2.25199994-2.1238666V214.1839979c0-1.95879995 1.23866663-2.0598666 2.55333327-2.0598666h.7253333v-.74946666c-1.7346666.0104-3.4479999.14266666-5.2013332.14266666-1.81999994 0-3.60533323-.13226666-5.40799985-.14266666v.74946665h.336c1.25599996 0 2.79333325.2198666 2.79333325 2.1609332v18.1094662c0 2.2801333-1.53066663 2.5161333-2.79333326 2.5161333h-.336v.7468c3.0426666-.0068 6.08799985-.1390667 9.14666644-.1390667 3.0626666 0 6.1199999.1322666 9.1693332.1390666m1.0013333-25.4333327c2.1253333 0 3.7106666 1.6318666 3.7106666 3.7171999 0 2.0838666-1.5853333 3.6983999-3.7106665 3.6983999-2.1199999 0-3.7079999-1.6145333-3.7079999-3.6983999 0-2.0853333 1.588-3.7171999 3.7079999-3.7171999m0 6.7265331c1.664 0 2.9346666-1.4145333 2.9346666-3.0093333 0-1.5973333-1.256-3.0229333-2.9346666-3.0229333-1.6693333 0-2.9386666 1.4255999-2.9386666 3.0229332 0 1.5948 1.2693333 3.0093333 2.9386666 3.0093333m-1.8439999-1.0536v-.1797333c.4533334-.0656.5386667-.0536.5386667-.3306667v-2.7494666c0-.3865333-.0386666-.5198667-.524-.4984v-.1896h1.8986667c.652 0 1.2533333.312 1.2533333.9869333 0 .5505333-.3626667.9598666-.8773333 1.1188l.6106666.8505333c.284.3838666.608.7462666.816.8744v.1172h-.7213333c-.3466666 0-.6533333-.7276-1.3333333-1.7052h-.4106666v1.2297333c0 .2421333.0853334.2301333.5413334.2957333v.1797333zm1.2506667-1.9557333h.4373334c.4786667 0 .7-.3614667.7-.9468 0-.5890667-.3413333-.7985333-.7239999-.7985333h-.4133333v1.7453333" fill="#231f20"/>
  <path d="M110.96359723 86.86666775c0-32.94799917 26.70973266-59.65733184 59.6563985-59.65733184 32.94799918 0 59.65733185 26.7093327 59.65733185 59.6573319s-26.70933267 59.6585319-59.65733185 59.6585319c-32.94666584 0-59.6563985-26.7105326-59.6563985-59.6585318" fill="#fff"/>
  <path d="M206.6986615 85.69200112c-.024-15.27733296-9.5733331-28.30666596-23.02933276-33.46666583v66.9306649c13.45599967-5.1666666 23.00533276-18.1839996 23.02933276-33.4639992zm-48.69866545 33.45066583v-66.910665c-13.44399966 5.17599987-22.9786661 18.1866662-23.0146661 33.45999917.036 15.2679996 9.57066644 28.27866596 23.0146661 33.45066583zm12.841333-90.02266442c-31.24266587.012-56.5549319 25.3293327-56.5601319 56.5719986.0052 31.23866587 25.31746603 56.55199857 56.5601319 56.55719857 31.2426659-.0052 56.5599986-25.3185327 56.5679986-56.55719858-.008-31.2426659-25.3253327-56.5599986-56.5679986-56.5719986zm-.13866665 118.4682637c-34.18799915.1624-62.3266651-27.53493264-62.3266651-61.2509318 0-36.84799908 28.13866595-62.3346651 62.3266651-62.32799844h16.02133293c33.78399916-.0066667 64.61733172 25.4679993 64.61733172 62.3279984 0 33.7039991-30.83333256 61.2509318-64.61733172 61.2509318H170.7026624" fill="#214e8d"/>
</svg>
