<?xml version="1.0" encoding="UTF-8" standalone="no"?><svg width="152px" height="104px" viewBox="0 0 152 104" version="1.1" xmlns="http://www.w3.org/2000/svg" xmlns:xlink="http://www.w3.org/1999/xlink" xmlns:sketch="http://www.bohemiancoding.com/sketch/ns"> <defs> <rect id="path-1" x="0" y="0" width="152" height="104" rx="12"></rect> </defs> <g id="Page-1" stroke="none" stroke-width="1" fill="none" fill-rule="evenodd" sketch:type="MSPage"> <g id="Artboard-1-Copy-16" sketch:type="MSArtboardGroup"> <g id="Rectangle-9-Copy-12-+-Rectangle-10-Copy-7-+-Group-Copy-20-Mask" sketch:type="MSLayerGroup"> <mask id="mask-2" sketch:name="Mask" fill="white"> <use xlink:href="#path-1"></use> </mask> <use id="Mask" fill="#F4F4F4" sketch:type="MSShapeGroup" xlink:href="#path-1"></use> <rect id="Rectangle-9-Copy-12" fill="#F4F4F4" sketch:type="MSShapeGroup" mask="url(#mask-2)" x="1" y="0" width="152" height="104" rx="12"></rect> <path d="M70.5527067,104 L149.001204,104 C151.209678,104 153,102.216967 153,99.9931006 L153,46.5968454 C142.304685,71.9076889 111.279764,93.0406516 70.5527067,104 Z" id="Rectangle-10-Copy-7" fill="#F76E20" sketch:type="MSShapeGroup" mask="url(#mask-2)"></path> <g id="Group-Copy-20" mask="url(#mask-2)" sketch:type="MSShapeGroup"> <g transform="translate(19.000000, 42.000000)"> <path d="M14.7631481,9.21973333 C14.7631481,12.1589333 13.9387593,14.4088 12.2928741,15.9722667 C10.6412037,17.5328 8.25770741,18.316 5.14238519,18.316 L0.155555556,18.316 L0.155555556,0.466666667 L5.68040741,0.466666667 C8.55564444,0.466666667 10.7858333,1.23813333 12.3709741,2.7752 C13.9676852,4.31226667 14.7631481,6.4624 14.7631481,9.21973333 L14.7631481,9.21973333 Z M10.8870741,9.31946667 C10.8870741,5.4856 9.21515556,3.57013333 5.88288889,3.57013333 L3.89278519,3.57013333 L3.89278519,15.1890667 L5.49528148,15.1890667 C9.09077407,15.192 10.8870741,13.2325333 10.8870741,9.31946667 L10.8870741,9.31946667 Z" id="Shape-Copy-76" fill="#414042"></path> <path d="M17.5111111,18.316 L17.5111111,0.466666667 L21.2425556,0.466666667 L21.2425556,18.316 L17.5111111,18.316 L17.5111111,18.316 Z" id="Shape-Copy-77" fill="#414042"></path> <path d="M34.7741037,13.608 C34.7741037,15.2242667 34.204263,16.4885333 33.0559037,17.4184 C31.910437,18.3453333 30.3224037,18.8146667 28.2831259,18.8146667 C26.4087259,18.8146667 24.7425926,18.4538667 23.2962963,17.7410667 L23.2962963,14.224 C24.4851519,14.7666667 25.4917741,15.1392 26.3132704,15.3650667 C27.1347667,15.5821333 27.8897333,15.6906667 28.5723852,15.6906667 C29.3880963,15.6906667 30.0186815,15.5293333 30.455463,15.2154667 C30.8835667,14.9016 31.1120815,14.4234667 31.1120815,13.8016 C31.1120815,13.4525333 31.0166259,13.1416 30.8199296,12.8688 C30.6319111,12.5930667 30.3455444,12.3290667 29.9695074,12.0797333 C29.596363,11.8304 28.8356111,11.4226667 27.6901444,10.8712 C26.6169926,10.3578667 25.8128519,9.86213333 25.2690444,9.3928 C24.7281296,8.92346667 24.3029185,8.37493333 23.9818407,7.74426667 C23.660763,7.1136 23.5016704,6.38026667 23.5016704,5.54426667 C23.5016704,3.96613333 24.0281222,2.72533333 25.0839185,1.82186667 C26.1426074,0.915466667 27.5975815,0.466666667 29.4633037,0.466666667 C30.377363,0.466666667 31.2509259,0.5752 32.0811,0.7952 C32.9112741,1.01226667 33.7819444,1.32613333 34.6873259,1.72213333 L33.4840074,4.66426667 C32.5439148,4.27413333 31.7629148,3.99546667 31.1496852,3.84586667 C30.533563,3.69333333 29.9290111,3.61413333 29.3389222,3.61413333 C28.630237,3.61413333 28.0864296,3.7784 27.7132852,4.11573333 C27.3343556,4.45013333 27.146337,4.88426667 27.146337,5.42106667 C27.146337,5.75546667 27.2215444,6.04293333 27.3748519,6.2952 C27.5281593,6.54453333 27.771137,6.78213333 28.1037852,7.01386667 C28.4364333,7.2456 29.2290037,7.66213333 30.4699259,8.2664 C32.1129185,9.06426667 33.2410296,9.86506667 33.8542593,10.6658667 C34.4674889,11.4608 34.7741037,12.4434667 34.7741037,13.608 L34.7741037,13.608 Z" id="Shape-Copy-78" fill="#414042"></path> <path d="M46.0176111,3.62 C44.6118111,3.62 43.5270889,4.15973333 42.7547667,5.22453333 C41.9795519,6.2952 41.6006222,7.7912 41.6006222,9.7008 C41.6006222,13.6784 43.0729519,15.6701333 46.0176111,15.6701333 C47.2556407,15.6701333 48.7453259,15.3650667 50.5098074,14.7314667 L50.5098074,17.9053333 C49.0635111,18.5184 47.4494444,18.8205333 45.6676074,18.8205333 C43.107663,18.8205333 41.1493778,18.0285333 39.7927519,16.4533333 C38.4361259,14.8810667 37.7592593,12.6194667 37.7592593,9.67146667 C37.7592593,7.81466667 38.0948,6.1896 38.7629889,4.79626667 C39.4253926,3.39413333 40.3857333,2.32933333 41.6324407,1.58426667 C42.8849333,0.8392 44.3456926,0.466666667 46.0233963,0.466666667 C47.7329185,0.466666667 49.4540111,0.886133333 51.1751037,1.72506667 L49.9717852,4.80213333 C49.3093815,4.48533333 48.652763,4.2096 47.9816815,3.972 C47.3134926,3.7344 46.6597667,3.62 46.0176111,3.62 L46.0176111,3.62 Z" id="Shape-Copy-79" fill="#414042"></path> <path d="M81.8279074,0.466666667 L85.5969556,0.466666667 L79.6179667,18.316 L75.5480889,18.316 L69.5777778,0.466666667 L73.3497185,0.466666667 L76.661737,11.0882667 C76.8439704,11.7189333 77.0406667,12.4434667 77.2344704,13.2824 C77.4253815,14.1184 77.549763,14.6904 77.6018296,15.0189333 C77.6886074,14.2709333 77.989437,12.9685333 78.5043185,11.0882667 L81.8279074,0.466666667 L81.8279074,0.466666667 Z" id="Shape-Copy-80" fill="#414042"></path> <path d="M97.0718704,18.316 L86.9333333,18.316 L86.9333333,0.466666667 L97.0718704,0.466666667 L97.0718704,3.57013333 L90.6647778,3.57013333 L90.6647778,7.48906667 L96.6293037,7.48906667 L96.6293037,10.5896 L90.6647778,10.5896 L90.6647778,15.1890667 L97.0718704,15.1890667 L97.0718704,18.316 L97.0718704,18.316 Z" id="Shape-Copy-81" fill="#414042"></path> <path d="M105.127741,11.4666667 L105.127741,18.316 L101.396296,18.316 L101.396296,0.466666667 L106.524863,0.466666667 C108.917037,0.466666667 110.684411,0.906666667 111.835663,1.79253333 C112.98113,2.67546667 113.556756,4.01306667 113.556756,5.81413333 C113.556756,6.86133333 113.270389,7.8 112.703441,8.61546667 C112.1336,9.43386667 111.326567,10.0762667 110.285233,10.5397333 C112.931956,14.5466667 114.655941,17.1426667 115.460081,18.3130667 L111.317889,18.3130667 L107.114952,11.4637333 L105.127741,11.4666667 L105.127741,11.4666667 Z M105.127741,8.3896 L106.333952,8.3896 C107.511237,8.3896 108.3848,8.19013333 108.945963,7.79413333 C109.504233,7.39226667 109.787707,6.76453333 109.787707,5.91093333 C109.787707,5.0632 109.498448,4.4648 108.925715,4.104 C108.352981,3.7432 107.464956,3.5672 106.261637,3.5672 L105.121956,3.5672 L105.127741,8.3896 L105.127741,8.3896 Z" id="Shape-Copy-82" fill="#414042"></path> <ellipse id="Oval-Copy-3" fill="#F76E20" cx="61.0243815" cy="9.3928" rx="8.80215926" ry="8.92613333"></ellipse> </g> </g> </g> </g> </g></svg>
