<svg width="43" height="28" viewBox="0 0 43 28" xmlns="http://www.w3.org/2000/svg" xmlns:xlink="http://www.w3.org/1999/xlink"><title>4F1246A9-351F-40C5-B483-F4564A009508</title><defs><linearGradient x1="100%" y1="0%" y2="100%" id="c"><stop stop-color="#FFF" offset="0%"/><stop stop-color="#EDEFF3" offset="100%"/></linearGradient><rect id="a" width="42.102" height="28" rx="2"/><mask id="b" x="0" y="0" width="42.102" height="28" fill="#fff"><use xlink:href="#a"/></mask></defs><g fill="none" fill-rule="evenodd"><use stroke="#D1D7E0" mask="url(#b)" fill="url(#c)" xlink:href="#a"/><path d="M8.034 12.47c-.15.977-.898.977-1.622.977h-.411l.289-1.825a.227.227 0 0 1 .224-.19h.19c.492 0 .957 0 1.197.279.143.167.187.416.133.759m-.315-2.55c.913 0 1.6.24 1.989.696.353.414.47 1.005.348 1.757-.271 1.72-1.309 2.588-3.107 2.588h-.863a.379.379 0 0 0-.374.319l-.298 1.883a.38.38 0 0 1-.375.32H3.736a.227.227 0 0 1-.225-.263l1.104-6.98a.38.38 0 0 1 .375-.32h2.729zm8.157 2.518c.14 0 .246.125.224.263l-.706 4.462a.379.379 0 0 1-.375.32h-1.176a.227.227 0 0 1-.225-.263l.058-.362s-.645.746-1.81.746c-.677 0-1.246-.195-1.645-.663-.434-.51-.611-1.24-.486-2.003.24-1.53 1.473-2.622 2.917-2.622.63 0 1.26.137 1.544.546l.09.132.058-.364a.227.227 0 0 1 .225-.192h1.307zm-1.822 2.538c.058-.36-.021-.688-.221-.922-.2-.232-.5-.355-.871-.355-.745 0-1.347.516-1.465 1.254-.061.362.012.688.205.916.195.23.499.352.877.352.757 0 1.349-.5 1.475-1.245zm8.782-2.538c.184 0 .291.206.187.357l-4.368 6.29a.38.38 0 0 1-.312.162H17.03a.227.227 0 0 1-.186-.358l1.36-1.915-1.446-4.235c-.05-.148.06-.3.215-.3h1.291a.38.38 0 0 1 .364.27l.768 2.558 1.812-2.663a.378.378 0 0 1 .313-.166h1.314z" fill="#003087"/><path d="M27.184 9.92c.913 0 1.6.24 1.989.696.353.414.47 1.005.348 1.757-.271 1.72-1.309 2.588-3.106 2.588h-.864a.379.379 0 0 0-.374.319l-.314 1.98a.265.265 0 0 1-.262.223h-1.4a.227.227 0 0 1-.225-.263l1.104-6.98a.379.379 0 0 1 .375-.32h2.729zm.315 2.55c.054-.343.01-.592-.133-.76-.24-.279-.705-.279-1.198-.279h-.189a.227.227 0 0 0-.224.191l-.29 1.825h.413c.723 0 1.472 0 1.62-.977zm7.842-.032c.14 0 .246.125.225.263l-.707 4.462a.379.379 0 0 1-.375.32h-1.176a.227.227 0 0 1-.225-.263l.058-.362s-.645.746-1.809.746c-.678 0-1.247-.195-1.646-.663-.434-.51-.611-1.24-.486-2.003.24-1.53 1.473-2.622 2.917-2.622.63 0 1.26.137 1.543.546l.092.132.057-.364a.227.227 0 0 1 .225-.192h1.307zm-1.821 2.538c.057-.36-.022-.688-.222-.922-.199-.232-.5-.355-.871-.355-.745 0-1.347.516-1.465 1.254-.061.362.011.688.205.916.195.23.499.352.877.352.757 0 1.35-.5 1.476-1.245zm3.361-4.864a.227.227 0 0 1 .225-.192h1.26c.14 0 .247.125.225.262l-1.104 6.981a.379.379 0 0 1-.375.32h-1.126a.227.227 0 0 1-.225-.262l1.12-7.11z" fill="#009CDE"/></g></svg>