<?xml version="1.0"?>
<svg xmlns="http://www.w3.org/2000/svg" xmlns:xlink="http://www.w3.org/1999/xlink" version="1.1" id="Capa_1" x="0px" y="0px" viewBox="0 0 512.018 512.018" style="enable-background:new 0 0 512.018 512.018;" xml:space="preserve" width="512px" height="512px" class=""><g><g>
	<path d="M234.036,293.815c4.721,5.77,12.878,9.214,21.821,9.214c8.943,0,17.101-3.444,21.821-9.214   c2.624-3.206,2.151-7.931-1.055-10.554c-3.205-2.623-7.931-2.151-10.554,1.055c-1.513,1.848-5.257,3.713-10.213,3.713   c-4.956,0-8.7-1.865-10.212-3.712c-2.624-3.206-7.348-3.679-10.554-1.056S231.413,290.61,234.036,293.815z" data-original="#000000" class="active-path" data-old_color="#C32E2E" fill="#337AB7"/>
	<path d="M511.096,175.28c-2.036-6.266-7.088-10.869-13.516-12.314l-62.132-13.972L402.96,94.22   c-3.361-5.666-9.3-9.049-15.888-9.049s-12.527,3.383-15.888,9.049l-32.488,54.773l-27.396,6.161l-35.05-59.094   c-4.281-7.218-11.848-11.527-20.24-11.527c-8.392,0-15.958,4.31-20.24,11.527l-35.05,59.094l-27.396-6.161L140.834,94.22   c-3.361-5.666-9.3-9.049-15.888-9.049c-6.588,0-12.527,3.383-15.888,9.049L76.57,148.993l-62.132,13.972   c-6.428,1.445-11.48,6.049-13.516,12.314s-0.654,12.959,3.696,17.907l42.054,47.824L40.76,304.42   c-0.611,6.56,2.206,12.788,7.536,16.66c3.232,2.349,7.003,3.55,10.82,3.55c2.476,0,4.972-0.506,7.352-1.532l58.322-25.149   l20.427,9.745l-8.768,94.046c-0.779,8.356,2.81,16.29,9.599,21.223c6.789,4.933,15.444,5.894,23.15,2.571l86.812-37.435   l86.812,37.435c3.032,1.307,6.211,1.952,9.366,1.952c4.862,0,9.667-1.531,13.784-4.522c6.79-4.933,10.378-12.866,9.599-21.223   l-8.768-94.046l20.427-9.745l58.321,25.148c2.381,1.027,4.876,1.533,7.353,1.533c3.816,0,7.588-1.202,10.82-3.55   c5.33-3.872,8.147-10.1,7.536-16.66l-5.912-63.409l42.054-47.824C511.75,188.24,513.132,181.546,511.096,175.28z M121.976,282.826   l-61.449,26.498c-1.579,0.681-2.818,0.055-3.416-0.379c-0.598-0.434-1.576-1.418-1.417-3.132l6.212-66.629   c0.191-2.055-0.473-4.099-1.835-5.649l-44.189-50.253c-1.137-1.292-0.923-2.664-0.695-3.366c0.228-0.703,0.862-1.938,2.541-2.315   l65.287-14.682c2.014-0.453,3.752-1.716,4.805-3.491l34.138-57.555c0.878-1.48,2.248-1.701,2.987-1.701s2.109,0.221,2.987,1.701   l34.138,57.555c1.053,1.775,2.792,3.038,4.805,3.491l25.796,5.801l-5.132,8.653l-92.236,20.742   c-8.188,1.841-14.625,7.706-17.218,15.687c-2.594,7.981-0.833,16.509,4.708,22.812l40.31,45.84   C122.722,282.55,122.344,282.668,121.976,282.826z M183.348,403.095v-13.844c0-6.725,3.994-12.782,10.175-15.432l17.894-7.668   c7.816,6.144,17.434,10.538,27.906,12.807L183.348,403.095z M227.729,358.959c7.203-4.172,11.731-11.874,11.731-20.344v-8.492   c5.229,1.634,10.788,2.515,16.548,2.515c5.761,0,11.319-0.881,16.548-2.515v8.492c0,8.471,4.53,16.174,11.735,20.346   c-8.17,4.37-17.993,6.774-28.284,6.774C245.726,365.736,235.902,363.329,227.729,358.959z M328.67,403.095l-55.975-24.137   c10.474-2.268,20.089-6.661,27.906-12.807l17.894,7.669c6.181,2.649,10.175,8.707,10.175,15.448V403.095z M496.135,183.282   l-44.189,50.253c-1.363,1.55-2.027,3.594-1.835,5.649l6.212,66.629c0.16,1.713-0.819,2.698-1.417,3.132   c-0.598,0.435-1.836,1.061-3.417,0.379l-61.448-26.497c-0.367-0.158-0.746-0.275-1.128-0.372l40.31-45.84   c5.542-6.302,7.302-14.83,4.708-22.812c-2.593-7.981-9.03-13.846-17.218-15.687l-54.844-12.333   c-4.045-0.911-8.054,1.631-8.963,5.672s1.631,8.054,5.672,8.963l54.844,12.333c4.279,0.962,5.792,4.298,6.243,5.688   c0.451,1.39,1.189,4.978-1.708,8.271l-64.564,73.424c-1.363,1.55-2.027,3.594-1.835,5.649l9.076,97.352   c0.407,4.367-2.298,6.836-3.48,7.695c-1.183,0.857-4.366,2.667-8.394,0.932l-5.09-2.195v-20.312   c0-12.733-7.563-24.203-19.267-29.219l-31.675-13.575c-3.142-1.346-5.171-4.425-5.171-7.843v-15.83   c14.515-10.042,24.048-26.796,24.048-45.743v-80.161c0-4.142-3.358-7.5-7.5-7.5h-56.113c-11.869,0-22.223,6.59-27.608,16.301   c-11.293,1.721-19.973,11.497-19.973,23.263v15.395c0,4.142,3.358,7.5,7.5,7.5s7.5-3.358,7.5-7.5v-15.395   c0-1.881,0.619-3.616,1.655-5.028c1.155,2.654,3.798,4.512,6.878,4.512c4.142,0,7.5-3.358,7.5-7.5   c0-9.125,7.423-16.548,16.548-16.548h48.613v17.064h-40.597c-4.142,0-7.5,3.358-7.5,7.5s3.358,7.5,7.5,7.5h40.597v40.597   c0,22.385-18.211,40.597-40.597,40.597s-40.597-18.211-40.597-40.597c0-4.142-3.358-7.5-7.5-7.5s-7.5,3.358-7.5,7.5   c0,18.947,9.533,35.702,24.048,45.743v15.83c0,3.418-2.03,6.497-5.171,7.843l-31.676,13.575   c-11.704,5.016-19.266,16.485-19.266,29.235v20.296l-5.09,2.195c-4.026,1.738-7.212-0.073-8.394-0.932   c-1.182-0.859-3.888-3.328-3.48-7.695l9.076-97.352c0.191-2.055-0.473-4.099-1.835-5.649L94.06,226.708   c-2.896-3.293-2.159-6.881-1.708-8.271c0.452-1.39,1.964-4.726,6.243-5.688l95.391-21.451c2.014-0.453,3.752-1.716,4.805-3.491   l49.879-84.094c2.237-3.772,5.877-4.18,7.338-4.18c1.461,0,5.101,0.407,7.338,4.18l49.879,84.094   c1.053,1.775,2.792,3.038,4.805,3.491l8.476,1.906c4.041,0.907,8.054-1.631,8.963-5.672c0.909-4.042-1.631-8.054-5.672-8.963   l-5.32-1.196l-5.132-8.653l25.796-5.801c2.014-0.453,3.752-1.716,4.805-3.491l34.138-57.555c0.878-1.48,2.248-1.701,2.987-1.701   s2.109,0.221,2.987,1.701l34.138,57.555c1.053,1.775,2.792,3.038,4.805,3.491l65.287,14.682c1.679,0.377,2.313,1.612,2.541,2.315   C497.059,180.618,497.272,181.989,496.135,183.282z" data-original="#000000" class="active-path" data-old_color="#C32E2E" fill="#337AB7"/>
	<circle cx="231.988" cy="260.985" r="7.5" data-original="#000000" class="active-path" data-old_color="#C32E2E" fill="#337AB7"/>
	<circle cx="280.072" cy="260.985" r="7.5" data-original="#000000" class="active-path" data-old_color="#C32E2E" fill="#337AB7"/>
</g></g> </svg>
