<svg width="223" height="40" viewBox="0 0 223 40" fill="none" xmlns="http://www.w3.org/2000/svg">
<path d="M47.2549 26.0897C47.2549 21.7538 43.7686 18.2676 39.4328 18.209H23.6421V33.9997L39.4328 33.9704C41.6007 33.9704 43.5343 33.0915 44.9405 31.656C46.3467 30.2205 47.2549 28.2869 47.2549 26.0897Z" fill="#6C87F0"/>
<path d="M0 26.0897C0 21.7538 3.48626 18.2676 7.82212 18.209H23.6128V33.9997L7.85142 33.9704C5.68349 33.9704 3.74993 33.0915 2.34371 31.656C0.908186 30.2205 0 28.2869 0 26.0897Z" fill="#FC58AF"/>
<path d="M9.08176 19.4397L14.6481 25.006L23.642 34L34.7746 22.8674L32.3137 20.4065L25.7514 13.8734L20.1851 8.30709C17.109 5.23097 12.1286 5.23097 9.05246 8.30709C6.00564 11.3832 6.00564 16.3636 9.08176 19.4397Z" fill="#0066FF"/>
<path d="M38.1732 19.4397L32.6069 25.006L23.613 34L12.4804 22.8674L14.9413 20.4065L21.445 13.9027L27.0113 8.33638C30.0875 5.26027 35.0678 5.26027 38.144 8.33638C41.2494 11.3832 41.2494 16.3636 38.1732 19.4397Z" fill="#42CFFC"/>
<path d="M111.38 9.13851C111.063 8.99551 110.721 8.91764 110.375 8.90936C110.029 8.90109 109.684 8.96256 109.361 9.09027C109.038 9.21798 108.743 9.40943 108.492 9.65366C108.241 9.8979 108.04 10.1901 107.9 10.5137L103.024 19.1599L98.1487 10.5137C97.8642 9.86312 97.3387 9.35412 96.6874 9.09815C96.036 8.84218 95.3117 8.86009 94.6733 9.14797C94.0348 9.43585 93.5341 9.97024 93.2808 10.6341C93.0276 11.298 93.0423 12.0373 93.3219 12.69L103.024 29.036L112.727 12.69C112.867 12.3665 112.943 12.018 112.951 11.6645C112.96 11.3109 112.899 10.9592 112.774 10.6294C112.649 10.2996 112.461 9.99819 112.222 9.74238C111.983 9.48658 111.697 9.28138 111.38 9.13851Z" fill="#3E3E3E"/>
<path d="M170.141 8.77065C164.569 8.77065 160.036 13.2616 160.036 18.7816C160.036 24.3016 164.569 28.7925 170.141 28.7925C175.713 28.7925 180.247 24.3017 180.247 18.7816C180.247 13.2615 175.713 8.77065 170.141 8.77065ZM170.141 23.4067C167.474 23.4067 165.313 21.3359 165.313 18.7816C165.313 16.2272 167.474 14.1566 170.141 14.1566C172.808 14.1566 174.97 16.2273 174.97 18.7816C174.97 21.3359 172.808 23.4067 170.141 23.4067Z" fill="#3E3E3E"/>
<path d="M217.474 0.529504V10.4539C215.827 9.38668 213.916 8.82117 211.964 8.82377C206.392 8.82377 201.859 13.3147 201.859 18.8347C201.859 24.3548 206.392 28.8457 211.964 28.8457C213.999 28.8494 215.989 28.2352 217.681 27.0812C217.918 27.6539 218.341 28.1255 218.879 28.4159C219.418 28.7063 220.038 28.7977 220.635 28.6745C221.232 28.5513 221.769 28.2212 222.155 27.7401C222.54 27.259 222.751 26.6565 222.751 26.0349V0.529504H217.474ZM211.964 23.4598C209.298 23.4598 207.136 21.3891 207.136 18.8347C207.136 16.2804 209.298 14.2095 211.964 14.2095C214.631 14.2095 216.793 16.2802 216.793 18.8345C216.793 21.3889 214.631 23.4598 211.964 23.4598Z" fill="#3E3E3E"/>
<path d="M155.778 0.529504C155.431 0.529497 155.088 0.599149 154.768 0.734483C154.448 0.869816 154.157 1.06818 153.912 1.31825C153.667 1.56832 153.473 1.86519 153.34 2.19193C153.207 2.51866 153.139 2.86885 153.139 3.2225V28.7279H158.416V3.22255C158.416 2.86889 158.348 2.5187 158.215 2.19197C158.083 1.86524 157.888 1.56836 157.643 1.31828C157.398 1.06821 157.107 0.86984 156.787 0.734501C156.467 0.599162 156.124 0.529504 155.778 0.529504Z" fill="#3E3E3E"/>
<path d="M89.0536 0.000105143C88.3117 0.00474207 87.6015 0.307652 87.0769 0.843171C86.5523 1.37869 86.2556 2.10366 86.2512 2.86093C86.2437 3.24723 86.3155 3.63085 86.462 3.98713C86.6085 4.3434 86.8264 4.66445 87.1017 4.92962C87.3632 5.1997 87.6751 5.41347 88.019 5.55827C88.3629 5.70307 88.7317 5.77595 89.1037 5.7726C89.4722 5.77733 89.8377 5.70497 90.1777 5.55999C90.5177 5.41501 90.8251 5.20048 91.0807 4.92962C91.3495 4.66065 91.5615 4.33834 91.7035 3.98255C91.8456 3.62676 91.9147 3.24504 91.9066 2.86093C91.9104 2.48261 91.8366 2.10768 91.69 1.76017C91.5435 1.41267 91.3274 1.10026 91.0556 0.842988C90.7941 0.573005 90.4821 0.359304 90.1383 0.214527C89.7944 0.0697495 89.4256 -0.00316215 89.0536 0.000105143Z" fill="#3E3E3E"/>
<path d="M89.079 8.90763C88.7325 8.90762 88.3894 8.97727 88.0693 9.1126C87.7492 9.24793 87.4584 9.44629 87.2134 9.69635C86.9684 9.94642 86.774 10.2433 86.6414 10.57C86.5088 10.8967 86.4406 11.2469 86.4406 11.6006V17.3576C86.4406 17.4355 86.4567 17.5088 86.4631 17.5852H86.4406V28.7279H91.7174V17.5849H91.695C91.7013 17.5088 91.7174 17.4355 91.7174 17.3573V11.6006C91.7175 11.2469 91.6492 10.8967 91.5166 10.57C91.384 10.2433 91.1897 9.94641 90.9447 9.69635C90.6997 9.44629 90.4088 9.24792 90.0887 9.1126C89.7686 8.97727 89.4255 8.90762 89.079 8.90763Z" fill="#3E3E3E"/>
<path d="M143.924 14.1566C144.688 14.1483 145.444 14.3182 146.133 14.6533C146.823 14.9884 147.429 15.48 147.904 16.0904L152.052 12.7604C151.084 11.5075 149.849 10.4967 148.44 9.80517C147.032 9.11367 145.487 8.75976 143.924 8.77046C138.288 8.77046 133.702 13.3148 133.702 18.9012C133.702 24.4875 138.288 29.0319 143.924 29.0319C146.397 29.0365 148.789 28.1409 150.673 26.5061C151.205 26.0421 151.534 25.3815 151.589 24.6695C151.644 23.9575 151.419 23.2524 150.964 22.7095C150.51 22.1666 149.862 21.8302 149.165 21.7743C148.467 21.7185 147.777 21.9478 147.245 22.4117C146.317 23.2133 145.14 23.6509 143.924 23.646C141.197 23.646 138.978 21.5176 138.978 18.9012C138.978 16.2847 141.197 14.1566 143.924 14.1566Z" fill="#3E3E3E"/>
<path d="M195.04 20.0931C195.065 20.5629 194.993 21.0328 194.831 21.473C194.668 21.9133 194.418 22.3144 194.096 22.651C193.466 23.2755 192.493 23.5878 191.177 23.5879C189.832 23.5879 188.844 23.2681 188.215 22.6284C187.896 22.2913 187.647 21.8909 187.485 21.452C187.322 21.0131 187.25 20.5449 187.271 20.0762V9.14059H181.994V20.0762C181.97 21.2555 182.179 22.4278 182.608 23.5227C183.038 24.6177 183.68 25.6128 184.496 26.4486C186.141 28.1225 188.391 28.9739 191.177 28.9739C193.908 28.9739 196.127 28.1464 197.773 26.5144C198.606 25.6794 199.261 24.6785 199.699 23.5738C200.137 22.4691 200.347 21.2844 200.317 20.0932V9.14059H195.04V20.0931Z" fill="#3E3E3E"/>
<path d="M81.3569 9.20684C80.8961 9.20788 80.4438 9.33258 80.0452 9.56842C79.6466 9.80426 79.3158 10.1429 79.0859 10.5505C77.5026 9.59328 75.6961 9.08851 73.8559 9.08912C68.2839 9.08912 63.751 13.58 63.751 19.1C63.751 24.6201 68.2841 29.111 73.8559 29.111C75.5522 29.1136 77.2228 28.6875 78.7186 27.871V29.6507C78.7192 30.7876 78.3372 31.8902 77.6365 32.7739C76.9358 33.6577 75.9589 34.2689 74.8694 34.5054C73.7799 34.7418 72.6439 34.5891 71.6515 34.0728C70.6592 33.5564 69.8707 32.7079 69.4181 31.6691L65.5706 35.5963C66.7788 37.3568 68.495 38.6889 70.48 39.4068C72.465 40.1247 74.6199 40.1927 76.6446 39.6015C78.6693 39.0102 80.4629 37.7891 81.7755 36.1082C83.088 34.4273 83.8542 32.3703 83.9673 30.224H83.9957V11.8998C83.9958 11.5461 83.9275 11.1959 83.7949 10.8691C83.6623 10.5424 83.4679 10.2455 83.2228 9.9954C82.9778 9.74533 82.6869 9.54698 82.3667 9.41167C82.0465 9.27637 81.7034 9.20677 81.3569 9.20684ZM73.8559 23.7251C71.1893 23.7251 69.0276 21.6544 69.0276 19.1C69.0276 16.5457 71.1893 14.475 73.8559 14.475C76.5225 14.475 78.6843 16.5457 78.6843 19.1C78.6843 21.6544 76.5226 23.7251 73.8559 23.7251Z" fill="#3E3E3E"/>
<path d="M132.436 19.0634C132.436 18.7148 132.418 18.3689 132.386 18.0259C132.376 17.9169 132.355 17.8118 132.341 17.7039C132.312 17.4728 132.285 17.2412 132.241 17.0133C132.214 16.868 132.173 16.7281 132.14 16.5851C132.097 16.4007 132.059 16.2151 132.006 16.0331C131.954 15.8558 131.889 15.6853 131.829 15.5122C131.782 15.376 131.743 15.2373 131.688 15.1035C130.989 13.2575 129.765 11.6675 128.172 10.5387C126.58 9.40987 124.692 8.79401 122.754 8.77055C117.419 8.77055 113.078 13.3825 113.072 19.0635C113.085 21.0633 113.696 23.0114 114.823 24.6472C115.38 25.4432 116.041 26.1583 116.786 26.7726C117.535 27.3703 118.359 27.8635 119.235 28.2393C120.989 28.9698 122.905 29.2001 124.777 28.9053C126.652 28.6066 128.409 27.7791 129.848 26.5161C130.326 26.0955 130.622 25.4986 130.67 24.8563C130.718 24.2139 130.514 23.5782 130.104 23.0884C129.694 22.5986 129.111 22.2945 128.482 22.2427C127.853 22.191 127.229 22.3957 126.747 22.8121C125.978 23.464 125.045 23.8842 124.055 24.0253C123.062 24.1634 122.051 24.0265 121.128 23.629C120.679 23.4248 120.258 23.1635 119.874 22.8514C119.505 22.5327 119.178 22.1672 118.9 21.7637C118.749 21.528 118.618 21.2796 118.508 21.021L123.92 20.958C126.264 20.9307 128.608 20.9035 130.951 20.8762C131.735 20.8662 132.436 20.8428 132.436 19.8296V19.0634ZM118.354 16.556C118.717 15.6894 119.319 14.9486 120.085 14.4231C120.852 13.8977 121.751 13.6101 122.675 13.5951C123.598 13.5801 124.506 13.8383 125.289 14.3386C126.071 14.8388 126.696 15.5597 127.086 16.4141L127.304 16.8458L118.148 16.9953L118.354 16.556Z" fill="#3E3E3E"/>
</svg>
